M48
; DRILL file {KiCad 8.0.8} date 2025-03-06T21:47:25+0100
; FORMAT={-:-/ absolute / inch / decimal}
; #@! TF.CreationDate,2025-03-06T21:47:25+01:00
; #@! TF.GenerationSoftware,Kicad,Pcbnew,8.0.8
; #@! TF.FileFunction,Plated,1,2,PTH
FMAT,2
INCH
; #@! TA.AperFunction,Plated,PTH,ViaDrill
T1C0.0118
; #@! TA.AperFunction,Plated,PTH,ComponentDrill
T2C0.0197
; #@! TA.AperFunction,Plated,PTH,ComponentDrill
T3C0.0394
%
G90
G05
T1
X-1.0425Y0.2559
X-1.0425Y0.2165
X-1.0039Y-0.1102
X-0.9882Y0.2362
X-0.9882Y-0.2776
X-0.9724Y0.0787
X-0.9339Y0.2559
X-0.9339Y0.2165
X-0.9291Y0.0669
X-0.9291Y-0.0669
X-0.9094Y-0.1969
X-0.9075Y-0.2382
X-0.8858Y-0.2618
X-0.8307Y-0.1969
X-0.815Y0.2598
X-0.8031Y0.3815
X-0.8031Y0.2992
X-0.8031Y-0.2992
X-0.8031Y-0.3819
X-0.8031Y-0.4724
X-0.7756Y0.4567
X-0.7638Y0.0669
X-0.7638Y-0.0669
X-0.752Y0.4921
X-0.752Y0.128
X-0.7421Y0.6299
X-0.7402Y-0.2323
X-0.7323Y-0.1929
X-0.7165Y0.4429
X-0.7165Y0.4154
X-0.7165Y0.3878
X-0.7165Y0.3602
X-0.7165Y0.3327
X-0.7165Y-0.3327
X-0.7165Y-0.3602
X-0.7165Y-0.3878
X-0.7165Y-0.4154
X-0.6969Y-0.4685
X-0.6929Y0.2756
X-0.685Y-0.0433
X-0.6772Y0.2283
X-0.6772Y-0.1181
X-0.6634Y-0.6083
X-0.6575Y0.1142
X-0.6535Y-0.2343
X-0.6398Y0.6319
X-0.6386Y-0.4882
X-0.6083Y-0.1811
X-0.5984Y0.2283
X-0.5969Y0.2544
X-0.5787Y-0.2598
X-0.5784Y0.2083
X-0.5472Y-0.1496
X-0.5433Y0.4154
X-0.5433Y0.3878
X-0.5433Y0.3602
X-0.5433Y0.3327
X-0.5433Y-0.3327
X-0.5433Y-0.3602
X-0.5433Y-0.3878
X-0.5433Y-0.4154
X-0.5433Y-0.4429
X-0.5413Y-0.6949
X-0.5354Y0.7047
X-0.5315Y0.5551
X-0.5315Y0.5039
X-0.5118Y-0.2244
X-0.5059Y0.1319
X-0.5059Y-0.1319
X-0.5039Y0.4567
X-0.4567Y0.3819
X-0.4567Y0.2992
X-0.4567Y-0.2988
X-0.4567Y-0.3819
X-0.4547Y0.4823
X-0.4409Y-0.5
X-0.4213Y0.2638
X-0.4213Y0.0591
X-0.4134Y-0.0669
X-0.4016Y-0.2598
X-0.3858Y0.0142
X-0.3858Y-0.6024
X-0.3839Y0.6319
X-0.3701Y0.5551
X-0.3701Y0.5
X-0.3543Y0.2638
X-0.3268Y-0.5512
X-0.3268Y-0.752
X-0.3228Y0.815
X-0.315Y-0.1732
X-0.3031Y0.2677
X-0.2884Y-0.2047
X-0.2874Y-0.5394
X-0.2756Y0.8937
X-0.2756Y-0.7913
X-0.2756Y-0.8937
X-0.2677Y0.3189
X-0.2677Y0.2165
X-0.2638Y0.1732
X-0.249Y0.5768
X-0.248Y-0.3386
X-0.2244Y-0.7638
X-0.2205Y0.1732
X-0.2175Y-0.5846
X-0.2087Y0.7638
X-0.1811Y0.811
X-0.1732Y-0.811
X-0.1457Y-0.7638
X-0.1368Y0.5846
X-0.1339Y-0.1732
X-0.1299Y0.7638
X-0.1063Y0.3386
X-0.1053Y-0.5768
X-0.0906Y-0.1732
X-0.0866Y-0.2165
X-0.0866Y-0.3189
X-0.0787Y0.8937
X-0.0787Y0.7913
X-0.0787Y-0.8937
X-0.0669Y0.5394
X-0.0659Y0.2047
X-0.0512Y-0.2677
X-0.0394Y0.1732
X-0.0315Y-0.815
X-0.0276Y0.752
X-0.0276Y0.5512
X-0.0197Y0.8937
X-0.0197Y-0.8937
X-0.0118Y-0.5512
X-0.0118Y-0.752
X-0.0079Y0.815
X0.0Y-0.1732
X0.0118Y0.2677
X0.0266Y-0.2047
X0.0276Y-0.5394
X0.0394Y0.8937
X0.0394Y-0.7913
X0.0394Y-0.8937
X0.0472Y0.3189
X0.0472Y0.2165
X0.0512Y0.1732
X0.0659Y0.5768
X0.0669Y-0.3386
X0.0906Y-0.7638
X0.0945Y0.1732
X0.0974Y-0.5846
X0.1063Y0.7638
X0.1339Y0.811
X0.1417Y-0.811
X0.1693Y-0.7638
X0.1781Y0.5846
X0.1811Y-0.1732
X0.185Y0.7638
X0.2087Y0.3386
X0.2096Y-0.5768
X0.2244Y-0.1732
X0.2283Y-0.2165
X0.2283Y-0.3189
X0.2362Y0.8937
X0.2362Y0.7913
X0.2362Y-0.8937
X0.248Y0.5394
X0.249Y0.2047
X0.2638Y-0.2677
X0.2756Y0.1732
X0.2835Y-0.815
X0.2874Y0.752
X0.2874Y0.5512
X0.2953Y0.8937
X0.2953Y-0.8937
X0.3031Y-0.5512
X0.3031Y-0.752
X0.3071Y0.815
X0.315Y-0.1732
X0.3268Y0.2677
X0.3415Y-0.2047
X0.3425Y-0.5394
X0.3543Y0.8937
X0.3543Y-0.7913
X0.3543Y-0.8937
X0.3622Y0.3189
X0.3622Y0.2165
X0.3661Y0.1732
X0.3809Y0.5768
X0.3819Y-0.3386
X0.4055Y-0.7638
X0.4094Y0.1732
X0.4124Y-0.5846
X0.4213Y0.7638
X0.4488Y0.811
X0.4567Y-0.811
X0.4843Y-0.7638
X0.4931Y0.5846
X0.4961Y-0.1732
X0.5Y0.7638
X0.5236Y0.3386
X0.5246Y-0.5768
X0.5394Y-0.1732
X0.5433Y-0.2165
X0.5433Y-0.3189
X0.5512Y0.8937
X0.5512Y0.7913
X0.5512Y-0.8937
X0.563Y0.5394
X0.564Y0.2047
X0.5787Y-0.2677
X0.5906Y0.1732
X0.5984Y-0.815
X0.6024Y0.752
X0.6024Y0.5512
X0.6102Y0.8937
X0.6102Y-0.8937
X0.6181Y-0.5512
X0.6181Y-0.752
X0.622Y0.815
X0.6299Y-0.1732
X0.6417Y0.2677
X0.6565Y-0.2047
X0.6575Y-0.5394
X0.6693Y0.8937
X0.6693Y-0.7913
X0.6693Y-0.8937
X0.6772Y0.3189
X0.6772Y0.2165
X0.6811Y0.1732
X0.6959Y0.5768
X0.6969Y-0.3386
X0.7205Y-0.7638
X0.7244Y0.1732
X0.7274Y-0.5846
X0.7362Y0.7638
X0.7638Y0.811
X0.7717Y-0.811
X0.7992Y-0.7638
X0.8081Y0.5846
X0.811Y-0.1732
X0.815Y0.7638
X0.8386Y0.3386
X0.8396Y-0.5768
X0.8543Y-0.1732
X0.8583Y-0.2165
X0.8583Y-0.3189
X0.8661Y0.8937
X0.8661Y0.7913
X0.8661Y-0.8937
X0.878Y0.5394
X0.8789Y0.2047
X0.8937Y-0.2677
X0.9055Y0.1732
X0.9134Y-0.815
X0.9173Y0.752
X0.9173Y0.5512
X0.9252Y0.8937
X0.9252Y-0.8937
T2
X-1.1102Y-0.6388
X-1.1102Y-0.6888
X-1.1102Y-0.7388
X-1.1102Y-0.7888
X-1.1102Y-0.8388
X-1.1102Y-0.8888
T3
X1.1024Y0.4
X1.1024Y0.3
X1.1024Y0.2
X1.1024Y0.1
X1.1024Y0.0
X1.1024Y-0.1
X1.1024Y-0.2
X1.1024Y-0.3
X1.1024Y-0.4
M30
