G04 #@! TF.GenerationSoftware,KiCad,Pcbnew,8.0.8*
G04 #@! TF.CreationDate,2025-03-06T21:47:19+01:00*
G04 #@! TF.ProjectId,8-Cell Balancer,382d4365-6c6c-4204-9261-6c616e636572,rev?*
G04 #@! TF.SameCoordinates,Original*
G04 #@! TF.FileFunction,Copper,L2,Bot*
G04 #@! TF.FilePolarity,Positive*
%FSLAX46Y46*%
G04 Gerber Fmt 4.6, Leading zero omitted, Abs format (unit mm)*
G04 Created by KiCad (PCBNEW 8.0.8) date 2025-03-06 21:47:19*
%MOMM*%
%LPD*%
G01*
G04 APERTURE LIST*
%ADD10C,0.127000*%
G04 #@! TA.AperFunction,NonConductor*
%ADD11C,0.127000*%
G04 #@! TD*
G04 #@! TA.AperFunction,ComponentPad*
%ADD12R,1.700000X1.700000*%
G04 #@! TD*
G04 #@! TA.AperFunction,ComponentPad*
%ADD13O,1.700000X1.700000*%
G04 #@! TD*
G04 #@! TA.AperFunction,ComponentPad*
%ADD14R,1.500000X0.910000*%
G04 #@! TD*
G04 #@! TA.AperFunction,ComponentPad*
%ADD15O,1.500000X0.910000*%
G04 #@! TD*
G04 #@! TA.AperFunction,ViaPad*
%ADD16C,0.500000*%
G04 #@! TD*
G04 #@! TA.AperFunction,Conductor*
%ADD17C,0.127000*%
G04 #@! TD*
G04 #@! TA.AperFunction,Conductor*
%ADD18C,0.350000*%
G04 #@! TD*
G04 #@! TA.AperFunction,Conductor*
%ADD19C,1.000000*%
G04 #@! TD*
G04 #@! TA.AperFunction,Conductor*
%ADD20C,0.600000*%
G04 #@! TD*
G04 #@! TA.AperFunction,Conductor*
%ADD21C,0.700000*%
G04 #@! TD*
G04 #@! TA.AperFunction,Conductor*
%ADD22C,0.800000*%
G04 #@! TD*
G04 #@! TA.AperFunction,Conductor*
%ADD23C,0.900000*%
G04 #@! TD*
G04 APERTURE END LIST*
D10*
D11*
X-8562311Y-423333D02*
X-8586501Y-350761D01*
X-8586501Y-350761D02*
X-8610692Y-326571D01*
X-8610692Y-326571D02*
X-8659073Y-302380D01*
X-8659073Y-302380D02*
X-8731644Y-302380D01*
X-8731644Y-302380D02*
X-8780025Y-326571D01*
X-8780025Y-326571D02*
X-8804216Y-350761D01*
X-8804216Y-350761D02*
X-8828406Y-399142D01*
X-8828406Y-399142D02*
X-8828406Y-592666D01*
X-8828406Y-592666D02*
X-8320406Y-592666D01*
X-8320406Y-592666D02*
X-8320406Y-423333D01*
X-8320406Y-423333D02*
X-8344596Y-374952D01*
X-8344596Y-374952D02*
X-8368787Y-350761D01*
X-8368787Y-350761D02*
X-8417168Y-326571D01*
X-8417168Y-326571D02*
X-8465549Y-326571D01*
X-8465549Y-326571D02*
X-8513930Y-350761D01*
X-8513930Y-350761D02*
X-8538120Y-374952D01*
X-8538120Y-374952D02*
X-8562311Y-423333D01*
X-8562311Y-423333D02*
X-8562311Y-592666D01*
X-8320406Y12095D02*
X-8320406Y108857D01*
X-8320406Y108857D02*
X-8344596Y157238D01*
X-8344596Y157238D02*
X-8392977Y205619D01*
X-8392977Y205619D02*
X-8489739Y229809D01*
X-8489739Y229809D02*
X-8659073Y229809D01*
X-8659073Y229809D02*
X-8755835Y205619D01*
X-8755835Y205619D02*
X-8804216Y157238D01*
X-8804216Y157238D02*
X-8828406Y108857D01*
X-8828406Y108857D02*
X-8828406Y12095D01*
X-8828406Y12095D02*
X-8804216Y-36285D01*
X-8804216Y-36285D02*
X-8755835Y-84666D01*
X-8755835Y-84666D02*
X-8659073Y-108857D01*
X-8659073Y-108857D02*
X-8489739Y-108857D01*
X-8489739Y-108857D02*
X-8392977Y-84666D01*
X-8392977Y-84666D02*
X-8344596Y-36285D01*
X-8344596Y-36285D02*
X-8320406Y12095D01*
X-8320406Y374951D02*
X-8320406Y665237D01*
X-8828406Y520094D02*
X-8320406Y520094D01*
D12*
X28000000Y-10160000D03*
D13*
X28000000Y-7620000D03*
X28000000Y-5080000D03*
X28000000Y-2540000D03*
X28000000Y0D03*
X28000000Y2540000D03*
X28000000Y5080000D03*
X28000000Y7620000D03*
X28000000Y10160000D03*
D14*
X-28200000Y-16225000D03*
D15*
X-28200000Y-17495000D03*
X-28200000Y-18765000D03*
X-28200000Y-20035000D03*
X-28200000Y-21305000D03*
X-28200000Y-22575000D03*
D16*
X-16700000Y2900000D03*
X-13750000Y-17650000D03*
X-16250000Y16050000D03*
X-9400000Y14100000D03*
X-20400000Y-12000000D03*
X-23600000Y-1700000D03*
X21800000Y-5500000D03*
X-20400000Y-7600000D03*
X-12800000Y11600000D03*
X-9750000Y16050000D03*
X-11600000Y9700000D03*
X-23720000Y6500000D03*
X-10200000Y-6600000D03*
X-23720000Y5500000D03*
X-10500000Y-1700000D03*
X23500000Y22700000D03*
X15500000Y-22700000D03*
X-19400000Y1700000D03*
X-10700000Y1500000D03*
X20300000Y-19400000D03*
X-11600000Y-9700000D03*
X-17200000Y5800000D03*
X-16850000Y-15450000D03*
X-13500000Y14100000D03*
X-20400000Y-9700000D03*
X21700000Y-4400000D03*
X-23050000Y-6050000D03*
X21800000Y-8100000D03*
X-14700000Y-6600000D03*
X-20400000Y7600000D03*
X-12850000Y3350000D03*
X-19400000Y-1700000D03*
X17000000Y-20100000D03*
X-20400000Y9690000D03*
X-500000Y-22700000D03*
X-17700000Y-11900000D03*
X22700000Y-6800000D03*
X-25100000Y-7050000D03*
X-9800000Y-15300000D03*
X-12850000Y-3350000D03*
X-13600000Y17900000D03*
X21325000Y-14650000D03*
X7500000Y22700000D03*
X23500000Y-22700000D03*
X-500000Y22700000D03*
X-9000000Y6700000D03*
X23200000Y-20700000D03*
X-19700000Y11600000D03*
X7500000Y-22700000D03*
X-11200000Y-12700000D03*
X-18800000Y-5900000D03*
X-10700000Y6700000D03*
X-23600000Y1700000D03*
X-11600000Y7600000D03*
X-26480000Y6500000D03*
X-13500000Y12800000D03*
X-26480000Y5500000D03*
X-9400000Y12700000D03*
X15500000Y22700000D03*
X-18850000Y16000000D03*
X-11600000Y-7590000D03*
X15700000Y-14000000D03*
X15700000Y-19100000D03*
X7700000Y-14000000D03*
X7700000Y-19100000D03*
X-300000Y-14000000D03*
X-300000Y-19100000D03*
X-8300000Y-14000000D03*
X-8300000Y-19100000D03*
X-700000Y19100000D03*
X-700000Y14000000D03*
X7300000Y19100000D03*
X7300000Y14000000D03*
X15300000Y14000000D03*
X15300000Y19100000D03*
X23300000Y19100000D03*
X23300000Y14000000D03*
X-25100000Y6000000D03*
X-16220000Y-12400000D03*
X-11550000Y12250000D03*
X-9800000Y360000D03*
X-19100000Y12500000D03*
X-20700000Y6600000D03*
X-19100000Y3250000D03*
X-6800000Y5500000D03*
X-5700000Y-19400000D03*
X-7700000Y6800000D03*
X-5525000Y-14850000D03*
X-8000000Y-4400000D03*
X-2000000Y20100000D03*
X-3400000Y-4400000D03*
X-7300000Y-13700000D03*
X-6300000Y-8600000D03*
X-6700000Y4400000D03*
X-6800000Y8100000D03*
X-7325000Y-5200000D03*
X-8200000Y20700000D03*
X-5300000Y19400000D03*
X-6325000Y14650000D03*
X-4400000Y-20600000D03*
X-21100000Y-5000000D03*
X-13000000Y-5700000D03*
X-23100000Y-5000000D03*
X-22500000Y-6650000D03*
X-24700000Y2000000D03*
X-25500000Y-2800000D03*
X-2000000Y-22700000D03*
X-18200000Y-10550000D03*
X-18200000Y-9850000D03*
X6000000Y-22700000D03*
X14000000Y-22700000D03*
X-18200000Y-9150000D03*
X22000000Y-22700000D03*
X-18200000Y-8450000D03*
X-14691101Y5291101D03*
X-18600000Y-4900000D03*
X-15200000Y5800000D03*
X-17200000Y-3000000D03*
X-15161127Y6461127D03*
X-15450000Y-4600000D03*
X-17600000Y7000000D03*
X-13900000Y-3800000D03*
X-13800000Y-8450000D03*
X17000000Y-22700000D03*
X9000000Y-22700000D03*
X-13800000Y-9150000D03*
X-13800000Y-9850000D03*
X-16600000Y-5950000D03*
X-13800000Y-10550000D03*
X1000000Y-22700000D03*
X-7000000Y-22700000D03*
X-13800000Y-11250000D03*
X-13800000Y10550000D03*
X22000000Y22700000D03*
X14000000Y22700000D03*
X-13800000Y9850000D03*
X6000000Y22700000D03*
X-13800000Y9150000D03*
X-13800000Y8450000D03*
X-2000000Y22700000D03*
X-7000000Y22700000D03*
X-18200000Y8450000D03*
X-18200000Y9150000D03*
X1000000Y22700000D03*
X-17400000Y-1100000D03*
X-18200000Y9850000D03*
X9000000Y22700000D03*
X-18200000Y10550000D03*
X-18200000Y11250000D03*
X17000000Y22700000D03*
X22325000Y5200000D03*
X22300000Y13700000D03*
X20700000Y19400000D03*
X23000000Y4400000D03*
X19400000Y20600000D03*
X21300000Y8600000D03*
X20525000Y14850000D03*
X18400000Y4400000D03*
X17200000Y8100000D03*
X13300000Y8600000D03*
X17300000Y4400000D03*
X12525000Y14850000D03*
X12700000Y19400000D03*
X18700000Y19400000D03*
X17200000Y5500000D03*
X11400000Y20600000D03*
X22000000Y20100000D03*
X10400000Y4400000D03*
X15800000Y20700000D03*
X14300000Y13700000D03*
X15000000Y4400000D03*
X17675000Y14650000D03*
X16300000Y6800000D03*
X14325000Y5200000D03*
X14000000Y20100000D03*
X3400000Y20600000D03*
X9200000Y8100000D03*
X9675000Y14650000D03*
X6300000Y13700000D03*
X5300000Y8600000D03*
X9200000Y5500000D03*
X8300000Y6800000D03*
X2400000Y4400000D03*
X7000000Y4400000D03*
X7800000Y20700000D03*
X10700000Y19400000D03*
X4700000Y19400000D03*
X9300000Y4400000D03*
X6325000Y5200000D03*
X4525000Y14850000D03*
X-1700000Y13700000D03*
X-1000000Y4400000D03*
X-1675000Y5200000D03*
X-5600000Y4400000D03*
X-2700000Y8600000D03*
X1200000Y8100000D03*
X-3300000Y19400000D03*
X1200000Y5500000D03*
X-4600000Y20600000D03*
X6000000Y20100000D03*
X-3475000Y14850000D03*
X2700000Y19400000D03*
X-200000Y20700000D03*
X300000Y6800000D03*
X1675000Y14650000D03*
X1300000Y4400000D03*
X3600000Y-20600000D03*
X-2675000Y-14650000D03*
X-2200000Y-5500000D03*
X-3700000Y-19400000D03*
X0Y-4400000D03*
X-2300000Y-4400000D03*
X-2200000Y-8100000D03*
X2300000Y-19400000D03*
X675000Y-5200000D03*
X4600000Y-4400000D03*
X-800000Y-20700000D03*
X2475000Y-14850000D03*
X-7000000Y-20100000D03*
X1700000Y-8600000D03*
X-1300000Y-6800000D03*
X700000Y-13700000D03*
X5800000Y-8100000D03*
X10475000Y-14850000D03*
X5325000Y-14650000D03*
X1000000Y-20100000D03*
X8675000Y-5200000D03*
X8700000Y-13700000D03*
X5800000Y-5500000D03*
X11600000Y-20600000D03*
X6700000Y-6800000D03*
X8000000Y-4400000D03*
X9700000Y-8600000D03*
X10300000Y-19400000D03*
X7200000Y-20700000D03*
X12600000Y-4400000D03*
X4300000Y-19400000D03*
X5700000Y-4400000D03*
X13700000Y-4400000D03*
X9000000Y-20100000D03*
X14700000Y-6800000D03*
X18300000Y-19400000D03*
X15200000Y-20700000D03*
X12300000Y-19400000D03*
X16675000Y-5200000D03*
X13325000Y-14650000D03*
X20600000Y-4400000D03*
X13800000Y-8100000D03*
X16700000Y-13700000D03*
X13800000Y-5500000D03*
X17700000Y-8600000D03*
X18475000Y-14850000D03*
X19600000Y-20600000D03*
X16000000Y-4400000D03*
D17*
X17000000Y-20100000D02*
X20000000Y-20100000D01*
X15700000Y-14000000D02*
X15700000Y-19100000D01*
X7700000Y-14000000D02*
X7700000Y-19100000D01*
X-300000Y-14000000D02*
X-300000Y-19100000D01*
X-8300000Y-14000000D02*
X-8300000Y-19100000D01*
X-700000Y14000000D02*
X-700000Y19100000D01*
X7300000Y14000000D02*
X7300000Y19100000D01*
X15300000Y14000000D02*
X15300000Y19100000D01*
X23300000Y14000000D02*
X23300000Y19100000D01*
D18*
X-24300000Y3700000D02*
X-24300000Y8300000D01*
X-20100000Y12500000D02*
X-19100000Y12500000D01*
X-18800000Y-6500000D02*
X-20800000Y-6500000D01*
X-22000000Y-5300000D02*
X-22000000Y1400000D01*
X-20800000Y-6500000D02*
X-22000000Y-5300000D01*
X-22000000Y1400000D02*
X-24300000Y3700000D01*
X-16220000Y-9080000D02*
X-18800000Y-6500000D01*
D17*
X-9800000Y10500000D02*
X-9800000Y360000D01*
D18*
X-24300000Y6000000D02*
X-25100000Y6000000D01*
X-16220000Y-12400000D02*
X-16220000Y-9080000D01*
X-24300000Y8300000D02*
X-20100000Y12500000D01*
D17*
X-11550000Y12250000D02*
X-9800000Y10500000D01*
X-19100000Y3250000D02*
X-19100000Y5000000D01*
X-19100000Y5000000D02*
X-20700000Y6600000D01*
X-2000000Y20100000D02*
X-5000000Y20100000D01*
D19*
X-6500000Y0D02*
X28000000Y0D01*
D17*
X-13300000Y-5400000D02*
X-13000000Y-5700000D01*
X-26965000Y-18765000D02*
X-28200000Y-18765000D01*
X-24300000Y-5000000D02*
X-25700000Y-6400000D01*
X-23100000Y-5000000D02*
X-24300000Y-5000000D01*
X-25700000Y-6400000D02*
X-25700000Y-17500000D01*
X-21100000Y-5000000D02*
X-20700000Y-5400000D01*
X-20700000Y-5400000D02*
X-13300000Y-5400000D01*
X-25700000Y-17500000D02*
X-26965000Y-18765000D01*
X-25400000Y-20950000D02*
X-27025000Y-22575000D01*
X-27025000Y-22575000D02*
X-28200000Y-22575000D01*
X-22500000Y-6650000D02*
X-25400000Y-9550000D01*
X-25400000Y-9550000D02*
X-25400000Y-20950000D01*
X-26000000Y-16500000D02*
X-26000000Y-6300000D01*
X-28200000Y-17495000D02*
X-26995000Y-17495000D01*
X-26995000Y-17495000D02*
X-26000000Y-16500000D01*
X-26000000Y-6300000D02*
X-24700000Y-5000000D01*
X-24700000Y-5000000D02*
X-24700000Y2000000D01*
X-26300000Y-15500000D02*
X-27025000Y-16225000D01*
X-26300000Y-6200000D02*
X-26300000Y-15500000D01*
X-25500000Y-2800000D02*
X-25500000Y-5400000D01*
X-25500000Y-5400000D02*
X-26300000Y-6200000D01*
X-27025000Y-16225000D02*
X-28200000Y-16225000D01*
X-15600000Y-23300000D02*
X-2600000Y-23300000D01*
X-18400000Y-20500000D02*
X-15600000Y-23300000D01*
X-18400000Y-10750000D02*
X-18400000Y-20500000D01*
X-2600000Y-23300000D02*
X-2000000Y-22700000D01*
X-18200000Y-10550000D02*
X-18400000Y-10750000D01*
X-18700000Y-20600000D02*
X-15700000Y-23600000D01*
X-18700000Y-10350000D02*
X-18700000Y-20600000D01*
X5100000Y-23600000D02*
X6000000Y-22700000D01*
X-15700000Y-23600000D02*
X5100000Y-23600000D01*
X-18200000Y-9850000D02*
X-18700000Y-10350000D01*
X-19000000Y-9950000D02*
X-19000000Y-20700000D01*
X-15800000Y-23900000D02*
X12800000Y-23900000D01*
X-18200000Y-9150000D02*
X-19000000Y-9950000D01*
X12800000Y-23900000D02*
X14000000Y-22700000D01*
X-19000000Y-20700000D02*
X-15800000Y-23900000D01*
X-19300000Y-20800000D02*
X-15900000Y-24200000D01*
X-18200000Y-8450000D02*
X-19300000Y-9550000D01*
X-15900000Y-24200000D02*
X20500000Y-24200000D01*
X-19300000Y-9550000D02*
X-19300000Y-20800000D01*
X20500000Y-24200000D02*
X22000000Y-22700000D01*
X-14500000Y5100000D02*
X-14691101Y5291101D01*
X-14500000Y-1600000D02*
X-14500000Y5100000D01*
X-17800000Y-4900000D02*
X-14500000Y-1600000D01*
X-18600000Y-4900000D02*
X-17800000Y-4900000D01*
X-15200000Y5100000D02*
X-14800000Y4700000D01*
X-15200000Y5800000D02*
X-15200000Y5100000D01*
X-14800000Y4700000D02*
X-14800000Y-600000D01*
X-14800000Y-600000D02*
X-17200000Y-3000000D01*
X-14200000Y5500000D02*
X-14200000Y-3350000D01*
X-14200000Y-3350000D02*
X-15450000Y-4600000D01*
X-15161127Y6461127D02*
X-14200000Y5500000D01*
X-15000000Y7000000D02*
X-13900000Y5900000D01*
X-17600000Y7000000D02*
X-15000000Y7000000D01*
X-13900000Y5900000D02*
X-13900000Y-3800000D01*
X15600000Y-21300000D02*
X17000000Y-22700000D01*
X-15200000Y-20500000D02*
X-14400000Y-21300000D01*
X-12700000Y-9550000D02*
X-12700000Y-14900000D01*
X-13800000Y-8450000D02*
X-12700000Y-9550000D01*
X-14400000Y-21300000D02*
X15600000Y-21300000D01*
X-15200000Y-17400000D02*
X-15200000Y-20500000D01*
X-12700000Y-14900000D02*
X-15200000Y-17400000D01*
X-15500000Y-17300000D02*
X-15500000Y-20600000D01*
X-13800000Y-9150000D02*
X-13000000Y-9950000D01*
X-13000000Y-14800000D02*
X-15500000Y-17300000D01*
X-14500000Y-21600000D02*
X7900000Y-21600000D01*
X-15500000Y-20600000D02*
X-14500000Y-21600000D01*
X7900000Y-21600000D02*
X9000000Y-22700000D01*
X-13000000Y-9950000D02*
X-13000000Y-14800000D01*
X-16600000Y-5950000D02*
X-16600000Y-7050000D01*
X-16600000Y-7050000D02*
X-13800000Y-9850000D01*
X-13300000Y-11050000D02*
X-13300000Y-14700000D01*
X-13800000Y-10550000D02*
X-13300000Y-11050000D01*
X-15800000Y-20700000D02*
X-14600000Y-21900000D01*
X-13300000Y-14700000D02*
X-15800000Y-17200000D01*
X200000Y-21900000D02*
X1000000Y-22700000D01*
X-14600000Y-21900000D02*
X200000Y-21900000D01*
X-15800000Y-17200000D02*
X-15800000Y-20700000D01*
X-16100000Y-17100000D02*
X-16100000Y-20800000D01*
X-14700000Y-22200000D02*
X-7500000Y-22200000D01*
X-16100000Y-20800000D02*
X-14700000Y-22200000D01*
X-13800000Y-11250000D02*
X-13600000Y-11450000D01*
X-7500000Y-22200000D02*
X-7000000Y-22700000D01*
X-13600000Y-14600000D02*
X-16100000Y-17100000D01*
X-13600000Y-11450000D02*
X-13600000Y-14600000D01*
X-15200000Y17400000D02*
X-15200000Y20500000D01*
X-14400000Y21300000D02*
X20600000Y21300000D01*
X-14000000Y10750000D02*
X-14000000Y16200000D01*
X20600000Y21300000D02*
X22000000Y22700000D01*
X-14000000Y16200000D02*
X-15200000Y17400000D01*
X-15200000Y20500000D02*
X-14400000Y21300000D01*
X-13800000Y10550000D02*
X-14000000Y10750000D01*
X-13800000Y9850000D02*
X-14300000Y10350000D01*
X-15500000Y17300000D02*
X-15500000Y20600000D01*
X12900000Y21600000D02*
X14000000Y22700000D01*
X-15500000Y20600000D02*
X-14500000Y21600000D01*
X-14300000Y10350000D02*
X-14300000Y16100000D01*
X-14500000Y21600000D02*
X12900000Y21600000D01*
X-14300000Y16100000D02*
X-15500000Y17300000D01*
X-14600000Y9950000D02*
X-14600000Y16000000D01*
X-13800000Y9150000D02*
X-14600000Y9950000D01*
X5200000Y21900000D02*
X6000000Y22700000D01*
X-15800000Y17200000D02*
X-15800000Y20700000D01*
X-15800000Y20700000D02*
X-14600000Y21900000D01*
X-14600000Y16000000D02*
X-15800000Y17200000D01*
X-14600000Y21900000D02*
X5200000Y21900000D01*
X-16100000Y20800000D02*
X-14700000Y22200000D01*
X-14900000Y15900000D02*
X-16100000Y17100000D01*
X-2500000Y22200000D02*
X-2000000Y22700000D01*
X-14700000Y22200000D02*
X-2500000Y22200000D01*
X-13800000Y8450000D02*
X-14900000Y9550000D01*
X-16100000Y17100000D02*
X-16100000Y20800000D01*
X-14900000Y9550000D02*
X-14900000Y15900000D01*
X-7000000Y22700000D02*
X-7600000Y23300000D01*
X-15600000Y23300000D02*
X-17100000Y21800000D01*
X-17100000Y21800000D02*
X-17100000Y9550000D01*
X-17100000Y9550000D02*
X-18200000Y8450000D01*
X-7600000Y23300000D02*
X-15600000Y23300000D01*
X100000Y23600000D02*
X-15700000Y23600000D01*
X-17400000Y9950000D02*
X-18200000Y9150000D01*
X-17400000Y21900000D02*
X-17400000Y9950000D01*
X1000000Y22700000D02*
X100000Y23600000D01*
X-15700000Y23600000D02*
X-17400000Y21900000D01*
X-19200000Y8850000D02*
X-18200000Y9850000D01*
X-17400000Y4800000D02*
X-19200000Y6600000D01*
X-17400000Y-1100000D02*
X-17400000Y4800000D01*
X-19200000Y6600000D02*
X-19200000Y8850000D01*
X9000000Y22700000D02*
X7800000Y23900000D01*
X-17700000Y11050000D02*
X-18200000Y10550000D01*
X7800000Y23900000D02*
X-15800000Y23900000D01*
X-15800000Y23900000D02*
X-17700000Y22000000D01*
X-17700000Y22000000D02*
X-17700000Y11050000D01*
X-15900000Y24200000D02*
X-18000000Y22100000D01*
X-18000000Y22100000D02*
X-18000000Y11450000D01*
X-18000000Y11450000D02*
X-18200000Y11250000D01*
X15500000Y24200000D02*
X-15900000Y24200000D01*
X17000000Y22700000D02*
X15500000Y24200000D01*
D20*
X26700000Y8860000D02*
X28000000Y10160000D01*
X25800000Y6600000D02*
X26700000Y7500000D01*
X24200000Y3800000D02*
X25800000Y5400000D01*
X25800000Y5400000D02*
X25800000Y6600000D01*
X26700000Y7500000D02*
X26700000Y8860000D01*
X24200000Y3800000D02*
X23100000Y3800000D01*
D17*
X22000000Y20100000D02*
X19000000Y20100000D01*
D21*
X26650000Y5050000D02*
X26650000Y6270000D01*
X16100000Y3000000D02*
X24600000Y3000000D01*
X24600000Y3000000D02*
X26650000Y5050000D01*
X26650000Y6270000D02*
X28000000Y7620000D01*
D22*
X8300000Y2100000D02*
X25020000Y2100000D01*
D17*
X14000000Y20100000D02*
X11000000Y20100000D01*
D22*
X25020000Y2100000D02*
X28000000Y5080000D01*
D23*
X400000Y1100000D02*
X25500000Y1100000D01*
D17*
X6000000Y20100000D02*
X3000000Y20100000D01*
D23*
X26940000Y2540000D02*
X28000000Y2540000D01*
X25500000Y1100000D02*
X26940000Y2540000D01*
X500000Y-1100000D02*
X25500000Y-1100000D01*
X25500000Y-1100000D02*
X26940000Y-2540000D01*
X26940000Y-2540000D02*
X28000000Y-2540000D01*
D17*
X-7000000Y-20100000D02*
X-4000000Y-20100000D01*
D22*
X8400000Y-2100000D02*
X25020000Y-2100000D01*
X25020000Y-2100000D02*
X28000000Y-5080000D01*
D17*
X1000000Y-20100000D02*
X4000000Y-20100000D01*
D21*
X26600000Y-6220000D02*
X26600000Y-5000000D01*
X28000000Y-7620000D02*
X26600000Y-6220000D01*
D17*
X9000000Y-20100000D02*
X12000000Y-20100000D01*
D21*
X24600000Y-3000000D02*
X16100000Y-3000000D01*
X26600000Y-5000000D02*
X24600000Y-3000000D01*
G04 #@! TA.AperFunction,Conductor*
G36*
X17024022Y-19855750D02*
G01*
X17066877Y-19862537D01*
X17085473Y-19868580D01*
X17136980Y-19894824D01*
X17152800Y-19906318D01*
X17205042Y-19958560D01*
X17211407Y-19966012D01*
X17213266Y-19968570D01*
X17269759Y-20013108D01*
X17313953Y-20031414D01*
X17344233Y-20037437D01*
X17384007Y-20064013D01*
X17393339Y-20110929D01*
X17366763Y-20150703D01*
X17341819Y-20160466D01*
X17324610Y-20163191D01*
X17259290Y-20193308D01*
X17259282Y-20193313D01*
X17232737Y-20215987D01*
X17229185Y-20217297D01*
X17219095Y-20227387D01*
X17215497Y-20230712D01*
X17211696Y-20233958D01*
X17210989Y-20235493D01*
X17152801Y-20293680D01*
X17136982Y-20305173D01*
X17085471Y-20331420D01*
X17066875Y-20337461D01*
X17019388Y-20344983D01*
X17009779Y-20346505D01*
X16990226Y-20346505D01*
X16933122Y-20337461D01*
X16914525Y-20331418D01*
X16863018Y-20305174D01*
X16847198Y-20293680D01*
X16806319Y-20252801D01*
X16794824Y-20236978D01*
X16791700Y-20230847D01*
X16791700Y-20230848D01*
X16791699Y-20230846D01*
X16791699Y-20230845D01*
X16768576Y-20185466D01*
X16762538Y-20166882D01*
X16753492Y-20109766D01*
X16753492Y-20090231D01*
X16762538Y-20033113D01*
X16768576Y-20014532D01*
X16794828Y-19963010D01*
X16806316Y-19947199D01*
X16847199Y-19906316D01*
X16863010Y-19894828D01*
X16914532Y-19868576D01*
X16933115Y-19862538D01*
X16990225Y-19853493D01*
X17009772Y-19853493D01*
X17024022Y-19855750D01*
G37*
G04 #@! TD.AperFunction*
G04 #@! TA.AperFunction,Conductor*
G36*
X-25609306Y-17767809D02*
G01*
X-25591000Y-17812003D01*
X-25591000Y-20844997D01*
X-25609306Y-20889191D01*
X-27085809Y-22365694D01*
X-27130003Y-22384000D01*
X-27306577Y-22384000D01*
X-27350771Y-22365694D01*
X-27360704Y-22352750D01*
X-27380886Y-22317794D01*
X-27438884Y-22217337D01*
X-27438885Y-22217336D01*
X-27438888Y-22217332D01*
X-27547332Y-22108888D01*
X-27547336Y-22108885D01*
X-27547337Y-22108884D01*
X-27613750Y-22070540D01*
X-27680165Y-22032196D01*
X-27798939Y-22000370D01*
X-27836889Y-21971249D01*
X-27843132Y-21923823D01*
X-27814011Y-21885873D01*
X-27798939Y-21879630D01*
X-27734169Y-21862274D01*
X-27680164Y-21847803D01*
X-27547337Y-21771116D01*
X-27438884Y-21662663D01*
X-27362197Y-21529836D01*
X-27362196Y-21529835D01*
X-27362196Y-21529833D01*
X-27322500Y-21381693D01*
X-27322500Y-21228306D01*
X-27362196Y-21080166D01*
X-27362196Y-21080164D01*
X-27438885Y-20947336D01*
X-27438888Y-20947332D01*
X-27547332Y-20838888D01*
X-27547336Y-20838885D01*
X-27547337Y-20838884D01*
X-27613750Y-20800540D01*
X-27680165Y-20762196D01*
X-27799905Y-20730111D01*
X-27837855Y-20700990D01*
X-27844098Y-20653564D01*
X-27814977Y-20615614D01*
X-27799904Y-20609371D01*
X-27680359Y-20577339D01*
X-27680350Y-20577335D01*
X-27547647Y-20500718D01*
X-27547638Y-20500711D01*
X-27439288Y-20392361D01*
X-27439281Y-20392352D01*
X-27362664Y-20259649D01*
X-27362660Y-20259640D01*
X-27336499Y-20162001D01*
X-27336500Y-20162000D01*
X-27982007Y-20162000D01*
X-27950000Y-20084728D01*
X-27950000Y-19985272D01*
X-27982007Y-19908000D01*
X-27336500Y-19908000D01*
X-27336499Y-19907998D01*
X-27362660Y-19810359D01*
X-27362664Y-19810350D01*
X-27439281Y-19677647D01*
X-27439288Y-19677638D01*
X-27547638Y-19569288D01*
X-27547647Y-19569281D01*
X-27680350Y-19492664D01*
X-27680358Y-19492661D01*
X-27799905Y-19460628D01*
X-27837855Y-19431508D01*
X-27844098Y-19384081D01*
X-27814978Y-19346131D01*
X-27799904Y-19339888D01*
X-27680167Y-19307804D01*
X-27680164Y-19307803D01*
X-27547337Y-19231116D01*
X-27438884Y-19122663D01*
X-27362197Y-18989836D01*
X-27362196Y-18989835D01*
X-27360704Y-18987250D01*
X-27322753Y-18958130D01*
X-27306577Y-18956000D01*
X-26927010Y-18956000D01*
X-26927008Y-18956000D01*
X-26856807Y-18926922D01*
X-25697694Y-17767809D01*
X-25653500Y-17749503D01*
X-25609306Y-17767809D01*
G37*
G04 #@! TD.AperFunction*
G04 #@! TA.AperFunction,Conductor*
G36*
X29504856Y24798731D02*
G01*
X29582773Y24786390D01*
X29601370Y24780347D01*
X29667222Y24746794D01*
X29683042Y24735300D01*
X29735300Y24683042D01*
X29746794Y24667223D01*
X29780349Y24601368D01*
X29786391Y24582771D01*
X29798730Y24504869D01*
X29799500Y24495091D01*
X29799501Y-24460118D01*
X29799501Y-24495085D01*
X29798731Y-24504863D01*
X29786391Y-24582771D01*
X29780349Y-24601368D01*
X29746794Y-24667223D01*
X29735300Y-24683042D01*
X29683042Y-24735300D01*
X29667222Y-24746794D01*
X29601370Y-24780347D01*
X29582773Y-24786390D01*
X29504856Y-24798731D01*
X29495079Y-24799500D01*
X-29495084Y-24799500D01*
X-29504860Y-24798730D01*
X-29582770Y-24786390D01*
X-29601367Y-24780348D01*
X-29667222Y-24746793D01*
X-29683041Y-24735299D01*
X-29735299Y-24683041D01*
X-29746793Y-24667222D01*
X-29780348Y-24601367D01*
X-29786390Y-24582770D01*
X-29798730Y-24504862D01*
X-29799500Y-24495084D01*
X-29799500Y-15757442D01*
X-29077500Y-15757442D01*
X-29077500Y-16692558D01*
X-29070102Y-16729748D01*
X-29041922Y-16771922D01*
X-28999748Y-16800102D01*
X-28962558Y-16807500D01*
X-28962557Y-16807500D01*
X-28654557Y-16807500D01*
X-28610363Y-16825806D01*
X-28592057Y-16870000D01*
X-28610363Y-16914194D01*
X-28638380Y-16930370D01*
X-28719833Y-16952196D01*
X-28719835Y-16952196D01*
X-28759296Y-16974979D01*
X-28852663Y-17028884D01*
X-28961116Y-17137337D01*
X-29037803Y-17270164D01*
X-29051345Y-17320704D01*
X-29077499Y-17418306D01*
X-29077500Y-17418312D01*
X-29077500Y-17571687D01*
X-29077499Y-17571693D01*
X-29065705Y-17615705D01*
X-29037803Y-17719836D01*
X-28961116Y-17852663D01*
X-28852663Y-17961116D01*
X-28719836Y-18037803D01*
X-28649940Y-18056531D01*
X-28601060Y-18069630D01*
X-28563110Y-18098750D01*
X-28556867Y-18146177D01*
X-28585987Y-18184127D01*
X-28601060Y-18190370D01*
X-28719833Y-18222196D01*
X-28719835Y-18222196D01*
X-28759296Y-18244979D01*
X-28852663Y-18298884D01*
X-28961116Y-18407337D01*
X-29037803Y-18540164D01*
X-29048460Y-18579936D01*
X-29077499Y-18688306D01*
X-29077500Y-18688312D01*
X-29077500Y-18841687D01*
X-29077499Y-18841693D01*
X-29065705Y-18885705D01*
X-29037803Y-18989836D01*
X-28961116Y-19122663D01*
X-28852663Y-19231116D01*
X-28719836Y-19307803D01*
X-28600094Y-19339888D01*
X-28562144Y-19369008D01*
X-28555901Y-19416434D01*
X-28585021Y-19454385D01*
X-28600095Y-19460628D01*
X-28719639Y-19492660D01*
X-28719649Y-19492664D01*
X-28852352Y-19569281D01*
X-28852361Y-19569288D01*
X-28960711Y-19677638D01*
X-28960718Y-19677647D01*
X-29037335Y-19810350D01*
X-29037339Y-19810359D01*
X-29063500Y-19907998D01*
X-29063500Y-19908000D01*
X-28417993Y-19908000D01*
X-28450000Y-19985272D01*
X-28450000Y-20084728D01*
X-28417993Y-20162000D01*
X-29063500Y-20162000D01*
X-29063500Y-20162001D01*
X-29037339Y-20259640D01*
X-29037335Y-20259649D01*
X-28960718Y-20392352D01*
X-28960711Y-20392361D01*
X-28852361Y-20500711D01*
X-28852352Y-20500718D01*
X-28719649Y-20577335D01*
X-28719640Y-20577339D01*
X-28600095Y-20609371D01*
X-28562144Y-20638491D01*
X-28555901Y-20685917D01*
X-28585021Y-20723868D01*
X-28600094Y-20730111D01*
X-28719833Y-20762196D01*
X-28719835Y-20762196D01*
X-28759296Y-20784979D01*
X-28852663Y-20838884D01*
X-28961116Y-20947337D01*
X-29037803Y-21080164D01*
X-29049124Y-21122414D01*
X-29077499Y-21228306D01*
X-29077500Y-21228312D01*
X-29077500Y-21381688D01*
X-29037803Y-21529836D01*
X-28961116Y-21662663D01*
X-28852663Y-21771116D01*
X-28719836Y-21847803D01*
X-28649940Y-21866531D01*
X-28601060Y-21879630D01*
X-28563110Y-21908750D01*
X-28556867Y-21956177D01*
X-28585987Y-21994127D01*
X-28601060Y-22000370D01*
X-28719833Y-22032196D01*
X-28719835Y-22032196D01*
X-28759296Y-22054979D01*
X-28852663Y-22108884D01*
X-28961116Y-22217337D01*
X-29037803Y-22350164D01*
X-29048745Y-22390999D01*
X-29077499Y-22498306D01*
X-29077500Y-22498312D01*
X-29077500Y-22651688D01*
X-29037803Y-22799836D01*
X-28961116Y-22932663D01*
X-28852663Y-23041116D01*
X-28719836Y-23117803D01*
X-28629173Y-23142096D01*
X-28571693Y-23157499D01*
X-28571688Y-23157500D01*
X-27828312Y-23157500D01*
X-27828306Y-23157499D01*
X-27749584Y-23136404D01*
X-27680164Y-23117803D01*
X-27547337Y-23041116D01*
X-27438884Y-22932663D01*
X-27362197Y-22799836D01*
X-27362196Y-22799835D01*
X-27360704Y-22797250D01*
X-27322753Y-22768130D01*
X-27306577Y-22766000D01*
X-26987010Y-22766000D01*
X-26987008Y-22766000D01*
X-26916807Y-22736922D01*
X-25238078Y-21058193D01*
X-25209000Y-20987992D01*
X-25209000Y-20912008D01*
X-25209000Y-9655003D01*
X-25190694Y-9610809D01*
X-22619283Y-7039398D01*
X-22575089Y-7021092D01*
X-22565312Y-7021862D01*
X-22500004Y-7032206D01*
X-22500003Y-7032206D01*
X-22500001Y-7032205D01*
X-22500000Y-7032206D01*
X-22381892Y-7013500D01*
X-22275345Y-6959211D01*
X-22190789Y-6874655D01*
X-22154432Y-6803302D01*
X-22136500Y-6768109D01*
X-22136500Y-6768108D01*
X-22117794Y-6650000D01*
X-22136500Y-6531891D01*
X-22136500Y-6531890D01*
X-22190789Y-6425344D01*
X-22275344Y-6340789D01*
X-22381891Y-6286500D01*
X-22500000Y-6267794D01*
X-22618108Y-6286500D01*
X-22618109Y-6286500D01*
X-22673373Y-6314659D01*
X-22724655Y-6340789D01*
X-22809211Y-6425345D01*
X-22863500Y-6531892D01*
X-22880269Y-6637770D01*
X-22882206Y-6650002D01*
X-22882206Y-6650003D01*
X-22871862Y-6715312D01*
X-22883028Y-6761825D01*
X-22889398Y-6769283D01*
X-25402306Y-9282191D01*
X-25446500Y-9300497D01*
X-25490694Y-9282191D01*
X-25509000Y-9237997D01*
X-25509000Y-6505003D01*
X-25490694Y-6460809D01*
X-24239191Y-5209306D01*
X-24194997Y-5191000D01*
X-23464659Y-5191000D01*
X-23420465Y-5209306D01*
X-23412171Y-5220722D01*
X-23412104Y-5220674D01*
X-23409212Y-5224652D01*
X-23409211Y-5224655D01*
X-23324655Y-5309211D01*
X-23218108Y-5363500D01*
X-23100000Y-5382206D01*
X-22981892Y-5363500D01*
X-22875345Y-5309211D01*
X-22790789Y-5224655D01*
X-22773484Y-5190693D01*
X-22736500Y-5118109D01*
X-22736500Y-5118108D01*
X-22717794Y-5000000D01*
X-22736500Y-4881891D01*
X-22736500Y-4881890D01*
X-22790789Y-4775344D01*
X-22875344Y-4690789D01*
X-22981891Y-4636500D01*
X-23100000Y-4617794D01*
X-23218108Y-4636500D01*
X-23218109Y-4636500D01*
X-23324655Y-4690789D01*
X-23409212Y-4775346D01*
X-23412104Y-4779326D01*
X-23413228Y-4778508D01*
X-23445342Y-4805940D01*
X-23464659Y-4809000D01*
X-24262008Y-4809000D01*
X-24337992Y-4809000D01*
X-24372337Y-4823226D01*
X-24408196Y-4838079D01*
X-24411779Y-4840473D01*
X-24458696Y-4849804D01*
X-24498468Y-4823226D01*
X-24509000Y-4788505D01*
X-24509000Y1635341D01*
X-24490694Y1679535D01*
X-24479275Y1687831D01*
X-24479324Y1687898D01*
X-24475345Y1690789D01*
X-24390789Y1775344D01*
X-24336500Y1881890D01*
X-24336500Y1881891D01*
X-24317794Y2000000D01*
X-24336500Y2118108D01*
X-24336500Y2118109D01*
X-24390789Y2224655D01*
X-24475344Y2309210D01*
X-24475345Y2309211D01*
X-24581892Y2363500D01*
X-24700000Y2382206D01*
X-24818108Y2363500D01*
X-24924655Y2309211D01*
X-25009211Y2224655D01*
X-25063500Y2118108D01*
X-25082206Y2000000D01*
X-25063500Y1881892D01*
X-25063499Y1881891D01*
X-25063499Y1881890D01*
X-25009210Y1775344D01*
X-24924655Y1690789D01*
X-24920676Y1687898D01*
X-24921491Y1686775D01*
X-24894058Y1654652D01*
X-24891000Y1635341D01*
X-24891000Y-4894997D01*
X-24909306Y-4939191D01*
X-25202306Y-5232191D01*
X-25246500Y-5250497D01*
X-25290694Y-5232191D01*
X-25309000Y-5187997D01*
X-25309000Y-3164659D01*
X-25290694Y-3120465D01*
X-25279277Y-3112171D01*
X-25279326Y-3112104D01*
X-25275346Y-3109212D01*
X-25190789Y-3024655D01*
X-25136500Y-2918109D01*
X-25136500Y-2918108D01*
X-25117794Y-2800000D01*
X-25136500Y-2681891D01*
X-25136500Y-2681890D01*
X-25190789Y-2575344D01*
X-25275344Y-2490789D01*
X-25381891Y-2436500D01*
X-25500000Y-2417794D01*
X-25618108Y-2436500D01*
X-25618109Y-2436500D01*
X-25724655Y-2490789D01*
X-25809211Y-2575345D01*
X-25863500Y-2681892D01*
X-25882206Y-2800000D01*
X-25863500Y-2918108D01*
X-25809211Y-3024655D01*
X-25724655Y-3109211D01*
X-25724653Y-3109212D01*
X-25720674Y-3112104D01*
X-25721491Y-3113228D01*
X-25694060Y-3145342D01*
X-25691000Y-3164659D01*
X-25691000Y-5294997D01*
X-25709306Y-5339191D01*
X-26408193Y-6038078D01*
X-26461922Y-6091807D01*
X-26491000Y-6162008D01*
X-26491000Y-6162010D01*
X-26491000Y-15394997D01*
X-26509306Y-15439191D01*
X-27085809Y-16015694D01*
X-27130003Y-16034000D01*
X-27260000Y-16034000D01*
X-27304194Y-16015694D01*
X-27322500Y-15971500D01*
X-27322500Y-15757442D01*
X-27329898Y-15720251D01*
X-27329898Y-15720250D01*
X-27358077Y-15678077D01*
X-27400251Y-15649898D01*
X-27418847Y-15646199D01*
X-27437442Y-15642500D01*
X-28962558Y-15642500D01*
X-28999748Y-15649898D01*
X-28999749Y-15649898D01*
X-29041922Y-15678077D01*
X-29070101Y-15720250D01*
X-29070102Y-15720252D01*
X-29077500Y-15757442D01*
X-29799500Y-15757442D01*
X-29799500Y-4062500D01*
X-29781194Y-4018306D01*
X-29737000Y-4000000D01*
X-26400000Y-4000000D01*
X-26400000Y4000000D01*
X-29737000Y4000000D01*
X-29781194Y4018306D01*
X-29799500Y4062500D01*
X-29799500Y6000000D01*
X-25482206Y6000000D01*
X-25463500Y5881892D01*
X-25463499Y5881891D01*
X-25463499Y5881890D01*
X-25409210Y5775344D01*
X-25324655Y5690789D01*
X-25218108Y5636500D01*
X-25100000Y5617794D01*
X-24981891Y5636500D01*
X-24981890Y5636500D01*
X-24892806Y5681892D01*
X-24875542Y5690688D01*
X-24847169Y5697500D01*
X-24665000Y5697500D01*
X-24620806Y5679194D01*
X-24602500Y5635000D01*
X-24602500Y3660175D01*
X-24581885Y3583239D01*
X-24575186Y3571636D01*
X-24575186Y3571635D01*
X-24542062Y3514264D01*
X-24542055Y3514255D01*
X-22320806Y1293006D01*
X-22302500Y1248812D01*
X-22302500Y-5339825D01*
X-22281885Y-5416761D01*
X-22248061Y-5475345D01*
X-22242060Y-5485739D01*
X-21042060Y-6685739D01*
X-20985739Y-6742060D01*
X-20916761Y-6781885D01*
X-20839825Y-6802500D01*
X-18951187Y-6802500D01*
X-18906993Y-6820806D01*
X-16540806Y-9186993D01*
X-16522500Y-9231187D01*
X-16522500Y-12147168D01*
X-16529312Y-12175542D01*
X-16583498Y-12281887D01*
X-16583498Y-12281889D01*
X-16583500Y-12281892D01*
X-16602206Y-12400000D01*
X-16583500Y-12518108D01*
X-16529211Y-12624655D01*
X-16444655Y-12709211D01*
X-16338108Y-12763500D01*
X-16220000Y-12782206D01*
X-16101892Y-12763500D01*
X-15995345Y-12709211D01*
X-15910789Y-12624655D01*
X-15856500Y-12518109D01*
X-15856500Y-12518108D01*
X-15837794Y-12400000D01*
X-15856500Y-12281891D01*
X-15856501Y-12281887D01*
X-15910688Y-12175542D01*
X-15917500Y-12147168D01*
X-15917500Y-9040170D01*
X-15938115Y-8963238D01*
X-15938115Y-8963236D01*
X-15977939Y-8894261D01*
X-15977940Y-8894260D01*
X-16006100Y-8866100D01*
X-16034261Y-8837940D01*
X-16646857Y-8225344D01*
X-18614255Y-6257944D01*
X-18614261Y-6257939D01*
X-18648664Y-6238077D01*
X-18683237Y-6218115D01*
X-18760170Y-6197500D01*
X-18760175Y-6197500D01*
X-20648813Y-6197500D01*
X-20693007Y-6179194D01*
X-21679194Y-5193007D01*
X-21697500Y-5148813D01*
X-21697500Y-5000000D01*
X-21482206Y-5000000D01*
X-21463500Y-5118108D01*
X-21409211Y-5224655D01*
X-21324655Y-5309211D01*
X-21218108Y-5363500D01*
X-21100000Y-5382206D01*
X-21034684Y-5371861D01*
X-20988172Y-5383029D01*
X-20980720Y-5389393D01*
X-20870711Y-5499401D01*
X-20870710Y-5499404D01*
X-20861922Y-5508192D01*
X-20861922Y-5508193D01*
X-20808193Y-5561922D01*
X-20737992Y-5591000D01*
X-16925754Y-5591000D01*
X-16881560Y-5609306D01*
X-16863254Y-5653500D01*
X-16881560Y-5697694D01*
X-16909211Y-5725345D01*
X-16963500Y-5831892D01*
X-16982206Y-5950000D01*
X-16963500Y-6068108D01*
X-16909211Y-6174655D01*
X-16824655Y-6259211D01*
X-16824653Y-6259212D01*
X-16820674Y-6262104D01*
X-16821491Y-6263228D01*
X-16794060Y-6295342D01*
X-16791000Y-6314659D01*
X-16791000Y-7012008D01*
X-16791000Y-7087992D01*
X-16761922Y-7158193D01*
X-14189397Y-9730716D01*
X-14171092Y-9774909D01*
X-14171860Y-9784680D01*
X-14182206Y-9850000D01*
X-14163500Y-9968108D01*
X-14109211Y-10074655D01*
X-14028060Y-10155806D01*
X-14009754Y-10200000D01*
X-14028060Y-10244194D01*
X-14109211Y-10325345D01*
X-14163500Y-10431892D01*
X-14182206Y-10550000D01*
X-14163500Y-10668108D01*
X-14109211Y-10774655D01*
X-14028060Y-10855806D01*
X-14009754Y-10900000D01*
X-14028060Y-10944194D01*
X-14109211Y-11025345D01*
X-14163500Y-11131892D01*
X-14182206Y-11250000D01*
X-14163500Y-11368108D01*
X-14109211Y-11474655D01*
X-14024655Y-11559211D01*
X-13918108Y-11613500D01*
X-13843720Y-11625281D01*
X-13802937Y-11650274D01*
X-13791000Y-11687011D01*
X-13791000Y-14494997D01*
X-13809306Y-14539191D01*
X-16208193Y-16938078D01*
X-16261922Y-16991807D01*
X-16291000Y-17062008D01*
X-16291000Y-20762008D01*
X-16291000Y-20837992D01*
X-16261922Y-20908193D01*
X-14808193Y-22361922D01*
X-14737992Y-22391000D01*
X-14662008Y-22391000D01*
X-7605003Y-22391000D01*
X-7560808Y-22409306D01*
X-7389397Y-22580716D01*
X-7371092Y-22624909D01*
X-7371860Y-22634680D01*
X-7382206Y-22700000D01*
X-7363500Y-22818108D01*
X-7309211Y-22924655D01*
X-7231560Y-23002306D01*
X-7213254Y-23046500D01*
X-7231560Y-23090694D01*
X-7275754Y-23109000D01*
X-15494997Y-23109000D01*
X-15539191Y-23090694D01*
X-18190694Y-20439191D01*
X-18209000Y-20394997D01*
X-18209000Y-10987011D01*
X-18190694Y-10942817D01*
X-18156280Y-10925281D01*
X-18081892Y-10913500D01*
X-17975345Y-10859211D01*
X-17890789Y-10774655D01*
X-17872110Y-10737996D01*
X-17836500Y-10668109D01*
X-17836500Y-10668108D01*
X-17817794Y-10550000D01*
X-17836500Y-10431891D01*
X-17836500Y-10431890D01*
X-17890789Y-10325344D01*
X-17971940Y-10244194D01*
X-17990246Y-10200000D01*
X-17971940Y-10155806D01*
X-17890789Y-10074655D01*
X-17836500Y-9968109D01*
X-17836500Y-9968108D01*
X-17817794Y-9850000D01*
X-17836500Y-9731891D01*
X-17836500Y-9731890D01*
X-17890789Y-9625344D01*
X-17971940Y-9544194D01*
X-17990246Y-9500000D01*
X-17971940Y-9455806D01*
X-17890789Y-9374655D01*
X-17836500Y-9268109D01*
X-17836500Y-9268108D01*
X-17817794Y-9150000D01*
X-17836500Y-9031891D01*
X-17836500Y-9031890D01*
X-17890789Y-8925344D01*
X-17971940Y-8844194D01*
X-17990246Y-8800000D01*
X-17971940Y-8755806D01*
X-17890789Y-8674655D01*
X-17836500Y-8568109D01*
X-17836500Y-8568108D01*
X-17817794Y-8450000D01*
X-17836500Y-8331891D01*
X-17836500Y-8331890D01*
X-17890789Y-8225344D01*
X-17975344Y-8140789D01*
X-18081891Y-8086500D01*
X-18200000Y-8067794D01*
X-18318108Y-8086500D01*
X-18318109Y-8086500D01*
X-18424655Y-8140789D01*
X-18509211Y-8225345D01*
X-18563500Y-8331892D01*
X-18580099Y-8436697D01*
X-18582206Y-8450002D01*
X-18582206Y-8450003D01*
X-18571862Y-8515312D01*
X-18583028Y-8561825D01*
X-18589398Y-8569283D01*
X-19408193Y-9388078D01*
X-19461922Y-9441807D01*
X-19491000Y-9512008D01*
X-19491000Y-20762008D01*
X-19491000Y-20837992D01*
X-19461922Y-20908193D01*
X-16061922Y-24308193D01*
X-16008193Y-24361922D01*
X-15937992Y-24391000D01*
X-15937990Y-24391000D01*
X20537990Y-24391000D01*
X20537992Y-24391000D01*
X20608193Y-24361922D01*
X21880716Y-23089397D01*
X21924909Y-23071092D01*
X21934680Y-23071860D01*
X22000000Y-23082206D01*
X22118108Y-23063500D01*
X22224655Y-23009211D01*
X22309211Y-22924655D01*
X22363500Y-22818108D01*
X22382206Y-22700000D01*
X22363500Y-22581892D01*
X22309211Y-22475345D01*
X22224655Y-22390789D01*
X22118108Y-22336500D01*
X22000000Y-22317794D01*
X21881891Y-22336500D01*
X21881890Y-22336500D01*
X21775344Y-22390789D01*
X21690789Y-22475344D01*
X21636500Y-22581890D01*
X21636500Y-22581891D01*
X21617794Y-22700000D01*
X21628137Y-22765314D01*
X21616969Y-22811827D01*
X21610600Y-22819283D01*
X20439191Y-23990694D01*
X20394997Y-24009000D01*
X13112003Y-24009000D01*
X13067809Y-23990694D01*
X13049503Y-23946500D01*
X13067809Y-23902306D01*
X13261115Y-23709000D01*
X13880716Y-23089397D01*
X13924909Y-23071092D01*
X13934680Y-23071860D01*
X14000000Y-23082206D01*
X14118108Y-23063500D01*
X14224655Y-23009211D01*
X14309211Y-22924655D01*
X14363500Y-22818108D01*
X14382206Y-22700000D01*
X14363500Y-22581892D01*
X14309211Y-22475345D01*
X14224655Y-22390789D01*
X14118108Y-22336500D01*
X14000000Y-22317794D01*
X13881891Y-22336500D01*
X13881890Y-22336500D01*
X13775344Y-22390789D01*
X13690789Y-22475344D01*
X13636500Y-22581890D01*
X13636500Y-22581891D01*
X13617794Y-22700000D01*
X13628137Y-22765314D01*
X13616969Y-22811827D01*
X13610600Y-22819283D01*
X12739191Y-23690694D01*
X12694997Y-23709000D01*
X5412003Y-23709000D01*
X5367809Y-23690694D01*
X5349503Y-23646500D01*
X5367809Y-23602306D01*
X5438756Y-23531358D01*
X5880716Y-23089397D01*
X5924909Y-23071092D01*
X5934680Y-23071860D01*
X6000000Y-23082206D01*
X6118108Y-23063500D01*
X6224655Y-23009211D01*
X6309211Y-22924655D01*
X6363500Y-22818108D01*
X6382206Y-22700000D01*
X6363500Y-22581892D01*
X6309211Y-22475345D01*
X6224655Y-22390789D01*
X6118108Y-22336500D01*
X6000000Y-22317794D01*
X5881891Y-22336500D01*
X5881890Y-22336500D01*
X5775344Y-22390789D01*
X5690789Y-22475344D01*
X5636500Y-22581890D01*
X5636500Y-22581891D01*
X5617794Y-22700000D01*
X5628137Y-22765314D01*
X5616969Y-22811827D01*
X5610600Y-22819283D01*
X5039191Y-23390694D01*
X4994997Y-23409000D01*
X-2287997Y-23409000D01*
X-2332191Y-23390694D01*
X-2350497Y-23346500D01*
X-2332191Y-23302306D01*
X-2119283Y-23089398D01*
X-2075089Y-23071092D01*
X-2065312Y-23071862D01*
X-2000004Y-23082206D01*
X-2000003Y-23082206D01*
X-2000001Y-23082205D01*
X-2000000Y-23082206D01*
X-1881892Y-23063500D01*
X-1775345Y-23009211D01*
X-1690789Y-22924655D01*
X-1636500Y-22818109D01*
X-1636500Y-22818108D01*
X-1617794Y-22700000D01*
X-1636500Y-22581891D01*
X-1636500Y-22581890D01*
X-1690789Y-22475344D01*
X-1775344Y-22390789D01*
X-1881891Y-22336500D01*
X-2000000Y-22317794D01*
X-2118108Y-22336500D01*
X-2118109Y-22336500D01*
X-2168001Y-22361922D01*
X-2224655Y-22390789D01*
X-2309211Y-22475345D01*
X-2363500Y-22581892D01*
X-2374554Y-22651687D01*
X-2382206Y-22700002D01*
X-2382206Y-22700003D01*
X-2371862Y-22765312D01*
X-2383028Y-22811825D01*
X-2389398Y-22819283D01*
X-2660809Y-23090694D01*
X-2705003Y-23109000D01*
X-6724246Y-23109000D01*
X-6768440Y-23090694D01*
X-6786746Y-23046500D01*
X-6768440Y-23002306D01*
X-6690789Y-22924655D01*
X-6636500Y-22818109D01*
X-6636500Y-22818108D01*
X-6617794Y-22700000D01*
X-6636500Y-22581891D01*
X-6636500Y-22581890D01*
X-6690789Y-22475344D01*
X-6775344Y-22390789D01*
X-6881891Y-22336500D01*
X-7000000Y-22317794D01*
X-7065314Y-22328137D01*
X-7111827Y-22316969D01*
X-7119283Y-22310601D01*
X-7126129Y-22303754D01*
X-7232192Y-22197692D01*
X-7250497Y-22153501D01*
X-7232192Y-22109306D01*
X-7187998Y-22091000D01*
X94997Y-22091000D01*
X139191Y-22109306D01*
X610601Y-22580716D01*
X628907Y-22624910D01*
X628138Y-22634684D01*
X617794Y-22700000D01*
X633120Y-22796765D01*
X636500Y-22818108D01*
X636500Y-22818109D01*
X690789Y-22924655D01*
X775345Y-23009211D01*
X881892Y-23063500D01*
X1000000Y-23082206D01*
X1118108Y-23063500D01*
X1224655Y-23009211D01*
X1309211Y-22924655D01*
X1363500Y-22818108D01*
X1382206Y-22700000D01*
X1363500Y-22581892D01*
X1309211Y-22475345D01*
X1224655Y-22390789D01*
X1118108Y-22336500D01*
X1000000Y-22317794D01*
X999999Y-22317794D01*
X961171Y-22323943D01*
X934685Y-22328137D01*
X888173Y-22316970D01*
X880716Y-22310601D01*
X467809Y-21897694D01*
X449503Y-21853500D01*
X467809Y-21809306D01*
X512003Y-21791000D01*
X7794997Y-21791000D01*
X7839191Y-21809306D01*
X8610601Y-22580716D01*
X8628907Y-22624910D01*
X8628138Y-22634684D01*
X8617794Y-22700000D01*
X8633120Y-22796765D01*
X8636500Y-22818108D01*
X8636500Y-22818109D01*
X8690789Y-22924655D01*
X8775345Y-23009211D01*
X8881892Y-23063500D01*
X9000000Y-23082206D01*
X9118108Y-23063500D01*
X9224655Y-23009211D01*
X9309211Y-22924655D01*
X9363500Y-22818108D01*
X9382206Y-22700000D01*
X9363500Y-22581892D01*
X9309211Y-22475345D01*
X9224655Y-22390789D01*
X9118108Y-22336500D01*
X9000000Y-22317794D01*
X8999999Y-22317794D01*
X8961171Y-22323943D01*
X8934685Y-22328137D01*
X8888173Y-22316970D01*
X8880716Y-22310601D01*
X8167809Y-21597694D01*
X8149503Y-21553500D01*
X8167809Y-21509306D01*
X8212003Y-21491000D01*
X15494997Y-21491000D01*
X15539191Y-21509306D01*
X16610601Y-22580716D01*
X16628907Y-22624910D01*
X16628138Y-22634684D01*
X16617794Y-22700000D01*
X16633120Y-22796765D01*
X16636500Y-22818108D01*
X16636500Y-22818109D01*
X16690789Y-22924655D01*
X16775345Y-23009211D01*
X16881892Y-23063500D01*
X17000000Y-23082206D01*
X17118108Y-23063500D01*
X17224655Y-23009211D01*
X17309211Y-22924655D01*
X17363500Y-22818108D01*
X17382206Y-22700000D01*
X17363500Y-22581892D01*
X17309211Y-22475345D01*
X17224655Y-22390789D01*
X17118108Y-22336500D01*
X17000000Y-22317794D01*
X16999999Y-22317794D01*
X16961171Y-22323943D01*
X16934685Y-22328137D01*
X16888173Y-22316970D01*
X16880716Y-22310601D01*
X15809309Y-21239194D01*
X15791003Y-21195000D01*
X15809309Y-21150806D01*
X15853503Y-21132500D01*
X19637500Y-21132500D01*
X19688206Y-21122414D01*
X19732400Y-21104108D01*
X19757261Y-21090533D01*
X19804108Y-21032400D01*
X19822414Y-20988206D01*
X19832500Y-20937500D01*
X19832500Y-20927254D01*
X19850806Y-20883060D01*
X19862981Y-20870885D01*
X19900000Y-20833866D01*
X19900000Y-21000000D01*
X23500000Y-21000000D01*
X23500000Y-18812639D01*
X24639500Y-18812639D01*
X24639500Y-19047360D01*
X24670136Y-19280062D01*
X24670136Y-19280063D01*
X24730879Y-19506760D01*
X24730885Y-19506778D01*
X24820701Y-19723611D01*
X24820707Y-19723623D01*
X24920925Y-19897206D01*
X24938059Y-19926883D01*
X24953646Y-19947196D01*
X25078397Y-20109776D01*
X25080942Y-20113092D01*
X25246908Y-20279058D01*
X25246911Y-20279060D01*
X25246913Y-20279062D01*
X25262196Y-20290789D01*
X25433117Y-20421941D01*
X25636383Y-20539296D01*
X25853228Y-20629117D01*
X25853238Y-20629119D01*
X25853239Y-20629120D01*
X26079936Y-20689863D01*
X26079938Y-20689863D01*
X26079941Y-20689864D01*
X26312644Y-20720500D01*
X26312650Y-20720500D01*
X26547350Y-20720500D01*
X26547356Y-20720500D01*
X26780059Y-20689864D01*
X27006772Y-20629117D01*
X27223617Y-20539296D01*
X27426883Y-20421941D01*
X27613092Y-20279058D01*
X27779058Y-20113092D01*
X27921941Y-19926883D01*
X28039296Y-19723617D01*
X28129117Y-19506772D01*
X28189864Y-19280059D01*
X28220500Y-19047356D01*
X28220500Y-18812644D01*
X28189864Y-18579941D01*
X28179206Y-18540166D01*
X28129120Y-18353239D01*
X28129119Y-18353238D01*
X28129117Y-18353228D01*
X28039296Y-18136383D01*
X27921941Y-17933117D01*
X27779058Y-17746908D01*
X27613092Y-17580942D01*
X27613088Y-17580939D01*
X27613086Y-17580937D01*
X27426880Y-17438057D01*
X27223623Y-17320707D01*
X27223611Y-17320701D01*
X27006778Y-17230885D01*
X27006760Y-17230879D01*
X26780063Y-17170136D01*
X26547360Y-17139500D01*
X26547356Y-17139500D01*
X26312644Y-17139500D01*
X26312639Y-17139500D01*
X26079937Y-17170136D01*
X26079936Y-17170136D01*
X25853239Y-17230879D01*
X25853221Y-17230885D01*
X25636388Y-17320701D01*
X25636376Y-17320707D01*
X25433119Y-17438057D01*
X25246913Y-17580937D01*
X25246903Y-17580946D01*
X25080946Y-17746903D01*
X25080937Y-17746913D01*
X24938057Y-17933119D01*
X24820707Y-18136376D01*
X24820701Y-18136388D01*
X24730885Y-18353221D01*
X24730879Y-18353239D01*
X24670136Y-18579936D01*
X24670136Y-18579937D01*
X24639500Y-18812639D01*
X23500000Y-18812639D01*
X23500000Y-11022507D01*
X27022999Y-11022507D01*
X27030369Y-11059553D01*
X27030369Y-11059554D01*
X27058438Y-11101561D01*
X27100446Y-11129630D01*
X27137493Y-11137000D01*
X27873000Y-11137000D01*
X27873000Y-10643608D01*
X27934174Y-10660000D01*
X28065826Y-10660000D01*
X28127000Y-10643608D01*
X28127000Y-11137000D01*
X28862507Y-11137000D01*
X28899553Y-11129630D01*
X28899554Y-11129630D01*
X28941561Y-11101561D01*
X28969630Y-11059554D01*
X28969630Y-11059553D01*
X28977000Y-11022507D01*
X28977000Y-10287000D01*
X28483608Y-10287000D01*
X28500000Y-10225826D01*
X28500000Y-10094174D01*
X28483608Y-10033000D01*
X28977000Y-10033000D01*
X28977000Y-9297492D01*
X28969630Y-9260446D01*
X28969630Y-9260445D01*
X28941561Y-9218438D01*
X28899553Y-9190369D01*
X28862507Y-9183000D01*
X28127000Y-9183000D01*
X28127000Y-9676391D01*
X28065826Y-9660000D01*
X27934174Y-9660000D01*
X27873000Y-9676391D01*
X27873000Y-9183000D01*
X27137493Y-9183000D01*
X27100446Y-9190369D01*
X27100445Y-9190369D01*
X27058438Y-9218438D01*
X27030369Y-9260445D01*
X27030369Y-9260446D01*
X27023000Y-9297492D01*
X27023000Y-10033000D01*
X27516392Y-10033000D01*
X27500000Y-10094174D01*
X27500000Y-10225826D01*
X27516392Y-10287000D01*
X27023000Y-10287000D01*
X27023000Y-11022507D01*
X27022999Y-11022507D01*
X23500000Y-11022507D01*
X23500000Y-3500000D01*
X21100000Y-3500000D01*
X21100000Y-11000000D01*
X19900000Y-12200000D01*
X19900000Y-20366134D01*
X19824655Y-20290789D01*
X19821177Y-20287311D01*
X19822578Y-20285909D01*
X19807589Y-20267004D01*
X19804108Y-20258600D01*
X19804105Y-20258594D01*
X19804101Y-20258586D01*
X19790535Y-20233742D01*
X19790534Y-20233741D01*
X19790533Y-20233739D01*
X19732400Y-20186892D01*
X19732399Y-20186891D01*
X19707587Y-20176614D01*
X19688206Y-20168586D01*
X19688202Y-20168585D01*
X19651572Y-20161299D01*
X19611798Y-20134723D01*
X19602466Y-20087807D01*
X19629042Y-20048033D01*
X19651572Y-20038701D01*
X19657926Y-20037437D01*
X19688206Y-20031414D01*
X19732400Y-20013108D01*
X19757261Y-19999533D01*
X19804108Y-19941400D01*
X19822414Y-19897206D01*
X19832500Y-19846500D01*
X19832500Y-12180772D01*
X19850806Y-12136578D01*
X20373885Y-11613499D01*
X20975386Y-11011998D01*
X21004108Y-10969012D01*
X21022414Y-10924818D01*
X21032500Y-10874112D01*
X21032500Y-3562500D01*
X21030450Y-3552193D01*
X21039782Y-3505276D01*
X21079556Y-3478701D01*
X21091749Y-3477500D01*
X24376325Y-3477500D01*
X24420519Y-3495806D01*
X26104194Y-5179481D01*
X26122500Y-5223675D01*
X26122500Y-6282862D01*
X26122501Y-6282870D01*
X26155039Y-6404303D01*
X26155040Y-6404307D01*
X26217906Y-6513193D01*
X26217909Y-6513197D01*
X27032601Y-7327888D01*
X27050907Y-7372082D01*
X27048216Y-7390224D01*
X27036643Y-7428374D01*
X27036642Y-7428379D01*
X27017770Y-7619999D01*
X27017770Y-7620000D01*
X27036642Y-7811622D01*
X27036643Y-7811624D01*
X27092538Y-7995883D01*
X27092539Y-7995884D01*
X27183302Y-8165692D01*
X27183306Y-8165698D01*
X27305459Y-8314541D01*
X27454302Y-8436694D01*
X27454304Y-8436695D01*
X27454307Y-8436697D01*
X27479201Y-8450003D01*
X27624117Y-8527462D01*
X27808376Y-8583357D01*
X28000000Y-8602230D01*
X28191624Y-8583357D01*
X28375883Y-8527462D01*
X28545698Y-8436694D01*
X28694541Y-8314541D01*
X28816694Y-8165698D01*
X28907462Y-7995883D01*
X28963357Y-7811624D01*
X28982230Y-7620000D01*
X28963357Y-7428376D01*
X28907462Y-7244117D01*
X28840313Y-7118491D01*
X28816697Y-7074307D01*
X28816693Y-7074301D01*
X28694541Y-6925459D01*
X28545698Y-6803306D01*
X28545692Y-6803302D01*
X28431115Y-6742060D01*
X28375883Y-6712538D01*
X28229775Y-6668216D01*
X28191622Y-6656642D01*
X28000000Y-6637770D01*
X27808379Y-6656642D01*
X27808374Y-6656643D01*
X27770224Y-6668216D01*
X27722619Y-6663527D01*
X27707888Y-6652601D01*
X27095806Y-6040519D01*
X27077500Y-5996325D01*
X27077500Y-5671448D01*
X27095806Y-5627254D01*
X27140000Y-5608948D01*
X27184194Y-5627254D01*
X27188304Y-5631788D01*
X27305459Y-5774541D01*
X27454302Y-5896694D01*
X27454304Y-5896695D01*
X27454307Y-5896697D01*
X27498491Y-5920313D01*
X27624117Y-5987462D01*
X27808376Y-6043357D01*
X28000000Y-6062230D01*
X28191624Y-6043357D01*
X28375883Y-5987462D01*
X28545698Y-5896694D01*
X28694541Y-5774541D01*
X28816694Y-5625698D01*
X28907462Y-5455883D01*
X28963357Y-5271624D01*
X28982230Y-5080000D01*
X28963357Y-4888376D01*
X28907462Y-4704117D01*
X28817869Y-4536500D01*
X28816697Y-4534307D01*
X28816693Y-4534301D01*
X28791197Y-4503234D01*
X28694541Y-4385459D01*
X28545698Y-4263306D01*
X28545692Y-4263302D01*
X28438695Y-4206112D01*
X28375883Y-4172538D01*
X28258111Y-4136811D01*
X28191622Y-4116642D01*
X28000000Y-4097770D01*
X27814366Y-4116053D01*
X27768590Y-4102167D01*
X27764046Y-4098048D01*
X27347888Y-3681890D01*
X26890190Y-3224193D01*
X26871885Y-3180000D01*
X26890191Y-3135806D01*
X26934385Y-3117500D01*
X27179845Y-3117500D01*
X27224039Y-3135806D01*
X27228154Y-3140346D01*
X27305459Y-3234541D01*
X27454302Y-3356694D01*
X27454304Y-3356695D01*
X27454307Y-3356697D01*
X27467033Y-3363499D01*
X27624117Y-3447462D01*
X27808376Y-3503357D01*
X28000000Y-3522230D01*
X28191624Y-3503357D01*
X28375883Y-3447462D01*
X28545698Y-3356694D01*
X28694541Y-3234541D01*
X28816694Y-3085698D01*
X28907462Y-2915883D01*
X28963357Y-2731624D01*
X28982230Y-2540000D01*
X28963357Y-2348376D01*
X28907462Y-2164117D01*
X28816694Y-1994302D01*
X28694541Y-1845459D01*
X28545698Y-1723306D01*
X28545692Y-1723302D01*
X28438695Y-1666112D01*
X28375883Y-1632538D01*
X28258111Y-1596811D01*
X28191622Y-1576642D01*
X28000000Y-1557770D01*
X27808377Y-1576642D01*
X27690604Y-1612369D01*
X27624117Y-1632538D01*
X27624115Y-1632538D01*
X27624115Y-1632539D01*
X27454307Y-1723302D01*
X27454301Y-1723306D01*
X27305458Y-1845459D01*
X27239538Y-1925781D01*
X27197351Y-1948329D01*
X27151575Y-1934442D01*
X27147032Y-1930324D01*
X25950903Y-734194D01*
X25932597Y-690000D01*
X25950903Y-645806D01*
X25995097Y-627500D01*
X27220880Y-627500D01*
X27265074Y-645806D01*
X27269187Y-650343D01*
X27305459Y-694541D01*
X27454302Y-816694D01*
X27454304Y-816695D01*
X27454307Y-816697D01*
X27498491Y-840313D01*
X27624117Y-907462D01*
X27808376Y-963357D01*
X28000000Y-982230D01*
X28191624Y-963357D01*
X28375883Y-907462D01*
X28545698Y-816694D01*
X28694541Y-694541D01*
X28816694Y-545698D01*
X28907462Y-375883D01*
X28963357Y-191624D01*
X28982230Y0D01*
X28963357Y191624D01*
X28907462Y375883D01*
X28816694Y545698D01*
X28694541Y694541D01*
X28545698Y816694D01*
X28375883Y907462D01*
X28191624Y963357D01*
X28000000Y982230D01*
X27808376Y963357D01*
X27624117Y907462D01*
X27498491Y840313D01*
X27454307Y816697D01*
X27454304Y816695D01*
X27454302Y816694D01*
X27305459Y694541D01*
X27269192Y650349D01*
X27227006Y627801D01*
X27220880Y627500D01*
X25995097Y627500D01*
X25950903Y645806D01*
X25932597Y690000D01*
X25950903Y734194D01*
X27147032Y1930324D01*
X27191226Y1948630D01*
X27235420Y1930324D01*
X27239538Y1925781D01*
X27305458Y1845459D01*
X27454301Y1723306D01*
X27454307Y1723302D01*
X27606304Y1642059D01*
X27624117Y1632538D01*
X27690604Y1612369D01*
X27808377Y1576642D01*
X28000000Y1557770D01*
X28191622Y1576642D01*
X28258111Y1596811D01*
X28375883Y1632538D01*
X28438695Y1666112D01*
X28545692Y1723302D01*
X28545698Y1723306D01*
X28609107Y1775345D01*
X28694541Y1845459D01*
X28816694Y1994302D01*
X28907462Y2164117D01*
X28963357Y2348376D01*
X28982230Y2540000D01*
X28963357Y2731624D01*
X28907462Y2915883D01*
X28816694Y3085698D01*
X28694541Y3234541D01*
X28545698Y3356694D01*
X28375883Y3447462D01*
X28191624Y3503357D01*
X28000000Y3522230D01*
X27808376Y3503357D01*
X27624117Y3447462D01*
X27498491Y3380313D01*
X27454307Y3356697D01*
X27454304Y3356695D01*
X27454302Y3356694D01*
X27305459Y3234541D01*
X27260698Y3180000D01*
X27228158Y3140350D01*
X27185971Y3117801D01*
X27179845Y3117500D01*
X26934385Y3117500D01*
X26890191Y3135806D01*
X26871885Y3180000D01*
X26890191Y3224194D01*
X27280657Y3614659D01*
X27764046Y4098048D01*
X27808240Y4116354D01*
X27814366Y4116053D01*
X28000000Y4097770D01*
X28191622Y4116642D01*
X28258111Y4136811D01*
X28375883Y4172538D01*
X28468671Y4222134D01*
X28545692Y4263302D01*
X28545698Y4263306D01*
X28694541Y4385459D01*
X28816694Y4534302D01*
X28817753Y4536282D01*
X28849136Y4594997D01*
X28907462Y4704117D01*
X28963357Y4888376D01*
X28982230Y5080000D01*
X28963357Y5271624D01*
X28907462Y5455883D01*
X28816694Y5625698D01*
X28694541Y5774541D01*
X28545698Y5896694D01*
X28375883Y5987462D01*
X28191624Y6043357D01*
X28000000Y6062230D01*
X27808376Y6043357D01*
X27624117Y5987462D01*
X27498491Y5920313D01*
X27454307Y5896697D01*
X27454304Y5896695D01*
X27454302Y5896694D01*
X27305459Y5774541D01*
X27238311Y5692722D01*
X27196126Y5670174D01*
X27150350Y5684060D01*
X27127801Y5726247D01*
X27127500Y5732373D01*
X27127500Y6046325D01*
X27145806Y6090519D01*
X27707888Y6652601D01*
X27752082Y6670907D01*
X27770224Y6668216D01*
X27808374Y6656643D01*
X27808379Y6656642D01*
X28000000Y6637770D01*
X28191622Y6656642D01*
X28287681Y6685782D01*
X28375883Y6712538D01*
X28439421Y6746500D01*
X28545692Y6803302D01*
X28545698Y6803306D01*
X28694541Y6925459D01*
X28816694Y7074302D01*
X28907462Y7244117D01*
X28963357Y7428376D01*
X28982230Y7620000D01*
X28963357Y7811624D01*
X28907462Y7995883D01*
X28816694Y8165698D01*
X28694541Y8314541D01*
X28545698Y8436694D01*
X28375883Y8527462D01*
X28191624Y8583357D01*
X28000000Y8602230D01*
X27808376Y8583357D01*
X27624117Y8527462D01*
X27498491Y8460313D01*
X27454307Y8436697D01*
X27454304Y8436695D01*
X27454302Y8436694D01*
X27305459Y8314541D01*
X27238311Y8232722D01*
X27196126Y8210174D01*
X27150350Y8224060D01*
X27127801Y8266247D01*
X27127500Y8272373D01*
X27127500Y8657036D01*
X27145806Y8701230D01*
X27653634Y9209058D01*
X27697828Y9227364D01*
X27715970Y9224673D01*
X27808375Y9196643D01*
X28000000Y9177770D01*
X28191622Y9196642D01*
X28292896Y9227364D01*
X28375883Y9252538D01*
X28438695Y9286112D01*
X28545692Y9343302D01*
X28545698Y9343306D01*
X28694541Y9465459D01*
X28816694Y9614302D01*
X28907462Y9784117D01*
X28963357Y9968376D01*
X28982230Y10160000D01*
X28963357Y10351624D01*
X28907462Y10535883D01*
X28816694Y10705698D01*
X28694541Y10854541D01*
X28545698Y10976694D01*
X28375883Y11067462D01*
X28191624Y11123357D01*
X28000000Y11142230D01*
X27808376Y11123357D01*
X27624117Y11067462D01*
X27545322Y11025345D01*
X27454307Y10976697D01*
X27454304Y10976695D01*
X27454302Y10976694D01*
X27305459Y10854541D01*
X27183306Y10705698D01*
X27183302Y10705692D01*
X27134995Y10615314D01*
X27092538Y10535883D01*
X27060992Y10431892D01*
X27036642Y10351622D01*
X27017770Y10160000D01*
X27017770Y10159999D01*
X27036643Y9968375D01*
X27064673Y9875970D01*
X27059984Y9828365D01*
X27049058Y9813634D01*
X26357914Y9122490D01*
X26301633Y9025011D01*
X26301632Y9025008D01*
X26272501Y8916287D01*
X26272500Y8916279D01*
X26272500Y7702964D01*
X26254194Y7658770D01*
X25457914Y6862490D01*
X25401633Y6765011D01*
X25401632Y6765008D01*
X25372501Y6656287D01*
X25372500Y6656279D01*
X25372500Y5602964D01*
X25354194Y5558770D01*
X24041230Y4245806D01*
X23997036Y4227500D01*
X23695000Y4227500D01*
X23650806Y4245806D01*
X23632500Y4290000D01*
X23632500Y13577090D01*
X23632499Y13577093D01*
X23630870Y13597802D01*
X23630870Y13597803D01*
X23627813Y13617109D01*
X23627813Y13617112D01*
X23597707Y13682429D01*
X23597704Y13682432D01*
X23595387Y13686054D01*
X23596341Y13686664D01*
X23582944Y13727903D01*
X23601057Y13767191D01*
X23609210Y13775344D01*
X23663499Y13881890D01*
X23663499Y13881891D01*
X23663500Y13881892D01*
X23682206Y14000000D01*
X23663500Y14118108D01*
X23609211Y14224655D01*
X23524655Y14309211D01*
X23524652Y14309212D01*
X23520674Y14312104D01*
X23521491Y14313228D01*
X23494060Y14345342D01*
X23491000Y14364659D01*
X23491000Y18735341D01*
X23509306Y18779535D01*
X23520724Y18787831D01*
X23520676Y18787898D01*
X23524655Y18790789D01*
X23609210Y18875344D01*
X23663499Y18981890D01*
X23663499Y18981891D01*
X23663500Y18981892D01*
X23673869Y19047360D01*
X24639500Y19047360D01*
X24639500Y18812639D01*
X24670136Y18579937D01*
X24670136Y18579936D01*
X24730879Y18353239D01*
X24730885Y18353221D01*
X24820701Y18136388D01*
X24820707Y18136376D01*
X24938057Y17933119D01*
X25080937Y17746913D01*
X25080946Y17746903D01*
X25246903Y17580946D01*
X25246913Y17580937D01*
X25433119Y17438057D01*
X25636376Y17320707D01*
X25636388Y17320701D01*
X25853221Y17230885D01*
X25853239Y17230879D01*
X26079936Y17170136D01*
X26312639Y17139500D01*
X26312644Y17139500D01*
X26547360Y17139500D01*
X26780062Y17170136D01*
X26780063Y17170136D01*
X27006760Y17230879D01*
X27006778Y17230885D01*
X27223611Y17320701D01*
X27223623Y17320707D01*
X27426880Y17438057D01*
X27613086Y17580937D01*
X27613096Y17580946D01*
X27779053Y17746903D01*
X27779058Y17746908D01*
X27921941Y17933117D01*
X28039296Y18136383D01*
X28129117Y18353228D01*
X28189864Y18579941D01*
X28220500Y18812644D01*
X28220500Y19047356D01*
X28189864Y19280059D01*
X28129117Y19506772D01*
X28039296Y19723617D01*
X27921941Y19926883D01*
X27779058Y20113092D01*
X27613092Y20279058D01*
X27426883Y20421941D01*
X27223617Y20539296D01*
X27006772Y20629117D01*
X26780059Y20689864D01*
X26547356Y20720500D01*
X26312644Y20720500D01*
X26079941Y20689864D01*
X26079937Y20689863D01*
X26079936Y20689863D01*
X25853239Y20629120D01*
X25853228Y20629117D01*
X25636383Y20539296D01*
X25433117Y20421941D01*
X25246908Y20279058D01*
X25246903Y20279053D01*
X25080946Y20113096D01*
X25080937Y20113086D01*
X24938057Y19926880D01*
X24820707Y19723623D01*
X24820701Y19723611D01*
X24730885Y19506778D01*
X24730879Y19506760D01*
X24670136Y19280063D01*
X24670136Y19280062D01*
X24639500Y19047360D01*
X23673869Y19047360D01*
X23682206Y19100000D01*
X23663500Y19218108D01*
X23609211Y19324655D01*
X23599959Y19333906D01*
X23581652Y19378099D01*
X23595487Y19417317D01*
X23604108Y19428015D01*
X23622414Y19472209D01*
X23632500Y19522915D01*
X23632500Y20937500D01*
X23622414Y20988206D01*
X23604108Y21032400D01*
X23590533Y21057261D01*
X23532400Y21104108D01*
X23488206Y21122414D01*
X23437500Y21132500D01*
X20853503Y21132500D01*
X20809309Y21150806D01*
X20791003Y21195000D01*
X20809309Y21239194D01*
X21880716Y22310601D01*
X21924910Y22328907D01*
X21934684Y22328138D01*
X21934692Y22328137D01*
X21999999Y22317794D01*
X22000000Y22317794D01*
X22118108Y22336500D01*
X22118109Y22336500D01*
X22224655Y22390789D01*
X22309210Y22475344D01*
X22363499Y22581890D01*
X22363499Y22581891D01*
X22363500Y22581892D01*
X22382206Y22700000D01*
X22363500Y22818108D01*
X22309211Y22924655D01*
X22224655Y23009211D01*
X22118108Y23063500D01*
X22000000Y23082206D01*
X21881892Y23063500D01*
X21775345Y23009211D01*
X21775344Y23009210D01*
X21690789Y22924655D01*
X21636500Y22818109D01*
X21636500Y22818108D01*
X21617795Y22700003D01*
X21617794Y22699999D01*
X21628138Y22634686D01*
X21616970Y22588173D01*
X21610601Y22580716D01*
X20539191Y21509306D01*
X20494997Y21491000D01*
X13212003Y21491000D01*
X13167809Y21509306D01*
X13149503Y21553500D01*
X13167809Y21597694D01*
X13880716Y22310601D01*
X13924910Y22328907D01*
X13934684Y22328138D01*
X13934692Y22328137D01*
X13999999Y22317794D01*
X14000000Y22317794D01*
X14118108Y22336500D01*
X14118109Y22336500D01*
X14224655Y22390789D01*
X14309210Y22475344D01*
X14363499Y22581890D01*
X14363499Y22581891D01*
X14363500Y22581892D01*
X14382206Y22700000D01*
X14363500Y22818108D01*
X14309211Y22924655D01*
X14224655Y23009211D01*
X14118108Y23063500D01*
X14000000Y23082206D01*
X13881892Y23063500D01*
X13775345Y23009211D01*
X13775344Y23009210D01*
X13690789Y22924655D01*
X13636500Y22818109D01*
X13636500Y22818108D01*
X13617795Y22700003D01*
X13617794Y22699999D01*
X13628138Y22634686D01*
X13616970Y22588173D01*
X13610601Y22580716D01*
X12839191Y21809306D01*
X12794997Y21791000D01*
X5512003Y21791000D01*
X5467809Y21809306D01*
X5449503Y21853500D01*
X5467809Y21897694D01*
X5880716Y22310601D01*
X5924910Y22328907D01*
X5934684Y22328138D01*
X5934692Y22328137D01*
X5999999Y22317794D01*
X6000000Y22317794D01*
X6118108Y22336500D01*
X6118109Y22336500D01*
X6224655Y22390789D01*
X6309210Y22475344D01*
X6363499Y22581890D01*
X6363499Y22581891D01*
X6363500Y22581892D01*
X6382206Y22700000D01*
X6363500Y22818108D01*
X6309211Y22924655D01*
X6224655Y23009211D01*
X6118108Y23063500D01*
X6000000Y23082206D01*
X5881892Y23063500D01*
X5775345Y23009211D01*
X5775344Y23009210D01*
X5690789Y22924655D01*
X5636500Y22818109D01*
X5636500Y22818108D01*
X5617795Y22700003D01*
X5617794Y22699999D01*
X5628138Y22634686D01*
X5616970Y22588173D01*
X5610601Y22580716D01*
X5139191Y22109306D01*
X5094997Y22091000D01*
X-2187997Y22091000D01*
X-2232191Y22109306D01*
X-2250497Y22153500D01*
X-2232191Y22197694D01*
X-2119283Y22310601D01*
X-2075088Y22328906D01*
X-2065314Y22328137D01*
X-2000000Y22317794D01*
X-1881891Y22336500D01*
X-1881890Y22336500D01*
X-1775344Y22390789D01*
X-1690789Y22475344D01*
X-1636500Y22581890D01*
X-1636500Y22581891D01*
X-1617794Y22700000D01*
X-1636500Y22818108D01*
X-1636500Y22818109D01*
X-1690789Y22924655D01*
X-1775344Y23009210D01*
X-1775345Y23009211D01*
X-1881892Y23063500D01*
X-2000000Y23082206D01*
X-2118108Y23063500D01*
X-2224655Y23009211D01*
X-2309211Y22924655D01*
X-2363500Y22818108D01*
X-2382206Y22700000D01*
X-2371861Y22634686D01*
X-2383029Y22588172D01*
X-2389391Y22580722D01*
X-2535928Y22434187D01*
X-2560809Y22409306D01*
X-2605003Y22391000D01*
X-6631774Y22391000D01*
X-6675968Y22409306D01*
X-6694274Y22453500D01*
X-6687462Y22481875D01*
X-6636500Y22581890D01*
X-6636500Y22581891D01*
X-6617794Y22700000D01*
X-6636500Y22818108D01*
X-6636500Y22818109D01*
X-6690789Y22924655D01*
X-6775344Y23009210D01*
X-6775345Y23009211D01*
X-6881892Y23063500D01*
X-7000000Y23082206D01*
X-7000001Y23082205D01*
X-7000003Y23082206D01*
X-7000004Y23082206D01*
X-7065312Y23071862D01*
X-7111825Y23083028D01*
X-7119283Y23089398D01*
X-7332191Y23302306D01*
X-7350497Y23346500D01*
X-7332191Y23390694D01*
X-7287997Y23409000D01*
X-5003Y23409000D01*
X39191Y23390694D01*
X610600Y22819283D01*
X628906Y22775089D01*
X628137Y22765314D01*
X617794Y22700000D01*
X636500Y22581891D01*
X636500Y22581890D01*
X690789Y22475344D01*
X775344Y22390789D01*
X881891Y22336500D01*
X1000000Y22317794D01*
X1118108Y22336500D01*
X1118109Y22336500D01*
X1224655Y22390789D01*
X1309210Y22475344D01*
X1363499Y22581890D01*
X1363499Y22581891D01*
X1363500Y22581892D01*
X1382206Y22700000D01*
X1363500Y22818108D01*
X1309211Y22924655D01*
X1224655Y23009211D01*
X1118108Y23063500D01*
X1000000Y23082206D01*
X934684Y23071861D01*
X888172Y23083029D01*
X880722Y23089391D01*
X367809Y23602306D01*
X349503Y23646500D01*
X367809Y23690694D01*
X412003Y23709000D01*
X7694997Y23709000D01*
X7739191Y23690694D01*
X8610600Y22819283D01*
X8628906Y22775089D01*
X8628137Y22765314D01*
X8617794Y22700000D01*
X8636500Y22581891D01*
X8636500Y22581890D01*
X8690789Y22475344D01*
X8775344Y22390789D01*
X8881891Y22336500D01*
X9000000Y22317794D01*
X9118108Y22336500D01*
X9118109Y22336500D01*
X9224655Y22390789D01*
X9309210Y22475344D01*
X9363499Y22581890D01*
X9363499Y22581891D01*
X9363500Y22581892D01*
X9382206Y22700000D01*
X9363500Y22818108D01*
X9309211Y22924655D01*
X9224655Y23009211D01*
X9118108Y23063500D01*
X9000000Y23082206D01*
X8934684Y23071861D01*
X8888172Y23083029D01*
X8880722Y23089392D01*
X8067809Y23902306D01*
X8049503Y23946500D01*
X8067809Y23990694D01*
X8112003Y24009000D01*
X15394997Y24009000D01*
X15439191Y23990694D01*
X16610600Y22819283D01*
X16628906Y22775089D01*
X16628137Y22765314D01*
X16617794Y22700000D01*
X16636500Y22581891D01*
X16636500Y22581890D01*
X16690789Y22475344D01*
X16775344Y22390789D01*
X16881891Y22336500D01*
X17000000Y22317794D01*
X17118108Y22336500D01*
X17118109Y22336500D01*
X17224655Y22390789D01*
X17309210Y22475344D01*
X17363499Y22581890D01*
X17363499Y22581891D01*
X17363500Y22581892D01*
X17382206Y22700000D01*
X17363500Y22818108D01*
X17309211Y22924655D01*
X17224655Y23009211D01*
X17118108Y23063500D01*
X17000000Y23082206D01*
X16934684Y23071861D01*
X16888172Y23083029D01*
X16880721Y23089392D01*
X15608193Y24361922D01*
X15537992Y24391000D01*
X-15937992Y24391000D01*
X-16008193Y24361922D01*
X-16061922Y24308193D01*
X-16061922Y24308192D01*
X-16070710Y24299404D01*
X-16070711Y24299401D01*
X-18099402Y22270711D01*
X-18099403Y22270711D01*
X-18108192Y22261922D01*
X-18108193Y22261922D01*
X-18161922Y22208193D01*
X-18191000Y22137992D01*
X-18191000Y22137990D01*
X-18191000Y11687011D01*
X-18209306Y11642817D01*
X-18243719Y11625281D01*
X-18318108Y11613500D01*
X-18424655Y11559211D01*
X-18509211Y11474655D01*
X-18563500Y11368108D01*
X-18582206Y11250000D01*
X-18563500Y11131892D01*
X-18563499Y11131891D01*
X-18563499Y11131890D01*
X-18509210Y11025344D01*
X-18428060Y10944194D01*
X-18409754Y10900000D01*
X-18428060Y10855806D01*
X-18509211Y10774655D01*
X-18563500Y10668108D01*
X-18582206Y10550000D01*
X-18563500Y10431892D01*
X-18563499Y10431891D01*
X-18563499Y10431890D01*
X-18509210Y10325344D01*
X-18428060Y10244194D01*
X-18409754Y10200000D01*
X-18428060Y10155806D01*
X-18509211Y10074655D01*
X-18563500Y9968108D01*
X-18582206Y9850000D01*
X-18578779Y9828365D01*
X-18571861Y9784686D01*
X-18583029Y9738172D01*
X-18589391Y9730722D01*
X-19308193Y9011922D01*
X-19361922Y8958193D01*
X-19391000Y8887992D01*
X-19391000Y6637992D01*
X-19391000Y6562008D01*
X-19361922Y6491807D01*
X-19361920Y6491805D01*
X-17609306Y4739191D01*
X-17591000Y4694997D01*
X-17591000Y-735341D01*
X-17609306Y-779535D01*
X-17620724Y-787831D01*
X-17620676Y-787898D01*
X-17624655Y-790789D01*
X-17709211Y-875345D01*
X-17763500Y-981892D01*
X-17782206Y-1100000D01*
X-17763500Y-1218108D01*
X-17709211Y-1324655D01*
X-17624655Y-1409211D01*
X-17518108Y-1463500D01*
X-17400000Y-1482206D01*
X-17281892Y-1463500D01*
X-17175345Y-1409211D01*
X-17090789Y-1324655D01*
X-17036500Y-1218109D01*
X-17036500Y-1218108D01*
X-17017794Y-1100000D01*
X-17036500Y-981891D01*
X-17036500Y-981890D01*
X-17090789Y-875344D01*
X-17175345Y-790789D01*
X-17179324Y-787898D01*
X-17178508Y-786775D01*
X-17205942Y-754652D01*
X-17209000Y-735341D01*
X-17209000Y4837991D01*
X-17238077Y4908191D01*
X-17238079Y4908194D01*
X-18990694Y6660809D01*
X-19009000Y6705003D01*
X-19009000Y8744996D01*
X-18990694Y8789190D01*
X-18675461Y9104423D01*
X-18631267Y9122729D01*
X-18587073Y9104423D01*
X-18569536Y9070007D01*
X-18563500Y9031892D01*
X-18525949Y8958194D01*
X-18509210Y8925344D01*
X-18428060Y8844194D01*
X-18409754Y8800000D01*
X-18428060Y8755806D01*
X-18509211Y8674655D01*
X-18563500Y8568108D01*
X-18582206Y8450000D01*
X-18563500Y8331892D01*
X-18563499Y8331891D01*
X-18563499Y8331890D01*
X-18509210Y8225344D01*
X-18424655Y8140789D01*
X-18318108Y8086500D01*
X-18200000Y8067794D01*
X-18081891Y8086500D01*
X-18081890Y8086500D01*
X-17975344Y8140789D01*
X-17890789Y8225344D01*
X-17836500Y8331890D01*
X-17836500Y8331891D01*
X-17817794Y8450000D01*
X-17828137Y8515314D01*
X-17816969Y8561827D01*
X-17810600Y8569283D01*
X-16938079Y9441805D01*
X-16938077Y9441808D01*
X-16909000Y9512008D01*
X-16909000Y21694997D01*
X-16890694Y21739191D01*
X-15539191Y23090694D01*
X-15494997Y23109000D01*
X-7705003Y23109000D01*
X-7660809Y23090694D01*
X-7389398Y22819283D01*
X-7371092Y22775089D01*
X-7371862Y22765312D01*
X-7382206Y22700000D01*
X-7363500Y22581892D01*
X-7363499Y22581891D01*
X-7363499Y22581890D01*
X-7312538Y22481875D01*
X-7308785Y22434187D01*
X-7339851Y22397812D01*
X-7368226Y22391000D01*
X-14662008Y22391000D01*
X-14737992Y22391000D01*
X-14808193Y22361922D01*
X-16208193Y20961922D01*
X-16261922Y20908193D01*
X-16291000Y20837992D01*
X-16291000Y17137992D01*
X-16291000Y17062008D01*
X-16261922Y16991807D01*
X-16261920Y16991805D01*
X-15109306Y15839191D01*
X-15091000Y15794997D01*
X-15091000Y9587992D01*
X-15091000Y9512008D01*
X-15061922Y9441807D01*
X-15061920Y9441805D01*
X-14189398Y8569283D01*
X-14171092Y8525089D01*
X-14171862Y8515312D01*
X-14182206Y8450000D01*
X-14163500Y8331892D01*
X-14163499Y8331891D01*
X-14163499Y8331890D01*
X-14109210Y8225344D01*
X-14024655Y8140789D01*
X-13918108Y8086500D01*
X-13800000Y8067794D01*
X-13681891Y8086500D01*
X-13681890Y8086500D01*
X-13575344Y8140789D01*
X-13490789Y8225344D01*
X-13436500Y8331890D01*
X-13436500Y8331891D01*
X-13417794Y8450000D01*
X-13436500Y8568108D01*
X-13436500Y8568109D01*
X-13490789Y8674655D01*
X-13571940Y8755806D01*
X-13590246Y8800000D01*
X-13571940Y8844194D01*
X-13490789Y8925344D01*
X-13436500Y9031890D01*
X-13436500Y9031891D01*
X-13417794Y9150000D01*
X-13436500Y9268108D01*
X-13436500Y9268109D01*
X-13490789Y9374655D01*
X-13571940Y9455806D01*
X-13590246Y9500000D01*
X-13571940Y9544194D01*
X-13490789Y9625344D01*
X-13436500Y9731890D01*
X-13436500Y9731891D01*
X-13417794Y9850000D01*
X-13436500Y9968108D01*
X-13436500Y9968109D01*
X-13490789Y10074655D01*
X-13571940Y10155806D01*
X-13590246Y10200000D01*
X-13571940Y10244194D01*
X-13490789Y10325344D01*
X-13436500Y10431890D01*
X-13436500Y10431891D01*
X-13417794Y10550000D01*
X-13436500Y10668108D01*
X-13436500Y10668109D01*
X-13490789Y10774655D01*
X-13575344Y10859210D01*
X-13575345Y10859211D01*
X-13681892Y10913500D01*
X-13756279Y10925281D01*
X-13797063Y10950274D01*
X-13809000Y10987011D01*
X-13809000Y12250000D01*
X-11932206Y12250000D01*
X-11913500Y12131892D01*
X-11859211Y12025345D01*
X-11774655Y11940789D01*
X-11668108Y11886500D01*
X-11550000Y11867794D01*
X-11549999Y11867794D01*
X-11511171Y11873943D01*
X-11484685Y11878137D01*
X-11438173Y11866970D01*
X-11430716Y11860601D01*
X-10009306Y10439191D01*
X-9991000Y10394997D01*
X-9991000Y724659D01*
X-10009306Y680465D01*
X-10020722Y672171D01*
X-10020674Y672104D01*
X-10024652Y669212D01*
X-10024655Y669211D01*
X-10109211Y584655D01*
X-10163500Y478108D01*
X-10182206Y360000D01*
X-10163500Y241892D01*
X-10109211Y135345D01*
X-10024655Y50789D01*
X-9918108Y-3500D01*
X-9800000Y-22206D01*
X-9681892Y-3500D01*
X-9681890Y-3499D01*
X-9575344Y50789D01*
X-9490789Y135344D01*
X-9436500Y241890D01*
X-9436500Y241891D01*
X-9417794Y360000D01*
X-9436500Y478108D01*
X-9436500Y478109D01*
X-9490789Y584655D01*
X-9575346Y669212D01*
X-9579326Y672104D01*
X-9578508Y673228D01*
X-9605940Y705342D01*
X-9609000Y724659D01*
X-9609000Y10537991D01*
X-9638077Y10608191D01*
X-9638079Y10608194D01*
X-11160601Y12130716D01*
X-11178907Y12174910D01*
X-11178138Y12184686D01*
X-11167794Y12249999D01*
X-11186500Y12368108D01*
X-11186500Y12368109D01*
X-11240789Y12474655D01*
X-11325344Y12559210D01*
X-11325345Y12559211D01*
X-11431892Y12613500D01*
X-11550000Y12632206D01*
X-11668108Y12613500D01*
X-11774655Y12559211D01*
X-11859211Y12474655D01*
X-11913500Y12368108D01*
X-11932206Y12250000D01*
X-13809000Y12250000D01*
X-13809000Y16237991D01*
X-13838077Y16308191D01*
X-13838079Y16308194D01*
X-14990694Y17460809D01*
X-15009000Y17505003D01*
X-15009000Y19047356D01*
X-13220500Y19047356D01*
X-13220500Y18812644D01*
X-13189864Y18579941D01*
X-13129117Y18353228D01*
X-13039296Y18136383D01*
X-12921941Y17933117D01*
X-12779058Y17746908D01*
X-12779053Y17746903D01*
X-12613096Y17580946D01*
X-12613086Y17580937D01*
X-12426880Y17438057D01*
X-12223623Y17320707D01*
X-12223611Y17320701D01*
X-12006778Y17230885D01*
X-12006760Y17230879D01*
X-11780063Y17170136D01*
X-11547360Y17139500D01*
X-11547356Y17139500D01*
X-11312639Y17139500D01*
X-11079937Y17170136D01*
X-11079936Y17170136D01*
X-10853239Y17230879D01*
X-10853221Y17230885D01*
X-10636388Y17320701D01*
X-10636376Y17320707D01*
X-10433119Y17438057D01*
X-10246913Y17580937D01*
X-10246903Y17580946D01*
X-10080946Y17746903D01*
X-10080937Y17746913D01*
X-9938057Y17933119D01*
X-9820707Y18136376D01*
X-9820701Y18136388D01*
X-9730885Y18353221D01*
X-9730879Y18353239D01*
X-9670136Y18579936D01*
X-9670136Y18579937D01*
X-9639500Y18812639D01*
X-9639500Y19047360D01*
X-9670136Y19280062D01*
X-9670136Y19280063D01*
X-9730879Y19506760D01*
X-9730885Y19506778D01*
X-9820701Y19723611D01*
X-9820707Y19723623D01*
X-9938057Y19926880D01*
X-10080937Y20113086D01*
X-10080946Y20113096D01*
X-10246903Y20279053D01*
X-10246908Y20279058D01*
X-10433117Y20421941D01*
X-10636383Y20539296D01*
X-10853228Y20629117D01*
X-10853239Y20629120D01*
X-11079936Y20689863D01*
X-11079938Y20689863D01*
X-11079941Y20689864D01*
X-11312644Y20720500D01*
X-11547356Y20720500D01*
X-11780059Y20689864D01*
X-12006772Y20629117D01*
X-12223617Y20539296D01*
X-12426883Y20421941D01*
X-12613092Y20279058D01*
X-12779058Y20113092D01*
X-12921941Y19926883D01*
X-13039296Y19723617D01*
X-13129117Y19506772D01*
X-13189864Y19280059D01*
X-13220500Y19047356D01*
X-15009000Y19047356D01*
X-15009000Y20394997D01*
X-14990694Y20439191D01*
X-14339191Y21090694D01*
X-14294997Y21109000D01*
X-8665917Y21109000D01*
X-8621723Y21090694D01*
X-8603417Y21046500D01*
X-8608173Y21022585D01*
X-8622414Y20988206D01*
X-8632500Y20937500D01*
X-8632500Y923737D01*
X-8650806Y879543D01*
X-8695000Y861237D01*
X-9029208Y861237D01*
X-9029208Y-788666D01*
X-8695000Y-788666D01*
X-8650806Y-806972D01*
X-8632500Y-851166D01*
X-8632500Y-3500000D01*
X-8632500Y-13577084D01*
X-8630870Y-13597806D01*
X-8627813Y-13617112D01*
X-8597707Y-13682429D01*
X-8597705Y-13682431D01*
X-8595387Y-13686054D01*
X-8596341Y-13686664D01*
X-8582944Y-13727903D01*
X-8601057Y-13767191D01*
X-8609211Y-13775345D01*
X-8663500Y-13881892D01*
X-8682206Y-14000000D01*
X-8663500Y-14118108D01*
X-8609211Y-14224655D01*
X-8524655Y-14309211D01*
X-8524653Y-14309212D01*
X-8520674Y-14312104D01*
X-8521491Y-14313228D01*
X-8494060Y-14345342D01*
X-8491000Y-14364659D01*
X-8491000Y-18735341D01*
X-8509306Y-18779535D01*
X-8520724Y-18787831D01*
X-8520676Y-18787898D01*
X-8524655Y-18790789D01*
X-8609211Y-18875345D01*
X-8663500Y-18981892D01*
X-8682206Y-19100000D01*
X-8663500Y-19218108D01*
X-8609211Y-19324655D01*
X-8599959Y-19333906D01*
X-8581652Y-19378099D01*
X-8595487Y-19417317D01*
X-8604108Y-19428015D01*
X-8622414Y-19472209D01*
X-8632500Y-19522915D01*
X-8632500Y-20937500D01*
X-8622414Y-20988206D01*
X-8608174Y-21022583D01*
X-8608175Y-21070418D01*
X-8641999Y-21104243D01*
X-8665917Y-21109000D01*
X-14294997Y-21109000D01*
X-14339191Y-21090694D01*
X-14990694Y-20439191D01*
X-15009000Y-20394997D01*
X-15009000Y-18812644D01*
X-13220500Y-18812644D01*
X-13220500Y-19047356D01*
X-13189864Y-19280059D01*
X-13129117Y-19506772D01*
X-13039296Y-19723617D01*
X-12921941Y-19926883D01*
X-12779058Y-20113092D01*
X-12613092Y-20279058D01*
X-12426883Y-20421941D01*
X-12223617Y-20539296D01*
X-12006772Y-20629117D01*
X-11780059Y-20689864D01*
X-11547356Y-20720500D01*
X-11547350Y-20720500D01*
X-11312650Y-20720500D01*
X-11312644Y-20720500D01*
X-11079941Y-20689864D01*
X-11079937Y-20689863D01*
X-11079936Y-20689863D01*
X-10853239Y-20629120D01*
X-10853238Y-20629119D01*
X-10853228Y-20629117D01*
X-10636383Y-20539296D01*
X-10433117Y-20421941D01*
X-10262196Y-20290789D01*
X-10246913Y-20279062D01*
X-10246911Y-20279060D01*
X-10246908Y-20279058D01*
X-10080942Y-20113092D01*
X-10078397Y-20109776D01*
X-9953646Y-19947196D01*
X-9938059Y-19926883D01*
X-9920925Y-19897206D01*
X-9820707Y-19723623D01*
X-9820701Y-19723611D01*
X-9730885Y-19506778D01*
X-9730879Y-19506760D01*
X-9670136Y-19280063D01*
X-9670136Y-19280062D01*
X-9639500Y-19047360D01*
X-9639500Y-18812639D01*
X-9670136Y-18579937D01*
X-9670136Y-18579936D01*
X-9730879Y-18353239D01*
X-9730885Y-18353221D01*
X-9820701Y-18136388D01*
X-9820707Y-18136376D01*
X-9938057Y-17933119D01*
X-10080937Y-17746913D01*
X-10080946Y-17746903D01*
X-10246903Y-17580946D01*
X-10246913Y-17580937D01*
X-10433119Y-17438057D01*
X-10636376Y-17320707D01*
X-10636388Y-17320701D01*
X-10853221Y-17230885D01*
X-10853239Y-17230879D01*
X-11079936Y-17170136D01*
X-11312639Y-17139500D01*
X-11312644Y-17139500D01*
X-11547356Y-17139500D01*
X-11547360Y-17139500D01*
X-11780062Y-17170136D01*
X-11780063Y-17170136D01*
X-12006760Y-17230879D01*
X-12006778Y-17230885D01*
X-12223611Y-17320701D01*
X-12223623Y-17320707D01*
X-12426880Y-17438057D01*
X-12613086Y-17580937D01*
X-12613088Y-17580939D01*
X-12613092Y-17580942D01*
X-12779058Y-17746908D01*
X-12921941Y-17933117D01*
X-13039296Y-18136383D01*
X-13129117Y-18353228D01*
X-13129119Y-18353238D01*
X-13129120Y-18353239D01*
X-13179206Y-18540166D01*
X-13189864Y-18579941D01*
X-13220500Y-18812644D01*
X-15009000Y-18812644D01*
X-15009000Y-17505003D01*
X-14990694Y-17460809D01*
X-12538079Y-15008194D01*
X-12538077Y-15008191D01*
X-12509000Y-14937991D01*
X-12509000Y-9512008D01*
X-12538077Y-9441808D01*
X-12538079Y-9441805D01*
X-12591807Y-9388078D01*
X-13410600Y-8569283D01*
X-13428906Y-8525089D01*
X-13428137Y-8515314D01*
X-13417794Y-8450000D01*
X-13436500Y-8331891D01*
X-13436500Y-8331890D01*
X-13490789Y-8225344D01*
X-13575344Y-8140789D01*
X-13681891Y-8086500D01*
X-13800000Y-8067794D01*
X-13918108Y-8086500D01*
X-13918109Y-8086500D01*
X-14024655Y-8140789D01*
X-14109211Y-8225345D01*
X-14163500Y-8331892D01*
X-14182206Y-8450000D01*
X-14163500Y-8568108D01*
X-14109211Y-8674655D01*
X-14028060Y-8755806D01*
X-14009754Y-8800000D01*
X-14028060Y-8844194D01*
X-14109211Y-8925345D01*
X-14163500Y-9031892D01*
X-14169536Y-9070007D01*
X-14194528Y-9110792D01*
X-14241042Y-9121960D01*
X-14275460Y-9104423D01*
X-16390694Y-6989190D01*
X-16409000Y-6944996D01*
X-16409000Y-6314659D01*
X-16390694Y-6270465D01*
X-16379277Y-6262171D01*
X-16379326Y-6262104D01*
X-16375346Y-6259212D01*
X-16290789Y-6174655D01*
X-16236500Y-6068109D01*
X-16236500Y-6068108D01*
X-16217794Y-5950000D01*
X-16236500Y-5831891D01*
X-16236500Y-5831890D01*
X-16290789Y-5725344D01*
X-16318440Y-5697694D01*
X-16336746Y-5653500D01*
X-16318440Y-5609306D01*
X-16274246Y-5591000D01*
X-13438120Y-5591000D01*
X-13393926Y-5609306D01*
X-13375620Y-5653500D01*
X-13376390Y-5663277D01*
X-13382206Y-5699996D01*
X-13382206Y-5699997D01*
X-13382206Y-5700000D01*
X-13363500Y-5818108D01*
X-13309211Y-5924655D01*
X-13224655Y-6009211D01*
X-13118108Y-6063500D01*
X-13000000Y-6082206D01*
X-12881892Y-6063500D01*
X-12879399Y-6062230D01*
X-12800863Y-6022213D01*
X-12775345Y-6009211D01*
X-12690789Y-5924655D01*
X-12636500Y-5818109D01*
X-12636500Y-5818108D01*
X-12617794Y-5700000D01*
X-12636500Y-5581891D01*
X-12636500Y-5581890D01*
X-12690789Y-5475344D01*
X-12775344Y-5390789D01*
X-12881891Y-5336500D01*
X-13000000Y-5317794D01*
X-13065314Y-5328137D01*
X-13111827Y-5316969D01*
X-13119283Y-5310601D01*
X-13191808Y-5238077D01*
X-13262008Y-5209000D01*
X-17732677Y-5209000D01*
X-17776871Y-5190694D01*
X-17795177Y-5146500D01*
X-17776871Y-5102306D01*
X-17756595Y-5088758D01*
X-17691807Y-5061922D01*
X-14497694Y-1867809D01*
X-14453500Y-1849503D01*
X-14409306Y-1867809D01*
X-14391000Y-1912003D01*
X-14391000Y-3244997D01*
X-14409306Y-3289191D01*
X-15330716Y-4210601D01*
X-15374910Y-4228907D01*
X-15384684Y-4228138D01*
X-15422615Y-4222131D01*
X-15449999Y-4217794D01*
X-15450000Y-4217794D01*
X-15568108Y-4236500D01*
X-15568109Y-4236500D01*
X-15674655Y-4290789D01*
X-15759211Y-4375345D01*
X-15813500Y-4481892D01*
X-15832206Y-4600000D01*
X-15813500Y-4718108D01*
X-15759211Y-4824655D01*
X-15674655Y-4909211D01*
X-15568108Y-4963500D01*
X-15450000Y-4982206D01*
X-15331892Y-4963500D01*
X-15225345Y-4909211D01*
X-15140789Y-4824655D01*
X-15117692Y-4779326D01*
X-15086500Y-4718109D01*
X-15086500Y-4718108D01*
X-15067794Y-4599999D01*
X-15078138Y-4534686D01*
X-15066970Y-4488173D01*
X-15060601Y-4480716D01*
X-14382297Y-3802412D01*
X-14338103Y-3784106D01*
X-14293909Y-3802412D01*
X-14276373Y-3836826D01*
X-14263500Y-3918108D01*
X-14209211Y-4024655D01*
X-14124655Y-4109211D01*
X-14018108Y-4163500D01*
X-13900000Y-4182206D01*
X-13781892Y-4163500D01*
X-13675345Y-4109211D01*
X-13590789Y-4024655D01*
X-13587554Y-4018306D01*
X-13539621Y-3924234D01*
X-12575500Y-3924234D01*
X-12575500Y-4075766D01*
X-12536281Y-4222135D01*
X-12460515Y-4353365D01*
X-12353365Y-4460515D01*
X-12222135Y-4536281D01*
X-12075766Y-4575500D01*
X-12075765Y-4575500D01*
X-11924235Y-4575500D01*
X-11924234Y-4575500D01*
X-11778682Y-4536500D01*
X-11777868Y-4536282D01*
X-11777865Y-4536281D01*
X-11745845Y-4517794D01*
X-11646635Y-4460515D01*
X-11646633Y-4460513D01*
X-11646629Y-4460510D01*
X-11539489Y-4353370D01*
X-11539486Y-4353366D01*
X-11463718Y-4222134D01*
X-11463717Y-4222131D01*
X-11424501Y-4075772D01*
X-11424500Y-4075764D01*
X-11424500Y-3924235D01*
X-11424501Y-3924227D01*
X-11463717Y-3777868D01*
X-11463718Y-3777865D01*
X-11539486Y-3646633D01*
X-11539489Y-3646629D01*
X-11646629Y-3539489D01*
X-11646633Y-3539486D01*
X-11777865Y-3463718D01*
X-11777868Y-3463717D01*
X-11924227Y-3424501D01*
X-11924233Y-3424500D01*
X-11924234Y-3424500D01*
X-12075766Y-3424500D01*
X-12075767Y-3424500D01*
X-12075772Y-3424501D01*
X-12222131Y-3463717D01*
X-12222134Y-3463718D01*
X-12277711Y-3495806D01*
X-12353365Y-3539485D01*
X-12353366Y-3539486D01*
X-12353370Y-3539489D01*
X-12460510Y-3646629D01*
X-12460513Y-3646633D01*
X-12460515Y-3646635D01*
X-12536281Y-3777865D01*
X-12575500Y-3924234D01*
X-13539621Y-3924234D01*
X-13536500Y-3918109D01*
X-13536500Y-3918108D01*
X-13517794Y-3800000D01*
X-13536500Y-3681891D01*
X-13536500Y-3681890D01*
X-13590789Y-3575344D01*
X-13675345Y-3490789D01*
X-13679324Y-3487898D01*
X-13678508Y-3486775D01*
X-13705942Y-3454652D01*
X-13709000Y-3435341D01*
X-13709000Y4075766D01*
X-12575500Y4075766D01*
X-12575500Y3924234D01*
X-12536281Y3777865D01*
X-12460515Y3646635D01*
X-12460513Y3646633D01*
X-12460510Y3646629D01*
X-12353370Y3539489D01*
X-12353366Y3539486D01*
X-12353365Y3539485D01*
X-12290790Y3503357D01*
X-12222134Y3463718D01*
X-12222131Y3463717D01*
X-12075772Y3424501D01*
X-12075767Y3424500D01*
X-12075766Y3424500D01*
X-12075765Y3424500D01*
X-11924235Y3424500D01*
X-11924234Y3424500D01*
X-11924233Y3424500D01*
X-11924227Y3424501D01*
X-11777868Y3463717D01*
X-11777865Y3463718D01*
X-11646633Y3539486D01*
X-11646629Y3539489D01*
X-11539489Y3646629D01*
X-11539486Y3646633D01*
X-11463718Y3777865D01*
X-11463717Y3777868D01*
X-11424501Y3924227D01*
X-11424500Y3924235D01*
X-11424500Y4075764D01*
X-11424501Y4075772D01*
X-11463717Y4222131D01*
X-11463718Y4222134D01*
X-11539486Y4353366D01*
X-11539489Y4353370D01*
X-11646629Y4460510D01*
X-11646633Y4460513D01*
X-11646635Y4460515D01*
X-11777865Y4536281D01*
X-11777868Y4536282D01*
X-11924227Y4575498D01*
X-11924234Y4575500D01*
X-12075766Y4575500D01*
X-12222135Y4536281D01*
X-12353365Y4460515D01*
X-12460515Y4353365D01*
X-12536281Y4222135D01*
X-12575500Y4075766D01*
X-13709000Y4075766D01*
X-13709000Y5937991D01*
X-13738077Y6008191D01*
X-13738079Y6008194D01*
X-14891805Y7161920D01*
X-14891807Y7161922D01*
X-14962008Y7191000D01*
X-14962010Y7191000D01*
X-17235341Y7191000D01*
X-17279535Y7209306D01*
X-17287828Y7220722D01*
X-17287896Y7220674D01*
X-17290787Y7224653D01*
X-17375344Y7309210D01*
X-17375345Y7309211D01*
X-17481892Y7363500D01*
X-17600000Y7382206D01*
X-17718108Y7363500D01*
X-17824655Y7309211D01*
X-17909211Y7224655D01*
X-17963500Y7118108D01*
X-17982206Y7000000D01*
X-17963500Y6881892D01*
X-17909212Y6775346D01*
X-17909210Y6775344D01*
X-17824655Y6690789D01*
X-17718108Y6636500D01*
X-17600000Y6617794D01*
X-17481891Y6636500D01*
X-17481890Y6636500D01*
X-17375344Y6690789D01*
X-17290787Y6775346D01*
X-17287896Y6779326D01*
X-17286771Y6778508D01*
X-17254658Y6805940D01*
X-17235341Y6809000D01*
X-15498008Y6809000D01*
X-15453814Y6790694D01*
X-15435508Y6746500D01*
X-15453814Y6702306D01*
X-15470338Y6685782D01*
X-15524627Y6579235D01*
X-15543333Y6461127D01*
X-15524627Y6343019D01*
X-15524626Y6343018D01*
X-15524626Y6343017D01*
X-15470337Y6236471D01*
X-15428060Y6194194D01*
X-15409754Y6150000D01*
X-15428060Y6105806D01*
X-15509211Y6024655D01*
X-15563500Y5918108D01*
X-15582206Y5800000D01*
X-15563500Y5681892D01*
X-15523284Y5602964D01*
X-15509210Y5575344D01*
X-15424655Y5490789D01*
X-15420676Y5487898D01*
X-15421491Y5486775D01*
X-15394058Y5454652D01*
X-15391000Y5435341D01*
X-15391000Y5137992D01*
X-15391000Y5062008D01*
X-15361922Y4991807D01*
X-15361920Y4991805D01*
X-15009306Y4639191D01*
X-14991000Y4594997D01*
X-14991000Y-494997D01*
X-15009306Y-539191D01*
X-17080716Y-2610601D01*
X-17124910Y-2628907D01*
X-17134684Y-2628138D01*
X-17161171Y-2623943D01*
X-17199999Y-2617794D01*
X-17200000Y-2617794D01*
X-17318108Y-2636500D01*
X-17318109Y-2636500D01*
X-17407190Y-2681890D01*
X-17424655Y-2690789D01*
X-17509211Y-2775345D01*
X-17563500Y-2881892D01*
X-17582206Y-3000000D01*
X-17563500Y-3118108D01*
X-17509211Y-3224655D01*
X-17424655Y-3309211D01*
X-17318108Y-3363500D01*
X-17200000Y-3382206D01*
X-17081892Y-3363500D01*
X-16975345Y-3309211D01*
X-16890789Y-3224655D01*
X-16860219Y-3164659D01*
X-16836500Y-3118109D01*
X-16836500Y-3118108D01*
X-16817794Y-2999999D01*
X-16828138Y-2934686D01*
X-16816970Y-2888173D01*
X-16810601Y-2880716D01*
X-14797694Y-867809D01*
X-14753500Y-849503D01*
X-14709306Y-867809D01*
X-14691000Y-912003D01*
X-14691000Y-1494997D01*
X-14709306Y-1539191D01*
X-17860809Y-4690694D01*
X-17905003Y-4709000D01*
X-18235341Y-4709000D01*
X-18279535Y-4690694D01*
X-18287828Y-4679277D01*
X-18287896Y-4679326D01*
X-18290787Y-4675346D01*
X-18375344Y-4590789D01*
X-18481891Y-4536500D01*
X-18600000Y-4517794D01*
X-18718108Y-4536500D01*
X-18718109Y-4536500D01*
X-18794645Y-4575498D01*
X-18824655Y-4590789D01*
X-18909211Y-4675345D01*
X-18963500Y-4781892D01*
X-18982206Y-4900000D01*
X-18963500Y-5018108D01*
X-18912547Y-5118108D01*
X-18912538Y-5118125D01*
X-18908785Y-5165813D01*
X-18939851Y-5202188D01*
X-18968226Y-5209000D01*
X-20594997Y-5209000D01*
X-20639191Y-5190694D01*
X-20639192Y-5190693D01*
X-20710601Y-5119281D01*
X-20728906Y-5075087D01*
X-20728137Y-5065312D01*
X-20717794Y-5000000D01*
X-20736500Y-4881891D01*
X-20736500Y-4881890D01*
X-20790789Y-4775344D01*
X-20875344Y-4690789D01*
X-20981891Y-4636500D01*
X-21100000Y-4617794D01*
X-21218108Y-4636500D01*
X-21218109Y-4636500D01*
X-21294343Y-4675344D01*
X-21324655Y-4690789D01*
X-21409211Y-4775345D01*
X-21463500Y-4881892D01*
X-21482206Y-5000000D01*
X-21697500Y-5000000D01*
X-21697500Y1439829D01*
X-21718115Y1516761D01*
X-21718115Y1516763D01*
X-21757939Y1585738D01*
X-21757940Y1585739D01*
X-21814261Y1642060D01*
X-23979194Y3806993D01*
X-23997500Y3851187D01*
X-23997500Y6600000D01*
X-21082206Y6600000D01*
X-21063500Y6481892D01*
X-21009211Y6375345D01*
X-20924655Y6290789D01*
X-20818108Y6236500D01*
X-20700000Y6217794D01*
X-20699999Y6217794D01*
X-20656678Y6224655D01*
X-20634685Y6228137D01*
X-20588173Y6216970D01*
X-20580716Y6210601D01*
X-19309306Y4939191D01*
X-19291000Y4894997D01*
X-19291000Y3614659D01*
X-19309306Y3570465D01*
X-19320722Y3562171D01*
X-19320674Y3562104D01*
X-19324652Y3559212D01*
X-19324655Y3559211D01*
X-19409211Y3474655D01*
X-19463500Y3368108D01*
X-19482206Y3250000D01*
X-19463500Y3131892D01*
X-19439960Y3085692D01*
X-19409210Y3025344D01*
X-19324655Y2940789D01*
X-19218108Y2886500D01*
X-19100000Y2867794D01*
X-18981891Y2886500D01*
X-18981890Y2886500D01*
X-18875344Y2940789D01*
X-18790789Y3025344D01*
X-18736500Y3131890D01*
X-18736500Y3131891D01*
X-18717794Y3250000D01*
X-18736500Y3368108D01*
X-18736500Y3368109D01*
X-18790789Y3474655D01*
X-18875346Y3559212D01*
X-18879326Y3562104D01*
X-18878508Y3563228D01*
X-18905940Y3595342D01*
X-18909000Y3614659D01*
X-18909000Y5037991D01*
X-18938077Y5108191D01*
X-18938079Y5108194D01*
X-20310601Y6480716D01*
X-20328907Y6524910D01*
X-20328138Y6534686D01*
X-20317794Y6599999D01*
X-20326708Y6656279D01*
X-20336500Y6718108D01*
X-20336500Y6718109D01*
X-20390789Y6824655D01*
X-20475344Y6909210D01*
X-20475345Y6909211D01*
X-20581892Y6963500D01*
X-20700000Y6982206D01*
X-20818108Y6963500D01*
X-20924655Y6909211D01*
X-21009211Y6824655D01*
X-21063500Y6718108D01*
X-21082206Y6600000D01*
X-23997500Y6600000D01*
X-23997500Y8148813D01*
X-23979194Y8193007D01*
X-19993007Y12179194D01*
X-19948813Y12197500D01*
X-19352831Y12197500D01*
X-19324457Y12190688D01*
X-19250950Y12153234D01*
X-19218108Y12136500D01*
X-19100000Y12117794D01*
X-18981891Y12136500D01*
X-18981890Y12136500D01*
X-18875344Y12190789D01*
X-18790789Y12275344D01*
X-18736500Y12381890D01*
X-18736500Y12381891D01*
X-18717794Y12500000D01*
X-18736500Y12618108D01*
X-18736500Y12618109D01*
X-18790789Y12724655D01*
X-18875344Y12809210D01*
X-18875345Y12809211D01*
X-18981892Y12863500D01*
X-19100000Y12882206D01*
X-19218108Y12863500D01*
X-19324457Y12809311D01*
X-19352831Y12802500D01*
X-20139825Y12802500D01*
X-20216761Y12781885D01*
X-20285739Y12742060D01*
X-24485739Y8542060D01*
X-24542060Y8485739D01*
X-24581885Y8416761D01*
X-24601118Y8344982D01*
X-24602499Y8339829D01*
X-24602500Y8339823D01*
X-24602500Y6365000D01*
X-24620806Y6320806D01*
X-24665000Y6302500D01*
X-24847169Y6302500D01*
X-24875542Y6309311D01*
X-24981892Y6363500D01*
X-25100000Y6382206D01*
X-25218108Y6363500D01*
X-25324655Y6309211D01*
X-25409211Y6224655D01*
X-25463500Y6118108D01*
X-25482206Y6000000D01*
X-29799500Y6000000D01*
X-29799500Y24495084D01*
X-29798730Y24504862D01*
X-29786389Y24582771D01*
X-29780347Y24601367D01*
X-29746793Y24667221D01*
X-29735299Y24683041D01*
X-29683041Y24735299D01*
X-29667222Y24746793D01*
X-29601367Y24780348D01*
X-29582770Y24786390D01*
X-29553786Y24790980D01*
X-29504860Y24798730D01*
X-29495084Y24799500D01*
X-29460118Y24799500D01*
X-29460117Y24799500D01*
X29495079Y24799500D01*
X29504856Y24798731D01*
G37*
G04 #@! TD.AperFunction*
G04 #@! TA.AperFunction,Conductor*
G36*
X23481694Y20981694D02*
G01*
X23500000Y20937500D01*
X23500000Y19522915D01*
X23481694Y19478721D01*
X23437500Y19460415D01*
X23418182Y19463475D01*
X23418117Y19463495D01*
X23418108Y19463500D01*
X23300000Y19482206D01*
X23181892Y19463500D01*
X23075345Y19409211D01*
X23075344Y19409210D01*
X22990789Y19324655D01*
X22936500Y19218109D01*
X22936500Y19218108D01*
X22917794Y19100000D01*
X22936500Y18981891D01*
X22936500Y18981890D01*
X22990789Y18875344D01*
X23075345Y18790789D01*
X23079324Y18787898D01*
X23078508Y18786775D01*
X23105942Y18754652D01*
X23109000Y18735341D01*
X23109000Y14364659D01*
X23090694Y14320465D01*
X23079277Y14312171D01*
X23079326Y14312104D01*
X23075346Y14309212D01*
X22990789Y14224655D01*
X22936500Y14118109D01*
X22936500Y14118108D01*
X22917794Y14000000D01*
X22936500Y13881891D01*
X22936500Y13881890D01*
X22990789Y13775344D01*
X23075344Y13690789D01*
X23181891Y13636500D01*
X23300000Y13617794D01*
X23418108Y13636500D01*
X23418109Y13636500D01*
X23418117Y13636502D01*
X23418194Y13636527D01*
X23418247Y13636522D01*
X23422966Y13637270D01*
X23423145Y13636136D01*
X23465881Y13632768D01*
X23496943Y13596390D01*
X23500000Y13577084D01*
X23500000Y3562500D01*
X23481694Y3518306D01*
X23437500Y3500000D01*
X18162500Y3500000D01*
X18118306Y3518306D01*
X18100000Y3562500D01*
X18100000Y10874112D01*
X18118306Y10918306D01*
X19300000Y12100000D01*
X19300000Y19846500D01*
X19318306Y19890694D01*
X19362500Y19909000D01*
X21635341Y19909000D01*
X21679535Y19890694D01*
X21687828Y19879277D01*
X21687896Y19879326D01*
X21690787Y19875346D01*
X21775344Y19790789D01*
X21881891Y19736500D01*
X22000000Y19717794D01*
X22118108Y19736500D01*
X22118109Y19736500D01*
X22224655Y19790789D01*
X22309210Y19875344D01*
X22309212Y19875346D01*
X22363500Y19981892D01*
X22382206Y20100000D01*
X22363500Y20218108D01*
X22309211Y20324655D01*
X22224655Y20409211D01*
X22118108Y20463500D01*
X22000000Y20482206D01*
X21881892Y20463500D01*
X21775345Y20409211D01*
X21775344Y20409210D01*
X21690787Y20324653D01*
X21687896Y20320674D01*
X21686771Y20321491D01*
X21654658Y20294060D01*
X21635341Y20291000D01*
X19362500Y20291000D01*
X19318306Y20309306D01*
X19300000Y20353500D01*
X19300000Y20937500D01*
X19318306Y20981694D01*
X19362500Y21000000D01*
X23437500Y21000000D01*
X23481694Y20981694D01*
G37*
G04 #@! TD.AperFunction*
G04 #@! TA.AperFunction,Conductor*
G36*
X-4918306Y20981694D02*
G01*
X-4900000Y20937500D01*
X-4900000Y20857640D01*
X-4908977Y20830055D01*
X-4906978Y20829037D01*
X-4909210Y20824655D01*
X-4909211Y20824655D01*
X-4963500Y20718108D01*
X-4982206Y20600000D01*
X-4963500Y20481892D01*
X-4963499Y20481891D01*
X-4963499Y20481890D01*
X-4906978Y20370963D01*
X-4908951Y20369957D01*
X-4900000Y20342359D01*
X-4900000Y12225888D01*
X-4918306Y12181694D01*
X-6100000Y11000000D01*
X-6100000Y3500000D01*
X-8500000Y3500000D01*
X-8500000Y20937500D01*
X-8481694Y20981694D01*
X-8437500Y21000000D01*
X-4962500Y21000000D01*
X-4918306Y20981694D01*
G37*
G04 #@! TD.AperFunction*
G04 #@! TA.AperFunction,Conductor*
G36*
X12900000Y-10874112D02*
G01*
X12881694Y-10918306D01*
X11700000Y-12100000D01*
X11700000Y-19846500D01*
X11681694Y-19890694D01*
X11637500Y-19909000D01*
X9364659Y-19909000D01*
X9320465Y-19890694D01*
X9312171Y-19879277D01*
X9312104Y-19879326D01*
X9309212Y-19875346D01*
X9224655Y-19790789D01*
X9118108Y-19736500D01*
X9000000Y-19717794D01*
X8881891Y-19736500D01*
X8881890Y-19736500D01*
X8775344Y-19790789D01*
X8690789Y-19875344D01*
X8636500Y-19981890D01*
X8636500Y-19981891D01*
X8617794Y-20100000D01*
X8636500Y-20218108D01*
X8636500Y-20218109D01*
X8673641Y-20291000D01*
X8690789Y-20324655D01*
X8775345Y-20409211D01*
X8881892Y-20463500D01*
X9000000Y-20482206D01*
X9118108Y-20463500D01*
X9224655Y-20409211D01*
X9309211Y-20324655D01*
X9309212Y-20324652D01*
X9312104Y-20320674D01*
X9313228Y-20321491D01*
X9345342Y-20294060D01*
X9364659Y-20291000D01*
X11637500Y-20291000D01*
X11681694Y-20309306D01*
X11700000Y-20353500D01*
X11700000Y-20937500D01*
X11681694Y-20981694D01*
X11637500Y-21000000D01*
X7500000Y-21000000D01*
X7500000Y-19421773D01*
X7581892Y-19463500D01*
X7700000Y-19482206D01*
X7818108Y-19463500D01*
X7924655Y-19409211D01*
X8009211Y-19324655D01*
X8063500Y-19218108D01*
X8082206Y-19100000D01*
X8063500Y-18981892D01*
X8009211Y-18875345D01*
X7924655Y-18790789D01*
X7920676Y-18787898D01*
X7921491Y-18786775D01*
X7894058Y-18754652D01*
X7891000Y-18735341D01*
X7891000Y-14364659D01*
X7909306Y-14320465D01*
X7920722Y-14312171D01*
X7920674Y-14312104D01*
X7924653Y-14309212D01*
X7924652Y-14309212D01*
X7924655Y-14309211D01*
X8009211Y-14224655D01*
X8063500Y-14118108D01*
X8082206Y-14000000D01*
X8063500Y-13881892D01*
X8009211Y-13775345D01*
X7924655Y-13690789D01*
X7818108Y-13636500D01*
X7700000Y-13617794D01*
X7581891Y-13636500D01*
X7581890Y-13636500D01*
X7500000Y-13678225D01*
X7500000Y-3500000D01*
X12900000Y-3500000D01*
X12900000Y-10874112D01*
G37*
G04 #@! TD.AperFunction*
G04 #@! TA.AperFunction,Conductor*
G36*
X7505940Y-14345342D02*
G01*
X7509000Y-14364659D01*
X7509000Y-18735341D01*
X7500000Y-18757068D01*
X7500000Y-14338388D01*
X7505940Y-14345342D01*
G37*
G04 #@! TD.AperFunction*
G04 #@! TA.AperFunction,Conductor*
G36*
X1900000Y712500D02*
G01*
X1881694Y668306D01*
X1837500Y650000D01*
X-5837500Y650000D01*
X-5881694Y668306D01*
X-5900000Y712500D01*
X-5900000Y3500000D01*
X1900000Y3500000D01*
X1900000Y712500D01*
G37*
G04 #@! TD.AperFunction*
G04 #@! TA.AperFunction,Conductor*
G36*
X-6100000Y0D02*
G01*
X-3162500Y0D01*
X-3118306Y-18306D01*
X-3100000Y-62500D01*
X-3100000Y-3500000D01*
X-8500000Y-3500000D01*
X-8500000Y-851166D01*
X-8481694Y-806972D01*
X-8437500Y-788666D01*
X-8119604Y-788666D01*
X-8119604Y861237D01*
X-8437500Y861237D01*
X-8481694Y879543D01*
X-8500000Y923737D01*
X-8500000Y3500000D01*
X-6100000Y3500000D01*
X-6100000Y0D01*
G37*
G04 #@! TD.AperFunction*
G04 #@! TA.AperFunction,Conductor*
G36*
X3081694Y20981694D02*
G01*
X3100000Y20937500D01*
X3100000Y20857640D01*
X3091022Y20830055D01*
X3093022Y20829037D01*
X3036500Y20718109D01*
X3036500Y20718108D01*
X3017794Y20600000D01*
X3036500Y20481891D01*
X3036500Y20481890D01*
X3093022Y20370963D01*
X3091048Y20369957D01*
X3100000Y20342359D01*
X3100000Y12225888D01*
X3081694Y12181694D01*
X1900000Y11000000D01*
X1900000Y3500000D01*
X-500000Y3500000D01*
X-500000Y13678226D01*
X-475344Y13690789D01*
X-390789Y13775344D01*
X-336500Y13881890D01*
X-336500Y13881891D01*
X-317794Y14000000D01*
X-336500Y14118108D01*
X-336500Y14118109D01*
X-390789Y14224655D01*
X-475346Y14309212D01*
X-479326Y14312104D01*
X-478508Y14313228D01*
X-500000Y14338388D01*
X-500000Y18757068D01*
X-490694Y18779535D01*
X-479275Y18787831D01*
X-479324Y18787898D01*
X-475345Y18790789D01*
X-390789Y18875344D01*
X-336500Y18981890D01*
X-336500Y18981891D01*
X-317794Y19100000D01*
X-336500Y19218108D01*
X-336500Y19218109D01*
X-390789Y19324655D01*
X-475344Y19409210D01*
X-475345Y19409211D01*
X-500000Y19421773D01*
X-500000Y21000000D01*
X3037500Y21000000D01*
X3081694Y20981694D01*
G37*
G04 #@! TD.AperFunction*
G04 #@! TA.AperFunction,Conductor*
G36*
X23500000Y-21000000D02*
G01*
X19900000Y-21000000D01*
X19900000Y-20833866D01*
X19909211Y-20824655D01*
X19963500Y-20718108D01*
X19982206Y-20600000D01*
X19963500Y-20481892D01*
X19909211Y-20375345D01*
X19900000Y-20366134D01*
X19900000Y-12200000D01*
X21100000Y-11000000D01*
X21100000Y-3500000D01*
X23500000Y-3500000D01*
X23500000Y-21000000D01*
G37*
G04 #@! TD.AperFunction*
G04 #@! TA.AperFunction,Conductor*
G36*
X-3100000Y-10874112D02*
G01*
X-3118306Y-10918306D01*
X-4300000Y-12100000D01*
X-4300000Y-19846500D01*
X-4318306Y-19890694D01*
X-4362500Y-19909000D01*
X-6635341Y-19909000D01*
X-6679535Y-19890694D01*
X-6687828Y-19879277D01*
X-6687896Y-19879326D01*
X-6690787Y-19875346D01*
X-6775344Y-19790789D01*
X-6881891Y-19736500D01*
X-7000000Y-19717794D01*
X-7118108Y-19736500D01*
X-7118109Y-19736500D01*
X-7224655Y-19790789D01*
X-7309211Y-19875345D01*
X-7363500Y-19981892D01*
X-7382206Y-20100000D01*
X-7363500Y-20218108D01*
X-7309211Y-20324655D01*
X-7224655Y-20409211D01*
X-7118108Y-20463500D01*
X-7000000Y-20482206D01*
X-6881892Y-20463500D01*
X-6775345Y-20409211D01*
X-6690789Y-20324655D01*
X-6690787Y-20324653D01*
X-6687896Y-20320674D01*
X-6686771Y-20321491D01*
X-6654658Y-20294060D01*
X-6635341Y-20291000D01*
X-4362500Y-20291000D01*
X-4318306Y-20309306D01*
X-4300000Y-20353500D01*
X-4300000Y-20937500D01*
X-4318306Y-20981694D01*
X-4362500Y-21000000D01*
X-8437500Y-21000000D01*
X-8481694Y-20981694D01*
X-8500000Y-20937500D01*
X-8500000Y-19522915D01*
X-8481694Y-19478721D01*
X-8437500Y-19460415D01*
X-8418182Y-19463475D01*
X-8418117Y-19463495D01*
X-8418108Y-19463500D01*
X-8300000Y-19482206D01*
X-8181892Y-19463500D01*
X-8075345Y-19409211D01*
X-7990789Y-19324655D01*
X-7950610Y-19245800D01*
X-7936500Y-19218109D01*
X-7936500Y-19218108D01*
X-7917794Y-19100000D01*
X-7936500Y-18981891D01*
X-7936500Y-18981890D01*
X-7990789Y-18875344D01*
X-8075345Y-18790789D01*
X-8079324Y-18787898D01*
X-8078508Y-18786775D01*
X-8105942Y-18754652D01*
X-8109000Y-18735341D01*
X-8109000Y-14364659D01*
X-8090694Y-14320465D01*
X-8079277Y-14312171D01*
X-8079326Y-14312104D01*
X-8075346Y-14309212D01*
X-7990789Y-14224655D01*
X-7936500Y-14118109D01*
X-7936500Y-14118108D01*
X-7917794Y-14000000D01*
X-7936500Y-13881891D01*
X-7936500Y-13881890D01*
X-7990789Y-13775344D01*
X-8075344Y-13690789D01*
X-8181891Y-13636500D01*
X-8300000Y-13617794D01*
X-8418108Y-13636500D01*
X-8418109Y-13636500D01*
X-8418117Y-13636502D01*
X-8418194Y-13636527D01*
X-8418247Y-13636522D01*
X-8422966Y-13637270D01*
X-8423145Y-13636136D01*
X-8465881Y-13632768D01*
X-8496943Y-13596390D01*
X-8500000Y-13577084D01*
X-8500000Y-3500000D01*
X-3100000Y-3500000D01*
X-3100000Y-10874112D01*
G37*
G04 #@! TD.AperFunction*
G04 #@! TA.AperFunction,Conductor*
G36*
X17900000Y2712500D02*
G01*
X17881694Y2668306D01*
X17837500Y2650000D01*
X10162500Y2650000D01*
X10118306Y2668306D01*
X10100000Y2712500D01*
X10100000Y3500000D01*
X17900000Y3500000D01*
X17900000Y2712500D01*
G37*
G04 #@! TD.AperFunction*
G04 #@! TA.AperFunction,Conductor*
G36*
X11081694Y20981694D02*
G01*
X11100000Y20937500D01*
X11100000Y20857640D01*
X11091022Y20830055D01*
X11093022Y20829037D01*
X11036500Y20718109D01*
X11036500Y20718108D01*
X11017794Y20600000D01*
X11036500Y20481891D01*
X11036500Y20481890D01*
X11093022Y20370963D01*
X11091048Y20369957D01*
X11100000Y20342359D01*
X11100000Y12225888D01*
X11081694Y12181694D01*
X9900000Y11000000D01*
X9900000Y3500000D01*
X7500000Y3500000D01*
X7500000Y13678226D01*
X7524655Y13690789D01*
X7609210Y13775344D01*
X7649389Y13854197D01*
X7663500Y13881892D01*
X7682206Y14000000D01*
X7663500Y14118108D01*
X7609211Y14224655D01*
X7524655Y14309211D01*
X7524652Y14309212D01*
X7520674Y14312104D01*
X7521491Y14313228D01*
X7500000Y14338387D01*
X7500000Y18757068D01*
X7509306Y18779535D01*
X7520724Y18787831D01*
X7520676Y18787898D01*
X7524655Y18790789D01*
X7609210Y18875344D01*
X7649388Y18954195D01*
X7663500Y18981892D01*
X7682206Y19100000D01*
X7663500Y19218108D01*
X7609211Y19324655D01*
X7524655Y19409211D01*
X7500000Y19421773D01*
X7500000Y21000000D01*
X11037500Y21000000D01*
X11081694Y20981694D01*
G37*
G04 #@! TD.AperFunction*
G04 #@! TA.AperFunction,Conductor*
G36*
X7500000Y19421773D02*
G01*
X7418108Y19463500D01*
X7300000Y19482206D01*
X7181892Y19463500D01*
X7075345Y19409211D01*
X7075344Y19409210D01*
X6990789Y19324655D01*
X6936500Y19218109D01*
X6936500Y19218108D01*
X6917794Y19100000D01*
X6936500Y18981891D01*
X6936500Y18981890D01*
X6990789Y18875344D01*
X7075345Y18790789D01*
X7079324Y18787898D01*
X7078508Y18786775D01*
X7105942Y18754652D01*
X7109000Y18735341D01*
X7109000Y14364659D01*
X7090694Y14320465D01*
X7079277Y14312171D01*
X7079326Y14312104D01*
X7075346Y14309212D01*
X6990789Y14224655D01*
X6936500Y14118109D01*
X6936500Y14118108D01*
X6917794Y14000000D01*
X6936500Y13881891D01*
X6936500Y13881890D01*
X6990789Y13775344D01*
X7075344Y13690789D01*
X7181891Y13636500D01*
X7300000Y13617794D01*
X7418108Y13636500D01*
X7418109Y13636500D01*
X7500000Y13678226D01*
X7500000Y3500000D01*
X2100000Y3500000D01*
X2100000Y10874112D01*
X2118306Y10918306D01*
X3300000Y12100000D01*
X3300000Y19846500D01*
X3318306Y19890694D01*
X3362500Y19909000D01*
X5635341Y19909000D01*
X5679535Y19890694D01*
X5687828Y19879277D01*
X5687896Y19879326D01*
X5690787Y19875346D01*
X5775344Y19790789D01*
X5881891Y19736500D01*
X6000000Y19717794D01*
X6118108Y19736500D01*
X6118109Y19736500D01*
X6224655Y19790789D01*
X6309210Y19875344D01*
X6309212Y19875346D01*
X6363500Y19981892D01*
X6382206Y20100000D01*
X6363500Y20218108D01*
X6309211Y20324655D01*
X6224655Y20409211D01*
X6118108Y20463500D01*
X6000000Y20482206D01*
X5881892Y20463500D01*
X5775345Y20409211D01*
X5775344Y20409210D01*
X5690787Y20324653D01*
X5687896Y20320674D01*
X5686771Y20321491D01*
X5654658Y20294060D01*
X5635341Y20291000D01*
X3362500Y20291000D01*
X3318306Y20309306D01*
X3300000Y20353500D01*
X3300000Y20937500D01*
X3318306Y20981694D01*
X3362500Y21000000D01*
X7500000Y21000000D01*
X7500000Y19421773D01*
G37*
G04 #@! TD.AperFunction*
G04 #@! TA.AperFunction,Conductor*
G36*
X7500000Y14338387D02*
G01*
X7494060Y14345342D01*
X7491000Y14364659D01*
X7491000Y18735341D01*
X7500000Y18757068D01*
X7500000Y14338387D01*
G37*
G04 #@! TD.AperFunction*
G04 #@! TA.AperFunction,Conductor*
G36*
X20881694Y-3518306D02*
G01*
X20900000Y-3562500D01*
X20900000Y-10874112D01*
X20881694Y-10918306D01*
X19700000Y-12100000D01*
X19700000Y-19846500D01*
X19681694Y-19890694D01*
X19637500Y-19909000D01*
X17364659Y-19909000D01*
X17320465Y-19890694D01*
X17312171Y-19879277D01*
X17312104Y-19879326D01*
X17309212Y-19875346D01*
X17224655Y-19790789D01*
X17118108Y-19736500D01*
X17000000Y-19717794D01*
X16881891Y-19736500D01*
X16881890Y-19736500D01*
X16775344Y-19790789D01*
X16690789Y-19875344D01*
X16636500Y-19981890D01*
X16636500Y-19981891D01*
X16617794Y-20100000D01*
X16636500Y-20218108D01*
X16636500Y-20218109D01*
X16673641Y-20291000D01*
X16690789Y-20324655D01*
X16775345Y-20409211D01*
X16881892Y-20463500D01*
X17000000Y-20482206D01*
X17118108Y-20463500D01*
X17224655Y-20409211D01*
X17309211Y-20324655D01*
X17309212Y-20324652D01*
X17312104Y-20320674D01*
X17313228Y-20321491D01*
X17345342Y-20294060D01*
X17364659Y-20291000D01*
X19637500Y-20291000D01*
X19681694Y-20309306D01*
X19700000Y-20353500D01*
X19700000Y-20937500D01*
X19681694Y-20981694D01*
X19637500Y-21000000D01*
X15500000Y-21000000D01*
X15500000Y-19421773D01*
X15581892Y-19463500D01*
X15700000Y-19482206D01*
X15818108Y-19463500D01*
X15924655Y-19409211D01*
X16009211Y-19324655D01*
X16063500Y-19218108D01*
X16082206Y-19100000D01*
X16063500Y-18981892D01*
X16009211Y-18875345D01*
X15924655Y-18790789D01*
X15920676Y-18787898D01*
X15921491Y-18786775D01*
X15894058Y-18754652D01*
X15891000Y-18735341D01*
X15891000Y-14364659D01*
X15909306Y-14320465D01*
X15920722Y-14312171D01*
X15920674Y-14312104D01*
X15924653Y-14309212D01*
X15924652Y-14309212D01*
X15924655Y-14309211D01*
X16009211Y-14224655D01*
X16063500Y-14118108D01*
X16082206Y-14000000D01*
X16063500Y-13881892D01*
X16009211Y-13775345D01*
X15924655Y-13690789D01*
X15818108Y-13636500D01*
X15700000Y-13617794D01*
X15581891Y-13636500D01*
X15581890Y-13636500D01*
X15500000Y-13678225D01*
X15500000Y-3500000D01*
X19900000Y-3500000D01*
X20837500Y-3500000D01*
X20881694Y-3518306D01*
G37*
G04 #@! TD.AperFunction*
G04 #@! TA.AperFunction,Conductor*
G36*
X15505940Y-14345342D02*
G01*
X15509000Y-14364659D01*
X15509000Y-18735341D01*
X15500000Y-18757068D01*
X15500000Y-14338388D01*
X15505940Y-14345342D01*
G37*
G04 #@! TD.AperFunction*
G04 #@! TA.AperFunction,Conductor*
G36*
X9900000Y1762500D02*
G01*
X9881694Y1718306D01*
X9837500Y1700000D01*
X2162500Y1700000D01*
X2118306Y1718306D01*
X2100000Y1762500D01*
X2100000Y3500000D01*
X9900000Y3500000D01*
X9900000Y1762500D01*
G37*
G04 #@! TD.AperFunction*
G04 #@! TA.AperFunction,Conductor*
G36*
X15500000Y19421773D02*
G01*
X15418108Y19463500D01*
X15300000Y19482206D01*
X15181892Y19463500D01*
X15075345Y19409211D01*
X15075344Y19409210D01*
X14990789Y19324655D01*
X14936500Y19218109D01*
X14936500Y19218108D01*
X14917794Y19100000D01*
X14936500Y18981891D01*
X14936500Y18981890D01*
X14990789Y18875344D01*
X15075345Y18790789D01*
X15079324Y18787898D01*
X15078508Y18786775D01*
X15105942Y18754652D01*
X15109000Y18735341D01*
X15109000Y14364659D01*
X15090694Y14320465D01*
X15079277Y14312171D01*
X15079326Y14312104D01*
X15075346Y14309212D01*
X14990789Y14224655D01*
X14936500Y14118109D01*
X14936500Y14118108D01*
X14917794Y14000000D01*
X14936500Y13881891D01*
X14936500Y13881890D01*
X14990789Y13775344D01*
X15075344Y13690789D01*
X15181891Y13636500D01*
X15300000Y13617794D01*
X15418108Y13636500D01*
X15418109Y13636500D01*
X15500000Y13678226D01*
X15500000Y3500000D01*
X10100000Y3500000D01*
X10100000Y10874112D01*
X10118306Y10918306D01*
X11300000Y12100000D01*
X11300000Y19846500D01*
X11318306Y19890694D01*
X11362500Y19909000D01*
X13635341Y19909000D01*
X13679535Y19890694D01*
X13687828Y19879277D01*
X13687896Y19879326D01*
X13690787Y19875346D01*
X13775344Y19790789D01*
X13881891Y19736500D01*
X14000000Y19717794D01*
X14118108Y19736500D01*
X14118109Y19736500D01*
X14224655Y19790789D01*
X14309210Y19875344D01*
X14309212Y19875346D01*
X14363500Y19981892D01*
X14382206Y20100000D01*
X14363500Y20218108D01*
X14309211Y20324655D01*
X14224655Y20409211D01*
X14118108Y20463500D01*
X14000000Y20482206D01*
X13881892Y20463500D01*
X13775345Y20409211D01*
X13775344Y20409210D01*
X13690787Y20324653D01*
X13687896Y20320674D01*
X13686771Y20321491D01*
X13654658Y20294060D01*
X13635341Y20291000D01*
X11362500Y20291000D01*
X11318306Y20309306D01*
X11300000Y20353500D01*
X11300000Y20937500D01*
X11318306Y20981694D01*
X11362500Y21000000D01*
X15500000Y21000000D01*
X15500000Y19421773D01*
G37*
G04 #@! TD.AperFunction*
G04 #@! TA.AperFunction,Conductor*
G36*
X15500000Y14338387D02*
G01*
X15494060Y14345342D01*
X15491000Y14364659D01*
X15491000Y18735341D01*
X15500000Y18757068D01*
X15500000Y14338387D01*
G37*
G04 #@! TD.AperFunction*
G04 #@! TA.AperFunction,Conductor*
G36*
X12881694Y-1718306D02*
G01*
X12900000Y-1762500D01*
X12900000Y-3500000D01*
X5100000Y-3500000D01*
X5100000Y-1762500D01*
X5118306Y-1718306D01*
X5162500Y-1700000D01*
X12837500Y-1700000D01*
X12881694Y-1718306D01*
G37*
G04 #@! TD.AperFunction*
G04 #@! TA.AperFunction,Conductor*
G36*
X19881694Y-2668306D02*
G01*
X19900000Y-2712500D01*
X19900000Y-3500000D01*
X13100000Y-3500000D01*
X13100000Y-2712500D01*
X13118306Y-2668306D01*
X13162500Y-2650000D01*
X19837500Y-2650000D01*
X19881694Y-2668306D01*
G37*
G04 #@! TD.AperFunction*
G04 #@! TA.AperFunction,Conductor*
G36*
X4900000Y-10874112D02*
G01*
X4881694Y-10918306D01*
X3700000Y-12100000D01*
X3700000Y-19846500D01*
X3681694Y-19890694D01*
X3637500Y-19909000D01*
X1364659Y-19909000D01*
X1320465Y-19890694D01*
X1312171Y-19879277D01*
X1312104Y-19879326D01*
X1309212Y-19875346D01*
X1224655Y-19790789D01*
X1118108Y-19736500D01*
X1000000Y-19717794D01*
X881891Y-19736500D01*
X881890Y-19736500D01*
X775344Y-19790789D01*
X690789Y-19875344D01*
X636500Y-19981890D01*
X636500Y-19981891D01*
X617794Y-20100000D01*
X636500Y-20218108D01*
X636500Y-20218109D01*
X673641Y-20291000D01*
X690789Y-20324655D01*
X775345Y-20409211D01*
X881892Y-20463500D01*
X1000000Y-20482206D01*
X1118108Y-20463500D01*
X1224655Y-20409211D01*
X1309211Y-20324655D01*
X1309212Y-20324652D01*
X1312104Y-20320674D01*
X1313228Y-20321491D01*
X1345342Y-20294060D01*
X1364659Y-20291000D01*
X3637500Y-20291000D01*
X3681694Y-20309306D01*
X3700000Y-20353500D01*
X3700000Y-20937500D01*
X3681694Y-20981694D01*
X3637500Y-21000000D01*
X-500000Y-21000000D01*
X-500000Y-19421773D01*
X-418108Y-19463500D01*
X-300000Y-19482206D01*
X-181892Y-19463500D01*
X-75345Y-19409211D01*
X9211Y-19324655D01*
X63500Y-19218108D01*
X82206Y-19100000D01*
X63500Y-18981892D01*
X9211Y-18875345D01*
X-75345Y-18790789D01*
X-79324Y-18787898D01*
X-78508Y-18786775D01*
X-105942Y-18754652D01*
X-109000Y-18735341D01*
X-109000Y-14364659D01*
X-90694Y-14320465D01*
X-79277Y-14312171D01*
X-79326Y-14312104D01*
X-75346Y-14309212D01*
X-75345Y-14309211D01*
X9211Y-14224655D01*
X63500Y-14118108D01*
X82206Y-14000000D01*
X63500Y-13881892D01*
X9211Y-13775345D01*
X-16273Y-13749861D01*
X-75344Y-13690789D01*
X-181891Y-13636500D01*
X-300000Y-13617794D01*
X-418108Y-13636500D01*
X-418109Y-13636500D01*
X-500000Y-13678226D01*
X-500000Y-3500000D01*
X4900000Y-3500000D01*
X4900000Y-10874112D01*
G37*
G04 #@! TD.AperFunction*
G04 #@! TA.AperFunction,Conductor*
G36*
X-494060Y-14345342D02*
G01*
X-491000Y-14364659D01*
X-491000Y-18735341D01*
X-500000Y-18757068D01*
X-500000Y-14338387D01*
X-494060Y-14345342D01*
G37*
G04 #@! TD.AperFunction*
G04 #@! TA.AperFunction,Conductor*
G36*
X15500000Y-13678226D02*
G01*
X15475344Y-13690789D01*
X15390789Y-13775344D01*
X15336500Y-13881890D01*
X15336500Y-13881891D01*
X15317794Y-14000000D01*
X15336500Y-14118108D01*
X15336500Y-14118109D01*
X15390789Y-14224655D01*
X15475346Y-14309212D01*
X15479326Y-14312104D01*
X15478508Y-14313228D01*
X15500000Y-14338388D01*
X15500000Y-18757068D01*
X15490694Y-18779535D01*
X15479275Y-18787831D01*
X15479324Y-18787898D01*
X15475345Y-18790789D01*
X15390789Y-18875344D01*
X15336500Y-18981890D01*
X15336500Y-18981891D01*
X15317794Y-19100000D01*
X15336500Y-19218108D01*
X15336500Y-19218109D01*
X15390789Y-19324655D01*
X15475345Y-19409211D01*
X15500000Y-19421773D01*
X15500000Y-21000000D01*
X11962500Y-21000000D01*
X11918306Y-20981694D01*
X11900000Y-20937500D01*
X11900000Y-20857640D01*
X11908977Y-20830055D01*
X11906978Y-20829037D01*
X11963499Y-20718109D01*
X11963500Y-20718108D01*
X11982206Y-20600000D01*
X11963500Y-20481892D01*
X11909211Y-20375345D01*
X11909210Y-20375344D01*
X11906978Y-20370963D01*
X11908951Y-20369957D01*
X11900000Y-20342359D01*
X11900000Y-12225888D01*
X11918306Y-12181694D01*
X13100000Y-11000000D01*
X13100000Y-3500000D01*
X15500000Y-3500000D01*
X15500000Y-13678226D01*
G37*
G04 #@! TD.AperFunction*
G04 #@! TA.AperFunction,Conductor*
G36*
X4881694Y-668306D02*
G01*
X4900000Y-712500D01*
X4900000Y-3500000D01*
X-2900000Y-3500000D01*
X-2900000Y-712500D01*
X-2881694Y-668306D01*
X-2837500Y-650000D01*
X4837500Y-650000D01*
X4881694Y-668306D01*
G37*
G04 #@! TD.AperFunction*
G04 #@! TA.AperFunction,Conductor*
G36*
X-500000Y19421773D02*
G01*
X-581892Y19463500D01*
X-700000Y19482206D01*
X-818108Y19463500D01*
X-924655Y19409211D01*
X-1009211Y19324655D01*
X-1063500Y19218108D01*
X-1082206Y19100000D01*
X-1063500Y18981892D01*
X-1063499Y18981891D01*
X-1063499Y18981890D01*
X-1009210Y18875344D01*
X-924655Y18790789D01*
X-920676Y18787898D01*
X-921491Y18786775D01*
X-894058Y18754652D01*
X-891000Y18735341D01*
X-891000Y14364659D01*
X-909306Y14320465D01*
X-920722Y14312171D01*
X-920674Y14312104D01*
X-924652Y14309212D01*
X-924655Y14309211D01*
X-1009211Y14224655D01*
X-1063500Y14118108D01*
X-1082206Y14000000D01*
X-1063500Y13881892D01*
X-1063499Y13881891D01*
X-1063499Y13881890D01*
X-1009210Y13775344D01*
X-924655Y13690789D01*
X-818108Y13636500D01*
X-700000Y13617794D01*
X-581891Y13636500D01*
X-581890Y13636500D01*
X-500000Y13678225D01*
X-500000Y3500000D01*
X-5900000Y3500000D01*
X-5900000Y10874112D01*
X-5881694Y10918306D01*
X-4700000Y12100000D01*
X-4700000Y19846500D01*
X-4681694Y19890694D01*
X-4637500Y19909000D01*
X-2364659Y19909000D01*
X-2320465Y19890694D01*
X-2312171Y19879277D01*
X-2312104Y19879326D01*
X-2309212Y19875346D01*
X-2224655Y19790789D01*
X-2118108Y19736500D01*
X-2000000Y19717794D01*
X-1881891Y19736500D01*
X-1881890Y19736500D01*
X-1775344Y19790789D01*
X-1690789Y19875344D01*
X-1636500Y19981890D01*
X-1636500Y19981891D01*
X-1617794Y20100000D01*
X-1636500Y20218108D01*
X-1636500Y20218109D01*
X-1690789Y20324655D01*
X-1775344Y20409210D01*
X-1775345Y20409211D01*
X-1881892Y20463500D01*
X-2000000Y20482206D01*
X-2118108Y20463500D01*
X-2224655Y20409211D01*
X-2309211Y20324655D01*
X-2309212Y20324653D01*
X-2312104Y20320674D01*
X-2313228Y20321491D01*
X-2345342Y20294060D01*
X-2364659Y20291000D01*
X-4637500Y20291000D01*
X-4681694Y20309306D01*
X-4700000Y20353500D01*
X-4700000Y20937500D01*
X-4681694Y20981694D01*
X-4637500Y21000000D01*
X-500000Y21000000D01*
X-500000Y19421773D01*
G37*
G04 #@! TD.AperFunction*
G04 #@! TA.AperFunction,Conductor*
G36*
X-500000Y14338388D02*
G01*
X-505940Y14345342D01*
X-509000Y14364659D01*
X-509000Y18735341D01*
X-500000Y18757068D01*
X-500000Y14338388D01*
G37*
G04 #@! TD.AperFunction*
G04 #@! TA.AperFunction,Conductor*
G36*
X7500000Y-13678226D02*
G01*
X7475344Y-13690789D01*
X7390789Y-13775344D01*
X7336500Y-13881890D01*
X7336500Y-13881891D01*
X7317794Y-14000000D01*
X7336500Y-14118108D01*
X7336500Y-14118109D01*
X7390789Y-14224655D01*
X7475346Y-14309212D01*
X7479326Y-14312104D01*
X7478508Y-14313228D01*
X7500000Y-14338388D01*
X7500000Y-18757068D01*
X7490694Y-18779535D01*
X7479275Y-18787831D01*
X7479324Y-18787898D01*
X7475345Y-18790789D01*
X7390789Y-18875344D01*
X7336500Y-18981890D01*
X7336500Y-18981891D01*
X7317794Y-19100000D01*
X7336500Y-19218108D01*
X7336500Y-19218109D01*
X7390789Y-19324655D01*
X7475345Y-19409211D01*
X7500000Y-19421773D01*
X7500000Y-21000000D01*
X3962500Y-21000000D01*
X3918306Y-20981694D01*
X3900000Y-20937500D01*
X3900000Y-20857640D01*
X3908977Y-20830055D01*
X3906978Y-20829037D01*
X3963499Y-20718109D01*
X3963500Y-20718108D01*
X3982206Y-20600000D01*
X3963500Y-20481892D01*
X3909211Y-20375345D01*
X3909210Y-20375344D01*
X3906978Y-20370963D01*
X3908951Y-20369957D01*
X3900000Y-20342359D01*
X3900000Y-12225888D01*
X3918306Y-12181694D01*
X5100000Y-11000000D01*
X5100000Y-3500000D01*
X7500000Y-3500000D01*
X7500000Y-13678226D01*
G37*
G04 #@! TD.AperFunction*
G04 #@! TA.AperFunction,Conductor*
G36*
X19081694Y20981694D02*
G01*
X19100000Y20937500D01*
X19100000Y20857640D01*
X19091022Y20830055D01*
X19093022Y20829037D01*
X19036500Y20718109D01*
X19036500Y20718108D01*
X19017794Y20600000D01*
X19036500Y20481891D01*
X19036500Y20481890D01*
X19093022Y20370963D01*
X19091048Y20369957D01*
X19100000Y20342359D01*
X19100000Y12225888D01*
X19081694Y12181694D01*
X17900000Y11000000D01*
X17900000Y3500000D01*
X15500000Y3500000D01*
X15500000Y13678226D01*
X15524655Y13690789D01*
X15609210Y13775344D01*
X15663499Y13881890D01*
X15663499Y13881891D01*
X15663500Y13881892D01*
X15682206Y14000000D01*
X15663500Y14118108D01*
X15609211Y14224655D01*
X15524655Y14309211D01*
X15524652Y14309212D01*
X15520674Y14312104D01*
X15521491Y14313228D01*
X15500000Y14338387D01*
X15500000Y18757068D01*
X15509306Y18779535D01*
X15520724Y18787831D01*
X15520676Y18787898D01*
X15524655Y18790789D01*
X15609210Y18875344D01*
X15663499Y18981890D01*
X15663499Y18981891D01*
X15663500Y18981892D01*
X15682206Y19100000D01*
X15663500Y19218108D01*
X15609211Y19324655D01*
X15524655Y19409211D01*
X15500000Y19421773D01*
X15500000Y21000000D01*
X19037500Y21000000D01*
X19081694Y20981694D01*
G37*
G04 #@! TD.AperFunction*
G04 #@! TA.AperFunction,Conductor*
G36*
X-500000Y-13678226D02*
G01*
X-524655Y-13690789D01*
X-609211Y-13775345D01*
X-663500Y-13881892D01*
X-682206Y-14000000D01*
X-663500Y-14118108D01*
X-609211Y-14224655D01*
X-524655Y-14309211D01*
X-524653Y-14309212D01*
X-520674Y-14312104D01*
X-521491Y-14313228D01*
X-500000Y-14338387D01*
X-500000Y-18757068D01*
X-509306Y-18779535D01*
X-520724Y-18787831D01*
X-520676Y-18787898D01*
X-524655Y-18790789D01*
X-609211Y-18875345D01*
X-663500Y-18981892D01*
X-682206Y-19100000D01*
X-663500Y-19218108D01*
X-609211Y-19324655D01*
X-524655Y-19409211D01*
X-500000Y-19421773D01*
X-500000Y-21000000D01*
X-4037500Y-21000000D01*
X-4081694Y-20981694D01*
X-4100000Y-20937500D01*
X-4100000Y-20857640D01*
X-4091022Y-20830055D01*
X-4093022Y-20829037D01*
X-4036500Y-20718109D01*
X-4036500Y-20718108D01*
X-4017794Y-20600000D01*
X-4036500Y-20481891D01*
X-4036500Y-20481890D01*
X-4093022Y-20370963D01*
X-4091048Y-20369957D01*
X-4100000Y-20342359D01*
X-4100000Y-12225888D01*
X-4081694Y-12181694D01*
X-2900000Y-11000000D01*
X-2900000Y-3500000D01*
X-500000Y-3500000D01*
X-500000Y-13678226D01*
G37*
G04 #@! TD.AperFunction*
M02*
