G04 #@! TF.GenerationSoftware,KiCad,Pcbnew,8.0.8*
G04 #@! TF.CreationDate,2025-03-06T21:47:20+01:00*
G04 #@! TF.ProjectId,8-Cell Balancer,382d4365-6c6c-4204-9261-6c616e636572,rev?*
G04 #@! TF.SameCoordinates,Original*
G04 #@! TF.FileFunction,Paste,Top*
G04 #@! TF.FilePolarity,Positive*
%FSLAX46Y46*%
G04 Gerber Fmt 4.6, Leading zero omitted, Abs format (unit mm)*
G04 Created by KiCad (PCBNEW 8.0.8) date 2025-03-06 21:47:20*
%MOMM*%
%LPD*%
G01*
G04 APERTURE LIST*
G04 Aperture macros list*
%AMRoundRect*
0 Rectangle with rounded corners*
0 $1 Rounding radius*
0 $2 $3 $4 $5 $6 $7 $8 $9 X,Y pos of 4 corners*
0 Add a 4 corners polygon primitive as box body*
4,1,4,$2,$3,$4,$5,$6,$7,$8,$9,$2,$3,0*
0 Add four circle primitives for the rounded corners*
1,1,$1+$1,$2,$3*
1,1,$1+$1,$4,$5*
1,1,$1+$1,$6,$7*
1,1,$1+$1,$8,$9*
0 Add four rect primitives between the rounded corners*
20,1,$1+$1,$2,$3,$4,$5,0*
20,1,$1+$1,$4,$5,$6,$7,0*
20,1,$1+$1,$6,$7,$8,$9,0*
20,1,$1+$1,$8,$9,$2,$3,0*%
G04 Aperture macros list end*
%ADD10R,0.400000X0.400000*%
%ADD11RoundRect,0.060000X-0.060000X-0.390000X0.060000X-0.390000X0.060000X0.390000X-0.060000X0.390000X0*%
%ADD12RoundRect,0.060000X-0.390000X0.060000X-0.390000X-0.060000X0.390000X-0.060000X0.390000X0.060000X0*%
%ADD13RoundRect,0.060000X0.060000X0.390000X-0.060000X0.390000X-0.060000X-0.390000X0.060000X-0.390000X0*%
%ADD14RoundRect,0.060000X0.390000X-0.060000X0.390000X0.060000X-0.390000X0.060000X-0.390000X-0.060000X0*%
%ADD15RoundRect,0.080000X-0.080000X-0.080000X0.080000X-0.080000X0.080000X0.080000X-0.080000X0.080000X0*%
%ADD16RoundRect,0.140000X-0.140000X-0.170000X0.140000X-0.170000X0.140000X0.170000X-0.140000X0.170000X0*%
%ADD17RoundRect,0.150000X0.150000X0.200000X-0.150000X0.200000X-0.150000X-0.200000X0.150000X-0.200000X0*%
%ADD18RoundRect,0.135000X-0.185000X0.135000X-0.185000X-0.135000X0.185000X-0.135000X0.185000X0.135000X0*%
%ADD19RoundRect,0.150000X-0.150000X-0.200000X0.150000X-0.200000X0.150000X0.200000X-0.150000X0.200000X0*%
%ADD20RoundRect,0.112500X-0.112500X-0.237500X0.112500X-0.237500X0.112500X0.237500X-0.112500X0.237500X0*%
%ADD21RoundRect,0.135000X0.185000X-0.135000X0.185000X0.135000X-0.185000X0.135000X-0.185000X-0.135000X0*%
%ADD22RoundRect,0.200000X0.200000X0.275000X-0.200000X0.275000X-0.200000X-0.275000X0.200000X-0.275000X0*%
%ADD23RoundRect,0.112500X0.112500X0.237500X-0.112500X0.237500X-0.112500X-0.237500X0.112500X-0.237500X0*%
%ADD24RoundRect,0.140000X-0.170000X0.140000X-0.170000X-0.140000X0.170000X-0.140000X0.170000X0.140000X0*%
%ADD25RoundRect,0.135000X-0.135000X-0.185000X0.135000X-0.185000X0.135000X0.185000X-0.135000X0.185000X0*%
%ADD26RoundRect,0.140000X0.170000X-0.140000X0.170000X0.140000X-0.170000X0.140000X-0.170000X-0.140000X0*%
%ADD27RoundRect,0.250000X-0.300000X-0.300000X0.300000X-0.300000X0.300000X0.300000X-0.300000X0.300000X0*%
%ADD28RoundRect,0.135000X0.135000X0.185000X-0.135000X0.185000X-0.135000X-0.185000X0.135000X-0.185000X0*%
%ADD29RoundRect,0.200000X0.650000X-0.200000X0.650000X0.200000X-0.650000X0.200000X-0.650000X-0.200000X0*%
%ADD30RoundRect,0.200000X-0.650000X0.200000X-0.650000X-0.200000X0.650000X-0.200000X0.650000X0.200000X0*%
%ADD31RoundRect,0.140000X0.140000X0.170000X-0.140000X0.170000X-0.140000X-0.170000X0.140000X-0.170000X0*%
%ADD32RoundRect,0.200000X-0.200000X-0.275000X0.200000X-0.275000X0.200000X0.275000X-0.200000X0.275000X0*%
%ADD33RoundRect,0.125000X0.537500X0.125000X-0.537500X0.125000X-0.537500X-0.125000X0.537500X-0.125000X0*%
%ADD34RoundRect,0.250000X0.300000X0.300000X-0.300000X0.300000X-0.300000X-0.300000X0.300000X-0.300000X0*%
%ADD35RoundRect,0.125000X-0.537500X-0.125000X0.537500X-0.125000X0.537500X0.125000X-0.537500X0.125000X0*%
%ADD36RoundRect,0.225000X-0.250000X0.225000X-0.250000X-0.225000X0.250000X-0.225000X0.250000X0.225000X0*%
%ADD37R,0.525000X0.350000*%
%ADD38R,1.010000X1.700000*%
%ADD39RoundRect,0.175000X-0.175000X0.400000X-0.175000X-0.400000X0.175000X-0.400000X0.175000X0.400000X0*%
%ADD40RoundRect,0.175000X-0.400000X-0.175000X0.400000X-0.175000X0.400000X0.175000X-0.400000X0.175000X0*%
%ADD41RoundRect,0.175000X-0.175000X0.175000X-0.175000X-0.175000X0.175000X-0.175000X0.175000X0.175000X0*%
G04 APERTURE END LIST*
D10*
X-16000000Y9350000D03*
X-16000000Y8650000D03*
D11*
X-16250000Y10800000D03*
D12*
X-17300000Y10250000D03*
X-17300000Y9750000D03*
X-17300000Y9250000D03*
X-17300000Y8750000D03*
X-17300000Y8250000D03*
X-17300000Y7750000D03*
D13*
X-16250000Y7200000D03*
X-15750000Y7200000D03*
D14*
X-14700000Y7750000D03*
X-14700000Y8250000D03*
X-14700000Y8750000D03*
X-14700000Y9250000D03*
X-14700000Y9750000D03*
X-14700000Y10250000D03*
D11*
X-15750000Y10800000D03*
D10*
X-16000000Y-9350000D03*
X-16000000Y-8650000D03*
D13*
X-15750000Y-10800000D03*
D14*
X-14700000Y-10250000D03*
X-14700000Y-9750000D03*
X-14700000Y-9250000D03*
X-14700000Y-8750000D03*
X-14700000Y-8250000D03*
X-14700000Y-7750000D03*
D11*
X-15750000Y-7200000D03*
X-16250000Y-7200000D03*
D12*
X-17300000Y-7750000D03*
X-17300000Y-8250000D03*
X-17300000Y-8750000D03*
X-17300000Y-9250000D03*
X-17300000Y-9750000D03*
X-17300000Y-10250000D03*
D13*
X-16250000Y-10800000D03*
D15*
X-11230000Y330000D03*
X-11230000Y-330000D03*
X-10570000Y-330000D03*
X-10570000Y330000D03*
D16*
X16020000Y-17600000D03*
X16980000Y-17600000D03*
D17*
X16300000Y-22700000D03*
X17700000Y-22700000D03*
D16*
X18820000Y-19400000D03*
X19780000Y-19400000D03*
D18*
X-11100000Y10710000D03*
X-11100000Y9690000D03*
D19*
X17700000Y22700000D03*
X16300000Y22700000D03*
D20*
X-2650000Y19600000D03*
X-1350000Y19600000D03*
X-2000000Y21600000D03*
D21*
X-13000000Y-8610000D03*
X-13000000Y-7590000D03*
D22*
X22325000Y4400000D03*
X20675000Y4400000D03*
D21*
X-13000000Y-10710000D03*
X-13000000Y-9690000D03*
D23*
X14649999Y-19600000D03*
X13349999Y-19600000D03*
X13999999Y-21600000D03*
D24*
X-9800000Y-4520000D03*
X-9800000Y-5480000D03*
D25*
X7990000Y18500000D03*
X9010000Y18500000D03*
D21*
X11000000Y-22810000D03*
X11000000Y-21790000D03*
D22*
X6325000Y4400000D03*
X4675000Y4400000D03*
D18*
X20000000Y22810000D03*
X20000000Y21790000D03*
D26*
X-23500000Y14520000D03*
X-23500000Y15480000D03*
D17*
X18800000Y20600000D03*
X20200000Y20600000D03*
D21*
X-11100000Y-8610000D03*
X-11100000Y-7590000D03*
D18*
X19999999Y-21790000D03*
X19999999Y-22810000D03*
D26*
X-19900000Y-8580000D03*
X-19900000Y-7620000D03*
D16*
X8020000Y-17600000D03*
X8980000Y-17600000D03*
D23*
X-6350000Y-19600000D03*
X-7650000Y-19600000D03*
X-7000000Y-21600000D03*
D18*
X-19000000Y10710000D03*
X-19000000Y9690000D03*
D27*
X19800000Y-4400000D03*
X22600000Y-4400000D03*
D17*
X-2700001Y-22700000D03*
X-1300001Y-22700000D03*
D19*
X6700000Y22700000D03*
X5300000Y22700000D03*
D28*
X-6990000Y16700000D03*
X-8010000Y16700000D03*
D18*
X-4000001Y-21790000D03*
X-4000001Y-22810000D03*
D23*
X17650000Y-19600000D03*
X16350000Y-19600000D03*
X17000000Y-21600000D03*
D26*
X-21500000Y14520000D03*
X-21500000Y15480000D03*
D28*
X14910000Y15800000D03*
X13890000Y15800000D03*
X23009999Y-18500000D03*
X21989999Y-18500000D03*
D29*
X-12000000Y-5700000D03*
D30*
X-12000000Y-2300000D03*
D31*
X-1020000Y17600000D03*
X-1980000Y17600000D03*
D24*
X-12100000Y10680000D03*
X-12100000Y9720000D03*
D16*
X16020000Y17600000D03*
X16980000Y17600000D03*
D18*
X4000000Y22810000D03*
X4000000Y21790000D03*
D32*
X8675001Y-4400000D03*
X10325001Y-4400000D03*
D28*
X15009999Y-15800000D03*
X13989999Y-15800000D03*
D24*
X-22500000Y-14520000D03*
X-22500000Y-15480000D03*
D26*
X-9800000Y4520000D03*
X-9800000Y5480000D03*
D32*
X-7324999Y-4400000D03*
X-5674999Y-4400000D03*
D17*
X-5200000Y20600000D03*
X-3800000Y20600000D03*
D19*
X12200000Y-20600000D03*
X10800000Y-20600000D03*
D26*
X-10200000Y-10680000D03*
X-10200000Y-9720000D03*
D31*
X6979999Y-17600000D03*
X6019999Y-17600000D03*
D33*
X20637500Y-18175000D03*
X20637500Y-17525000D03*
X20637500Y-16875000D03*
X20637500Y-16225000D03*
X18362500Y-16225000D03*
X18362500Y-16875000D03*
X18362500Y-17525000D03*
X18362500Y-18175000D03*
D24*
X-12100000Y8580000D03*
X-12100000Y7620000D03*
D31*
X-1020001Y-17600000D03*
X-1980001Y-17600000D03*
D17*
X5299999Y-22700000D03*
X6699999Y-22700000D03*
D33*
X4637500Y-18175000D03*
X4637500Y-17525000D03*
X4637500Y-16875000D03*
X4637500Y-16225000D03*
X2362500Y-16225000D03*
X2362500Y-16875000D03*
X2362500Y-17525000D03*
X2362500Y-18175000D03*
D19*
X-3800000Y-20600000D03*
X-5200000Y-20600000D03*
D24*
X-21500000Y-14520000D03*
X-21500000Y-15480000D03*
D25*
X-8010000Y-18500000D03*
X-6990000Y-18500000D03*
D17*
X13299999Y-22700000D03*
X14699999Y-22700000D03*
D19*
X9700000Y22700000D03*
X8300000Y22700000D03*
D28*
X-990001Y-15800000D03*
X-2010001Y-15800000D03*
D19*
X4200000Y-20600000D03*
X2800000Y-20600000D03*
D28*
X-990000Y16700000D03*
X-2010000Y16700000D03*
D16*
X-7980000Y-17600000D03*
X-7020000Y-17600000D03*
D21*
X11000000Y21790000D03*
X11000000Y22810000D03*
D25*
X-8010000Y15800000D03*
X-6990000Y15800000D03*
D28*
X7010000Y18500000D03*
X5990000Y18500000D03*
D16*
X10820000Y-19400000D03*
X11780000Y-19400000D03*
D25*
X-10000Y-16700000D03*
X1010000Y-16700000D03*
D18*
X11999999Y-21790000D03*
X11999999Y-22810000D03*
D21*
X-5000000Y-22810000D03*
X-5000000Y-21790000D03*
D24*
X-10200000Y10680000D03*
X-10200000Y9720000D03*
D23*
X1650000Y-19600000D03*
X350000Y-19600000D03*
X1000000Y-21600000D03*
D21*
X-19000000Y-10710000D03*
X-19000000Y-9690000D03*
D20*
X5350000Y19600000D03*
X6650000Y19600000D03*
X6000000Y21600000D03*
D28*
X-990001Y-18500000D03*
X-2010001Y-18500000D03*
D18*
X-4000000Y22810000D03*
X-4000000Y21790000D03*
D28*
X17010000Y16700000D03*
X15990000Y16700000D03*
D34*
X3200000Y4400000D03*
X400000Y4400000D03*
D28*
X15010000Y16700000D03*
X13990000Y16700000D03*
D21*
X-11100000Y-10710000D03*
X-11100000Y-9690000D03*
D34*
X11200000Y4400000D03*
X8400000Y4400000D03*
D35*
X18362500Y18175000D03*
X18362500Y17525000D03*
X18362500Y16875000D03*
X18362500Y16225000D03*
X20637500Y16225000D03*
X20637500Y16875000D03*
X20637500Y17525000D03*
X20637500Y18175000D03*
D25*
X5989999Y-16700000D03*
X7009999Y-16700000D03*
D23*
X22649999Y-19600000D03*
X21349999Y-19600000D03*
X21999999Y-21600000D03*
D25*
X7990000Y-16700000D03*
X9010000Y-16700000D03*
D27*
X11800000Y-4400000D03*
X14600000Y-4400000D03*
D28*
X23010000Y18500000D03*
X21990000Y18500000D03*
D24*
X-19900000Y8580000D03*
X-19900000Y7620000D03*
D18*
X-9800000Y-2490000D03*
X-9800000Y-3510000D03*
D22*
X-1675000Y4400000D03*
X-3325000Y4400000D03*
D25*
X15990000Y-16700000D03*
X17010000Y-16700000D03*
D18*
X3999999Y-21790000D03*
X3999999Y-22810000D03*
D25*
X21989999Y-16700000D03*
X23009999Y-16700000D03*
D20*
X350000Y19600000D03*
X1650000Y19600000D03*
X1000000Y21600000D03*
D26*
X-21800000Y-10680000D03*
X-21800000Y-9720000D03*
D28*
X7009999Y-15800000D03*
X5989999Y-15800000D03*
D19*
X-1300000Y22700000D03*
X-2700000Y22700000D03*
D16*
X20000Y-17600000D03*
X980000Y-17600000D03*
D28*
X-12190000Y1000000D03*
X-13210000Y1000000D03*
D31*
X22980000Y17600000D03*
X22020000Y17600000D03*
D17*
X300000Y-22700000D03*
X1700000Y-22700000D03*
D25*
X8090000Y-15800000D03*
X9110000Y-15800000D03*
D24*
X-19900000Y10680000D03*
X-19900000Y9720000D03*
D25*
X90000Y-15800000D03*
X1110000Y-15800000D03*
X15990000Y15800000D03*
X17010000Y15800000D03*
X-10000Y-18500000D03*
X1010000Y-18500000D03*
D24*
X-24500000Y-14520000D03*
X-24500000Y-15480000D03*
D19*
X-6300000Y22700000D03*
X-7700000Y22700000D03*
D20*
X21350000Y19600000D03*
X22650000Y19600000D03*
X22000000Y21600000D03*
D35*
X-5637500Y18175000D03*
X-5637500Y17525000D03*
X-5637500Y16875000D03*
X-5637500Y16225000D03*
X-3362500Y16225000D03*
X-3362500Y16875000D03*
X-3362500Y17525000D03*
X-3362500Y18175000D03*
D24*
X-23500000Y-14520000D03*
X-23500000Y-15480000D03*
D16*
X2820000Y-19400000D03*
X3780000Y-19400000D03*
D25*
X-7910000Y-15800000D03*
X-6890000Y-15800000D03*
D19*
X14700000Y22700000D03*
X13300000Y22700000D03*
D25*
X13989999Y-16700000D03*
X15009999Y-16700000D03*
D21*
X-20900000Y-8610000D03*
X-20900000Y-7590000D03*
X-9800000Y2490000D03*
X-9800000Y3510000D03*
D18*
X-20900000Y10710000D03*
X-20900000Y9690000D03*
D28*
X23009999Y-15800000D03*
X21989999Y-15800000D03*
D25*
X7990000Y-18500000D03*
X9010000Y-18500000D03*
D28*
X1010000Y16700000D03*
X-10000Y16700000D03*
D31*
X4180000Y19400000D03*
X3220000Y19400000D03*
D23*
X-1350001Y-19600000D03*
X-2650001Y-19600000D03*
X-2000001Y-21600000D03*
D18*
X-19000000Y8610000D03*
X-19000000Y7590000D03*
D17*
X10800000Y20600000D03*
X12200000Y20600000D03*
D21*
X3000000Y-22810000D03*
X3000000Y-21790000D03*
D25*
X15990000Y18500000D03*
X17010000Y18500000D03*
X15990000Y-18500000D03*
X17010000Y-18500000D03*
D26*
X-19900000Y-10680000D03*
X-19900000Y-9720000D03*
D28*
X7009999Y-18500000D03*
X5989999Y-18500000D03*
D25*
X16090000Y-15800000D03*
X17110000Y-15800000D03*
D31*
X6980000Y17600000D03*
X6020000Y17600000D03*
D28*
X-12190000Y-1000000D03*
X-13210000Y-1000000D03*
D36*
X-13600000Y14975000D03*
X-13600000Y13425000D03*
D25*
X-10000Y18500000D03*
X1010000Y18500000D03*
D35*
X10362500Y18175000D03*
X10362500Y17525000D03*
X10362500Y16875000D03*
X10362500Y16225000D03*
X12637500Y16225000D03*
X12637500Y16875000D03*
X12637500Y17525000D03*
X12637500Y18175000D03*
D21*
X3000000Y21790000D03*
X3000000Y22810000D03*
D18*
X-13000000Y8610000D03*
X-13000000Y7590000D03*
D28*
X23010000Y16700000D03*
X21990000Y16700000D03*
D31*
X22979999Y-17600000D03*
X22019999Y-17600000D03*
D16*
X-24680000Y6000000D03*
X-23720000Y6000000D03*
X8020000Y17600000D03*
X8980000Y17600000D03*
D24*
X-10200000Y8580000D03*
X-10200000Y7620000D03*
D28*
X-12190000Y0D03*
X-13210000Y0D03*
D35*
X2362500Y18175000D03*
X2362500Y17525000D03*
X2362500Y16875000D03*
X2362500Y16225000D03*
X4637500Y16225000D03*
X4637500Y16875000D03*
X4637500Y17525000D03*
X4637500Y18175000D03*
D25*
X-2010001Y-16700000D03*
X-990001Y-16700000D03*
D16*
X-15780000Y11900000D03*
X-14820000Y11900000D03*
D33*
X-3362500Y-18175000D03*
X-3362500Y-17525000D03*
X-3362500Y-16875000D03*
X-3362500Y-16225000D03*
X-5637500Y-16225000D03*
X-5637500Y-16875000D03*
X-5637500Y-17525000D03*
X-5637500Y-18175000D03*
D25*
X-8010000Y-16700000D03*
X-6990000Y-16700000D03*
D17*
X8300000Y-22700000D03*
X9700000Y-22700000D03*
D18*
X-13000000Y10710000D03*
X-13000000Y9690000D03*
D23*
X6649999Y-19600000D03*
X5349999Y-19600000D03*
X5999999Y-21600000D03*
D28*
X-1090000Y15800000D03*
X-2110000Y15800000D03*
D26*
X-10200000Y-8580000D03*
X-10200000Y-7620000D03*
D17*
X-7700000Y-22700000D03*
X-6300000Y-22700000D03*
D24*
X-21800000Y10680000D03*
X-21800000Y9720000D03*
D31*
X14979999Y-17600000D03*
X14019999Y-17600000D03*
D28*
X15009999Y-18500000D03*
X13989999Y-18500000D03*
D31*
X14980000Y17600000D03*
X14020000Y17600000D03*
D25*
X-8010000Y18500000D03*
X-6990000Y18500000D03*
D16*
X-5180000Y-19400000D03*
X-4220000Y-19400000D03*
D20*
X13350000Y19600000D03*
X14650000Y19600000D03*
X14000000Y21600000D03*
D28*
X22910000Y15800000D03*
X21890000Y15800000D03*
D16*
X-7980000Y17600000D03*
X-7020000Y17600000D03*
D21*
X-19000000Y-8610000D03*
X-19000000Y-7590000D03*
D22*
X14325000Y4400000D03*
X12675000Y4400000D03*
D21*
X-20900000Y-10710000D03*
X-20900000Y-9690000D03*
D31*
X20180000Y19400000D03*
X19220000Y19400000D03*
D16*
X20000Y17600000D03*
X980000Y17600000D03*
D26*
X-24500000Y14520000D03*
X-24500000Y15480000D03*
X-12100000Y-8580000D03*
X-12100000Y-7620000D03*
D20*
X8350000Y19600000D03*
X9650000Y19600000D03*
X9000000Y21600000D03*
D28*
X6910000Y15800000D03*
X5890000Y15800000D03*
D18*
X-20900000Y8610000D03*
X-20900000Y7590000D03*
X12000000Y22810000D03*
X12000000Y21790000D03*
D31*
X12180000Y19400000D03*
X11220000Y19400000D03*
D21*
X19000000Y21790000D03*
X19000000Y22810000D03*
D28*
X15010000Y18500000D03*
X13990000Y18500000D03*
D19*
X20200000Y-20600000D03*
X18800000Y-20600000D03*
D36*
X-9400000Y14975000D03*
X-9400000Y13425000D03*
D25*
X-10000Y15800000D03*
X1010000Y15800000D03*
D31*
X-16220000Y-11900000D03*
X-17180000Y-11900000D03*
D26*
X-22500000Y14520000D03*
X-22500000Y15480000D03*
D25*
X7990000Y15800000D03*
X9010000Y15800000D03*
D18*
X-11100000Y8610000D03*
X-11100000Y7590000D03*
D32*
X675001Y-4400000D03*
X2325001Y-4400000D03*
D28*
X9010000Y16700000D03*
X7990000Y16700000D03*
D32*
X16675001Y-4400000D03*
X18325001Y-4400000D03*
D20*
X16350000Y19600000D03*
X17650000Y19600000D03*
X17000000Y21600000D03*
D31*
X-25520000Y6000000D03*
X-26480000Y6000000D03*
D37*
X-12437500Y14850000D03*
X-12437500Y14200000D03*
X-12437500Y13550000D03*
X-10562500Y13550000D03*
X-10562500Y14200000D03*
X-10562500Y14850000D03*
D38*
X-11500000Y14200000D03*
D39*
X-16600000Y4125000D03*
X-17600000Y4125000D03*
X-18600000Y4125000D03*
X-19600000Y4125000D03*
X-20600000Y4125000D03*
X-21600000Y4125000D03*
X-22600000Y4125000D03*
X-23600000Y4125000D03*
X-24600000Y4125000D03*
X-25600000Y4125000D03*
D40*
X-25525000Y2000000D03*
X-25525000Y1000000D03*
X-25525000Y0D03*
X-25525000Y-1000000D03*
X-25525000Y-2000000D03*
D39*
X-25600000Y-4125000D03*
X-24600000Y-4125000D03*
X-23600000Y-4125000D03*
X-22600000Y-4125000D03*
X-21600000Y-4125000D03*
X-20600000Y-4125000D03*
X-19600000Y-4125000D03*
X-18600000Y-4125000D03*
X-17600000Y-4125000D03*
X-16600000Y-4125000D03*
D40*
X-16675000Y-2000000D03*
X-16675000Y-1000000D03*
X-16675000Y0D03*
X-16675000Y1000000D03*
X-16675000Y2000000D03*
D41*
X-18050000Y2750000D03*
X-19150000Y2750000D03*
X-20250000Y2750000D03*
X-21350000Y2750000D03*
X-22450000Y2750000D03*
X-23550000Y2750000D03*
X-23550000Y-2750000D03*
X-22450000Y-2750000D03*
X-21350000Y-2750000D03*
X-20250000Y-2750000D03*
X-19150000Y-2750000D03*
X-18050000Y-2750000D03*
X-18050000Y-1650000D03*
X-18050000Y-550000D03*
X-18050000Y550000D03*
X-18050000Y1650000D03*
X-15450000Y-4000000D03*
X-15450000Y-3000000D03*
X-15450000Y-2000000D03*
X-15450000Y-1000000D03*
X-15450000Y0D03*
X-15450000Y1000000D03*
X-15450000Y2000000D03*
X-15450000Y3000000D03*
X-15450000Y4000000D03*
X-26600000Y4350000D03*
X-29150000Y4350000D03*
X-26600000Y-4350000D03*
X-29150000Y-4350000D03*
X-20525000Y1725000D03*
X-22825000Y1725000D03*
X-19375000Y575000D03*
X-20525000Y575000D03*
X-21675000Y575000D03*
X-22825000Y575000D03*
X-19375000Y-575000D03*
X-20525000Y-575000D03*
X-21675000Y-575000D03*
X-22825000Y-575000D03*
X-20525000Y-1725000D03*
X-22825000Y-1725000D03*
D30*
X-12000000Y5700000D03*
D29*
X-12000000Y2300000D03*
D23*
X9650000Y-19600000D03*
X8350000Y-19600000D03*
X9000000Y-21600000D03*
D24*
X-21800000Y8580000D03*
X-21800000Y7620000D03*
D19*
X1700000Y22700000D03*
X300000Y22700000D03*
D34*
X19200000Y4400000D03*
X16400000Y4400000D03*
D27*
X3800000Y-4400000D03*
X6600000Y-4400000D03*
D19*
X22700000Y22700000D03*
X21300000Y22700000D03*
D34*
X-4800000Y4400000D03*
X-7600000Y4400000D03*
D21*
X-5000000Y21790000D03*
X-5000000Y22810000D03*
D17*
X2800000Y20600000D03*
X4200000Y20600000D03*
D26*
X-12100000Y-10680000D03*
X-12100000Y-9720000D03*
D28*
X7010000Y16700000D03*
X5990000Y16700000D03*
D27*
X-4200000Y-4400000D03*
X-1400000Y-4400000D03*
D33*
X12637500Y-18175000D03*
X12637500Y-17525000D03*
X12637500Y-16875000D03*
X12637500Y-16225000D03*
X10362500Y-16225000D03*
X10362500Y-16875000D03*
X10362500Y-17525000D03*
X10362500Y-18175000D03*
D20*
X-7650000Y19600000D03*
X-6350000Y19600000D03*
X-7000000Y21600000D03*
D31*
X-3820000Y19400000D03*
X-4780000Y19400000D03*
D26*
X-21800000Y-8580000D03*
X-21800000Y-7620000D03*
D28*
X-990000Y18500000D03*
X-2010000Y18500000D03*
D21*
X19000000Y-22810000D03*
X19000000Y-21790000D03*
D17*
X21299999Y-22700000D03*
X22699999Y-22700000D03*
M02*
