G04 #@! TF.GenerationSoftware,KiCad,Pcbnew,(6.0.11)*
G04 #@! TF.CreationDate,2024-02-18T11:49:07+01:00*
G04 #@! TF.ProjectId,8-Cell Balancer Charger,382d4365-6c6c-4204-9261-6c616e636572,rev?*
G04 #@! TF.SameCoordinates,Original*
G04 #@! TF.FileFunction,Legend,Top*
G04 #@! TF.FilePolarity,Positive*
%FSLAX46Y46*%
G04 Gerber Fmt 4.6, Leading zero omitted, Abs format (unit mm)*
G04 Created by KiCad (PCBNEW (6.0.11)) date 2024-02-18 11:49:07*
%MOMM*%
%LPD*%
G01*
G04 APERTURE LIST*
G04 Aperture macros list*
%AMRoundRect*
0 Rectangle with rounded corners*
0 $1 Rounding radius*
0 $2 $3 $4 $5 $6 $7 $8 $9 X,Y pos of 4 corners*
0 Add a 4 corners polygon primitive as box body*
4,1,4,$2,$3,$4,$5,$6,$7,$8,$9,$2,$3,0*
0 Add four circle primitives for the rounded corners*
1,1,$1+$1,$2,$3*
1,1,$1+$1,$4,$5*
1,1,$1+$1,$6,$7*
1,1,$1+$1,$8,$9*
0 Add four rect primitives between the rounded corners*
20,1,$1+$1,$2,$3,$4,$5,0*
20,1,$1+$1,$4,$5,$6,$7,0*
20,1,$1+$1,$6,$7,$8,$9,0*
20,1,$1+$1,$8,$9,$2,$3,0*%
G04 Aperture macros list end*
%ADD10C,0.150000*%
%ADD11C,0.240000*%
%ADD12C,0.120000*%
%ADD13C,0.010000*%
%ADD14RoundRect,0.060000X-0.060000X-0.390000X0.060000X-0.390000X0.060000X0.390000X-0.060000X0.390000X0*%
%ADD15RoundRect,0.060000X-0.390000X0.060000X-0.390000X-0.060000X0.390000X-0.060000X0.390000X0.060000X0*%
%ADD16RoundRect,0.060000X0.060000X0.390000X-0.060000X0.390000X-0.060000X-0.390000X0.060000X-0.390000X0*%
%ADD17RoundRect,0.060000X0.390000X-0.060000X0.390000X0.060000X-0.390000X0.060000X-0.390000X-0.060000X0*%
%ADD18R,0.900000X1.900000*%
%ADD19R,1.700000X1.700000*%
%ADD20O,1.700000X1.700000*%
%ADD21RoundRect,0.080000X-0.080000X0.080000X-0.080000X-0.080000X0.080000X-0.080000X0.080000X0.080000X0*%
%ADD22RoundRect,0.140000X-0.140000X-0.170000X0.140000X-0.170000X0.140000X0.170000X-0.140000X0.170000X0*%
%ADD23RoundRect,0.135000X-0.185000X0.135000X-0.185000X-0.135000X0.185000X-0.135000X0.185000X0.135000X0*%
%ADD24R,0.450000X0.700000*%
%ADD25RoundRect,0.135000X0.185000X-0.135000X0.185000X0.135000X-0.185000X0.135000X-0.185000X-0.135000X0*%
%ADD26RoundRect,0.200000X0.200000X0.275000X-0.200000X0.275000X-0.200000X-0.275000X0.200000X-0.275000X0*%
%ADD27RoundRect,0.140000X-0.170000X0.140000X-0.170000X-0.140000X0.170000X-0.140000X0.170000X0.140000X0*%
%ADD28C,0.800000*%
%ADD29RoundRect,0.140000X0.170000X-0.140000X0.170000X0.140000X-0.170000X0.140000X-0.170000X-0.140000X0*%
%ADD30R,0.600000X0.500000*%
%ADD31RoundRect,0.135000X-0.135000X-0.185000X0.135000X-0.185000X0.135000X0.185000X-0.135000X0.185000X0*%
%ADD32C,0.750000*%
%ADD33RoundRect,0.200000X0.650000X-0.200000X0.650000X0.200000X-0.650000X0.200000X-0.650000X-0.200000X0*%
%ADD34RoundRect,0.200000X-0.650000X0.200000X-0.650000X-0.200000X0.650000X-0.200000X0.650000X0.200000X0*%
%ADD35RoundRect,0.140000X0.140000X0.170000X-0.140000X0.170000X-0.140000X-0.170000X0.140000X-0.170000X0*%
%ADD36RoundRect,0.200000X-0.200000X-0.275000X0.200000X-0.275000X0.200000X0.275000X-0.200000X0.275000X0*%
%ADD37RoundRect,0.125000X0.537500X0.125000X-0.537500X0.125000X-0.537500X-0.125000X0.537500X-0.125000X0*%
%ADD38RoundRect,0.087500X0.087500X0.112500X-0.087500X0.112500X-0.087500X-0.112500X0.087500X-0.112500X0*%
%ADD39RoundRect,0.100000X0.100000X0.100000X-0.100000X0.100000X-0.100000X-0.100000X0.100000X-0.100000X0*%
%ADD40RoundRect,0.050000X0.400000X0.050000X-0.400000X0.050000X-0.400000X-0.050000X0.400000X-0.050000X0*%
%ADD41R,1.500000X0.910000*%
%ADD42O,1.500000X0.910000*%
%ADD43RoundRect,0.135000X0.135000X0.185000X-0.135000X0.185000X-0.135000X-0.185000X0.135000X-0.185000X0*%
%ADD44C,3.180000*%
%ADD45R,1.200000X2.000000*%
%ADD46RoundRect,0.125000X-0.537500X-0.125000X0.537500X-0.125000X0.537500X0.125000X-0.537500X0.125000X0*%
%ADD47RoundRect,0.087500X-0.087500X-0.112500X0.087500X-0.112500X0.087500X0.112500X-0.087500X0.112500X0*%
%ADD48RoundRect,0.050000X-0.400000X-0.050000X0.400000X-0.050000X0.400000X0.050000X-0.400000X0.050000X0*%
%ADD49RoundRect,0.100000X-0.100000X-0.100000X0.100000X-0.100000X0.100000X0.100000X-0.100000X0.100000X0*%
%ADD50R,0.525000X0.350000*%
%ADD51R,1.010000X1.700000*%
%ADD52RoundRect,0.175000X-0.175000X0.400000X-0.175000X-0.400000X0.175000X-0.400000X0.175000X0.400000X0*%
%ADD53RoundRect,0.175000X-0.400000X-0.175000X0.400000X-0.175000X0.400000X0.175000X-0.400000X0.175000X0*%
%ADD54RoundRect,0.175000X-0.175000X0.175000X-0.175000X-0.175000X0.175000X-0.175000X0.175000X0.175000X0*%
G04 APERTURE END LIST*
D10*
X-15797714Y-17157142D02*
X-15835809Y-17119047D01*
X-15873904Y-17004761D01*
X-15873904Y-16928571D01*
X-15835809Y-16814285D01*
X-15759619Y-16738095D01*
X-15683428Y-16700000D01*
X-15531047Y-16661904D01*
X-15416761Y-16661904D01*
X-15264380Y-16700000D01*
X-15188190Y-16738095D01*
X-15112000Y-16814285D01*
X-15073904Y-16928571D01*
X-15073904Y-17004761D01*
X-15112000Y-17119047D01*
X-15150095Y-17157142D01*
X-15340571Y-17842857D02*
X-15873904Y-17842857D01*
X-15340571Y-17500000D02*
X-15759619Y-17500000D01*
X-15835809Y-17538095D01*
X-15873904Y-17614285D01*
X-15873904Y-17728571D01*
X-15835809Y-17804761D01*
X-15797714Y-17842857D01*
X-15873904Y-18223809D02*
X-15340571Y-18223809D01*
X-15492952Y-18223809D02*
X-15416761Y-18261904D01*
X-15378666Y-18300000D01*
X-15340571Y-18376190D01*
X-15340571Y-18452380D01*
X-15873904Y-18719047D02*
X-15340571Y-18719047D01*
X-15492952Y-18719047D02*
X-15416761Y-18757142D01*
X-15378666Y-18795238D01*
X-15340571Y-18871428D01*
X-15340571Y-18947619D01*
X-15835809Y-19519047D02*
X-15873904Y-19442857D01*
X-15873904Y-19290476D01*
X-15835809Y-19214285D01*
X-15759619Y-19176190D01*
X-15454857Y-19176190D01*
X-15378666Y-19214285D01*
X-15340571Y-19290476D01*
X-15340571Y-19442857D01*
X-15378666Y-19519047D01*
X-15454857Y-19557142D01*
X-15531047Y-19557142D01*
X-15607238Y-19176190D01*
X-15340571Y-19900000D02*
X-15873904Y-19900000D01*
X-15416761Y-19900000D02*
X-15378666Y-19938095D01*
X-15340571Y-20014285D01*
X-15340571Y-20128571D01*
X-15378666Y-20204761D01*
X-15454857Y-20242857D01*
X-15873904Y-20242857D01*
X-15340571Y-20509523D02*
X-15340571Y-20814285D01*
X-15073904Y-20623809D02*
X-15759619Y-20623809D01*
X-15835809Y-20661904D01*
X-15873904Y-20738095D01*
X-15873904Y-20814285D01*
X-17161904Y-16871428D02*
X-17161904Y-16414285D01*
X-17161904Y-16642857D02*
X-16361904Y-16642857D01*
X-16476190Y-16566666D01*
X-16552380Y-16490476D01*
X-16590476Y-16414285D01*
X-16438095Y-17785714D02*
X-16400000Y-17823809D01*
X-16361904Y-17900000D01*
X-16361904Y-18090476D01*
X-16400000Y-18166666D01*
X-16438095Y-18204761D01*
X-16514285Y-18242857D01*
X-16590476Y-18242857D01*
X-16704761Y-18204761D01*
X-17161904Y-17747619D01*
X-17161904Y-18242857D01*
X-16361904Y-19119047D02*
X-16361904Y-19614285D01*
X-16666666Y-19347619D01*
X-16666666Y-19461904D01*
X-16704761Y-19538095D01*
X-16742857Y-19576190D01*
X-16819047Y-19614285D01*
X-17009523Y-19614285D01*
X-17085714Y-19576190D01*
X-17123809Y-19538095D01*
X-17161904Y-19461904D01*
X-17161904Y-19233333D01*
X-17123809Y-19157142D01*
X-17085714Y-19119047D01*
X-16628571Y-20909523D02*
X-17161904Y-20909523D01*
X-16323809Y-20719047D02*
X-16895238Y-20528571D01*
X-16895238Y-21023809D01*
X-17649904Y-16566666D02*
X-18449904Y-16833333D01*
X-17649904Y-17100000D01*
X-18449904Y-17480952D02*
X-18411809Y-17404761D01*
X-18373714Y-17366666D01*
X-18297523Y-17328571D01*
X-18068952Y-17328571D01*
X-17992761Y-17366666D01*
X-17954666Y-17404761D01*
X-17916571Y-17480952D01*
X-17916571Y-17595238D01*
X-17954666Y-17671428D01*
X-17992761Y-17709523D01*
X-18068952Y-17747619D01*
X-18297523Y-17747619D01*
X-18373714Y-17709523D01*
X-18411809Y-17671428D01*
X-18449904Y-17595238D01*
X-18449904Y-17480952D01*
X-18449904Y-18204761D02*
X-18411809Y-18128571D01*
X-18335619Y-18090476D01*
X-17649904Y-18090476D01*
X-17916571Y-18395238D02*
X-17916571Y-18700000D01*
X-17649904Y-18509523D02*
X-18335619Y-18509523D01*
X-18411809Y-18547619D01*
X-18449904Y-18623809D01*
X-18449904Y-18700000D01*
X-18449904Y-19309523D02*
X-18030857Y-19309523D01*
X-17954666Y-19271428D01*
X-17916571Y-19195238D01*
X-17916571Y-19042857D01*
X-17954666Y-18966666D01*
X-18411809Y-19309523D02*
X-18449904Y-19233333D01*
X-18449904Y-19042857D01*
X-18411809Y-18966666D01*
X-18335619Y-18928571D01*
X-18259428Y-18928571D01*
X-18183238Y-18966666D01*
X-18145142Y-19042857D01*
X-18145142Y-19233333D01*
X-18107047Y-19309523D01*
X-17916571Y-20033333D02*
X-18564190Y-20033333D01*
X-18640380Y-19995238D01*
X-18678476Y-19957142D01*
X-18716571Y-19880952D01*
X-18716571Y-19766666D01*
X-18678476Y-19690476D01*
X-18411809Y-20033333D02*
X-18449904Y-19957142D01*
X-18449904Y-19804761D01*
X-18411809Y-19728571D01*
X-18373714Y-19690476D01*
X-18297523Y-19652380D01*
X-18068952Y-19652380D01*
X-17992761Y-19690476D01*
X-17954666Y-19728571D01*
X-17916571Y-19804761D01*
X-17916571Y-19957142D01*
X-17954666Y-20033333D01*
X-18411809Y-20719047D02*
X-18449904Y-20642857D01*
X-18449904Y-20490476D01*
X-18411809Y-20414285D01*
X-18335619Y-20376190D01*
X-18030857Y-20376190D01*
X-17954666Y-20414285D01*
X-17916571Y-20490476D01*
X-17916571Y-20642857D01*
X-17954666Y-20719047D01*
X-18030857Y-20757142D01*
X-18107047Y-20757142D01*
X-18183238Y-20376190D01*
X-21473904Y-23464285D02*
X-20673904Y-23464285D01*
X-20673904Y-23807142D01*
X-20712000Y-23892857D01*
X-20750095Y-23935714D01*
X-20826285Y-23978571D01*
X-20940571Y-23978571D01*
X-21016761Y-23935714D01*
X-21054857Y-23892857D01*
X-21092952Y-23807142D01*
X-21092952Y-23464285D01*
X-21961904Y-23314285D02*
X-22761904Y-23528571D01*
X-22190476Y-23700000D01*
X-22761904Y-23871428D01*
X-21961904Y-24085714D01*
X-24049904Y-23400000D02*
X-23249904Y-23400000D01*
X-23821333Y-23700000D01*
X-23249904Y-24000000D01*
X-24049904Y-24000000D01*
X-20296571Y-22771428D02*
X-20829904Y-22771428D01*
X-19991809Y-22557142D02*
X-20563238Y-22342857D01*
X-20563238Y-22900000D01*
X-21317904Y-22300000D02*
X-21317904Y-22857142D01*
X-21622666Y-22557142D01*
X-21622666Y-22685714D01*
X-21660761Y-22771428D01*
X-21698857Y-22814285D01*
X-21775047Y-22857142D01*
X-21965523Y-22857142D01*
X-22041714Y-22814285D01*
X-22079809Y-22771428D01*
X-22117904Y-22685714D01*
X-22117904Y-22428571D01*
X-22079809Y-22342857D01*
X-22041714Y-22300000D01*
X-22682095Y-22342857D02*
X-22644000Y-22385714D01*
X-22605904Y-22471428D01*
X-22605904Y-22685714D01*
X-22644000Y-22771428D01*
X-22682095Y-22814285D01*
X-22758285Y-22857142D01*
X-22834476Y-22857142D01*
X-22948761Y-22814285D01*
X-23405904Y-22300000D01*
X-23405904Y-22857142D01*
X-24693904Y-22857142D02*
X-24693904Y-22342857D01*
X-24693904Y-22600000D02*
X-23893904Y-22600000D01*
X-24008190Y-22514285D01*
X-24084380Y-22428571D01*
X-24122476Y-22342857D01*
X-15797714Y20242857D02*
X-15835809Y20280952D01*
X-15873904Y20395238D01*
X-15873904Y20471428D01*
X-15835809Y20585714D01*
X-15759619Y20661904D01*
X-15683428Y20700000D01*
X-15531047Y20738095D01*
X-15416761Y20738095D01*
X-15264380Y20700000D01*
X-15188190Y20661904D01*
X-15112000Y20585714D01*
X-15073904Y20471428D01*
X-15073904Y20395238D01*
X-15112000Y20280952D01*
X-15150095Y20242857D01*
X-15340571Y19557142D02*
X-15873904Y19557142D01*
X-15340571Y19900000D02*
X-15759619Y19900000D01*
X-15835809Y19861904D01*
X-15873904Y19785714D01*
X-15873904Y19671428D01*
X-15835809Y19595238D01*
X-15797714Y19557142D01*
X-15873904Y19176190D02*
X-15340571Y19176190D01*
X-15492952Y19176190D02*
X-15416761Y19138095D01*
X-15378666Y19100000D01*
X-15340571Y19023809D01*
X-15340571Y18947619D01*
X-15873904Y18680952D02*
X-15340571Y18680952D01*
X-15492952Y18680952D02*
X-15416761Y18642857D01*
X-15378666Y18604761D01*
X-15340571Y18528571D01*
X-15340571Y18452380D01*
X-15835809Y17880952D02*
X-15873904Y17957142D01*
X-15873904Y18109523D01*
X-15835809Y18185714D01*
X-15759619Y18223809D01*
X-15454857Y18223809D01*
X-15378666Y18185714D01*
X-15340571Y18109523D01*
X-15340571Y17957142D01*
X-15378666Y17880952D01*
X-15454857Y17842857D01*
X-15531047Y17842857D01*
X-15607238Y18223809D01*
X-15340571Y17500000D02*
X-15873904Y17500000D01*
X-15416761Y17500000D02*
X-15378666Y17461904D01*
X-15340571Y17385714D01*
X-15340571Y17271428D01*
X-15378666Y17195238D01*
X-15454857Y17157142D01*
X-15873904Y17157142D01*
X-15340571Y16890476D02*
X-15340571Y16585714D01*
X-15073904Y16776190D02*
X-15759619Y16776190D01*
X-15835809Y16738095D01*
X-15873904Y16661904D01*
X-15873904Y16585714D01*
X-16704761Y20833333D02*
X-16666666Y20909523D01*
X-16628571Y20947619D01*
X-16552380Y20985714D01*
X-16514285Y20985714D01*
X-16438095Y20947619D01*
X-16400000Y20909523D01*
X-16361904Y20833333D01*
X-16361904Y20680952D01*
X-16400000Y20604761D01*
X-16438095Y20566666D01*
X-16514285Y20528571D01*
X-16552380Y20528571D01*
X-16628571Y20566666D01*
X-16666666Y20604761D01*
X-16704761Y20680952D01*
X-16704761Y20833333D01*
X-16742857Y20909523D01*
X-16780952Y20947619D01*
X-16857142Y20985714D01*
X-17009523Y20985714D01*
X-17085714Y20947619D01*
X-17123809Y20909523D01*
X-17161904Y20833333D01*
X-17161904Y20680952D01*
X-17123809Y20604761D01*
X-17085714Y20566666D01*
X-17009523Y20528571D01*
X-16857142Y20528571D01*
X-16780952Y20566666D01*
X-16742857Y20604761D01*
X-16704761Y20680952D01*
X-16361904Y19652380D02*
X-16361904Y19119047D01*
X-17161904Y19461904D01*
X-16361904Y17861904D02*
X-16361904Y18014285D01*
X-16400000Y18090476D01*
X-16438095Y18128571D01*
X-16552380Y18204761D01*
X-16704761Y18242857D01*
X-17009523Y18242857D01*
X-17085714Y18204761D01*
X-17123809Y18166666D01*
X-17161904Y18090476D01*
X-17161904Y17938095D01*
X-17123809Y17861904D01*
X-17085714Y17823809D01*
X-17009523Y17785714D01*
X-16819047Y17785714D01*
X-16742857Y17823809D01*
X-16704761Y17861904D01*
X-16666666Y17938095D01*
X-16666666Y18090476D01*
X-16704761Y18166666D01*
X-16742857Y18204761D01*
X-16819047Y18242857D01*
X-16361904Y16452380D02*
X-16361904Y16833333D01*
X-16742857Y16871428D01*
X-16704761Y16833333D01*
X-16666666Y16757142D01*
X-16666666Y16566666D01*
X-16704761Y16490476D01*
X-16742857Y16452380D01*
X-16819047Y16414285D01*
X-17009523Y16414285D01*
X-17085714Y16452380D01*
X-17123809Y16490476D01*
X-17161904Y16566666D01*
X-17161904Y16757142D01*
X-17123809Y16833333D01*
X-17085714Y16871428D01*
X-17649904Y20833333D02*
X-18449904Y20566666D01*
X-17649904Y20300000D01*
X-18449904Y19919047D02*
X-18411809Y19995238D01*
X-18373714Y20033333D01*
X-18297523Y20071428D01*
X-18068952Y20071428D01*
X-17992761Y20033333D01*
X-17954666Y19995238D01*
X-17916571Y19919047D01*
X-17916571Y19804761D01*
X-17954666Y19728571D01*
X-17992761Y19690476D01*
X-18068952Y19652380D01*
X-18297523Y19652380D01*
X-18373714Y19690476D01*
X-18411809Y19728571D01*
X-18449904Y19804761D01*
X-18449904Y19919047D01*
X-18449904Y19195238D02*
X-18411809Y19271428D01*
X-18335619Y19309523D01*
X-17649904Y19309523D01*
X-17916571Y19004761D02*
X-17916571Y18700000D01*
X-17649904Y18890476D02*
X-18335619Y18890476D01*
X-18411809Y18852380D01*
X-18449904Y18776190D01*
X-18449904Y18700000D01*
X-18449904Y18090476D02*
X-18030857Y18090476D01*
X-17954666Y18128571D01*
X-17916571Y18204761D01*
X-17916571Y18357142D01*
X-17954666Y18433333D01*
X-18411809Y18090476D02*
X-18449904Y18166666D01*
X-18449904Y18357142D01*
X-18411809Y18433333D01*
X-18335619Y18471428D01*
X-18259428Y18471428D01*
X-18183238Y18433333D01*
X-18145142Y18357142D01*
X-18145142Y18166666D01*
X-18107047Y18090476D01*
X-17916571Y17366666D02*
X-18564190Y17366666D01*
X-18640380Y17404761D01*
X-18678476Y17442857D01*
X-18716571Y17519047D01*
X-18716571Y17633333D01*
X-18678476Y17709523D01*
X-18411809Y17366666D02*
X-18449904Y17442857D01*
X-18449904Y17595238D01*
X-18411809Y17671428D01*
X-18373714Y17709523D01*
X-18297523Y17747619D01*
X-18068952Y17747619D01*
X-17992761Y17709523D01*
X-17954666Y17671428D01*
X-17916571Y17595238D01*
X-17916571Y17442857D01*
X-17954666Y17366666D01*
X-18411809Y16680952D02*
X-18449904Y16757142D01*
X-18449904Y16909523D01*
X-18411809Y16985714D01*
X-18335619Y17023809D01*
X-18030857Y17023809D01*
X-17954666Y16985714D01*
X-17916571Y16909523D01*
X-17916571Y16757142D01*
X-17954666Y16680952D01*
X-18030857Y16642857D01*
X-18107047Y16642857D01*
X-18183238Y17023809D01*
X-21473904Y23909523D02*
X-20673904Y23909523D01*
X-20673904Y23604761D01*
X-20712000Y23528571D01*
X-20750095Y23490476D01*
X-20826285Y23452380D01*
X-20940571Y23452380D01*
X-21016761Y23490476D01*
X-21054857Y23528571D01*
X-21092952Y23604761D01*
X-21092952Y23909523D01*
X-21961904Y24042857D02*
X-22761904Y23852380D01*
X-22190476Y23700000D01*
X-22761904Y23547619D01*
X-21961904Y23357142D01*
X-24049904Y23966666D02*
X-23249904Y23966666D01*
X-23821333Y23700000D01*
X-23249904Y23433333D01*
X-24049904Y23433333D01*
X-26559642Y-16541904D02*
X-26559642Y-15741904D01*
X-26159642Y-15741904D02*
X-26045357Y-15741904D01*
X-25988214Y-15780000D01*
X-25931071Y-15856190D01*
X-25902500Y-16008571D01*
X-25902500Y-16275238D01*
X-25931071Y-16427619D01*
X-25988214Y-16503809D01*
X-26045357Y-16541904D01*
X-26159642Y-16541904D01*
X-26216785Y-16503809D01*
X-26273928Y-16427619D01*
X-26302500Y-16275238D01*
X-26302500Y-16008571D01*
X-26273928Y-15856190D01*
X-26216785Y-15780000D01*
X-26159642Y-15741904D01*
X-26216785Y-17753714D02*
X-26245357Y-17791809D01*
X-26331071Y-17829904D01*
X-26388214Y-17829904D01*
X-26473928Y-17791809D01*
X-26531071Y-17715619D01*
X-26559642Y-17639428D01*
X-26588214Y-17487047D01*
X-26588214Y-17372761D01*
X-26559642Y-17220380D01*
X-26531071Y-17144190D01*
X-26473928Y-17068000D01*
X-26388214Y-17029904D01*
X-26331071Y-17029904D01*
X-26245357Y-17068000D01*
X-26216785Y-17106095D01*
X-25673928Y-17829904D02*
X-25959642Y-17829904D01*
X-25959642Y-17029904D01*
X-26216785Y-19117904D02*
X-26416785Y-18736952D01*
X-26559642Y-19117904D02*
X-26559642Y-18317904D01*
X-26331071Y-18317904D01*
X-26273928Y-18356000D01*
X-26245357Y-18394095D01*
X-26216785Y-18470285D01*
X-26216785Y-18584571D01*
X-26245357Y-18660761D01*
X-26273928Y-18698857D01*
X-26331071Y-18736952D01*
X-26559642Y-18736952D01*
X-25988214Y-19079809D02*
X-25902500Y-19117904D01*
X-25759642Y-19117904D01*
X-25702500Y-19079809D01*
X-25673928Y-19041714D01*
X-25645357Y-18965523D01*
X-25645357Y-18889333D01*
X-25673928Y-18813142D01*
X-25702500Y-18775047D01*
X-25759642Y-18736952D01*
X-25873928Y-18698857D01*
X-25931071Y-18660761D01*
X-25959642Y-18622666D01*
X-25988214Y-18546476D01*
X-25988214Y-18470285D01*
X-25959642Y-18394095D01*
X-25931071Y-18356000D01*
X-25873928Y-18317904D01*
X-25731071Y-18317904D01*
X-25645357Y-18356000D01*
X-26245357Y-19644000D02*
X-26302500Y-19605904D01*
X-26388214Y-19605904D01*
X-26473928Y-19644000D01*
X-26531071Y-19720190D01*
X-26559642Y-19796380D01*
X-26588214Y-19948761D01*
X-26588214Y-20063047D01*
X-26559642Y-20215428D01*
X-26531071Y-20291619D01*
X-26473928Y-20367809D01*
X-26388214Y-20405904D01*
X-26331071Y-20405904D01*
X-26245357Y-20367809D01*
X-26216785Y-20329714D01*
X-26216785Y-20063047D01*
X-26331071Y-20063047D01*
X-25959642Y-20405904D02*
X-25959642Y-19605904D01*
X-25816785Y-19605904D01*
X-25731071Y-19644000D01*
X-25673928Y-19720190D01*
X-25645357Y-19796380D01*
X-25616785Y-19948761D01*
X-25616785Y-20063047D01*
X-25645357Y-20215428D01*
X-25673928Y-20291619D01*
X-25731071Y-20367809D01*
X-25816785Y-20405904D01*
X-25959642Y-20405904D01*
X-26645357Y-20893904D02*
X-26302500Y-20893904D01*
X-26473928Y-21693904D02*
X-26473928Y-20893904D01*
X-26159642Y-20893904D02*
X-25759642Y-21693904D01*
X-25759642Y-20893904D02*
X-26159642Y-21693904D01*
X-26216785Y-22981904D02*
X-26416785Y-22600952D01*
X-26559642Y-22981904D02*
X-26559642Y-22181904D01*
X-26331071Y-22181904D01*
X-26273928Y-22220000D01*
X-26245357Y-22258095D01*
X-26216785Y-22334285D01*
X-26216785Y-22448571D01*
X-26245357Y-22524761D01*
X-26273928Y-22562857D01*
X-26331071Y-22600952D01*
X-26559642Y-22600952D01*
X-26016785Y-22181904D02*
X-25616785Y-22981904D01*
X-25616785Y-22181904D02*
X-26016785Y-22981904D01*
D11*
X25114285Y-10857142D02*
X25114285Y-9714285D01*
X25723809Y-7071428D02*
X25723809Y-7928571D01*
X25723809Y-7500000D02*
X24123809Y-7500000D01*
X24352380Y-7642857D01*
X24504761Y-7785714D01*
X24580952Y-7928571D01*
X24276190Y-5357142D02*
X24200000Y-5285714D01*
X24123809Y-5142857D01*
X24123809Y-4785714D01*
X24200000Y-4642857D01*
X24276190Y-4571428D01*
X24428571Y-4500000D01*
X24580952Y-4500000D01*
X24809523Y-4571428D01*
X25723809Y-5428571D01*
X25723809Y-4500000D01*
X24123809Y-2857142D02*
X24123809Y-1928571D01*
X24733333Y-2428571D01*
X24733333Y-2214285D01*
X24809523Y-2071428D01*
X24885714Y-2000000D01*
X25038095Y-1928571D01*
X25419047Y-1928571D01*
X25571428Y-2000000D01*
X25647619Y-2071428D01*
X25723809Y-2214285D01*
X25723809Y-2642857D01*
X25647619Y-2785714D01*
X25571428Y-2857142D01*
X24657142Y499999D02*
X25723809Y499999D01*
X24047619Y142857D02*
X25190476Y-214285D01*
X25190476Y714285D01*
X24123809Y3142857D02*
X24123809Y2428571D01*
X24885714Y2357142D01*
X24809523Y2428571D01*
X24733333Y2571428D01*
X24733333Y2928571D01*
X24809523Y3071428D01*
X24885714Y3142857D01*
X25038095Y3214285D01*
X25419047Y3214285D01*
X25571428Y3142857D01*
X25647619Y3071428D01*
X25723809Y2928571D01*
X25723809Y2571428D01*
X25647619Y2428571D01*
X25571428Y2357142D01*
X24123809Y5642857D02*
X24123809Y5357142D01*
X24200000Y5214285D01*
X24276190Y5142857D01*
X24504761Y4999999D01*
X24809523Y4928571D01*
X25419047Y4928571D01*
X25571428Y4999999D01*
X25647619Y5071428D01*
X25723809Y5214285D01*
X25723809Y5499999D01*
X25647619Y5642857D01*
X25571428Y5714285D01*
X25419047Y5785714D01*
X25038095Y5785714D01*
X24885714Y5714285D01*
X24809523Y5642857D01*
X24733333Y5499999D01*
X24733333Y5214285D01*
X24809523Y5071428D01*
X24885714Y4999999D01*
X25038095Y4928571D01*
X24123809Y7428571D02*
X24123809Y8428571D01*
X25723809Y7785714D01*
X24809523Y10357142D02*
X24733333Y10214285D01*
X24657142Y10142857D01*
X24504761Y10071428D01*
X24428571Y10071428D01*
X24276190Y10142857D01*
X24200000Y10214285D01*
X24123809Y10357142D01*
X24123809Y10642857D01*
X24200000Y10785714D01*
X24276190Y10857142D01*
X24428571Y10928571D01*
X24504761Y10928571D01*
X24657142Y10857142D01*
X24733333Y10785714D01*
X24809523Y10642857D01*
X24809523Y10357142D01*
X24885714Y10214285D01*
X24961904Y10142857D01*
X25114285Y10071428D01*
X25419047Y10071428D01*
X25571428Y10142857D01*
X25647619Y10214285D01*
X25723809Y10357142D01*
X25723809Y10642857D01*
X25647619Y10785714D01*
X25571428Y10857142D01*
X25419047Y10928571D01*
X25114285Y10928571D01*
X24961904Y10857142D01*
X24885714Y10785714D01*
X24809523Y10642857D01*
D10*
X-20029904Y22409523D02*
X-20029904Y22790476D01*
X-20410857Y22828571D01*
X-20372761Y22790476D01*
X-20334666Y22714285D01*
X-20334666Y22523809D01*
X-20372761Y22447619D01*
X-20410857Y22409523D01*
X-20487047Y22371428D01*
X-20677523Y22371428D01*
X-20753714Y22409523D01*
X-20791809Y22447619D01*
X-20829904Y22523809D01*
X-20829904Y22714285D01*
X-20791809Y22790476D01*
X-20753714Y22828571D01*
X-21317904Y22447619D02*
X-21317904Y22600000D01*
X-21356000Y22676190D01*
X-21394095Y22714285D01*
X-21508380Y22790476D01*
X-21660761Y22828571D01*
X-21965523Y22828571D01*
X-22041714Y22790476D01*
X-22079809Y22752380D01*
X-22117904Y22676190D01*
X-22117904Y22523809D01*
X-22079809Y22447619D01*
X-22041714Y22409523D01*
X-21965523Y22371428D01*
X-21775047Y22371428D01*
X-21698857Y22409523D01*
X-21660761Y22447619D01*
X-21622666Y22523809D01*
X-21622666Y22676190D01*
X-21660761Y22752380D01*
X-21698857Y22790476D01*
X-21775047Y22828571D01*
X-22605904Y22866666D02*
X-22605904Y22333333D01*
X-23405904Y22676190D01*
X-24236761Y22676190D02*
X-24198666Y22752380D01*
X-24160571Y22790476D01*
X-24084380Y22828571D01*
X-24046285Y22828571D01*
X-23970095Y22790476D01*
X-23932000Y22752380D01*
X-23893904Y22676190D01*
X-23893904Y22523809D01*
X-23932000Y22447619D01*
X-23970095Y22409523D01*
X-24046285Y22371428D01*
X-24084380Y22371428D01*
X-24160571Y22409523D01*
X-24198666Y22447619D01*
X-24236761Y22523809D01*
X-24236761Y22676190D01*
X-24274857Y22752380D01*
X-24312952Y22790476D01*
X-24389142Y22828571D01*
X-24541523Y22828571D01*
X-24617714Y22790476D01*
X-24655809Y22752380D01*
X-24693904Y22676190D01*
X-24693904Y22523809D01*
X-24655809Y22447619D01*
X-24617714Y22409523D01*
X-24541523Y22371428D01*
X-24389142Y22371428D01*
X-24312952Y22409523D01*
X-24274857Y22447619D01*
X-24236761Y22523809D01*
X-26660761Y17835595D02*
X-26622666Y17911785D01*
X-26584571Y17949880D01*
X-26508380Y17987976D01*
X-26470285Y17987976D01*
X-26394095Y17949880D01*
X-26356000Y17911785D01*
X-26317904Y17835595D01*
X-26317904Y17683214D01*
X-26356000Y17607023D01*
X-26394095Y17568928D01*
X-26470285Y17530833D01*
X-26508380Y17530833D01*
X-26584571Y17568928D01*
X-26622666Y17607023D01*
X-26660761Y17683214D01*
X-26660761Y17835595D01*
X-26698857Y17911785D01*
X-26736952Y17949880D01*
X-26813142Y17987976D01*
X-26965523Y17987976D01*
X-27041714Y17949880D01*
X-27079809Y17911785D01*
X-27117904Y17835595D01*
X-27117904Y17683214D01*
X-27079809Y17607023D01*
X-27041714Y17568928D01*
X-26965523Y17530833D01*
X-26813142Y17530833D01*
X-26736952Y17568928D01*
X-26698857Y17607023D01*
X-26660761Y17683214D01*
X-26813142Y17187976D02*
X-26813142Y16578452D01*
X-27041714Y15740357D02*
X-27079809Y15778452D01*
X-27117904Y15892738D01*
X-27117904Y15968928D01*
X-27079809Y16083214D01*
X-27003619Y16159404D01*
X-26927428Y16197500D01*
X-26775047Y16235595D01*
X-26660761Y16235595D01*
X-26508380Y16197500D01*
X-26432190Y16159404D01*
X-26356000Y16083214D01*
X-26317904Y15968928D01*
X-26317904Y15892738D01*
X-26356000Y15778452D01*
X-26394095Y15740357D01*
X-27079809Y15092738D02*
X-27117904Y15168928D01*
X-27117904Y15321309D01*
X-27079809Y15397500D01*
X-27003619Y15435595D01*
X-26698857Y15435595D01*
X-26622666Y15397500D01*
X-26584571Y15321309D01*
X-26584571Y15168928D01*
X-26622666Y15092738D01*
X-26698857Y15054642D01*
X-26775047Y15054642D01*
X-26851238Y15435595D01*
X-27117904Y14597500D02*
X-27079809Y14673690D01*
X-27003619Y14711785D01*
X-26317904Y14711785D01*
X-27117904Y14178452D02*
X-27079809Y14254642D01*
X-27003619Y14292738D01*
X-26317904Y14292738D01*
X-26698857Y12997500D02*
X-26736952Y12883214D01*
X-26775047Y12845119D01*
X-26851238Y12807023D01*
X-26965523Y12807023D01*
X-27041714Y12845119D01*
X-27079809Y12883214D01*
X-27117904Y12959404D01*
X-27117904Y13264166D01*
X-26317904Y13264166D01*
X-26317904Y12997500D01*
X-26356000Y12921309D01*
X-26394095Y12883214D01*
X-26470285Y12845119D01*
X-26546476Y12845119D01*
X-26622666Y12883214D01*
X-26660761Y12921309D01*
X-26698857Y12997500D01*
X-26698857Y13264166D01*
X-27117904Y12121309D02*
X-26698857Y12121309D01*
X-26622666Y12159404D01*
X-26584571Y12235595D01*
X-26584571Y12387976D01*
X-26622666Y12464166D01*
X-27079809Y12121309D02*
X-27117904Y12197500D01*
X-27117904Y12387976D01*
X-27079809Y12464166D01*
X-27003619Y12502261D01*
X-26927428Y12502261D01*
X-26851238Y12464166D01*
X-26813142Y12387976D01*
X-26813142Y12197500D01*
X-26775047Y12121309D01*
X-27117904Y11626071D02*
X-27079809Y11702261D01*
X-27003619Y11740357D01*
X-26317904Y11740357D01*
X-27117904Y10978452D02*
X-26698857Y10978452D01*
X-26622666Y11016547D01*
X-26584571Y11092738D01*
X-26584571Y11245119D01*
X-26622666Y11321309D01*
X-27079809Y10978452D02*
X-27117904Y11054642D01*
X-27117904Y11245119D01*
X-27079809Y11321309D01*
X-27003619Y11359404D01*
X-26927428Y11359404D01*
X-26851238Y11321309D01*
X-26813142Y11245119D01*
X-26813142Y11054642D01*
X-26775047Y10978452D01*
X-26584571Y10597500D02*
X-27117904Y10597500D01*
X-26660761Y10597500D02*
X-26622666Y10559404D01*
X-26584571Y10483214D01*
X-26584571Y10368928D01*
X-26622666Y10292738D01*
X-26698857Y10254642D01*
X-27117904Y10254642D01*
X-27079809Y9530833D02*
X-27117904Y9607023D01*
X-27117904Y9759404D01*
X-27079809Y9835595D01*
X-27041714Y9873690D01*
X-26965523Y9911785D01*
X-26736952Y9911785D01*
X-26660761Y9873690D01*
X-26622666Y9835595D01*
X-26584571Y9759404D01*
X-26584571Y9607023D01*
X-26622666Y9530833D01*
X-27079809Y8883214D02*
X-27117904Y8959404D01*
X-27117904Y9111785D01*
X-27079809Y9187976D01*
X-27003619Y9226071D01*
X-26698857Y9226071D01*
X-26622666Y9187976D01*
X-26584571Y9111785D01*
X-26584571Y8959404D01*
X-26622666Y8883214D01*
X-26698857Y8845119D01*
X-26775047Y8845119D01*
X-26851238Y9226071D01*
X-27117904Y8502261D02*
X-26584571Y8502261D01*
X-26736952Y8502261D02*
X-26660761Y8464166D01*
X-26622666Y8426071D01*
X-26584571Y8349880D01*
X-26584571Y8273690D01*
X-28405904Y16311785D02*
X-27605904Y16311785D01*
X-27910666Y16311785D02*
X-27872571Y16235595D01*
X-27872571Y16083214D01*
X-27910666Y16007023D01*
X-27948761Y15968928D01*
X-28024952Y15930833D01*
X-28253523Y15930833D01*
X-28329714Y15968928D01*
X-28367809Y16007023D01*
X-28405904Y16083214D01*
X-28405904Y16235595D01*
X-28367809Y16311785D01*
X-27872571Y15664166D02*
X-28405904Y15473690D01*
X-27872571Y15283214D02*
X-28405904Y15473690D01*
X-28596380Y15549880D01*
X-28634476Y15587976D01*
X-28672571Y15664166D01*
X-27872571Y14368928D02*
X-28558285Y14368928D01*
X-28634476Y14407023D01*
X-28672571Y14483214D01*
X-28672571Y14521309D01*
X-27605904Y14368928D02*
X-27644000Y14407023D01*
X-27682095Y14368928D01*
X-27644000Y14330833D01*
X-27605904Y14368928D01*
X-27682095Y14368928D01*
X-28405904Y13987976D02*
X-27605904Y13987976D01*
X-27910666Y13987976D02*
X-27872571Y13911785D01*
X-27872571Y13759404D01*
X-27910666Y13683214D01*
X-27948761Y13645119D01*
X-28024952Y13607023D01*
X-28253523Y13607023D01*
X-28329714Y13645119D01*
X-28367809Y13683214D01*
X-28405904Y13759404D01*
X-28405904Y13911785D01*
X-28367809Y13987976D01*
X-27872571Y12921309D02*
X-28405904Y12921309D01*
X-27872571Y13264166D02*
X-28291619Y13264166D01*
X-28367809Y13226071D01*
X-28405904Y13149880D01*
X-28405904Y13035595D01*
X-28367809Y12959404D01*
X-28329714Y12921309D01*
X-28367809Y12578452D02*
X-28405904Y12502261D01*
X-28405904Y12349880D01*
X-28367809Y12273690D01*
X-28291619Y12235595D01*
X-28253523Y12235595D01*
X-28177333Y12273690D01*
X-28139238Y12349880D01*
X-28139238Y12464166D01*
X-28101142Y12540357D01*
X-28024952Y12578452D01*
X-27986857Y12578452D01*
X-27910666Y12540357D01*
X-27872571Y12464166D01*
X-27872571Y12349880D01*
X-27910666Y12273690D01*
X-28367809Y11930833D02*
X-28405904Y11854642D01*
X-28405904Y11702261D01*
X-28367809Y11626071D01*
X-28291619Y11587976D01*
X-28253523Y11587976D01*
X-28177333Y11626071D01*
X-28139238Y11702261D01*
X-28139238Y11816547D01*
X-28101142Y11892738D01*
X-28024952Y11930833D01*
X-27986857Y11930833D01*
X-27910666Y11892738D01*
X-27872571Y11816547D01*
X-27872571Y11702261D01*
X-27910666Y11626071D01*
X-28405904Y11245119D02*
X-27872571Y11245119D01*
X-27948761Y11245119D02*
X-27910666Y11207023D01*
X-27872571Y11130833D01*
X-27872571Y11016547D01*
X-27910666Y10940357D01*
X-27986857Y10902261D01*
X-28405904Y10902261D01*
X-27986857Y10902261D02*
X-27910666Y10864166D01*
X-27872571Y10787976D01*
X-27872571Y10673690D01*
X-27910666Y10597500D01*
X-27986857Y10559404D01*
X-28405904Y10559404D01*
X-28405904Y9835595D02*
X-27986857Y9835595D01*
X-27910666Y9873690D01*
X-27872571Y9949880D01*
X-27872571Y10102261D01*
X-27910666Y10178452D01*
X-28367809Y9835595D02*
X-28405904Y9911785D01*
X-28405904Y10102261D01*
X-28367809Y10178452D01*
X-28291619Y10216547D01*
X-28215428Y10216547D01*
X-28139238Y10178452D01*
X-28101142Y10102261D01*
X-28101142Y9911785D01*
X-28063047Y9835595D01*
X-27872571Y9454642D02*
X-28405904Y9454642D01*
X-27948761Y9454642D02*
X-27910666Y9416547D01*
X-27872571Y9340357D01*
X-27872571Y9226071D01*
X-27910666Y9149880D01*
X-27986857Y9111785D01*
X-28405904Y9111785D01*
X-27872571Y8730833D02*
X-28405904Y8730833D01*
X-27948761Y8730833D02*
X-27910666Y8692738D01*
X-27872571Y8616547D01*
X-27872571Y8502261D01*
X-27910666Y8426071D01*
X-27986857Y8387976D01*
X-28405904Y8387976D01*
X7938095Y3695238D02*
X7366666Y3695238D01*
X7252380Y3733333D01*
X7176190Y3809523D01*
X7138095Y3923809D01*
X7138095Y4000000D01*
X7138095Y2933333D02*
X7138095Y3314285D01*
X7938095Y3314285D01*
X7214285Y2209523D02*
X7176190Y2247619D01*
X7138095Y2361904D01*
X7138095Y2438095D01*
X7176190Y2552380D01*
X7252380Y2628571D01*
X7328571Y2666666D01*
X7480952Y2704761D01*
X7595238Y2704761D01*
X7747619Y2666666D01*
X7823809Y2628571D01*
X7900000Y2552380D01*
X7938095Y2438095D01*
X7938095Y2361904D01*
X7900000Y2247619D01*
X7861904Y2209523D01*
X7938095Y1638095D02*
X7366666Y1638095D01*
X7252380Y1676190D01*
X7176190Y1752380D01*
X7138095Y1866666D01*
X7138095Y1942857D01*
X7138095Y876190D02*
X7138095Y1257142D01*
X7938095Y1257142D01*
X7214285Y152380D02*
X7176190Y190476D01*
X7138095Y304761D01*
X7138095Y380952D01*
X7176190Y495238D01*
X7252380Y571428D01*
X7328571Y609523D01*
X7480952Y647619D01*
X7595238Y647619D01*
X7747619Y609523D01*
X7823809Y571428D01*
X7900000Y495238D01*
X7938095Y380952D01*
X7938095Y304761D01*
X7900000Y190476D01*
X7861904Y152380D01*
X7938095Y-419047D02*
X7366666Y-419047D01*
X7252380Y-380952D01*
X7176190Y-304761D01*
X7138095Y-190476D01*
X7138095Y-114285D01*
X7138095Y-1180952D02*
X7138095Y-799999D01*
X7938095Y-799999D01*
X7214285Y-1904761D02*
X7176190Y-1866666D01*
X7138095Y-1752380D01*
X7138095Y-1676190D01*
X7176190Y-1561904D01*
X7252380Y-1485714D01*
X7328571Y-1447619D01*
X7480952Y-1409523D01*
X7595238Y-1409523D01*
X7747619Y-1447619D01*
X7823809Y-1485714D01*
X7900000Y-1561904D01*
X7938095Y-1676190D01*
X7938095Y-1752380D01*
X7900000Y-1866666D01*
X7861904Y-1904761D01*
X7938095Y-2476190D02*
X7366666Y-2476190D01*
X7252380Y-2438095D01*
X7176190Y-2361904D01*
X7138095Y-2247619D01*
X7138095Y-2171428D01*
X7138095Y-3238095D02*
X7138095Y-2857142D01*
X7938095Y-2857142D01*
X7214285Y-3961904D02*
X7176190Y-3923809D01*
X7138095Y-3809523D01*
X7138095Y-3733333D01*
X7176190Y-3619047D01*
X7252380Y-3542857D01*
X7328571Y-3504761D01*
X7480952Y-3466666D01*
X7595238Y-3466666D01*
X7747619Y-3504761D01*
X7823809Y-3542857D01*
X7899999Y-3619047D01*
X7938095Y-3733333D01*
X7938095Y-3809523D01*
X7899999Y-3923809D01*
X7861904Y-3961904D01*
D12*
X-15400000Y10850000D02*
X-14650000Y10850000D01*
X-14650000Y7150000D02*
X-15400000Y7150000D01*
X-14650000Y10850000D02*
X-14650000Y10600000D01*
X-16600000Y7150000D02*
X-17350000Y7150000D01*
X-14650000Y7400000D02*
X-14650000Y7150000D01*
X-17350000Y10600000D02*
X-17350000Y10850000D01*
X-17350000Y7150000D02*
X-17350000Y7400000D01*
X-14650000Y-7150000D02*
X-14650000Y-7400000D01*
X-17350000Y-7150000D02*
X-16600000Y-7150000D01*
X-14650000Y-10600000D02*
X-14650000Y-10850000D01*
X-17350000Y-10850000D02*
X-17350000Y-10600000D01*
X-15400000Y-7150000D02*
X-14650000Y-7150000D01*
X-16600000Y-10850000D02*
X-17350000Y-10850000D01*
X-17350000Y-7400000D02*
X-17350000Y-7150000D01*
X29330000Y-8890000D02*
X26670000Y-8890000D01*
X29330000Y-11490000D02*
X28000000Y-11490000D01*
X29330000Y-10160000D02*
X29330000Y-11490000D01*
X29330000Y-8890000D02*
X29330000Y11490000D01*
X29330000Y11490000D02*
X26670000Y11490000D01*
X26670000Y-8890000D02*
X26670000Y11490000D01*
X-10300000Y600000D02*
X-11500000Y600000D01*
X-10300000Y400000D02*
X-10300000Y600000D01*
X-10300000Y-600000D02*
X-10300000Y-400000D01*
X-11500000Y-600000D02*
X-10300000Y-600000D01*
X-11500000Y600000D02*
X-11500000Y-600000D01*
X16492164Y-15540000D02*
X16707836Y-15540000D01*
X16492164Y-16260000D02*
X16707836Y-16260000D01*
X19292164Y-20140000D02*
X19507836Y-20140000D01*
X19292164Y-20860000D02*
X19507836Y-20860000D01*
X-11480000Y10353641D02*
X-11480000Y10046359D01*
X-10720000Y10353641D02*
X-10720000Y10046359D01*
X-3160000Y22430000D02*
X-2500000Y22430000D01*
X-1500000Y22430000D02*
X-840000Y22430000D01*
X-840000Y21020000D02*
X-840000Y22430000D01*
X-3160000Y22430000D02*
X-3160000Y20400000D01*
X-13380000Y-8253641D02*
X-13380000Y-7946359D01*
X-12620000Y-8253641D02*
X-12620000Y-7946359D01*
X20637258Y5322500D02*
X20162742Y5322500D01*
X20637258Y4277500D02*
X20162742Y4277500D01*
X-12620000Y-10353641D02*
X-12620000Y-10046359D01*
X-13380000Y-10353641D02*
X-13380000Y-10046359D01*
X12840000Y-21020000D02*
X12840000Y-22430000D01*
X15160000Y-22430000D02*
X15160000Y-20400000D01*
X13500000Y-22430000D02*
X12840000Y-22430000D01*
X15160000Y-22430000D02*
X14500000Y-22430000D01*
X-9440000Y-4892164D02*
X-9440000Y-5107836D01*
X-10160000Y-4892164D02*
X-10160000Y-5107836D01*
X9480000Y18746359D02*
X9480000Y19053641D01*
X8720000Y18746359D02*
X8720000Y19053641D01*
X-19920000Y14053641D02*
X-19920000Y13746359D01*
X-20680000Y14053641D02*
X-20680000Y13746359D01*
X4637258Y5322500D02*
X4162742Y5322500D01*
X4637258Y4277500D02*
X4162742Y4277500D01*
X-11480000Y-8253641D02*
X-11480000Y-7946359D01*
X-10720000Y-8253641D02*
X-10720000Y-7946359D01*
X-24880000Y-15646359D02*
X-24880000Y-15953641D01*
X-24120000Y-15646359D02*
X-24120000Y-15953641D01*
X-19540000Y-8207836D02*
X-19540000Y-7992164D01*
X-20260000Y-8207836D02*
X-20260000Y-7992164D01*
X8492164Y-16260000D02*
X8707836Y-16260000D01*
X8492164Y-15540000D02*
X8707836Y-15540000D01*
X15720000Y18746359D02*
X15720000Y19053641D01*
X16480000Y18746359D02*
X16480000Y19053641D01*
X-5840000Y-22430000D02*
X-5840000Y-20400000D01*
X-5840000Y-22430000D02*
X-6500000Y-22430000D01*
X-7500000Y-22430000D02*
X-8160000Y-22430000D01*
X-8160000Y-21020000D02*
X-8160000Y-22430000D01*
X-19380000Y10353641D02*
X-19380000Y10046359D01*
X-18620000Y10353641D02*
X-18620000Y10046359D01*
X2990000Y-23160000D02*
X4400000Y-23160000D01*
X2990000Y-23160000D02*
X2990000Y-22850000D01*
X2990000Y-21240000D02*
X2990000Y-21550000D01*
X2990000Y-21240000D02*
X4150000Y-21240000D01*
X-5553641Y16280000D02*
X-5246359Y16280000D01*
X-5553641Y15520000D02*
X-5246359Y15520000D01*
X18160000Y-22430000D02*
X18160000Y-20400000D01*
X18160000Y-22430000D02*
X17500000Y-22430000D01*
X16500000Y-22430000D02*
X15840000Y-22430000D01*
X15840000Y-21020000D02*
X15840000Y-22430000D01*
X-23480000Y-14053641D02*
X-23480000Y-13746359D01*
X-22720000Y-14053641D02*
X-22720000Y-13746359D01*
X21520000Y-18746359D02*
X21520000Y-19053641D01*
X22280000Y-18746359D02*
X22280000Y-19053641D01*
X-13400000Y-5600000D02*
X-13400000Y-2400000D01*
X-10900000Y-2400000D02*
X-10600000Y-2400000D01*
X-13100000Y-5600000D02*
X-13400000Y-5600000D01*
X-10600000Y-2400000D02*
X-10600000Y-5600000D01*
X-13400000Y-2400000D02*
X-13100000Y-2400000D01*
X-10600000Y-5600000D02*
X-10900000Y-5600000D01*
X-23480000Y19446359D02*
X-23480000Y19753641D01*
X-22720000Y19446359D02*
X-22720000Y19753641D01*
X-1492164Y16260000D02*
X-1707836Y16260000D01*
X-1492164Y15540000D02*
X-1707836Y15540000D01*
X-12460000Y10307836D02*
X-12460000Y10092164D01*
X-11740000Y10307836D02*
X-11740000Y10092164D01*
X15740000Y16507836D02*
X15740000Y16292164D01*
X16460000Y16507836D02*
X16460000Y16292164D01*
X23080000Y19253641D02*
X23080000Y18946359D01*
X22320000Y19253641D02*
X22320000Y18946359D01*
X-21320000Y19446359D02*
X-21320000Y19753641D01*
X-22080000Y19446359D02*
X-22080000Y19753641D01*
X10362742Y-5322500D02*
X10837258Y-5322500D01*
X10362742Y-4277500D02*
X10837258Y-4277500D01*
X8680000Y-19253641D02*
X8680000Y-18946359D01*
X7920000Y-19253641D02*
X7920000Y-18946359D01*
X14280000Y-16553641D02*
X14280000Y-16246359D01*
X13520000Y-16553641D02*
X13520000Y-16246359D01*
X-23480000Y-15646359D02*
X-23480000Y-15953641D01*
X-22720000Y-15646359D02*
X-22720000Y-15953641D01*
X-9440000Y4892164D02*
X-9440000Y5107836D01*
X-10160000Y4892164D02*
X-10160000Y5107836D01*
X-5637258Y-5322500D02*
X-5162742Y-5322500D01*
X-5637258Y-4277500D02*
X-5162742Y-4277500D01*
X-10560000Y-10307836D02*
X-10560000Y-10092164D01*
X-9840000Y-10307836D02*
X-9840000Y-10092164D01*
X6540000Y-16507836D02*
X6540000Y-16292164D01*
X7260000Y-16507836D02*
X7260000Y-16292164D01*
X19300000Y-19760000D02*
X18500000Y-19760000D01*
X19300000Y-16640000D02*
X20100000Y-16640000D01*
X19300000Y-16640000D02*
X18500000Y-16640000D01*
X19300000Y-19760000D02*
X21100000Y-19760000D01*
X-12460000Y8207836D02*
X-12460000Y7992164D01*
X-11740000Y8207836D02*
X-11740000Y7992164D01*
X-1460000Y-16507836D02*
X-1460000Y-16292164D01*
X-740000Y-16507836D02*
X-740000Y-16292164D01*
X-8280000Y18746359D02*
X-8280000Y19053641D01*
X-7520000Y18746359D02*
X-7520000Y19053641D01*
X3300000Y-19760000D02*
X2500000Y-19760000D01*
X3300000Y-16640000D02*
X4100000Y-16640000D01*
X3300000Y-19760000D02*
X5100000Y-19760000D01*
X3300000Y-16640000D02*
X2500000Y-16640000D01*
X-19700000Y17700000D02*
X-19700000Y18500000D01*
X-19700000Y18500000D02*
X-19900000Y18500000D01*
X-20900000Y18500000D02*
X-20900000Y17700000D01*
X-20700000Y18500000D02*
X-20900000Y18500000D01*
X-5653641Y-16280000D02*
X-5346359Y-16280000D01*
X-5653641Y-15520000D02*
X-5346359Y-15520000D01*
X-26900000Y-23300000D02*
X-26900000Y-15500000D01*
X-26900000Y-15500000D02*
X-27400000Y-15500000D01*
X-29500000Y-23300000D02*
X-26900000Y-23300000D01*
X-29500000Y-15500000D02*
X-29500000Y-23300000D01*
X-29000000Y-15500000D02*
X-29500000Y-15500000D01*
X-2480000Y-16553641D02*
X-2480000Y-16246359D01*
X-1720000Y-16553641D02*
X-1720000Y-16246359D01*
X-920000Y17146359D02*
X-920000Y17453641D01*
X-1680000Y17146359D02*
X-1680000Y17453641D01*
X-7507836Y-16260000D02*
X-7292164Y-16260000D01*
X-7507836Y-15540000D02*
X-7292164Y-15540000D01*
X-6520000Y16553641D02*
X-6520000Y16246359D01*
X-7280000Y16553641D02*
X-7280000Y16246359D01*
X4653641Y15520000D02*
X4346359Y15520000D01*
X4653641Y16280000D02*
X4346359Y16280000D01*
X11292164Y-20860000D02*
X11507836Y-20860000D01*
X11292164Y-20140000D02*
X11507836Y-20140000D01*
X-80000Y-17146359D02*
X-80000Y-17453641D01*
X680000Y-17146359D02*
X680000Y-17453641D01*
X-10560000Y10307836D02*
X-10560000Y10092164D01*
X-9840000Y10307836D02*
X-9840000Y10092164D01*
X-160000Y-21020000D02*
X-160000Y-22430000D01*
X2160000Y-22430000D02*
X1500000Y-22430000D01*
X500000Y-22430000D02*
X-160000Y-22430000D01*
X2160000Y-22430000D02*
X2160000Y-20400000D01*
X-19380000Y-10353641D02*
X-19380000Y-10046359D01*
X-18620000Y-10353641D02*
X-18620000Y-10046359D01*
X4840000Y22430000D02*
X5500000Y22430000D01*
X6500000Y22430000D02*
X7160000Y22430000D01*
X4840000Y22430000D02*
X4840000Y20400000D01*
X7160000Y21020000D02*
X7160000Y22430000D01*
X-2480000Y-18746359D02*
X-2480000Y-19053641D01*
X-1720000Y-18746359D02*
X-1720000Y-19053641D01*
X-24880000Y15646359D02*
X-24880000Y15953641D01*
X-24120000Y15646359D02*
X-24120000Y15953641D01*
X15280000Y-18746359D02*
X15280000Y-19053641D01*
X14520000Y-18746359D02*
X14520000Y-19053641D01*
X18446359Y16280000D02*
X18753641Y16280000D01*
X18446359Y15520000D02*
X18753641Y15520000D01*
X-21320000Y-14053641D02*
X-21320000Y-13746359D01*
X-22080000Y-14053641D02*
X-22080000Y-13746359D01*
X7720000Y18746359D02*
X7720000Y19053641D01*
X8480000Y18746359D02*
X8480000Y19053641D01*
X15080000Y17146359D02*
X15080000Y17453641D01*
X14320000Y17146359D02*
X14320000Y17453641D01*
X15920000Y-19253641D02*
X15920000Y-18946359D01*
X16680000Y-19253641D02*
X16680000Y-18946359D01*
X-11480000Y-10353641D02*
X-11480000Y-10046359D01*
X-10720000Y-10353641D02*
X-10720000Y-10046359D01*
X-24880000Y-19446359D02*
X-24880000Y-19753641D01*
X-24120000Y-19446359D02*
X-24120000Y-19753641D01*
X6200000Y-14200000D02*
X6200000Y-14800000D01*
X1300000Y-15300000D02*
X800000Y-14800000D01*
X2600000Y-7800000D02*
X2100000Y-7800000D01*
X100000Y-7800000D02*
X300000Y-7800000D01*
X6200000Y-14800000D02*
X5700000Y-15300000D01*
X100000Y-13500000D02*
X100000Y-7800000D01*
X800000Y-14200000D02*
X100000Y-13500000D01*
X6700000Y-7800000D02*
X6900000Y-7800000D01*
X6900000Y-7800000D02*
X6900000Y-13500000D01*
X6900000Y-13500000D02*
X6200000Y-14200000D01*
X5700000Y-15300000D02*
X1300000Y-15300000D01*
X4900000Y-7800000D02*
X4400000Y-7800000D01*
X800000Y-14800000D02*
X800000Y-14200000D01*
X19700000Y16640000D02*
X20500000Y16640000D01*
X19700000Y19760000D02*
X20500000Y19760000D01*
X19700000Y19760000D02*
X17900000Y19760000D01*
X19700000Y16640000D02*
X18900000Y16640000D01*
X4553641Y-15520000D02*
X4246359Y-15520000D01*
X4553641Y-16280000D02*
X4246359Y-16280000D01*
X20840000Y-21020000D02*
X20840000Y-22430000D01*
X21500000Y-22430000D02*
X20840000Y-22430000D01*
X23160000Y-22430000D02*
X22500000Y-22430000D01*
X23160000Y-22430000D02*
X23160000Y-20400000D01*
X7920000Y-17146359D02*
X7920000Y-17453641D01*
X8680000Y-17146359D02*
X8680000Y-17453641D01*
X10990000Y-23160000D02*
X10990000Y-22850000D01*
X10990000Y-23160000D02*
X12400000Y-23160000D01*
X10990000Y-21240000D02*
X12150000Y-21240000D01*
X10990000Y-21240000D02*
X10990000Y-21550000D01*
X20653641Y16280000D02*
X20346359Y16280000D01*
X20653641Y15520000D02*
X20346359Y15520000D01*
X-80000Y-19253641D02*
X-80000Y-18946359D01*
X680000Y-19253641D02*
X680000Y-18946359D01*
X-19540000Y8207836D02*
X-19540000Y7992164D01*
X-20260000Y8207836D02*
X-20260000Y7992164D01*
X-22080000Y-15646359D02*
X-22080000Y-15953641D01*
X-21320000Y-15646359D02*
X-21320000Y-15953641D01*
X-10180000Y-2846359D02*
X-10180000Y-3153641D01*
X-9420000Y-2846359D02*
X-9420000Y-3153641D01*
X-19900000Y-18500000D02*
X-19700000Y-18500000D01*
X-20900000Y-17700000D02*
X-20900000Y-18500000D01*
X-20900000Y-18500000D02*
X-20700000Y-18500000D01*
X-19700000Y-18500000D02*
X-19700000Y-17700000D01*
X-3362742Y5322500D02*
X-3837258Y5322500D01*
X-3362742Y4277500D02*
X-3837258Y4277500D01*
X15920000Y-17146359D02*
X15920000Y-17453641D01*
X16680000Y-17146359D02*
X16680000Y-17453641D01*
X20553641Y-15520000D02*
X20246359Y-15520000D01*
X20553641Y-16280000D02*
X20246359Y-16280000D01*
X-160000Y22430000D02*
X500000Y22430000D01*
X1500000Y22430000D02*
X2160000Y22430000D01*
X-160000Y22430000D02*
X-160000Y20400000D01*
X2160000Y21020000D02*
X2160000Y22430000D01*
X-22160000Y-10307836D02*
X-22160000Y-10092164D01*
X-21440000Y-10307836D02*
X-21440000Y-10092164D01*
X6280000Y-16553641D02*
X6280000Y-16246359D01*
X5520000Y-16553641D02*
X5520000Y-16246359D01*
X492164Y-15540000D02*
X707836Y-15540000D01*
X492164Y-16260000D02*
X707836Y-16260000D01*
X-12546359Y620000D02*
X-12853641Y620000D01*
X-12546359Y1380000D02*
X-12853641Y1380000D01*
X22507836Y16260000D02*
X22292164Y16260000D01*
X22507836Y15540000D02*
X22292164Y15540000D01*
X-22500000Y17700000D02*
X-22500000Y18500000D01*
X-23700000Y18500000D02*
X-23700000Y17700000D01*
X-23500000Y18500000D02*
X-23700000Y18500000D01*
X-22500000Y18500000D02*
X-22700000Y18500000D01*
X-22720000Y-19456359D02*
X-22720000Y-19763641D01*
X-23480000Y-19456359D02*
X-23480000Y-19763641D01*
X-22100000Y18500000D02*
X-22300000Y18500000D01*
X-22300000Y18500000D02*
X-22300000Y17700000D01*
X-21100000Y18500000D02*
X-21300000Y18500000D01*
X-21100000Y17700000D02*
X-21100000Y18500000D01*
X-24880000Y14053641D02*
X-24880000Y13746359D01*
X-24120000Y14053641D02*
X-24120000Y13746359D01*
X-19540000Y10307836D02*
X-19540000Y10092164D01*
X-20260000Y10307836D02*
X-20260000Y10092164D01*
X4010000Y23160000D02*
X2600000Y23160000D01*
X4010000Y21240000D02*
X2850000Y21240000D01*
X4010000Y23160000D02*
X4010000Y22850000D01*
X4010000Y21240000D02*
X4010000Y21550000D01*
X16720000Y16553641D02*
X16720000Y16246359D01*
X17480000Y16553641D02*
X17480000Y16246359D01*
X2346359Y-15520000D02*
X2653641Y-15520000D01*
X2346359Y-16280000D02*
X2653641Y-16280000D01*
X-3990000Y21240000D02*
X-3990000Y21550000D01*
X-3990000Y23160000D02*
X-3990000Y22850000D01*
X-3990000Y21240000D02*
X-5150000Y21240000D01*
X-3990000Y23160000D02*
X-5400000Y23160000D01*
X20840000Y22430000D02*
X20840000Y20400000D01*
X22500000Y22430000D02*
X23160000Y22430000D01*
X20840000Y22430000D02*
X21500000Y22430000D01*
X23160000Y21020000D02*
X23160000Y22430000D01*
X-4300000Y19760000D02*
X-3500000Y19760000D01*
X-4300000Y16640000D02*
X-3500000Y16640000D01*
X-4300000Y19760000D02*
X-6100000Y19760000D01*
X-4300000Y16640000D02*
X-5100000Y16640000D01*
X3292164Y-20860000D02*
X3507836Y-20860000D01*
X3292164Y-20140000D02*
X3507836Y-20140000D01*
X20010000Y23160000D02*
X20010000Y22850000D01*
X20010000Y23160000D02*
X18600000Y23160000D01*
X20010000Y21240000D02*
X20010000Y21550000D01*
X20010000Y21240000D02*
X18850000Y21240000D01*
X12553641Y-15520000D02*
X12246359Y-15520000D01*
X12553641Y-16280000D02*
X12246359Y-16280000D01*
X-20520000Y-8253641D02*
X-20520000Y-7946359D01*
X-21280000Y-8253641D02*
X-21280000Y-7946359D01*
X-9420000Y2846359D02*
X-9420000Y3153641D01*
X-10180000Y2846359D02*
X-10180000Y3153641D01*
X-21280000Y10353641D02*
X-21280000Y10046359D01*
X-20520000Y10353641D02*
X-20520000Y10046359D01*
X22280000Y-16553641D02*
X22280000Y-16246359D01*
X21520000Y-16553641D02*
X21520000Y-16246359D01*
X10346359Y-16280000D02*
X10653641Y-16280000D01*
X10346359Y-15520000D02*
X10653641Y-15520000D01*
X2446359Y16280000D02*
X2753641Y16280000D01*
X2446359Y15520000D02*
X2753641Y15520000D01*
X3707836Y20140000D02*
X3492164Y20140000D01*
X3707836Y20860000D02*
X3492164Y20860000D01*
X-840000Y-22430000D02*
X-840000Y-20400000D01*
X-3160000Y-21020000D02*
X-3160000Y-22430000D01*
X-2500000Y-22430000D02*
X-3160000Y-22430000D01*
X-840000Y-22430000D02*
X-1500000Y-22430000D01*
X-19380000Y8253641D02*
X-19380000Y7946359D01*
X-18620000Y8253641D02*
X-18620000Y7946359D01*
X-1480000Y-18746359D02*
X-1480000Y-19053641D01*
X-720000Y-18746359D02*
X-720000Y-19053641D01*
X-22080000Y-19456359D02*
X-22080000Y-19763641D01*
X-21320000Y-19456359D02*
X-21320000Y-19763641D01*
X-920000Y19253641D02*
X-920000Y18946359D01*
X-1680000Y19253641D02*
X-1680000Y18946359D01*
X16720000Y18746359D02*
X16720000Y19053641D01*
X17480000Y18746359D02*
X17480000Y19053641D01*
X18346359Y-16280000D02*
X18653641Y-16280000D01*
X18346359Y-15520000D02*
X18653641Y-15520000D01*
X-19540000Y-10307836D02*
X-19540000Y-10092164D01*
X-20260000Y-10307836D02*
X-20260000Y-10092164D01*
X6280000Y-18746359D02*
X6280000Y-19053641D01*
X5520000Y-18746359D02*
X5520000Y-19053641D01*
X23280000Y-18746359D02*
X23280000Y-19053641D01*
X22520000Y-18746359D02*
X22520000Y-19053641D01*
G36*
X-24087031Y-9376148D02*
G01*
X-23983427Y-9532379D01*
X-23968379Y-9563093D01*
X-23929403Y-9676083D01*
X-23912398Y-9792767D01*
X-23916707Y-9899973D01*
X-23941672Y-9984534D01*
X-23986637Y-10033280D01*
X-23991948Y-10035579D01*
X-24076056Y-10056309D01*
X-24177173Y-10064734D01*
X-24281756Y-10062045D01*
X-24376265Y-10049432D01*
X-24447158Y-10028087D01*
X-24480894Y-9999201D01*
X-24481991Y-9992478D01*
X-24502996Y-9970237D01*
X-24512494Y-9969068D01*
X-24552324Y-9947921D01*
X-24609398Y-9892112D01*
X-24673214Y-9813086D01*
X-24722361Y-9740360D01*
X-24772175Y-9619739D01*
X-24609086Y-9619739D01*
X-24585970Y-9681589D01*
X-24506919Y-9780973D01*
X-24397615Y-9848966D01*
X-24273501Y-9879487D01*
X-24150017Y-9866456D01*
X-24132203Y-9860254D01*
X-24098570Y-9858254D01*
X-24084290Y-9837768D01*
X-24079013Y-9782480D01*
X-24082429Y-9710587D01*
X-24094226Y-9640289D01*
X-24102759Y-9612501D01*
X-24139754Y-9548333D01*
X-24199395Y-9475731D01*
X-24267710Y-9408722D01*
X-24330726Y-9361335D01*
X-24367162Y-9347024D01*
X-24453150Y-9350052D01*
X-24515257Y-9380526D01*
X-24555985Y-9420362D01*
X-24608020Y-9514748D01*
X-24609086Y-9619739D01*
X-24772175Y-9619739D01*
X-24776672Y-9608851D01*
X-24789360Y-9468250D01*
X-24761568Y-9345214D01*
X-24697663Y-9250878D01*
X-24611763Y-9192602D01*
X-24538640Y-9160563D01*
X-24483002Y-9153770D01*
X-24415853Y-9170352D01*
X-24392410Y-9178444D01*
X-24367162Y-9190536D01*
X-24220461Y-9260798D01*
X-24087031Y-9376148D01*
G37*
D13*
X-24087031Y-9376148D02*
X-23983427Y-9532379D01*
X-23968379Y-9563093D01*
X-23929403Y-9676083D01*
X-23912398Y-9792767D01*
X-23916707Y-9899973D01*
X-23941672Y-9984534D01*
X-23986637Y-10033280D01*
X-23991948Y-10035579D01*
X-24076056Y-10056309D01*
X-24177173Y-10064734D01*
X-24281756Y-10062045D01*
X-24376265Y-10049432D01*
X-24447158Y-10028087D01*
X-24480894Y-9999201D01*
X-24481991Y-9992478D01*
X-24502996Y-9970237D01*
X-24512494Y-9969068D01*
X-24552324Y-9947921D01*
X-24609398Y-9892112D01*
X-24673214Y-9813086D01*
X-24722361Y-9740360D01*
X-24772175Y-9619739D01*
X-24609086Y-9619739D01*
X-24585970Y-9681589D01*
X-24506919Y-9780973D01*
X-24397615Y-9848966D01*
X-24273501Y-9879487D01*
X-24150017Y-9866456D01*
X-24132203Y-9860254D01*
X-24098570Y-9858254D01*
X-24084290Y-9837768D01*
X-24079013Y-9782480D01*
X-24082429Y-9710587D01*
X-24094226Y-9640289D01*
X-24102759Y-9612501D01*
X-24139754Y-9548333D01*
X-24199395Y-9475731D01*
X-24267710Y-9408722D01*
X-24330726Y-9361335D01*
X-24367162Y-9347024D01*
X-24453150Y-9350052D01*
X-24515257Y-9380526D01*
X-24555985Y-9420362D01*
X-24608020Y-9514748D01*
X-24609086Y-9619739D01*
X-24772175Y-9619739D01*
X-24776672Y-9608851D01*
X-24789360Y-9468250D01*
X-24761568Y-9345214D01*
X-24697663Y-9250878D01*
X-24611763Y-9192602D01*
X-24538640Y-9160563D01*
X-24483002Y-9153770D01*
X-24415853Y-9170352D01*
X-24392410Y-9178444D01*
X-24367162Y-9190536D01*
X-24220461Y-9260798D01*
X-24087031Y-9376148D01*
G36*
X-25543493Y-10104102D02*
G01*
X-25461976Y-10137683D01*
X-25368772Y-10179864D01*
X-25277959Y-10223763D01*
X-25203617Y-10262498D01*
X-25159826Y-10289187D01*
X-25154391Y-10294303D01*
X-25120541Y-10315160D01*
X-25066944Y-10333093D01*
X-25013619Y-10353943D01*
X-24993220Y-10375586D01*
X-24972838Y-10399069D01*
X-24967602Y-10399576D01*
X-24934580Y-10414242D01*
X-24871650Y-10452235D01*
X-24791923Y-10504554D01*
X-24708511Y-10562193D01*
X-24634524Y-10616150D01*
X-24583073Y-10657421D01*
X-24567196Y-10674548D01*
X-24536531Y-10695422D01*
X-24533767Y-10695551D01*
X-24494375Y-10714549D01*
X-24427074Y-10766593D01*
X-24339425Y-10844261D01*
X-24238987Y-10940130D01*
X-24133322Y-11046775D01*
X-24029991Y-11156774D01*
X-23936553Y-11262705D01*
X-23862356Y-11354767D01*
X-23723259Y-11558406D01*
X-23624856Y-11749446D01*
X-23560560Y-11940976D01*
X-23554369Y-11966568D01*
X-23529409Y-12118614D01*
X-23535379Y-12247818D01*
X-23574553Y-12376890D01*
X-23601443Y-12436499D01*
X-23679146Y-12541822D01*
X-23788597Y-12605375D01*
X-23927409Y-12626989D01*
X-24093193Y-12606495D01*
X-24283560Y-12543722D01*
X-24394544Y-12492783D01*
X-24491615Y-12441978D01*
X-24567142Y-12398115D01*
X-24610375Y-12367658D01*
X-24616525Y-12359337D01*
X-24637100Y-12337465D01*
X-24643227Y-12336864D01*
X-24690230Y-12316779D01*
X-24762985Y-12261518D01*
X-24854451Y-12178572D01*
X-24957589Y-12075433D01*
X-25065358Y-11959595D01*
X-25170716Y-11838547D01*
X-25266625Y-11719782D01*
X-25346044Y-11610793D01*
X-25388138Y-11544185D01*
X-25457088Y-11416553D01*
X-25530202Y-11267803D01*
X-25599564Y-11115275D01*
X-25657262Y-10976310D01*
X-25692947Y-10876293D01*
X-25708507Y-10825914D01*
X-25567443Y-10825914D01*
X-25549239Y-10887583D01*
X-25515561Y-10978372D01*
X-25470072Y-11088472D01*
X-25416437Y-11208070D01*
X-25410739Y-11220233D01*
X-25361119Y-11318076D01*
X-25307427Y-11412843D01*
X-25284690Y-11448941D01*
X-25234829Y-11527611D01*
X-25192468Y-11600672D01*
X-25186690Y-11611609D01*
X-25141135Y-11679694D01*
X-25067070Y-11767764D01*
X-24972621Y-11868273D01*
X-24865916Y-11973673D01*
X-24755081Y-12076417D01*
X-24648244Y-12168958D01*
X-24553530Y-12243749D01*
X-24479066Y-12293243D01*
X-24434702Y-12309958D01*
X-24399720Y-12327466D01*
X-24396787Y-12332870D01*
X-24368462Y-12353645D01*
X-24304410Y-12383773D01*
X-24239830Y-12408870D01*
X-24122006Y-12441070D01*
X-24009124Y-12454564D01*
X-23916133Y-12448794D01*
X-23857986Y-12423198D01*
X-23857961Y-12423173D01*
X-23843636Y-12372634D01*
X-23862728Y-12290422D01*
X-23911076Y-12183388D01*
X-23984521Y-12058378D01*
X-24078900Y-11922240D01*
X-24190052Y-11781822D01*
X-24313817Y-11643973D01*
X-24360021Y-11596928D01*
X-24454106Y-11508522D01*
X-24563593Y-11413532D01*
X-24679723Y-11318657D01*
X-24793737Y-11230594D01*
X-24896877Y-11156041D01*
X-24980383Y-11101696D01*
X-25035496Y-11074256D01*
X-25046170Y-11072246D01*
X-25073015Y-11054388D01*
X-25073941Y-11048256D01*
X-25096744Y-11024569D01*
X-25141207Y-11007383D01*
X-25191580Y-10986517D01*
X-25208474Y-10966244D01*
X-25231665Y-10944177D01*
X-25287611Y-10924611D01*
X-25289195Y-10924259D01*
X-25345632Y-10906310D01*
X-25369897Y-10887582D01*
X-25369915Y-10887166D01*
X-25392112Y-10868106D01*
X-25444768Y-10841916D01*
X-25506981Y-10817528D01*
X-25557849Y-10803870D01*
X-25566507Y-10803178D01*
X-25567443Y-10825914D01*
X-25708507Y-10825914D01*
X-25746591Y-10702614D01*
X-26060097Y-10591040D01*
X-26180358Y-10549189D01*
X-26280816Y-10516027D01*
X-26351483Y-10494722D01*
X-26382370Y-10488443D01*
X-26382817Y-10488679D01*
X-26372000Y-10511957D01*
X-26334079Y-10560535D01*
X-26308145Y-10589995D01*
X-26172481Y-10763743D01*
X-26046372Y-10971480D01*
X-25936931Y-11197725D01*
X-25851270Y-11426993D01*
X-25796503Y-11643802D01*
X-25784073Y-11730785D01*
X-25786447Y-11918240D01*
X-25831555Y-12083799D01*
X-25916025Y-12221326D01*
X-26036482Y-12324690D01*
X-26136859Y-12372205D01*
X-26224689Y-12390994D01*
X-26338919Y-12399747D01*
X-26460618Y-12398764D01*
X-26570854Y-12388347D01*
X-26650695Y-12368799D01*
X-26661301Y-12363846D01*
X-26729282Y-12342022D01*
X-26777458Y-12336864D01*
X-26842306Y-12321228D01*
X-26876695Y-12296504D01*
X-26917457Y-12262575D01*
X-26937582Y-12256144D01*
X-26980691Y-12244498D01*
X-27045756Y-12215709D01*
X-27115429Y-12179003D01*
X-27172360Y-12143603D01*
X-27199201Y-12118734D01*
X-27199576Y-12116841D01*
X-27221437Y-12097182D01*
X-27239936Y-12094703D01*
X-27275743Y-12080175D01*
X-27280296Y-12067797D01*
X-27301424Y-12042586D01*
X-27312730Y-12040890D01*
X-27341998Y-12022541D01*
X-27397520Y-11974103D01*
X-27469550Y-11905484D01*
X-27548344Y-11826595D01*
X-27624156Y-11747346D01*
X-27687241Y-11677647D01*
X-27727854Y-11627408D01*
X-27737712Y-11608711D01*
X-27750634Y-11577717D01*
X-27784443Y-11514830D01*
X-27829750Y-11437150D01*
X-27913361Y-11272914D01*
X-27976965Y-11096651D01*
X-28009736Y-10956149D01*
X-27868270Y-10956149D01*
X-27857216Y-11013144D01*
X-27828334Y-11107948D01*
X-27807056Y-11168673D01*
X-27706922Y-11382474D01*
X-27565679Y-11595651D01*
X-27394194Y-11793640D01*
X-27231281Y-11940290D01*
X-27167333Y-11984707D01*
X-27088823Y-12031247D01*
X-27013294Y-12070400D01*
X-26958286Y-12092655D01*
X-26946479Y-12094703D01*
X-26908183Y-12111063D01*
X-26876709Y-12135051D01*
X-26816926Y-12168677D01*
X-26753510Y-12185760D01*
X-26681809Y-12198799D01*
X-26634534Y-12212273D01*
X-26557046Y-12230348D01*
X-26455375Y-12238149D01*
X-26351863Y-12235604D01*
X-26268857Y-12222641D01*
X-26244401Y-12213522D01*
X-26196389Y-12193712D01*
X-26177118Y-12195546D01*
X-26161641Y-12190691D01*
X-26124200Y-12155666D01*
X-26122257Y-12153591D01*
X-26076459Y-12111499D01*
X-26045623Y-12094703D01*
X-26022353Y-12072453D01*
X-25989369Y-12016431D01*
X-25975473Y-11987420D01*
X-25947689Y-11881609D01*
X-25939820Y-11745292D01*
X-25951252Y-11597710D01*
X-25981374Y-11458102D01*
X-25993452Y-11422034D01*
X-26028177Y-11327860D01*
X-26044408Y-11492401D01*
X-26064633Y-11612306D01*
X-26104690Y-11698107D01*
X-26176060Y-11768863D01*
X-26235865Y-11810224D01*
X-26305095Y-11834516D01*
X-26408333Y-11848371D01*
X-26526713Y-11851353D01*
X-26641368Y-11843028D01*
X-26733431Y-11822963D01*
X-26736817Y-11821749D01*
X-26811007Y-11799781D01*
X-26879322Y-11784813D01*
X-27019036Y-11740666D01*
X-27175197Y-11659205D01*
X-27336724Y-11549359D01*
X-27492537Y-11420054D01*
X-27631556Y-11280217D01*
X-27742702Y-11138776D01*
X-27797141Y-11045339D01*
X-27837965Y-10968914D01*
X-27861764Y-10940295D01*
X-27868270Y-10956149D01*
X-28009736Y-10956149D01*
X-28017928Y-10921025D01*
X-28033611Y-10758698D01*
X-28021379Y-10622334D01*
X-28008451Y-10578866D01*
X-27971544Y-10521554D01*
X-27909327Y-10457552D01*
X-27884596Y-10437271D01*
X-27861764Y-10421073D01*
X-27821420Y-10392450D01*
X-27779358Y-10377926D01*
X-27738227Y-10389493D01*
X-27714948Y-10401919D01*
X-27651347Y-10455263D01*
X-27639935Y-10516758D01*
X-27680389Y-10589815D01*
X-27695538Y-10607047D01*
X-27742007Y-10669385D01*
X-27752929Y-10731031D01*
X-27746967Y-10775732D01*
X-27684751Y-10967154D01*
X-27574262Y-11150164D01*
X-27421035Y-11317345D01*
X-27239936Y-11455380D01*
X-27090671Y-11544665D01*
X-26961380Y-11605194D01*
X-26832283Y-11643288D01*
X-26683601Y-11665268D01*
X-26553813Y-11674638D01*
X-26409875Y-11671604D01*
X-26307326Y-11642137D01*
X-26238782Y-11582552D01*
X-26199293Y-11497569D01*
X-26186322Y-11377487D01*
X-26205599Y-11229758D01*
X-26252303Y-11065745D01*
X-26321612Y-10896813D01*
X-26408708Y-10734325D01*
X-26508769Y-10589646D01*
X-26616975Y-10474138D01*
X-26642393Y-10452983D01*
X-26731650Y-10401432D01*
X-26859233Y-10352711D01*
X-27009726Y-10312438D01*
X-27051589Y-10303875D01*
X-27130548Y-10288365D01*
X-27190824Y-10275805D01*
X-27199576Y-10273821D01*
X-27253566Y-10263397D01*
X-27328064Y-10251357D01*
X-27330288Y-10251028D01*
X-27399475Y-10237533D01*
X-27444565Y-10222872D01*
X-27446075Y-10222001D01*
X-27487085Y-10209337D01*
X-27558569Y-10196832D01*
X-27584432Y-10193602D01*
X-27742384Y-10169885D01*
X-27871104Y-10138541D01*
X-27960627Y-10102279D01*
X-27986165Y-10084454D01*
X-28021013Y-10022762D01*
X-28026889Y-9980038D01*
X-27851034Y-9980038D01*
X-27830294Y-9991221D01*
X-27795465Y-10010348D01*
X-27791525Y-10020046D01*
X-27767256Y-10032457D01*
X-27704989Y-10042599D01*
X-27651893Y-10046542D01*
X-27568747Y-10052411D01*
X-27508906Y-10060448D01*
X-27492037Y-10065413D01*
X-27455661Y-10074703D01*
X-27384264Y-10085003D01*
X-27328968Y-10090771D01*
X-27184544Y-10105494D01*
X-27080573Y-10120579D01*
X-27003722Y-10138067D01*
X-26987231Y-10143039D01*
X-26915538Y-10162063D01*
X-26859720Y-10173815D01*
X-26786124Y-10193294D01*
X-26700777Y-10223755D01*
X-26691322Y-10227662D01*
X-26595840Y-10261535D01*
X-26494295Y-10288858D01*
X-26486546Y-10290486D01*
X-26418015Y-10308511D01*
X-26313989Y-10340753D01*
X-26189327Y-10382431D01*
X-26075047Y-10422865D01*
X-25771175Y-10533347D01*
X-25777598Y-10377960D01*
X-25638100Y-10377960D01*
X-25636832Y-10463410D01*
X-25630147Y-10536152D01*
X-25617996Y-10579267D01*
X-25586477Y-10604850D01*
X-25566507Y-10617335D01*
X-25518531Y-10647330D01*
X-25425901Y-10699606D01*
X-25369520Y-10729528D01*
X-25195483Y-10820935D01*
X-25064354Y-10892327D01*
X-24970505Y-10946923D01*
X-24908308Y-10987947D01*
X-24883474Y-11007709D01*
X-24834673Y-11038753D01*
X-24809481Y-11045339D01*
X-24779725Y-11059508D01*
X-24777966Y-11066445D01*
X-24757234Y-11093452D01*
X-24707033Y-11129935D01*
X-24703972Y-11131782D01*
X-24532883Y-11253010D01*
X-24353330Y-11413756D01*
X-24175184Y-11602946D01*
X-24008317Y-11809505D01*
X-23862601Y-12022358D01*
X-23777349Y-12171320D01*
X-23716442Y-12288298D01*
X-23692970Y-12198227D01*
X-23683610Y-12065273D01*
X-23715911Y-11905163D01*
X-23788436Y-11722965D01*
X-23871256Y-11570021D01*
X-23958513Y-11444979D01*
X-24078619Y-11301461D01*
X-24221266Y-11149386D01*
X-24376146Y-10998674D01*
X-24532952Y-10859246D01*
X-24681374Y-10741021D01*
X-24811106Y-10653919D01*
X-24839743Y-10637994D01*
X-24890457Y-10607974D01*
X-24912500Y-10590622D01*
X-24948056Y-10564380D01*
X-25019954Y-10521939D01*
X-25116345Y-10469334D01*
X-25225378Y-10412601D01*
X-25335204Y-10357778D01*
X-25433972Y-10310899D01*
X-25509833Y-10278002D01*
X-25550936Y-10265122D01*
X-25551536Y-10265108D01*
X-25582794Y-10248046D01*
X-25585169Y-10238136D01*
X-25605645Y-10212011D01*
X-25612076Y-10211229D01*
X-25625455Y-10235283D01*
X-25634219Y-10296389D01*
X-25638100Y-10377960D01*
X-25777598Y-10377960D01*
X-25779072Y-10342301D01*
X-25786970Y-10151255D01*
X-25960917Y-10088363D01*
X-26049038Y-10058407D01*
X-26115041Y-10039548D01*
X-26145074Y-10035724D01*
X-26145304Y-10035912D01*
X-26175134Y-10035306D01*
X-26221628Y-10021304D01*
X-26326627Y-9990832D01*
X-26476921Y-9962742D01*
X-26540360Y-9953369D01*
X-26622512Y-9941299D01*
X-26717151Y-9926669D01*
X-26728707Y-9924827D01*
X-26790362Y-9919085D01*
X-26894790Y-9913818D01*
X-27030954Y-9909398D01*
X-27187814Y-9906194D01*
X-27329797Y-9904698D01*
X-27508737Y-9904285D01*
X-27641001Y-9905791D01*
X-27733708Y-9909735D01*
X-27793979Y-9916632D01*
X-27828931Y-9926998D01*
X-27845686Y-9941351D01*
X-27846161Y-9942161D01*
X-27851034Y-9980038D01*
X-28026889Y-9980038D01*
X-28032653Y-9938126D01*
X-28018757Y-9857203D01*
X-28007915Y-9835450D01*
X-27964453Y-9804843D01*
X-27907427Y-9791863D01*
X-27852981Y-9787105D01*
X-27831885Y-9781978D01*
X-27806567Y-9770726D01*
X-27736916Y-9761214D01*
X-27632392Y-9753601D01*
X-27508737Y-9748319D01*
X-27502454Y-9748050D01*
X-27356559Y-9744721D01*
X-27204167Y-9743777D01*
X-27054736Y-9745379D01*
X-26917725Y-9749687D01*
X-26802592Y-9756864D01*
X-26742161Y-9763390D01*
X-26645515Y-9776709D01*
X-26560936Y-9788327D01*
X-26526907Y-9792979D01*
X-26450066Y-9807119D01*
X-26338524Y-9832038D01*
X-26209248Y-9863479D01*
X-26079207Y-9897186D01*
X-25965369Y-9928900D01*
X-25887269Y-9953453D01*
X-25817301Y-9975690D01*
X-25778300Y-9975901D01*
X-25751075Y-9951558D01*
X-25738864Y-9933899D01*
X-25705232Y-9894849D01*
X-25673498Y-9899123D01*
X-25656126Y-9912192D01*
X-25621031Y-9967007D01*
X-25612076Y-10013389D01*
X-25590627Y-10074542D01*
X-25543493Y-10104102D01*
G37*
X-25543493Y-10104102D02*
X-25461976Y-10137683D01*
X-25368772Y-10179864D01*
X-25277959Y-10223763D01*
X-25203617Y-10262498D01*
X-25159826Y-10289187D01*
X-25154391Y-10294303D01*
X-25120541Y-10315160D01*
X-25066944Y-10333093D01*
X-25013619Y-10353943D01*
X-24993220Y-10375586D01*
X-24972838Y-10399069D01*
X-24967602Y-10399576D01*
X-24934580Y-10414242D01*
X-24871650Y-10452235D01*
X-24791923Y-10504554D01*
X-24708511Y-10562193D01*
X-24634524Y-10616150D01*
X-24583073Y-10657421D01*
X-24567196Y-10674548D01*
X-24536531Y-10695422D01*
X-24533767Y-10695551D01*
X-24494375Y-10714549D01*
X-24427074Y-10766593D01*
X-24339425Y-10844261D01*
X-24238987Y-10940130D01*
X-24133322Y-11046775D01*
X-24029991Y-11156774D01*
X-23936553Y-11262705D01*
X-23862356Y-11354767D01*
X-23723259Y-11558406D01*
X-23624856Y-11749446D01*
X-23560560Y-11940976D01*
X-23554369Y-11966568D01*
X-23529409Y-12118614D01*
X-23535379Y-12247818D01*
X-23574553Y-12376890D01*
X-23601443Y-12436499D01*
X-23679146Y-12541822D01*
X-23788597Y-12605375D01*
X-23927409Y-12626989D01*
X-24093193Y-12606495D01*
X-24283560Y-12543722D01*
X-24394544Y-12492783D01*
X-24491615Y-12441978D01*
X-24567142Y-12398115D01*
X-24610375Y-12367658D01*
X-24616525Y-12359337D01*
X-24637100Y-12337465D01*
X-24643227Y-12336864D01*
X-24690230Y-12316779D01*
X-24762985Y-12261518D01*
X-24854451Y-12178572D01*
X-24957589Y-12075433D01*
X-25065358Y-11959595D01*
X-25170716Y-11838547D01*
X-25266625Y-11719782D01*
X-25346044Y-11610793D01*
X-25388138Y-11544185D01*
X-25457088Y-11416553D01*
X-25530202Y-11267803D01*
X-25599564Y-11115275D01*
X-25657262Y-10976310D01*
X-25692947Y-10876293D01*
X-25708507Y-10825914D01*
X-25567443Y-10825914D01*
X-25549239Y-10887583D01*
X-25515561Y-10978372D01*
X-25470072Y-11088472D01*
X-25416437Y-11208070D01*
X-25410739Y-11220233D01*
X-25361119Y-11318076D01*
X-25307427Y-11412843D01*
X-25284690Y-11448941D01*
X-25234829Y-11527611D01*
X-25192468Y-11600672D01*
X-25186690Y-11611609D01*
X-25141135Y-11679694D01*
X-25067070Y-11767764D01*
X-24972621Y-11868273D01*
X-24865916Y-11973673D01*
X-24755081Y-12076417D01*
X-24648244Y-12168958D01*
X-24553530Y-12243749D01*
X-24479066Y-12293243D01*
X-24434702Y-12309958D01*
X-24399720Y-12327466D01*
X-24396787Y-12332870D01*
X-24368462Y-12353645D01*
X-24304410Y-12383773D01*
X-24239830Y-12408870D01*
X-24122006Y-12441070D01*
X-24009124Y-12454564D01*
X-23916133Y-12448794D01*
X-23857986Y-12423198D01*
X-23857961Y-12423173D01*
X-23843636Y-12372634D01*
X-23862728Y-12290422D01*
X-23911076Y-12183388D01*
X-23984521Y-12058378D01*
X-24078900Y-11922240D01*
X-24190052Y-11781822D01*
X-24313817Y-11643973D01*
X-24360021Y-11596928D01*
X-24454106Y-11508522D01*
X-24563593Y-11413532D01*
X-24679723Y-11318657D01*
X-24793737Y-11230594D01*
X-24896877Y-11156041D01*
X-24980383Y-11101696D01*
X-25035496Y-11074256D01*
X-25046170Y-11072246D01*
X-25073015Y-11054388D01*
X-25073941Y-11048256D01*
X-25096744Y-11024569D01*
X-25141207Y-11007383D01*
X-25191580Y-10986517D01*
X-25208474Y-10966244D01*
X-25231665Y-10944177D01*
X-25287611Y-10924611D01*
X-25289195Y-10924259D01*
X-25345632Y-10906310D01*
X-25369897Y-10887582D01*
X-25369915Y-10887166D01*
X-25392112Y-10868106D01*
X-25444768Y-10841916D01*
X-25506981Y-10817528D01*
X-25557849Y-10803870D01*
X-25566507Y-10803178D01*
X-25567443Y-10825914D01*
X-25708507Y-10825914D01*
X-25746591Y-10702614D01*
X-26060097Y-10591040D01*
X-26180358Y-10549189D01*
X-26280816Y-10516027D01*
X-26351483Y-10494722D01*
X-26382370Y-10488443D01*
X-26382817Y-10488679D01*
X-26372000Y-10511957D01*
X-26334079Y-10560535D01*
X-26308145Y-10589995D01*
X-26172481Y-10763743D01*
X-26046372Y-10971480D01*
X-25936931Y-11197725D01*
X-25851270Y-11426993D01*
X-25796503Y-11643802D01*
X-25784073Y-11730785D01*
X-25786447Y-11918240D01*
X-25831555Y-12083799D01*
X-25916025Y-12221326D01*
X-26036482Y-12324690D01*
X-26136859Y-12372205D01*
X-26224689Y-12390994D01*
X-26338919Y-12399747D01*
X-26460618Y-12398764D01*
X-26570854Y-12388347D01*
X-26650695Y-12368799D01*
X-26661301Y-12363846D01*
X-26729282Y-12342022D01*
X-26777458Y-12336864D01*
X-26842306Y-12321228D01*
X-26876695Y-12296504D01*
X-26917457Y-12262575D01*
X-26937582Y-12256144D01*
X-26980691Y-12244498D01*
X-27045756Y-12215709D01*
X-27115429Y-12179003D01*
X-27172360Y-12143603D01*
X-27199201Y-12118734D01*
X-27199576Y-12116841D01*
X-27221437Y-12097182D01*
X-27239936Y-12094703D01*
X-27275743Y-12080175D01*
X-27280296Y-12067797D01*
X-27301424Y-12042586D01*
X-27312730Y-12040890D01*
X-27341998Y-12022541D01*
X-27397520Y-11974103D01*
X-27469550Y-11905484D01*
X-27548344Y-11826595D01*
X-27624156Y-11747346D01*
X-27687241Y-11677647D01*
X-27727854Y-11627408D01*
X-27737712Y-11608711D01*
X-27750634Y-11577717D01*
X-27784443Y-11514830D01*
X-27829750Y-11437150D01*
X-27913361Y-11272914D01*
X-27976965Y-11096651D01*
X-28009736Y-10956149D01*
X-27868270Y-10956149D01*
X-27857216Y-11013144D01*
X-27828334Y-11107948D01*
X-27807056Y-11168673D01*
X-27706922Y-11382474D01*
X-27565679Y-11595651D01*
X-27394194Y-11793640D01*
X-27231281Y-11940290D01*
X-27167333Y-11984707D01*
X-27088823Y-12031247D01*
X-27013294Y-12070400D01*
X-26958286Y-12092655D01*
X-26946479Y-12094703D01*
X-26908183Y-12111063D01*
X-26876709Y-12135051D01*
X-26816926Y-12168677D01*
X-26753510Y-12185760D01*
X-26681809Y-12198799D01*
X-26634534Y-12212273D01*
X-26557046Y-12230348D01*
X-26455375Y-12238149D01*
X-26351863Y-12235604D01*
X-26268857Y-12222641D01*
X-26244401Y-12213522D01*
X-26196389Y-12193712D01*
X-26177118Y-12195546D01*
X-26161641Y-12190691D01*
X-26124200Y-12155666D01*
X-26122257Y-12153591D01*
X-26076459Y-12111499D01*
X-26045623Y-12094703D01*
X-26022353Y-12072453D01*
X-25989369Y-12016431D01*
X-25975473Y-11987420D01*
X-25947689Y-11881609D01*
X-25939820Y-11745292D01*
X-25951252Y-11597710D01*
X-25981374Y-11458102D01*
X-25993452Y-11422034D01*
X-26028177Y-11327860D01*
X-26044408Y-11492401D01*
X-26064633Y-11612306D01*
X-26104690Y-11698107D01*
X-26176060Y-11768863D01*
X-26235865Y-11810224D01*
X-26305095Y-11834516D01*
X-26408333Y-11848371D01*
X-26526713Y-11851353D01*
X-26641368Y-11843028D01*
X-26733431Y-11822963D01*
X-26736817Y-11821749D01*
X-26811007Y-11799781D01*
X-26879322Y-11784813D01*
X-27019036Y-11740666D01*
X-27175197Y-11659205D01*
X-27336724Y-11549359D01*
X-27492537Y-11420054D01*
X-27631556Y-11280217D01*
X-27742702Y-11138776D01*
X-27797141Y-11045339D01*
X-27837965Y-10968914D01*
X-27861764Y-10940295D01*
X-27868270Y-10956149D01*
X-28009736Y-10956149D01*
X-28017928Y-10921025D01*
X-28033611Y-10758698D01*
X-28021379Y-10622334D01*
X-28008451Y-10578866D01*
X-27971544Y-10521554D01*
X-27909327Y-10457552D01*
X-27884596Y-10437271D01*
X-27861764Y-10421073D01*
X-27821420Y-10392450D01*
X-27779358Y-10377926D01*
X-27738227Y-10389493D01*
X-27714948Y-10401919D01*
X-27651347Y-10455263D01*
X-27639935Y-10516758D01*
X-27680389Y-10589815D01*
X-27695538Y-10607047D01*
X-27742007Y-10669385D01*
X-27752929Y-10731031D01*
X-27746967Y-10775732D01*
X-27684751Y-10967154D01*
X-27574262Y-11150164D01*
X-27421035Y-11317345D01*
X-27239936Y-11455380D01*
X-27090671Y-11544665D01*
X-26961380Y-11605194D01*
X-26832283Y-11643288D01*
X-26683601Y-11665268D01*
X-26553813Y-11674638D01*
X-26409875Y-11671604D01*
X-26307326Y-11642137D01*
X-26238782Y-11582552D01*
X-26199293Y-11497569D01*
X-26186322Y-11377487D01*
X-26205599Y-11229758D01*
X-26252303Y-11065745D01*
X-26321612Y-10896813D01*
X-26408708Y-10734325D01*
X-26508769Y-10589646D01*
X-26616975Y-10474138D01*
X-26642393Y-10452983D01*
X-26731650Y-10401432D01*
X-26859233Y-10352711D01*
X-27009726Y-10312438D01*
X-27051589Y-10303875D01*
X-27130548Y-10288365D01*
X-27190824Y-10275805D01*
X-27199576Y-10273821D01*
X-27253566Y-10263397D01*
X-27328064Y-10251357D01*
X-27330288Y-10251028D01*
X-27399475Y-10237533D01*
X-27444565Y-10222872D01*
X-27446075Y-10222001D01*
X-27487085Y-10209337D01*
X-27558569Y-10196832D01*
X-27584432Y-10193602D01*
X-27742384Y-10169885D01*
X-27871104Y-10138541D01*
X-27960627Y-10102279D01*
X-27986165Y-10084454D01*
X-28021013Y-10022762D01*
X-28026889Y-9980038D01*
X-27851034Y-9980038D01*
X-27830294Y-9991221D01*
X-27795465Y-10010348D01*
X-27791525Y-10020046D01*
X-27767256Y-10032457D01*
X-27704989Y-10042599D01*
X-27651893Y-10046542D01*
X-27568747Y-10052411D01*
X-27508906Y-10060448D01*
X-27492037Y-10065413D01*
X-27455661Y-10074703D01*
X-27384264Y-10085003D01*
X-27328968Y-10090771D01*
X-27184544Y-10105494D01*
X-27080573Y-10120579D01*
X-27003722Y-10138067D01*
X-26987231Y-10143039D01*
X-26915538Y-10162063D01*
X-26859720Y-10173815D01*
X-26786124Y-10193294D01*
X-26700777Y-10223755D01*
X-26691322Y-10227662D01*
X-26595840Y-10261535D01*
X-26494295Y-10288858D01*
X-26486546Y-10290486D01*
X-26418015Y-10308511D01*
X-26313989Y-10340753D01*
X-26189327Y-10382431D01*
X-26075047Y-10422865D01*
X-25771175Y-10533347D01*
X-25777598Y-10377960D01*
X-25638100Y-10377960D01*
X-25636832Y-10463410D01*
X-25630147Y-10536152D01*
X-25617996Y-10579267D01*
X-25586477Y-10604850D01*
X-25566507Y-10617335D01*
X-25518531Y-10647330D01*
X-25425901Y-10699606D01*
X-25369520Y-10729528D01*
X-25195483Y-10820935D01*
X-25064354Y-10892327D01*
X-24970505Y-10946923D01*
X-24908308Y-10987947D01*
X-24883474Y-11007709D01*
X-24834673Y-11038753D01*
X-24809481Y-11045339D01*
X-24779725Y-11059508D01*
X-24777966Y-11066445D01*
X-24757234Y-11093452D01*
X-24707033Y-11129935D01*
X-24703972Y-11131782D01*
X-24532883Y-11253010D01*
X-24353330Y-11413756D01*
X-24175184Y-11602946D01*
X-24008317Y-11809505D01*
X-23862601Y-12022358D01*
X-23777349Y-12171320D01*
X-23716442Y-12288298D01*
X-23692970Y-12198227D01*
X-23683610Y-12065273D01*
X-23715911Y-11905163D01*
X-23788436Y-11722965D01*
X-23871256Y-11570021D01*
X-23958513Y-11444979D01*
X-24078619Y-11301461D01*
X-24221266Y-11149386D01*
X-24376146Y-10998674D01*
X-24532952Y-10859246D01*
X-24681374Y-10741021D01*
X-24811106Y-10653919D01*
X-24839743Y-10637994D01*
X-24890457Y-10607974D01*
X-24912500Y-10590622D01*
X-24948056Y-10564380D01*
X-25019954Y-10521939D01*
X-25116345Y-10469334D01*
X-25225378Y-10412601D01*
X-25335204Y-10357778D01*
X-25433972Y-10310899D01*
X-25509833Y-10278002D01*
X-25550936Y-10265122D01*
X-25551536Y-10265108D01*
X-25582794Y-10248046D01*
X-25585169Y-10238136D01*
X-25605645Y-10212011D01*
X-25612076Y-10211229D01*
X-25625455Y-10235283D01*
X-25634219Y-10296389D01*
X-25638100Y-10377960D01*
X-25777598Y-10377960D01*
X-25779072Y-10342301D01*
X-25786970Y-10151255D01*
X-25960917Y-10088363D01*
X-26049038Y-10058407D01*
X-26115041Y-10039548D01*
X-26145074Y-10035724D01*
X-26145304Y-10035912D01*
X-26175134Y-10035306D01*
X-26221628Y-10021304D01*
X-26326627Y-9990832D01*
X-26476921Y-9962742D01*
X-26540360Y-9953369D01*
X-26622512Y-9941299D01*
X-26717151Y-9926669D01*
X-26728707Y-9924827D01*
X-26790362Y-9919085D01*
X-26894790Y-9913818D01*
X-27030954Y-9909398D01*
X-27187814Y-9906194D01*
X-27329797Y-9904698D01*
X-27508737Y-9904285D01*
X-27641001Y-9905791D01*
X-27733708Y-9909735D01*
X-27793979Y-9916632D01*
X-27828931Y-9926998D01*
X-27845686Y-9941351D01*
X-27846161Y-9942161D01*
X-27851034Y-9980038D01*
X-28026889Y-9980038D01*
X-28032653Y-9938126D01*
X-28018757Y-9857203D01*
X-28007915Y-9835450D01*
X-27964453Y-9804843D01*
X-27907427Y-9791863D01*
X-27852981Y-9787105D01*
X-27831885Y-9781978D01*
X-27806567Y-9770726D01*
X-27736916Y-9761214D01*
X-27632392Y-9753601D01*
X-27508737Y-9748319D01*
X-27502454Y-9748050D01*
X-27356559Y-9744721D01*
X-27204167Y-9743777D01*
X-27054736Y-9745379D01*
X-26917725Y-9749687D01*
X-26802592Y-9756864D01*
X-26742161Y-9763390D01*
X-26645515Y-9776709D01*
X-26560936Y-9788327D01*
X-26526907Y-9792979D01*
X-26450066Y-9807119D01*
X-26338524Y-9832038D01*
X-26209248Y-9863479D01*
X-26079207Y-9897186D01*
X-25965369Y-9928900D01*
X-25887269Y-9953453D01*
X-25817301Y-9975690D01*
X-25778300Y-9975901D01*
X-25751075Y-9951558D01*
X-25738864Y-9933899D01*
X-25705232Y-9894849D01*
X-25673498Y-9899123D01*
X-25656126Y-9912192D01*
X-25621031Y-9967007D01*
X-25612076Y-10013389D01*
X-25590627Y-10074542D01*
X-25543493Y-10104102D01*
G36*
X-28808055Y-6800409D02*
G01*
X-28706762Y-6826942D01*
X-28619760Y-6858289D01*
X-28562487Y-6890041D01*
X-28549400Y-6905690D01*
X-28518539Y-6927834D01*
X-28510591Y-6928602D01*
X-28474766Y-6948200D01*
X-28415794Y-7000047D01*
X-28343314Y-7073721D01*
X-28266966Y-7158798D01*
X-28196392Y-7244858D01*
X-28141231Y-7321477D01*
X-28129234Y-7340885D01*
X-28056708Y-7485435D01*
X-27984994Y-7665891D01*
X-27920636Y-7864653D01*
X-27885560Y-7996511D01*
X-27852178Y-8111330D01*
X-27818456Y-8184139D01*
X-27795011Y-8207031D01*
X-27760163Y-8219945D01*
X-27680820Y-8248976D01*
X-27563082Y-8291902D01*
X-27413046Y-8346504D01*
X-27236812Y-8410563D01*
X-27040479Y-8481858D01*
X-26863241Y-8546167D01*
X-26652362Y-8622847D01*
X-26454458Y-8695174D01*
X-26276010Y-8760753D01*
X-26123500Y-8817186D01*
X-26003408Y-8862078D01*
X-25922217Y-8893032D01*
X-25889466Y-8906221D01*
X-25823783Y-8954214D01*
X-25779625Y-9034234D01*
X-25754712Y-9152854D01*
X-25746761Y-9316647D01*
X-25746760Y-9317445D01*
X-25748772Y-9411620D01*
X-25757969Y-9466096D01*
X-25778776Y-9494916D01*
X-25807150Y-9509085D01*
X-25881380Y-9517557D01*
X-25931767Y-9507539D01*
X-26005745Y-9484232D01*
X-26107981Y-9457293D01*
X-26213804Y-9432819D01*
X-26298199Y-9416960D01*
X-26362969Y-9401391D01*
X-26429738Y-9378903D01*
X-26487855Y-9361557D01*
X-26520308Y-9361575D01*
X-26520602Y-9361846D01*
X-26551238Y-9360784D01*
X-26611257Y-9341916D01*
X-26631225Y-9333883D01*
X-26713934Y-9303953D01*
X-26788236Y-9284730D01*
X-26795974Y-9283505D01*
X-26842551Y-9271541D01*
X-26929957Y-9244121D01*
X-27048549Y-9204456D01*
X-27188685Y-9155760D01*
X-27315459Y-9110420D01*
X-27461045Y-9057834D01*
X-27588039Y-9012253D01*
X-27688248Y-8976591D01*
X-27753482Y-8953766D01*
X-27775528Y-8946610D01*
X-27775960Y-8970683D01*
X-27769028Y-9033058D01*
X-27759297Y-9100179D01*
X-27743349Y-9237334D01*
X-27746620Y-9328725D01*
X-27769744Y-9379095D01*
X-27798556Y-9392554D01*
X-27841459Y-9383955D01*
X-27873515Y-9340205D01*
X-27897016Y-9255499D01*
X-27914252Y-9124036D01*
X-27917091Y-9092305D01*
X-27928474Y-8983781D01*
X-27942271Y-8918076D01*
X-27961834Y-8884201D01*
X-27984128Y-8872573D01*
X-28025404Y-8852060D01*
X-28033686Y-8837932D01*
X-28056651Y-8816604D01*
X-28113818Y-8790258D01*
X-28134303Y-8783043D01*
X-28218226Y-8748407D01*
X-28315955Y-8698568D01*
X-28359260Y-8673329D01*
X-28434278Y-8630436D01*
X-28493018Y-8602674D01*
X-28514257Y-8596822D01*
X-28543327Y-8578444D01*
X-28544915Y-8569915D01*
X-28566708Y-8546044D01*
X-28585275Y-8543009D01*
X-28621124Y-8531570D01*
X-28625635Y-8521903D01*
X-28646697Y-8496051D01*
X-28698774Y-8458883D01*
X-28713082Y-8450342D01*
X-28790746Y-8393930D01*
X-28889440Y-8305653D01*
X-28998299Y-8196992D01*
X-29106461Y-8079426D01*
X-29203061Y-7964437D01*
X-29277236Y-7863502D01*
X-29294545Y-7835905D01*
X-29379752Y-7674830D01*
X-29214033Y-7674830D01*
X-29183493Y-7735504D01*
X-29152004Y-7786948D01*
X-29095673Y-7869159D01*
X-29037320Y-7944154D01*
X-29024196Y-7959152D01*
X-28967446Y-8022528D01*
X-28920374Y-8076712D01*
X-28874012Y-8123048D01*
X-28805769Y-8182283D01*
X-28775374Y-8206674D01*
X-28706622Y-8261652D01*
X-28652143Y-8307486D01*
X-28637272Y-8321028D01*
X-28599789Y-8349856D01*
X-28586662Y-8354661D01*
X-28556649Y-8367962D01*
X-28497663Y-8401906D01*
X-28456933Y-8427235D01*
X-28155445Y-8596154D01*
X-27858792Y-8723044D01*
X-27763063Y-8759446D01*
X-27686052Y-8791757D01*
X-27643000Y-8813544D01*
X-27641031Y-8814990D01*
X-27603202Y-8835112D01*
X-27531274Y-8865868D01*
X-27438039Y-8902557D01*
X-27336287Y-8940480D01*
X-27238811Y-8974936D01*
X-27158401Y-9001225D01*
X-27107848Y-9014647D01*
X-27097324Y-9014768D01*
X-27068964Y-9018564D01*
X-27002547Y-9038046D01*
X-26910213Y-9069502D01*
X-26867186Y-9085182D01*
X-26758577Y-9123695D01*
X-26661914Y-9154792D01*
X-26593700Y-9173262D01*
X-26580720Y-9175635D01*
X-26502958Y-9192661D01*
X-26439460Y-9212994D01*
X-26387312Y-9229521D01*
X-26365467Y-9229711D01*
X-26365466Y-9229659D01*
X-26343039Y-9230437D01*
X-26286752Y-9246211D01*
X-26260271Y-9255180D01*
X-26192390Y-9275670D01*
X-26149134Y-9282267D01*
X-26143322Y-9280540D01*
X-26113563Y-9282394D01*
X-26054024Y-9301528D01*
X-26034127Y-9309499D01*
X-25968558Y-9335506D01*
X-25926907Y-9349460D01*
X-25922368Y-9350212D01*
X-25910360Y-9326810D01*
X-25906732Y-9268893D01*
X-25910253Y-9194893D01*
X-25919692Y-9123245D01*
X-25933819Y-9072380D01*
X-25941684Y-9060931D01*
X-25982138Y-9039757D01*
X-26060656Y-9006616D01*
X-26164163Y-8966288D01*
X-26279582Y-8923555D01*
X-26393838Y-8883195D01*
X-26493854Y-8849991D01*
X-26566553Y-8828722D01*
X-26590209Y-8823837D01*
X-26632549Y-8812414D01*
X-26717731Y-8784526D01*
X-26838324Y-8742911D01*
X-26986898Y-8690308D01*
X-27156023Y-8629454D01*
X-27338270Y-8563086D01*
X-27526209Y-8493943D01*
X-27712409Y-8424762D01*
X-27889441Y-8358281D01*
X-28049875Y-8297238D01*
X-28186281Y-8244371D01*
X-28291229Y-8202416D01*
X-28357290Y-8174113D01*
X-28368984Y-8168396D01*
X-28441622Y-8134143D01*
X-28497661Y-8114403D01*
X-28510244Y-8112500D01*
X-28542235Y-8095938D01*
X-28544915Y-8085593D01*
X-28565794Y-8059988D01*
X-28575029Y-8058686D01*
X-28611667Y-8045248D01*
X-28678591Y-8010651D01*
X-28761235Y-7963473D01*
X-28845036Y-7912294D01*
X-28915426Y-7865691D01*
X-28955310Y-7834717D01*
X-28996828Y-7799684D01*
X-29061295Y-7749227D01*
X-29087982Y-7729078D01*
X-29167838Y-7673027D01*
X-29209335Y-7654474D01*
X-29214033Y-7674830D01*
X-29379752Y-7674830D01*
X-29382778Y-7669109D01*
X-29438430Y-7514738D01*
X-29468882Y-7349174D01*
X-29477167Y-7251483D01*
X-29480518Y-7195997D01*
X-29264256Y-7195997D01*
X-29264030Y-7282988D01*
X-29216744Y-7379537D01*
X-29209335Y-7388914D01*
X-29161345Y-7449654D01*
X-29094443Y-7514406D01*
X-28997257Y-7594471D01*
X-28881536Y-7681623D01*
X-28759031Y-7767634D01*
X-28641492Y-7844276D01*
X-28540669Y-7903321D01*
X-28468311Y-7936542D01*
X-28464195Y-7937812D01*
X-28395799Y-7966084D01*
X-28356568Y-7990885D01*
X-28311918Y-8016635D01*
X-28241478Y-8046726D01*
X-28162405Y-8075173D01*
X-28091856Y-8095991D01*
X-28046989Y-8103193D01*
X-28040331Y-8101207D01*
X-28040438Y-8069744D01*
X-28054734Y-8000395D01*
X-28079472Y-7906013D01*
X-28110906Y-7799447D01*
X-28145289Y-7693548D01*
X-28178874Y-7601169D01*
X-28201775Y-7547458D01*
X-28260876Y-7438466D01*
X-28332909Y-7327616D01*
X-28409952Y-7224786D01*
X-28484085Y-7139856D01*
X-28547386Y-7082704D01*
X-28590088Y-7063136D01*
X-28621781Y-7047025D01*
X-28655618Y-7019992D01*
X-28719919Y-6989231D01*
X-28816561Y-6972635D01*
X-28925769Y-6970956D01*
X-29027768Y-6984946D01*
X-29082818Y-7003744D01*
X-29158905Y-7053350D01*
X-29218700Y-7111026D01*
X-29264256Y-7195997D01*
X-29480518Y-7195997D01*
X-29489354Y-7049682D01*
X-29387103Y-6950296D01*
X-29275065Y-6859184D01*
X-29157404Y-6805790D01*
X-29012958Y-6780969D01*
X-28991772Y-6779407D01*
X-28925769Y-6782319D01*
X-28908204Y-6783095D01*
X-28808055Y-6800409D01*
G37*
X-28808055Y-6800409D02*
X-28706762Y-6826942D01*
X-28619760Y-6858289D01*
X-28562487Y-6890041D01*
X-28549400Y-6905690D01*
X-28518539Y-6927834D01*
X-28510591Y-6928602D01*
X-28474766Y-6948200D01*
X-28415794Y-7000047D01*
X-28343314Y-7073721D01*
X-28266966Y-7158798D01*
X-28196392Y-7244858D01*
X-28141231Y-7321477D01*
X-28129234Y-7340885D01*
X-28056708Y-7485435D01*
X-27984994Y-7665891D01*
X-27920636Y-7864653D01*
X-27885560Y-7996511D01*
X-27852178Y-8111330D01*
X-27818456Y-8184139D01*
X-27795011Y-8207031D01*
X-27760163Y-8219945D01*
X-27680820Y-8248976D01*
X-27563082Y-8291902D01*
X-27413046Y-8346504D01*
X-27236812Y-8410563D01*
X-27040479Y-8481858D01*
X-26863241Y-8546167D01*
X-26652362Y-8622847D01*
X-26454458Y-8695174D01*
X-26276010Y-8760753D01*
X-26123500Y-8817186D01*
X-26003408Y-8862078D01*
X-25922217Y-8893032D01*
X-25889466Y-8906221D01*
X-25823783Y-8954214D01*
X-25779625Y-9034234D01*
X-25754712Y-9152854D01*
X-25746761Y-9316647D01*
X-25746760Y-9317445D01*
X-25748772Y-9411620D01*
X-25757969Y-9466096D01*
X-25778776Y-9494916D01*
X-25807150Y-9509085D01*
X-25881380Y-9517557D01*
X-25931767Y-9507539D01*
X-26005745Y-9484232D01*
X-26107981Y-9457293D01*
X-26213804Y-9432819D01*
X-26298199Y-9416960D01*
X-26362969Y-9401391D01*
X-26429738Y-9378903D01*
X-26487855Y-9361557D01*
X-26520308Y-9361575D01*
X-26520602Y-9361846D01*
X-26551238Y-9360784D01*
X-26611257Y-9341916D01*
X-26631225Y-9333883D01*
X-26713934Y-9303953D01*
X-26788236Y-9284730D01*
X-26795974Y-9283505D01*
X-26842551Y-9271541D01*
X-26929957Y-9244121D01*
X-27048549Y-9204456D01*
X-27188685Y-9155760D01*
X-27315459Y-9110420D01*
X-27461045Y-9057834D01*
X-27588039Y-9012253D01*
X-27688248Y-8976591D01*
X-27753482Y-8953766D01*
X-27775528Y-8946610D01*
X-27775960Y-8970683D01*
X-27769028Y-9033058D01*
X-27759297Y-9100179D01*
X-27743349Y-9237334D01*
X-27746620Y-9328725D01*
X-27769744Y-9379095D01*
X-27798556Y-9392554D01*
X-27841459Y-9383955D01*
X-27873515Y-9340205D01*
X-27897016Y-9255499D01*
X-27914252Y-9124036D01*
X-27917091Y-9092305D01*
X-27928474Y-8983781D01*
X-27942271Y-8918076D01*
X-27961834Y-8884201D01*
X-27984128Y-8872573D01*
X-28025404Y-8852060D01*
X-28033686Y-8837932D01*
X-28056651Y-8816604D01*
X-28113818Y-8790258D01*
X-28134303Y-8783043D01*
X-28218226Y-8748407D01*
X-28315955Y-8698568D01*
X-28359260Y-8673329D01*
X-28434278Y-8630436D01*
X-28493018Y-8602674D01*
X-28514257Y-8596822D01*
X-28543327Y-8578444D01*
X-28544915Y-8569915D01*
X-28566708Y-8546044D01*
X-28585275Y-8543009D01*
X-28621124Y-8531570D01*
X-28625635Y-8521903D01*
X-28646697Y-8496051D01*
X-28698774Y-8458883D01*
X-28713082Y-8450342D01*
X-28790746Y-8393930D01*
X-28889440Y-8305653D01*
X-28998299Y-8196992D01*
X-29106461Y-8079426D01*
X-29203061Y-7964437D01*
X-29277236Y-7863502D01*
X-29294545Y-7835905D01*
X-29379752Y-7674830D01*
X-29214033Y-7674830D01*
X-29183493Y-7735504D01*
X-29152004Y-7786948D01*
X-29095673Y-7869159D01*
X-29037320Y-7944154D01*
X-29024196Y-7959152D01*
X-28967446Y-8022528D01*
X-28920374Y-8076712D01*
X-28874012Y-8123048D01*
X-28805769Y-8182283D01*
X-28775374Y-8206674D01*
X-28706622Y-8261652D01*
X-28652143Y-8307486D01*
X-28637272Y-8321028D01*
X-28599789Y-8349856D01*
X-28586662Y-8354661D01*
X-28556649Y-8367962D01*
X-28497663Y-8401906D01*
X-28456933Y-8427235D01*
X-28155445Y-8596154D01*
X-27858792Y-8723044D01*
X-27763063Y-8759446D01*
X-27686052Y-8791757D01*
X-27643000Y-8813544D01*
X-27641031Y-8814990D01*
X-27603202Y-8835112D01*
X-27531274Y-8865868D01*
X-27438039Y-8902557D01*
X-27336287Y-8940480D01*
X-27238811Y-8974936D01*
X-27158401Y-9001225D01*
X-27107848Y-9014647D01*
X-27097324Y-9014768D01*
X-27068964Y-9018564D01*
X-27002547Y-9038046D01*
X-26910213Y-9069502D01*
X-26867186Y-9085182D01*
X-26758577Y-9123695D01*
X-26661914Y-9154792D01*
X-26593700Y-9173262D01*
X-26580720Y-9175635D01*
X-26502958Y-9192661D01*
X-26439460Y-9212994D01*
X-26387312Y-9229521D01*
X-26365467Y-9229711D01*
X-26365466Y-9229659D01*
X-26343039Y-9230437D01*
X-26286752Y-9246211D01*
X-26260271Y-9255180D01*
X-26192390Y-9275670D01*
X-26149134Y-9282267D01*
X-26143322Y-9280540D01*
X-26113563Y-9282394D01*
X-26054024Y-9301528D01*
X-26034127Y-9309499D01*
X-25968558Y-9335506D01*
X-25926907Y-9349460D01*
X-25922368Y-9350212D01*
X-25910360Y-9326810D01*
X-25906732Y-9268893D01*
X-25910253Y-9194893D01*
X-25919692Y-9123245D01*
X-25933819Y-9072380D01*
X-25941684Y-9060931D01*
X-25982138Y-9039757D01*
X-26060656Y-9006616D01*
X-26164163Y-8966288D01*
X-26279582Y-8923555D01*
X-26393838Y-8883195D01*
X-26493854Y-8849991D01*
X-26566553Y-8828722D01*
X-26590209Y-8823837D01*
X-26632549Y-8812414D01*
X-26717731Y-8784526D01*
X-26838324Y-8742911D01*
X-26986898Y-8690308D01*
X-27156023Y-8629454D01*
X-27338270Y-8563086D01*
X-27526209Y-8493943D01*
X-27712409Y-8424762D01*
X-27889441Y-8358281D01*
X-28049875Y-8297238D01*
X-28186281Y-8244371D01*
X-28291229Y-8202416D01*
X-28357290Y-8174113D01*
X-28368984Y-8168396D01*
X-28441622Y-8134143D01*
X-28497661Y-8114403D01*
X-28510244Y-8112500D01*
X-28542235Y-8095938D01*
X-28544915Y-8085593D01*
X-28565794Y-8059988D01*
X-28575029Y-8058686D01*
X-28611667Y-8045248D01*
X-28678591Y-8010651D01*
X-28761235Y-7963473D01*
X-28845036Y-7912294D01*
X-28915426Y-7865691D01*
X-28955310Y-7834717D01*
X-28996828Y-7799684D01*
X-29061295Y-7749227D01*
X-29087982Y-7729078D01*
X-29167838Y-7673027D01*
X-29209335Y-7654474D01*
X-29214033Y-7674830D01*
X-29379752Y-7674830D01*
X-29382778Y-7669109D01*
X-29438430Y-7514738D01*
X-29468882Y-7349174D01*
X-29477167Y-7251483D01*
X-29480518Y-7195997D01*
X-29264256Y-7195997D01*
X-29264030Y-7282988D01*
X-29216744Y-7379537D01*
X-29209335Y-7388914D01*
X-29161345Y-7449654D01*
X-29094443Y-7514406D01*
X-28997257Y-7594471D01*
X-28881536Y-7681623D01*
X-28759031Y-7767634D01*
X-28641492Y-7844276D01*
X-28540669Y-7903321D01*
X-28468311Y-7936542D01*
X-28464195Y-7937812D01*
X-28395799Y-7966084D01*
X-28356568Y-7990885D01*
X-28311918Y-8016635D01*
X-28241478Y-8046726D01*
X-28162405Y-8075173D01*
X-28091856Y-8095991D01*
X-28046989Y-8103193D01*
X-28040331Y-8101207D01*
X-28040438Y-8069744D01*
X-28054734Y-8000395D01*
X-28079472Y-7906013D01*
X-28110906Y-7799447D01*
X-28145289Y-7693548D01*
X-28178874Y-7601169D01*
X-28201775Y-7547458D01*
X-28260876Y-7438466D01*
X-28332909Y-7327616D01*
X-28409952Y-7224786D01*
X-28484085Y-7139856D01*
X-28547386Y-7082704D01*
X-28590088Y-7063136D01*
X-28621781Y-7047025D01*
X-28655618Y-7019992D01*
X-28719919Y-6989231D01*
X-28816561Y-6972635D01*
X-28925769Y-6970956D01*
X-29027768Y-6984946D01*
X-29082818Y-7003744D01*
X-29158905Y-7053350D01*
X-29218700Y-7111026D01*
X-29264256Y-7195997D01*
X-29480518Y-7195997D01*
X-29489354Y-7049682D01*
X-29387103Y-6950296D01*
X-29275065Y-6859184D01*
X-29157404Y-6805790D01*
X-29012958Y-6780969D01*
X-28991772Y-6779407D01*
X-28925769Y-6782319D01*
X-28908204Y-6783095D01*
X-28808055Y-6800409D01*
D12*
X100000Y7800000D02*
X100000Y13500000D01*
X300000Y7800000D02*
X100000Y7800000D01*
X5700000Y15300000D02*
X6200000Y14800000D01*
X800000Y14200000D02*
X800000Y14800000D01*
X6200000Y14200000D02*
X6900000Y13500000D01*
X100000Y13500000D02*
X800000Y14200000D01*
X6200000Y14800000D02*
X6200000Y14200000D01*
X800000Y14800000D02*
X1300000Y15300000D01*
X4400000Y7800000D02*
X4900000Y7800000D01*
X6900000Y13500000D02*
X6900000Y7800000D01*
X6900000Y7800000D02*
X6700000Y7800000D01*
X2100000Y7800000D02*
X2600000Y7800000D01*
X1300000Y15300000D02*
X5700000Y15300000D01*
X6507836Y15540000D02*
X6292164Y15540000D01*
X6507836Y16260000D02*
X6292164Y16260000D01*
X-12546359Y-620000D02*
X-12853641Y-620000D01*
X-12546359Y-1380000D02*
X-12853641Y-1380000D01*
X-18040000Y14307836D02*
X-18040000Y14092164D01*
X-18760000Y14307836D02*
X-18760000Y14092164D01*
X720000Y18746359D02*
X720000Y19053641D01*
X1480000Y18746359D02*
X1480000Y19053641D01*
X-1800000Y-14800000D02*
X-2300000Y-15300000D01*
X-1100000Y-7800000D02*
X-1100000Y-13500000D01*
X-1800000Y-14200000D02*
X-1800000Y-14800000D01*
X-7200000Y-14800000D02*
X-7200000Y-14200000D01*
X-3100000Y-7800000D02*
X-3600000Y-7800000D01*
X-7200000Y-14200000D02*
X-7900000Y-13500000D01*
X-5400000Y-7800000D02*
X-5900000Y-7800000D01*
X-6700000Y-15300000D02*
X-7200000Y-14800000D01*
X-7900000Y-13500000D02*
X-7900000Y-7800000D01*
X-7900000Y-7800000D02*
X-7700000Y-7800000D01*
X-2300000Y-15300000D02*
X-6700000Y-15300000D01*
X-1100000Y-13500000D02*
X-1800000Y-14200000D01*
X-1300000Y-7800000D02*
X-1100000Y-7800000D01*
X-22300000Y-18500000D02*
X-22100000Y-18500000D01*
X-22300000Y-17700000D02*
X-22300000Y-18500000D01*
X-21300000Y-18500000D02*
X-21100000Y-18500000D01*
X-21100000Y-18500000D02*
X-21100000Y-17700000D01*
X11700000Y19760000D02*
X12500000Y19760000D01*
X11700000Y19760000D02*
X9900000Y19760000D01*
X11700000Y16640000D02*
X10900000Y16640000D01*
X11700000Y16640000D02*
X12500000Y16640000D01*
X-24120000Y19446359D02*
X-24120000Y19753641D01*
X-24880000Y19446359D02*
X-24880000Y19753641D01*
X-12620000Y8253641D02*
X-12620000Y7946359D01*
X-13380000Y8253641D02*
X-13380000Y7946359D01*
X23080000Y17146359D02*
X23080000Y17453641D01*
X22320000Y17146359D02*
X22320000Y17453641D01*
X23260000Y-16507836D02*
X23260000Y-16292164D01*
X22540000Y-16507836D02*
X22540000Y-16292164D01*
X-24307836Y6360000D02*
X-24092164Y6360000D01*
X-24307836Y5640000D02*
X-24092164Y5640000D01*
X7740000Y16507836D02*
X7740000Y16292164D01*
X8460000Y16507836D02*
X8460000Y16292164D01*
X-10560000Y8207836D02*
X-10560000Y7992164D01*
X-9840000Y8207836D02*
X-9840000Y7992164D01*
X-12546359Y-380000D02*
X-12853641Y-380000D01*
X-12546359Y380000D02*
X-12853641Y380000D01*
X3700000Y19760000D02*
X4500000Y19760000D01*
X3700000Y19760000D02*
X1900000Y19760000D01*
X3700000Y16640000D02*
X4500000Y16640000D01*
X3700000Y16640000D02*
X2900000Y16640000D01*
X-280000Y18746359D02*
X-280000Y19053641D01*
X480000Y18746359D02*
X480000Y19053641D01*
X-3446359Y-16280000D02*
X-3753641Y-16280000D01*
X-3446359Y-15520000D02*
X-3753641Y-15520000D01*
X-15407836Y12260000D02*
X-15192164Y12260000D01*
X-15407836Y11540000D02*
X-15192164Y11540000D01*
X18990000Y-21240000D02*
X18990000Y-21550000D01*
X18990000Y-21240000D02*
X20150000Y-21240000D01*
X18990000Y-23160000D02*
X18990000Y-22850000D01*
X18990000Y-23160000D02*
X20400000Y-23160000D01*
X-23480000Y15646359D02*
X-23480000Y15953641D01*
X-22720000Y15646359D02*
X-22720000Y15953641D01*
X-4700000Y-19760000D02*
X-5500000Y-19760000D01*
X-4700000Y-16640000D02*
X-5500000Y-16640000D01*
X-4700000Y-19760000D02*
X-2900000Y-19760000D01*
X-4700000Y-16640000D02*
X-3900000Y-16640000D01*
X-7320000Y-17146359D02*
X-7320000Y-17453641D01*
X-8080000Y-17146359D02*
X-8080000Y-17453641D01*
X14200000Y14200000D02*
X14900000Y13500000D01*
X8100000Y7800000D02*
X8100000Y13500000D01*
X10100000Y7800000D02*
X10600000Y7800000D01*
X14900000Y13500000D02*
X14900000Y7800000D01*
X14900000Y7800000D02*
X14700000Y7800000D01*
X8800000Y14200000D02*
X8800000Y14800000D01*
X8100000Y13500000D02*
X8800000Y14200000D01*
X8800000Y14800000D02*
X9300000Y15300000D01*
X9300000Y15300000D02*
X13700000Y15300000D01*
X14200000Y14800000D02*
X14200000Y14200000D01*
X13700000Y15300000D02*
X14200000Y14800000D01*
X8300000Y7800000D02*
X8100000Y7800000D01*
X12400000Y7800000D02*
X12900000Y7800000D01*
X-12620000Y10353641D02*
X-12620000Y10046359D01*
X-13380000Y10353641D02*
X-13380000Y10046359D01*
X5500000Y-22430000D02*
X4840000Y-22430000D01*
X7160000Y-22430000D02*
X7160000Y-20400000D01*
X7160000Y-22430000D02*
X6500000Y-22430000D01*
X4840000Y-21020000D02*
X4840000Y-22430000D01*
X7280000Y-18746359D02*
X7280000Y-19053641D01*
X6520000Y-18746359D02*
X6520000Y-19053641D01*
X-10560000Y-8207836D02*
X-10560000Y-7992164D01*
X-9840000Y-8207836D02*
X-9840000Y-7992164D01*
X-22720000Y14053641D02*
X-22720000Y13746359D01*
X-23480000Y14053641D02*
X-23480000Y13746359D01*
X-21440000Y10307836D02*
X-21440000Y10092164D01*
X-22160000Y10307836D02*
X-22160000Y10092164D01*
X15260000Y-16507836D02*
X15260000Y-16292164D01*
X14540000Y-16507836D02*
X14540000Y-16292164D01*
X13520000Y-18746359D02*
X13520000Y-19053641D01*
X14280000Y-18746359D02*
X14280000Y-19053641D01*
X14507836Y16260000D02*
X14292164Y16260000D01*
X14507836Y15540000D02*
X14292164Y15540000D01*
X-7280000Y18746359D02*
X-7280000Y19053641D01*
X-6520000Y18746359D02*
X-6520000Y19053641D01*
X-4707836Y-20860000D02*
X-4492164Y-20860000D01*
X-4707836Y-20140000D02*
X-4492164Y-20140000D01*
X15160000Y21020000D02*
X15160000Y22430000D01*
X14500000Y22430000D02*
X15160000Y22430000D01*
X12840000Y22430000D02*
X13500000Y22430000D01*
X12840000Y22430000D02*
X12840000Y20400000D01*
X-8260000Y16507836D02*
X-8260000Y16292164D01*
X-7540000Y16507836D02*
X-7540000Y16292164D01*
X-25100000Y-18500000D02*
X-24900000Y-18500000D01*
X-25100000Y-17700000D02*
X-25100000Y-18500000D01*
X-24100000Y-18500000D02*
X-23900000Y-18500000D01*
X-23900000Y-18500000D02*
X-23900000Y-17700000D01*
X-20680000Y-19446359D02*
X-20680000Y-19753641D01*
X-19920000Y-19446359D02*
X-19920000Y-19753641D01*
X-18620000Y-8253641D02*
X-18620000Y-7946359D01*
X-19380000Y-8253641D02*
X-19380000Y-7946359D01*
X12637258Y5322500D02*
X12162742Y5322500D01*
X12637258Y4277500D02*
X12162742Y4277500D01*
X-23900000Y17700000D02*
X-23900000Y18500000D01*
X-25100000Y18500000D02*
X-25100000Y17700000D01*
X-24900000Y18500000D02*
X-25100000Y18500000D01*
X-23900000Y18500000D02*
X-24100000Y18500000D01*
X-20520000Y-10353641D02*
X-20520000Y-10046359D01*
X-21280000Y-10353641D02*
X-21280000Y-10046359D01*
X19707836Y20860000D02*
X19492164Y20860000D01*
X19707836Y20140000D02*
X19492164Y20140000D01*
X460000Y16507836D02*
X460000Y16292164D01*
X-260000Y16507836D02*
X-260000Y16292164D01*
X-11740000Y-8207836D02*
X-11740000Y-7992164D01*
X-12460000Y-8207836D02*
X-12460000Y-7992164D01*
X10160000Y21020000D02*
X10160000Y22430000D01*
X7840000Y22430000D02*
X7840000Y20400000D01*
X7840000Y22430000D02*
X8500000Y22430000D01*
X9500000Y22430000D02*
X10160000Y22430000D01*
X-20520000Y8253641D02*
X-20520000Y7946359D01*
X-21280000Y8253641D02*
X-21280000Y7946359D01*
X11707836Y20860000D02*
X11492164Y20860000D01*
X11707836Y20140000D02*
X11492164Y20140000D01*
X12653641Y16280000D02*
X12346359Y16280000D01*
X12653641Y15520000D02*
X12346359Y15520000D01*
X-14960000Y14307836D02*
X-14960000Y14092164D01*
X-14240000Y14307836D02*
X-14240000Y14092164D01*
X720000Y16553641D02*
X720000Y16246359D01*
X1480000Y16553641D02*
X1480000Y16246359D01*
X-16592164Y-12260000D02*
X-16807836Y-12260000D01*
X-16592164Y-11540000D02*
X-16807836Y-11540000D01*
X-8080000Y-19253641D02*
X-8080000Y-18946359D01*
X-7320000Y-19253641D02*
X-7320000Y-18946359D01*
X9480000Y16553641D02*
X9480000Y16246359D01*
X8720000Y16553641D02*
X8720000Y16246359D01*
X-5010000Y-21240000D02*
X-5010000Y-21550000D01*
X-5010000Y-23160000D02*
X-5010000Y-22850000D01*
X-5010000Y-23160000D02*
X-3600000Y-23160000D01*
X-5010000Y-21240000D02*
X-3850000Y-21240000D01*
X-10720000Y8253641D02*
X-10720000Y7946359D01*
X-11480000Y8253641D02*
X-11480000Y7946359D01*
X2362742Y-4277500D02*
X2837258Y-4277500D01*
X2362742Y-5322500D02*
X2837258Y-5322500D01*
X10446359Y16280000D02*
X10753641Y16280000D01*
X10446359Y15520000D02*
X10753641Y15520000D01*
X18362742Y-4277500D02*
X18837258Y-4277500D01*
X18362742Y-5322500D02*
X18837258Y-5322500D01*
X17500000Y22430000D02*
X18160000Y22430000D01*
X18160000Y21020000D02*
X18160000Y22430000D01*
X15840000Y22430000D02*
X16500000Y22430000D01*
X15840000Y22430000D02*
X15840000Y20400000D01*
X16800000Y-14800000D02*
X16800000Y-14200000D01*
X16100000Y-7800000D02*
X16300000Y-7800000D01*
X21700000Y-15300000D02*
X17300000Y-15300000D01*
X22900000Y-7800000D02*
X22900000Y-13500000D01*
X16100000Y-13500000D02*
X16100000Y-7800000D01*
X22700000Y-7800000D02*
X22900000Y-7800000D01*
X17300000Y-15300000D02*
X16800000Y-14800000D01*
X20900000Y-7800000D02*
X20400000Y-7800000D01*
X22200000Y-14200000D02*
X22200000Y-14800000D01*
X18600000Y-7800000D02*
X18100000Y-7800000D01*
X16800000Y-14200000D02*
X16100000Y-13500000D01*
X22200000Y-14800000D02*
X21700000Y-15300000D01*
X22900000Y-13500000D02*
X22200000Y-14200000D01*
X-25892164Y5640000D02*
X-26107836Y5640000D01*
X-25892164Y6360000D02*
X-26107836Y6360000D01*
X-19920000Y15646359D02*
X-19920000Y15953641D01*
X-20680000Y15646359D02*
X-20680000Y15953641D01*
X-15400000Y15300000D02*
X-16500000Y15300000D01*
X-15400000Y13100000D02*
X-17600000Y13100000D01*
X-24880000Y-14053641D02*
X-24880000Y-13746359D01*
X-24120000Y-14053641D02*
X-24120000Y-13746359D01*
X12010000Y21240000D02*
X12010000Y21550000D01*
X12010000Y23160000D02*
X12010000Y22850000D01*
X12010000Y21240000D02*
X10850000Y21240000D01*
X12010000Y23160000D02*
X10600000Y23160000D01*
X-14700000Y5100000D02*
X-14700000Y-5100000D01*
X-14700000Y-5100000D02*
X-29900000Y-5100000D01*
X-29900000Y5100000D02*
X-14700000Y5100000D01*
X-29900000Y-5100000D02*
X-29900000Y5100000D01*
X-13100000Y2400000D02*
X-13400000Y2400000D01*
X-13400000Y5600000D02*
X-13100000Y5600000D01*
X-13400000Y2400000D02*
X-13400000Y5600000D01*
X-10600000Y2400000D02*
X-10900000Y2400000D01*
X-10600000Y5600000D02*
X-10600000Y2400000D01*
X-10900000Y5600000D02*
X-10600000Y5600000D01*
X15080000Y19253641D02*
X15080000Y18946359D01*
X14320000Y19253641D02*
X14320000Y18946359D01*
X8500000Y-22430000D02*
X7840000Y-22430000D01*
X10160000Y-22430000D02*
X10160000Y-20400000D01*
X10160000Y-22430000D02*
X9500000Y-22430000D01*
X7840000Y-21020000D02*
X7840000Y-22430000D01*
X-22080000Y15646359D02*
X-22080000Y15953641D01*
X-21320000Y15646359D02*
X-21320000Y15953641D01*
X-22160000Y8207836D02*
X-22160000Y7992164D01*
X-21440000Y8207836D02*
X-21440000Y7992164D01*
X-22080000Y14053641D02*
X-22080000Y13746359D01*
X-21320000Y14053641D02*
X-21320000Y13746359D01*
X-20680000Y-14053641D02*
X-20680000Y-13746359D01*
X-19920000Y-14053641D02*
X-19920000Y-13746359D01*
X-12460000Y-10307836D02*
X-12460000Y-10092164D01*
X-11740000Y-10307836D02*
X-11740000Y-10092164D01*
X-1800000Y14800000D02*
X-1800000Y14200000D01*
X-6700000Y15300000D02*
X-2300000Y15300000D01*
X-7200000Y14200000D02*
X-7200000Y14800000D01*
X-7900000Y13500000D02*
X-7200000Y14200000D01*
X-3600000Y7800000D02*
X-3100000Y7800000D01*
X-5900000Y7800000D02*
X-5400000Y7800000D01*
X-7700000Y7800000D02*
X-7900000Y7800000D01*
X-1800000Y14200000D02*
X-1100000Y13500000D01*
X-1100000Y7800000D02*
X-1300000Y7800000D01*
X-2300000Y15300000D02*
X-1800000Y14800000D01*
X-7900000Y7800000D02*
X-7900000Y13500000D01*
X-7200000Y14800000D02*
X-6700000Y15300000D01*
X-1100000Y13500000D02*
X-1100000Y7800000D01*
X7080000Y19253641D02*
X7080000Y18946359D01*
X6320000Y19253641D02*
X6320000Y18946359D01*
X6320000Y17146359D02*
X6320000Y17453641D01*
X7080000Y17146359D02*
X7080000Y17453641D01*
X22900000Y13500000D02*
X22900000Y7800000D01*
X20400000Y7800000D02*
X20900000Y7800000D01*
X16100000Y7800000D02*
X16100000Y13500000D01*
X16300000Y7800000D02*
X16100000Y7800000D01*
X22900000Y7800000D02*
X22700000Y7800000D01*
X16100000Y13500000D02*
X16800000Y14200000D01*
X22200000Y14200000D02*
X22900000Y13500000D01*
X16800000Y14800000D02*
X17300000Y15300000D01*
X18100000Y7800000D02*
X18600000Y7800000D01*
X21700000Y15300000D02*
X22200000Y14800000D01*
X22200000Y14800000D02*
X22200000Y14200000D01*
X16800000Y14200000D02*
X16800000Y14800000D01*
X17300000Y15300000D02*
X21700000Y15300000D01*
X-20680000Y19446359D02*
X-20680000Y19753641D01*
X-19920000Y19446359D02*
X-19920000Y19753641D01*
X11300000Y-19760000D02*
X13100000Y-19760000D01*
X11300000Y-16640000D02*
X12100000Y-16640000D01*
X11300000Y-19760000D02*
X10500000Y-19760000D01*
X11300000Y-16640000D02*
X10500000Y-16640000D01*
X-8160000Y22430000D02*
X-7500000Y22430000D01*
X-6500000Y22430000D02*
X-5840000Y22430000D01*
X-8160000Y22430000D02*
X-8160000Y20400000D01*
X-5840000Y21020000D02*
X-5840000Y22430000D01*
X-4292164Y20140000D02*
X-4507836Y20140000D01*
X-4292164Y20860000D02*
X-4507836Y20860000D01*
X-22160000Y-8207836D02*
X-22160000Y-7992164D01*
X-21440000Y-8207836D02*
X-21440000Y-7992164D01*
X-3346359Y16280000D02*
X-3653641Y16280000D01*
X-3346359Y15520000D02*
X-3653641Y15520000D01*
X-20680000Y-15646359D02*
X-20680000Y-15953641D01*
X-19920000Y-15646359D02*
X-19920000Y-15953641D01*
X10600000Y-7800000D02*
X10100000Y-7800000D01*
X14200000Y-14800000D02*
X13700000Y-15300000D01*
X8100000Y-13500000D02*
X8100000Y-7800000D01*
X8800000Y-14200000D02*
X8100000Y-13500000D01*
X8800000Y-14800000D02*
X8800000Y-14200000D01*
X14900000Y-13500000D02*
X14200000Y-14200000D01*
X13700000Y-15300000D02*
X9300000Y-15300000D01*
X14200000Y-14200000D02*
X14200000Y-14800000D01*
X14900000Y-7800000D02*
X14900000Y-13500000D01*
X8100000Y-7800000D02*
X8300000Y-7800000D01*
X9300000Y-15300000D02*
X8800000Y-14800000D01*
X12900000Y-7800000D02*
X12400000Y-7800000D01*
X14700000Y-7800000D02*
X14900000Y-7800000D01*
X-22700000Y-18500000D02*
X-22500000Y-18500000D01*
X-22500000Y-18500000D02*
X-22500000Y-17700000D01*
X-23700000Y-17700000D02*
X-23700000Y-18500000D01*
X-23700000Y-18500000D02*
X-23500000Y-18500000D01*
%LPC*%
D14*
X-16250000Y10800000D03*
D15*
X-17300000Y10250000D03*
X-17300000Y9750000D03*
X-17300000Y9250000D03*
X-17300000Y8750000D03*
X-17300000Y8250000D03*
X-17300000Y7750000D03*
D16*
X-16250000Y7200000D03*
X-15750000Y7200000D03*
D17*
X-14700000Y7750000D03*
X-14700000Y8250000D03*
X-14700000Y8750000D03*
X-14700000Y9250000D03*
X-14700000Y9750000D03*
X-14700000Y10250000D03*
D14*
X-15750000Y10800000D03*
D18*
X-16000000Y9000000D03*
D16*
X-15750000Y-10800000D03*
D17*
X-14700000Y-10250000D03*
X-14700000Y-9750000D03*
X-14700000Y-9250000D03*
X-14700000Y-8750000D03*
X-14700000Y-8250000D03*
X-14700000Y-7750000D03*
D14*
X-15750000Y-7200000D03*
X-16250000Y-7200000D03*
D15*
X-17300000Y-7750000D03*
X-17300000Y-8250000D03*
X-17300000Y-8750000D03*
X-17300000Y-9250000D03*
X-17300000Y-9750000D03*
X-17300000Y-10250000D03*
D16*
X-16250000Y-10800000D03*
D18*
X-16000000Y-9000000D03*
D19*
X28000000Y-10160000D03*
D20*
X28000000Y-7620000D03*
X28000000Y-5080000D03*
X28000000Y-2540000D03*
X28000000Y0D03*
X28000000Y2540000D03*
X28000000Y5080000D03*
X28000000Y7620000D03*
X28000000Y10160000D03*
D21*
X-10570000Y330000D03*
X-11230000Y330000D03*
X-11230000Y-330000D03*
X-10570000Y-330000D03*
D22*
X16120000Y-15900000D03*
X17080000Y-15900000D03*
X18920000Y-20500000D03*
X19880000Y-20500000D03*
D23*
X-11100000Y10710000D03*
X-11100000Y9690000D03*
D24*
X-2650000Y20700000D03*
X-1350000Y20700000D03*
X-2000000Y22700000D03*
D25*
X-13000000Y-8610000D03*
X-13000000Y-7590000D03*
D26*
X21225000Y4800000D03*
X19575000Y4800000D03*
D25*
X-13000000Y-10710000D03*
X-13000000Y-9690000D03*
D24*
X14650000Y-20700000D03*
X13350000Y-20700000D03*
X14000000Y-22700000D03*
D27*
X-9800000Y-4520000D03*
X-9800000Y-5480000D03*
D25*
X9100000Y18390000D03*
X9100000Y19410000D03*
D23*
X-20300000Y14410000D03*
X-20300000Y13390000D03*
D26*
X5225000Y4800000D03*
X3575000Y4800000D03*
D28*
X-9200000Y10700000D03*
D25*
X-11100000Y-8610000D03*
X-11100000Y-7590000D03*
D23*
X-24500000Y-15290000D03*
X-24500000Y-16310000D03*
D28*
X-19000000Y6300000D03*
D29*
X-19900000Y-8580000D03*
X-19900000Y-7620000D03*
D22*
X8120000Y-15900000D03*
X9080000Y-15900000D03*
D25*
X16100000Y18390000D03*
X16100000Y19410000D03*
D24*
X-6350000Y-20700000D03*
X-7650000Y-20700000D03*
X-7000000Y-22700000D03*
D23*
X-19000000Y10710000D03*
X-19000000Y9690000D03*
D30*
X4150000Y-22700000D03*
X4150000Y-21700000D03*
X2850000Y-22200000D03*
D31*
X-5910000Y15900000D03*
X-4890000Y15900000D03*
D24*
X17650000Y-20700000D03*
X16350000Y-20700000D03*
X17000000Y-22700000D03*
D25*
X-23100000Y-14410000D03*
X-23100000Y-13390000D03*
D23*
X21900000Y-18390000D03*
X21900000Y-19410000D03*
D32*
X-12000000Y-4000000D03*
D33*
X-12000000Y-5700000D03*
D34*
X-12000000Y-2300000D03*
D25*
X-23100000Y19090000D03*
X-23100000Y20110000D03*
D35*
X-1120000Y15900000D03*
X-2080000Y15900000D03*
D27*
X-12100000Y10680000D03*
X-12100000Y9720000D03*
D28*
X-22800000Y8700000D03*
X-22800000Y-11700000D03*
D27*
X16100000Y16880000D03*
X16100000Y15920000D03*
D23*
X22700000Y19610000D03*
X22700000Y18590000D03*
D25*
X-21700000Y19090000D03*
X-21700000Y20110000D03*
D36*
X9775000Y-4800000D03*
X11425000Y-4800000D03*
D25*
X8300000Y-19610000D03*
X8300000Y-18590000D03*
X13900000Y-16910000D03*
X13900000Y-15890000D03*
D23*
X-23100000Y-15290000D03*
X-23100000Y-16310000D03*
D29*
X-9800000Y4520000D03*
X-9800000Y5480000D03*
D36*
X-6225000Y-4800000D03*
X-4575000Y-4800000D03*
D29*
X-10200000Y-10680000D03*
X-10200000Y-9720000D03*
X6900000Y-16880000D03*
X6900000Y-15920000D03*
D37*
X20437500Y-19175000D03*
X20437500Y-18525000D03*
X20437500Y-17875000D03*
X20437500Y-17225000D03*
X18162500Y-17225000D03*
X18162500Y-17875000D03*
X18162500Y-18525000D03*
X18162500Y-19175000D03*
D27*
X-12100000Y8580000D03*
X-12100000Y7620000D03*
D29*
X-1100000Y-16880000D03*
X-1100000Y-15920000D03*
D25*
X-7900000Y18390000D03*
X-7900000Y19410000D03*
D37*
X4437500Y-19175000D03*
X4437500Y-18525000D03*
X4437500Y-17875000D03*
X4437500Y-17225000D03*
X2162500Y-17225000D03*
X2162500Y-17875000D03*
X2162500Y-18525000D03*
X2162500Y-19175000D03*
D28*
X-22800000Y9700000D03*
D38*
X-20675000Y17350000D03*
X-19925000Y17350000D03*
D39*
X-20300000Y18250000D03*
D40*
X-20300000Y17800000D03*
D31*
X-6010000Y-15900000D03*
X-4990000Y-15900000D03*
D41*
X-28200000Y-16225000D03*
D42*
X-28200000Y-17495000D03*
X-28200000Y-18765000D03*
X-28200000Y-20035000D03*
X-28200000Y-21305000D03*
X-28200000Y-22575000D03*
D25*
X-2100000Y-16910000D03*
X-2100000Y-15890000D03*
D28*
X-9200000Y8700000D03*
D25*
X-1300000Y16790000D03*
X-1300000Y17810000D03*
D22*
X-7880000Y-15900000D03*
X-6920000Y-15900000D03*
D23*
X-6900000Y16910000D03*
X-6900000Y15890000D03*
D43*
X5010000Y15900000D03*
X3990000Y15900000D03*
D22*
X10920000Y-20500000D03*
X11880000Y-20500000D03*
D23*
X300000Y-16790000D03*
X300000Y-17810000D03*
D27*
X-10200000Y10680000D03*
X-10200000Y9720000D03*
D24*
X1650000Y-20700000D03*
X350000Y-20700000D03*
X1000000Y-22700000D03*
D44*
X26430000Y18930000D03*
X-11430000Y-18930000D03*
D25*
X-19000000Y-10710000D03*
X-19000000Y-9690000D03*
D24*
X5350000Y20700000D03*
X6650000Y20700000D03*
X6000000Y22700000D03*
D23*
X-2100000Y-18390000D03*
X-2100000Y-19410000D03*
D25*
X-24500000Y15290000D03*
X-24500000Y16310000D03*
D23*
X14900000Y-18390000D03*
X14900000Y-19410000D03*
D31*
X18090000Y15900000D03*
X19110000Y15900000D03*
D25*
X-21700000Y-14410000D03*
X-21700000Y-13390000D03*
D28*
X-22800000Y-8700000D03*
X-22800000Y-10700000D03*
D25*
X8100000Y18390000D03*
X8100000Y19410000D03*
X14700000Y16790000D03*
X14700000Y17810000D03*
D28*
X-9200000Y-8700000D03*
D25*
X16300000Y-19610000D03*
X16300000Y-18590000D03*
X-11100000Y-10710000D03*
X-11100000Y-9690000D03*
D23*
X-24500000Y-19090000D03*
X-24500000Y-20110000D03*
D45*
X1210000Y-6800000D03*
X3500000Y-6800000D03*
X5790000Y-6800000D03*
D46*
X18562500Y19175000D03*
X18562500Y18525000D03*
X18562500Y17875000D03*
X18562500Y17225000D03*
X20837500Y17225000D03*
X20837500Y17875000D03*
X20837500Y18525000D03*
X20837500Y19175000D03*
D43*
X4910000Y-15900000D03*
X3890000Y-15900000D03*
D24*
X22650000Y-20700000D03*
X21350000Y-20700000D03*
X22000000Y-22700000D03*
D23*
X8300000Y-16790000D03*
X8300000Y-17810000D03*
D30*
X12150000Y-22700000D03*
X12150000Y-21700000D03*
X10850000Y-22200000D03*
D43*
X21010000Y15900000D03*
X19990000Y15900000D03*
D25*
X300000Y-19610000D03*
X300000Y-18590000D03*
D27*
X-19900000Y8580000D03*
X-19900000Y7620000D03*
D23*
X-21700000Y-15290000D03*
X-21700000Y-16310000D03*
X-9800000Y-2490000D03*
X-9800000Y-3510000D03*
D47*
X-19925000Y-17350000D03*
X-20675000Y-17350000D03*
D48*
X-20300000Y-17800000D03*
D49*
X-20300000Y-18250000D03*
D28*
X-24500000Y-21600000D03*
X-23100000Y21600000D03*
D26*
X-2775000Y4800000D03*
X-4425000Y4800000D03*
D23*
X16300000Y-16790000D03*
X16300000Y-17810000D03*
D43*
X20910000Y-15900000D03*
X19890000Y-15900000D03*
D24*
X350000Y20700000D03*
X1650000Y20700000D03*
X1000000Y22700000D03*
D29*
X-21800000Y-10680000D03*
X-21800000Y-9720000D03*
D25*
X5900000Y-16910000D03*
X5900000Y-15890000D03*
D28*
X-21700000Y21600000D03*
X-9200000Y9700000D03*
D22*
X120000Y-15900000D03*
X1080000Y-15900000D03*
D43*
X-12190000Y1000000D03*
X-13210000Y1000000D03*
D28*
X-20300000Y21600000D03*
D35*
X22880000Y15900000D03*
X21920000Y15900000D03*
D38*
X-23475000Y17350000D03*
X-22725000Y17350000D03*
D40*
X-23100000Y17800000D03*
D39*
X-23100000Y18250000D03*
D23*
X-23100000Y-19100000D03*
X-23100000Y-20120000D03*
D38*
X-22075000Y17350000D03*
X-21325000Y17350000D03*
D40*
X-21700000Y17800000D03*
D39*
X-21700000Y18250000D03*
D23*
X-24500000Y14410000D03*
X-24500000Y13390000D03*
D27*
X-19900000Y10680000D03*
X-19900000Y9720000D03*
D30*
X2850000Y22700000D03*
X2850000Y21700000D03*
X4150000Y22200000D03*
D23*
X17100000Y16910000D03*
X17100000Y15890000D03*
D31*
X1990000Y-15900000D03*
X3010000Y-15900000D03*
D30*
X-5150000Y22700000D03*
X-5150000Y21700000D03*
X-3850000Y22200000D03*
D24*
X21350000Y20700000D03*
X22650000Y20700000D03*
X22000000Y22700000D03*
D46*
X-5437500Y19175000D03*
X-5437500Y18525000D03*
X-5437500Y17875000D03*
X-5437500Y17225000D03*
X-3162500Y17225000D03*
X-3162500Y17875000D03*
X-3162500Y18525000D03*
X-3162500Y19175000D03*
D22*
X2920000Y-20500000D03*
X3880000Y-20500000D03*
D30*
X18850000Y22700000D03*
X18850000Y21700000D03*
X20150000Y22200000D03*
D43*
X12910000Y-15900000D03*
X11890000Y-15900000D03*
D28*
X-23100000Y-21600000D03*
D25*
X-20900000Y-8610000D03*
X-20900000Y-7590000D03*
X-9800000Y2490000D03*
X-9800000Y3510000D03*
D23*
X-20900000Y10710000D03*
X-20900000Y9690000D03*
D25*
X21900000Y-16910000D03*
X21900000Y-15890000D03*
D31*
X9990000Y-15900000D03*
X11010000Y-15900000D03*
X2090000Y15900000D03*
X3110000Y15900000D03*
D35*
X4080000Y20500000D03*
X3120000Y20500000D03*
D24*
X-1350000Y-20700000D03*
X-2650000Y-20700000D03*
X-2000000Y-22700000D03*
D23*
X-19000000Y8610000D03*
X-19000000Y7590000D03*
X-1100000Y-18390000D03*
X-1100000Y-19410000D03*
X-21700000Y-19100000D03*
X-21700000Y-20120000D03*
X-1300000Y19610000D03*
X-1300000Y18590000D03*
D25*
X17100000Y18390000D03*
X17100000Y19410000D03*
D31*
X17990000Y-15900000D03*
X19010000Y-15900000D03*
D29*
X-19900000Y-10680000D03*
X-19900000Y-9720000D03*
D23*
X5900000Y-18390000D03*
X5900000Y-19410000D03*
D28*
X-22800000Y10700000D03*
D23*
X22900000Y-18390000D03*
X22900000Y-19410000D03*
D28*
X-20300000Y-21600000D03*
D45*
X5790000Y6800000D03*
X3500000Y6800000D03*
X1210000Y6800000D03*
D35*
X6880000Y15900000D03*
X5920000Y15900000D03*
D28*
X-22800000Y-9700000D03*
D43*
X-12190000Y-1000000D03*
X-13210000Y-1000000D03*
D28*
X-9200000Y11700000D03*
D27*
X-18400000Y14680000D03*
X-18400000Y13720000D03*
D25*
X1100000Y18390000D03*
X1100000Y19410000D03*
D45*
X-6790000Y-6800000D03*
X-4500000Y-6800000D03*
X-2210000Y-6800000D03*
D47*
X-21325000Y-17350000D03*
X-22075000Y-17350000D03*
D48*
X-21700000Y-17800000D03*
D49*
X-21700000Y-18250000D03*
D46*
X10562500Y19175000D03*
X10562500Y18525000D03*
X10562500Y17875000D03*
X10562500Y17225000D03*
X12837500Y17225000D03*
X12837500Y17875000D03*
X12837500Y18525000D03*
X12837500Y19175000D03*
D25*
X-24500000Y19090000D03*
X-24500000Y20110000D03*
D28*
X-9200000Y-11700000D03*
D23*
X-13000000Y8610000D03*
X-13000000Y7590000D03*
D25*
X22700000Y16790000D03*
X22700000Y17810000D03*
D29*
X22900000Y-16880000D03*
X22900000Y-15920000D03*
D22*
X-24680000Y6000000D03*
X-23720000Y6000000D03*
D27*
X8100000Y16880000D03*
X8100000Y15920000D03*
X-10200000Y8580000D03*
X-10200000Y7620000D03*
D43*
X-12190000Y0D03*
X-13210000Y0D03*
D28*
X-9200000Y-10700000D03*
D46*
X2562500Y19175000D03*
X2562500Y18525000D03*
X2562500Y17875000D03*
X2562500Y17225000D03*
X4837500Y17225000D03*
X4837500Y17875000D03*
X4837500Y18525000D03*
X4837500Y19175000D03*
D25*
X100000Y18390000D03*
X100000Y19410000D03*
D43*
X-3090000Y-15900000D03*
X-4110000Y-15900000D03*
D22*
X-15780000Y11900000D03*
X-14820000Y11900000D03*
D30*
X20150000Y-22700000D03*
X20150000Y-21700000D03*
X18850000Y-22200000D03*
D25*
X-23100000Y15290000D03*
X-23100000Y16310000D03*
D37*
X-3562500Y-19175000D03*
X-3562500Y-18525000D03*
X-3562500Y-17875000D03*
X-3562500Y-17225000D03*
X-5837500Y-17225000D03*
X-5837500Y-17875000D03*
X-5837500Y-18525000D03*
X-5837500Y-19175000D03*
D23*
X-7700000Y-16790000D03*
X-7700000Y-17810000D03*
D45*
X13790000Y6800000D03*
X11500000Y6800000D03*
X9210000Y6800000D03*
D23*
X-13000000Y10710000D03*
X-13000000Y9690000D03*
D24*
X6650000Y-20700000D03*
X5350000Y-20700000D03*
X6000000Y-22700000D03*
D23*
X6900000Y-18390000D03*
X6900000Y-19410000D03*
D29*
X-10200000Y-8580000D03*
X-10200000Y-7620000D03*
D23*
X-23100000Y14410000D03*
X-23100000Y13390000D03*
D27*
X-21800000Y10680000D03*
X-21800000Y9720000D03*
D29*
X14900000Y-16880000D03*
X14900000Y-15920000D03*
D23*
X13900000Y-18390000D03*
X13900000Y-19410000D03*
D35*
X14880000Y15900000D03*
X13920000Y15900000D03*
D25*
X-6900000Y18390000D03*
X-6900000Y19410000D03*
D22*
X-5080000Y-20500000D03*
X-4120000Y-20500000D03*
D24*
X13350000Y20700000D03*
X14650000Y20700000D03*
X14000000Y22700000D03*
D27*
X-7900000Y16880000D03*
X-7900000Y15920000D03*
D47*
X-24125000Y-17350000D03*
X-24875000Y-17350000D03*
D48*
X-24500000Y-17800000D03*
D49*
X-24500000Y-18250000D03*
D23*
X-20300000Y-19090000D03*
X-20300000Y-20110000D03*
D25*
X-19000000Y-8610000D03*
X-19000000Y-7590000D03*
D26*
X13225000Y4800000D03*
X11575000Y4800000D03*
D38*
X-24875000Y17350000D03*
X-24125000Y17350000D03*
D39*
X-24500000Y18250000D03*
D40*
X-24500000Y17800000D03*
D25*
X-20900000Y-10710000D03*
X-20900000Y-9690000D03*
D35*
X20080000Y20500000D03*
X19120000Y20500000D03*
D27*
X100000Y16880000D03*
X100000Y15920000D03*
D29*
X-12100000Y-8580000D03*
X-12100000Y-7620000D03*
D28*
X-24500000Y21600000D03*
D24*
X8350000Y20700000D03*
X9650000Y20700000D03*
X9000000Y22700000D03*
D23*
X-20900000Y8610000D03*
X-20900000Y7590000D03*
D35*
X12080000Y20500000D03*
X11120000Y20500000D03*
D43*
X13010000Y15900000D03*
X11990000Y15900000D03*
D27*
X-14600000Y14680000D03*
X-14600000Y13720000D03*
D23*
X1100000Y16910000D03*
X1100000Y15890000D03*
D28*
X-21700000Y-21600000D03*
D35*
X-16220000Y-11900000D03*
X-17180000Y-11900000D03*
D28*
X-22800000Y11700000D03*
D25*
X-7700000Y-19610000D03*
X-7700000Y-18590000D03*
D23*
X9100000Y16910000D03*
X9100000Y15890000D03*
D30*
X-3850000Y-22700000D03*
X-3850000Y-21700000D03*
X-5150000Y-22200000D03*
D23*
X-11100000Y8610000D03*
X-11100000Y7590000D03*
D36*
X1775000Y-4800000D03*
X3425000Y-4800000D03*
D31*
X10090000Y15900000D03*
X11110000Y15900000D03*
D36*
X17775000Y-4800000D03*
X19425000Y-4800000D03*
D24*
X16350000Y20700000D03*
X17650000Y20700000D03*
X17000000Y22700000D03*
D45*
X17210000Y-6800000D03*
X19500000Y-6800000D03*
X21790000Y-6800000D03*
D35*
X-25520000Y6000000D03*
X-26480000Y6000000D03*
D25*
X-20300000Y15290000D03*
X-20300000Y16310000D03*
D50*
X-17437500Y14850000D03*
X-17437500Y14200000D03*
X-17437500Y13550000D03*
X-15562500Y13550000D03*
X-15562500Y14200000D03*
X-15562500Y14850000D03*
D51*
X-16500000Y14200000D03*
D25*
X-24500000Y-14410000D03*
X-24500000Y-13390000D03*
D30*
X10850000Y22700000D03*
X10850000Y21700000D03*
X12150000Y22200000D03*
D52*
X-16600000Y4125000D03*
X-17600000Y4125000D03*
X-18600000Y4125000D03*
X-19600000Y4125000D03*
X-20600000Y4125000D03*
X-21600000Y4125000D03*
X-22600000Y4125000D03*
X-23600000Y4125000D03*
X-24600000Y4125000D03*
X-25600000Y4125000D03*
D53*
X-25525000Y2000000D03*
X-25525000Y1000000D03*
X-25525000Y0D03*
X-25525000Y-1000000D03*
X-25525000Y-2000000D03*
D52*
X-25600000Y-4125000D03*
X-24600000Y-4125000D03*
X-23600000Y-4125000D03*
X-22600000Y-4125000D03*
X-21600000Y-4125000D03*
X-20600000Y-4125000D03*
X-19600000Y-4125000D03*
X-18600000Y-4125000D03*
X-17600000Y-4125000D03*
X-16600000Y-4125000D03*
D53*
X-16675000Y-2000000D03*
X-16675000Y-1000000D03*
X-16675000Y0D03*
X-16675000Y1000000D03*
X-16675000Y2000000D03*
D54*
X-18050000Y2750000D03*
X-19150000Y2750000D03*
X-20250000Y2750000D03*
X-21350000Y2750000D03*
X-22450000Y2750000D03*
X-23550000Y2750000D03*
X-23550000Y-2750000D03*
X-22450000Y-2750000D03*
X-21350000Y-2750000D03*
X-20250000Y-2750000D03*
X-19150000Y-2750000D03*
X-18050000Y-2750000D03*
X-18050000Y-1650000D03*
X-18050000Y-550000D03*
X-18050000Y550000D03*
X-18050000Y1650000D03*
X-15450000Y-4000000D03*
X-15450000Y-3000000D03*
X-15450000Y-2000000D03*
X-15450000Y-1000000D03*
X-15450000Y0D03*
X-15450000Y1000000D03*
X-15450000Y2000000D03*
X-15450000Y3000000D03*
X-15450000Y4000000D03*
X-26600000Y4350000D03*
X-29150000Y-4350000D03*
X-26600000Y-4350000D03*
X-29150000Y4350000D03*
X-21675000Y-575000D03*
X-19375000Y-575000D03*
X-22825000Y575000D03*
X-20525000Y-575000D03*
X-21675000Y575000D03*
X-22825000Y-1725000D03*
X-19375000Y575000D03*
X-20525000Y-1725000D03*
X-22825000Y1725000D03*
X-20525000Y1725000D03*
X-20525000Y575000D03*
X-22825000Y-575000D03*
D32*
X-12000000Y4000000D03*
D34*
X-12000000Y5700000D03*
D33*
X-12000000Y2300000D03*
D23*
X14700000Y19610000D03*
X14700000Y18590000D03*
D24*
X9650000Y-20700000D03*
X8350000Y-20700000D03*
X9000000Y-22700000D03*
D25*
X-21700000Y15290000D03*
X-21700000Y16310000D03*
D27*
X-21800000Y8580000D03*
X-21800000Y7620000D03*
D23*
X-21700000Y14410000D03*
X-21700000Y13390000D03*
D28*
X-20200000Y6300000D03*
D25*
X-20300000Y-14410000D03*
X-20300000Y-13390000D03*
D29*
X-12100000Y-10680000D03*
X-12100000Y-9720000D03*
D28*
X-9200000Y-9700000D03*
D45*
X-2210000Y6800000D03*
X-4500000Y6800000D03*
X-6790000Y6800000D03*
D23*
X6700000Y19610000D03*
X6700000Y18590000D03*
D25*
X6700000Y16790000D03*
X6700000Y17810000D03*
D45*
X21790000Y6800000D03*
X19500000Y6800000D03*
X17210000Y6800000D03*
D25*
X-20300000Y19090000D03*
X-20300000Y20110000D03*
D37*
X12437500Y-19175000D03*
X12437500Y-18525000D03*
X12437500Y-17875000D03*
X12437500Y-17225000D03*
X10162500Y-17225000D03*
X10162500Y-17875000D03*
X10162500Y-18525000D03*
X10162500Y-19175000D03*
D24*
X-7650000Y20700000D03*
X-6350000Y20700000D03*
X-7000000Y22700000D03*
D35*
X-3920000Y20500000D03*
X-4880000Y20500000D03*
D29*
X-21800000Y-8580000D03*
X-21800000Y-7620000D03*
D43*
X-2990000Y15900000D03*
X-4010000Y15900000D03*
D23*
X-20300000Y-15290000D03*
X-20300000Y-16310000D03*
D45*
X9210000Y-6800000D03*
X11500000Y-6800000D03*
X13790000Y-6800000D03*
D47*
X-22725000Y-17350000D03*
X-23475000Y-17350000D03*
D48*
X-23100000Y-17800000D03*
D49*
X-23100000Y-18250000D03*
D44*
X-11430000Y18930000D03*
X26430000Y-18930000D03*
M02*
