M48
; DRILL file {KiCad (6.0.11)} date Sun Feb 18 11:49:11 2024
; FORMAT={-:-/ absolute / metric / decimal}
; #@! TF.CreationDate,2024-02-18T11:49:11+01:00
; #@! TF.GenerationSoftware,Kicad,Pcbnew,(6.0.11)
; #@! TF.FileFunction,Plated,1,2,PTH
FMAT,2
METRIC
; #@! TA.AperFunction,Plated,PTH,ViaDrill
T1C0.300
; #@! TA.AperFunction,Plated,PTH,ComponentDrill
T2C0.500
; #@! TA.AperFunction,Plated,PTH,ComponentDrill
T3C1.000
%
G90
G05
T1
X-26.48Y6.5
X-26.48Y5.5
X-25.5Y12.2
X-25.5Y-2.8
X-25.1Y6.0
X-25.1Y-7.05
X-25.0Y22.8
X-24.7Y2.0
X-24.5Y20.6
X-24.5Y16.8
X-24.5Y-16.8
X-24.5Y-20.6
X-23.8Y-22.8
X-23.72Y6.5
X-23.72Y5.5
X-23.6Y22.8
X-23.6Y1.7
X-23.6Y-1.7
X-23.1Y20.6
X-23.1Y16.8
X-23.1Y-5.0
X-23.1Y-16.8
X-23.1Y-20.61
X-23.05Y-6.05
X-22.5Y-6.65
X-22.4Y-22.8
X-22.2Y22.8
X-21.7Y20.6
X-21.7Y16.8
X-21.7Y-16.8
X-21.7Y-20.61
X-21.1Y-5.0
X-21.0Y-22.8
X-20.8Y22.8
X-20.7Y6.6
X-20.4Y9.69
X-20.4Y7.6
X-20.4Y-7.6
X-20.4Y-9.7
X-20.4Y-12.0
X-20.3Y20.6
X-20.3Y16.8
X-20.3Y-16.8
X-20.3Y-20.6
X-19.7Y11.6
X-19.6Y-22.8
X-19.4Y22.8
X-19.4Y1.7
X-19.4Y-1.7
X-19.1Y12.5
X-19.1Y3.25
X-18.85Y16.0
X-18.8Y-5.9
X-18.6Y-4.9
X-18.5Y13.2
X-18.2Y11.25
X-18.2Y10.55
X-18.2Y9.85
X-18.2Y9.15
X-18.2Y8.45
X-18.2Y-8.45
X-18.2Y-9.15
X-18.2Y-9.85
X-18.2Y-10.55
X-18.2Y-22.8
X-17.7Y-11.9
X-17.6Y7.0
X-17.4Y-1.1
X-17.2Y5.8
X-17.2Y-3.0
X-16.85Y-15.45
X-16.7Y2.9
X-16.6Y-5.95
X-16.25Y16.05
X-16.22Y-12.4
X-15.45Y-4.6
X-15.2Y5.8
X-15.161Y6.461
X-14.7Y-6.6
X-14.691Y5.291
X-13.9Y-3.8
X-13.8Y10.55
X-13.8Y9.85
X-13.8Y9.15
X-13.8Y8.45
X-13.8Y-8.45
X-13.8Y-9.15
X-13.8Y-9.85
X-13.8Y-10.55
X-13.8Y-11.25
X-13.75Y-17.65
X-13.6Y17.9
X-13.15Y11.75
X-13.0Y-5.7
X-12.85Y3.35
X-12.85Y-3.35
X-12.6Y13.45
X-11.8Y12.5
X-11.6Y9.7
X-11.6Y7.6
X-11.6Y-7.59
X-11.6Y-9.7
X-11.2Y-12.7
X-10.7Y6.7
X-10.7Y1.5
X-10.7Y-1.3
X-10.2Y-6.6
X-9.8Y-0.3
X-9.8Y-15.3
X-9.75Y16.05
X-9.0Y6.7
X-7.7Y22.7
X-7.7Y6.8
X-7.7Y-22.7
X-7.4Y18.39
X-7.4Y15.92
X-6.92Y-15.4
X-6.8Y8.1
X-6.8Y5.5
X-6.8Y-4.4
X-6.8Y-5.2
X-5.5Y-20.5
X-5.3Y20.5
X-4.99Y-15.4
X-4.5Y16.6
X-4.5Y-16.6
X-4.01Y15.4
X-3.7Y-20.5
X-3.5Y20.5
X-2.7Y22.7
X-2.7Y-22.7
X-2.2Y5.2
X-2.2Y4.4
X-2.2Y-5.5
X-2.2Y-8.1
X-2.08Y15.4
X-1.6Y-15.92
X-1.6Y-18.39
X-1.3Y-6.8
X-1.1Y22.7
X-1.1Y-22.7
X0.3Y22.7
X0.3Y6.8
X0.3Y-22.7
X0.6Y18.39
X0.6Y15.92
X1.08Y-15.4
X1.2Y8.1
X1.2Y5.5
X1.2Y-4.4
X1.2Y-5.2
X2.5Y-20.5
X2.7Y20.5
X3.01Y-15.4
X3.5Y16.6
X3.5Y-16.6
X3.99Y15.4
X4.3Y-20.5
X4.5Y20.5
X5.3Y22.7
X5.3Y-22.7
X5.8Y5.2
X5.8Y4.4
X5.8Y-5.5
X5.8Y-8.1
X5.92Y15.4
X6.4Y-15.92
X6.4Y-18.39
X6.7Y-6.8
X6.9Y22.7
X6.9Y-22.7
X8.3Y22.7
X8.3Y6.8
X8.3Y-22.7
X8.6Y18.39
X8.6Y15.92
X9.08Y-15.4
X9.2Y8.1
X9.2Y5.5
X9.2Y-4.4
X9.2Y-5.2
X10.5Y-20.5
X10.7Y20.5
X11.01Y-15.4
X11.5Y16.6
X11.5Y-16.6
X11.99Y15.4
X12.3Y-20.5
X12.5Y20.5
X13.3Y22.7
X13.3Y-22.7
X13.8Y5.2
X13.8Y4.4
X13.8Y-5.5
X13.8Y-8.1
X13.92Y15.4
X14.4Y-15.92
X14.4Y-18.39
X14.7Y-6.8
X14.9Y22.7
X14.9Y-22.7
X16.3Y22.7
X16.3Y6.8
X16.3Y-22.7
X16.6Y18.39
X16.6Y15.92
X17.08Y-15.4
X17.2Y8.1
X17.2Y5.5
X17.2Y-4.4
X17.2Y-5.2
X18.5Y-20.5
X18.7Y20.5
X19.01Y-15.4
X19.5Y16.6
X19.5Y-16.6
X19.99Y15.4
X20.5Y20.5
X21.3Y22.7
X21.3Y-22.7
X21.8Y5.2
X21.8Y4.4
X21.8Y-5.5
X21.8Y-8.1
X21.92Y15.4
X22.4Y-15.89
X22.4Y-18.39
X22.7Y-6.8
X22.9Y22.7
X22.9Y-22.7
T2
X-28.2Y-16.225
X-28.2Y-17.495
X-28.2Y-18.765
X-28.2Y-20.035
X-28.2Y-21.305
X-28.2Y-22.575
T3
X28.0Y10.16
X28.0Y7.62
X28.0Y5.08
X28.0Y2.54
X28.0Y0.0
X28.0Y-2.54
X28.0Y-5.08
X28.0Y-7.62
X28.0Y-10.16
T0
M30
