G04 #@! TF.GenerationSoftware,KiCad,Pcbnew,(6.0.11)*
G04 #@! TF.CreationDate,2024-02-18T11:49:07+01:00*
G04 #@! TF.ProjectId,8-Cell Balancer Charger,382d4365-6c6c-4204-9261-6c616e636572,rev?*
G04 #@! TF.SameCoordinates,Original*
G04 #@! TF.FileFunction,Soldermask,Top*
G04 #@! TF.FilePolarity,Negative*
%FSLAX46Y46*%
G04 Gerber Fmt 4.6, Leading zero omitted, Abs format (unit mm)*
G04 Created by KiCad (PCBNEW (6.0.11)) date 2024-02-18 11:49:07*
%MOMM*%
%LPD*%
G01*
G04 APERTURE LIST*
G04 Aperture macros list*
%AMRoundRect*
0 Rectangle with rounded corners*
0 $1 Rounding radius*
0 $2 $3 $4 $5 $6 $7 $8 $9 X,Y pos of 4 corners*
0 Add a 4 corners polygon primitive as box body*
4,1,4,$2,$3,$4,$5,$6,$7,$8,$9,$2,$3,0*
0 Add four circle primitives for the rounded corners*
1,1,$1+$1,$2,$3*
1,1,$1+$1,$4,$5*
1,1,$1+$1,$6,$7*
1,1,$1+$1,$8,$9*
0 Add four rect primitives between the rounded corners*
20,1,$1+$1,$2,$3,$4,$5,0*
20,1,$1+$1,$4,$5,$6,$7,0*
20,1,$1+$1,$6,$7,$8,$9,0*
20,1,$1+$1,$8,$9,$2,$3,0*%
G04 Aperture macros list end*
%ADD10RoundRect,0.060000X-0.060000X-0.390000X0.060000X-0.390000X0.060000X0.390000X-0.060000X0.390000X0*%
%ADD11RoundRect,0.060000X-0.390000X0.060000X-0.390000X-0.060000X0.390000X-0.060000X0.390000X0.060000X0*%
%ADD12RoundRect,0.060000X0.060000X0.390000X-0.060000X0.390000X-0.060000X-0.390000X0.060000X-0.390000X0*%
%ADD13RoundRect,0.060000X0.390000X-0.060000X0.390000X0.060000X-0.390000X0.060000X-0.390000X-0.060000X0*%
%ADD14R,0.900000X1.900000*%
%ADD15R,1.700000X1.700000*%
%ADD16O,1.700000X1.700000*%
%ADD17RoundRect,0.080000X-0.080000X0.080000X-0.080000X-0.080000X0.080000X-0.080000X0.080000X0.080000X0*%
%ADD18RoundRect,0.140000X-0.140000X-0.170000X0.140000X-0.170000X0.140000X0.170000X-0.140000X0.170000X0*%
%ADD19RoundRect,0.135000X-0.185000X0.135000X-0.185000X-0.135000X0.185000X-0.135000X0.185000X0.135000X0*%
%ADD20R,0.450000X0.700000*%
%ADD21RoundRect,0.135000X0.185000X-0.135000X0.185000X0.135000X-0.185000X0.135000X-0.185000X-0.135000X0*%
%ADD22RoundRect,0.200000X0.200000X0.275000X-0.200000X0.275000X-0.200000X-0.275000X0.200000X-0.275000X0*%
%ADD23RoundRect,0.140000X-0.170000X0.140000X-0.170000X-0.140000X0.170000X-0.140000X0.170000X0.140000X0*%
%ADD24C,0.800000*%
%ADD25RoundRect,0.140000X0.170000X-0.140000X0.170000X0.140000X-0.170000X0.140000X-0.170000X-0.140000X0*%
%ADD26R,0.600000X0.500000*%
%ADD27RoundRect,0.135000X-0.135000X-0.185000X0.135000X-0.185000X0.135000X0.185000X-0.135000X0.185000X0*%
%ADD28C,0.750000*%
%ADD29RoundRect,0.200000X0.650000X-0.200000X0.650000X0.200000X-0.650000X0.200000X-0.650000X-0.200000X0*%
%ADD30RoundRect,0.200000X-0.650000X0.200000X-0.650000X-0.200000X0.650000X-0.200000X0.650000X0.200000X0*%
%ADD31RoundRect,0.140000X0.140000X0.170000X-0.140000X0.170000X-0.140000X-0.170000X0.140000X-0.170000X0*%
%ADD32RoundRect,0.200000X-0.200000X-0.275000X0.200000X-0.275000X0.200000X0.275000X-0.200000X0.275000X0*%
%ADD33RoundRect,0.125000X0.537500X0.125000X-0.537500X0.125000X-0.537500X-0.125000X0.537500X-0.125000X0*%
%ADD34RoundRect,0.087500X0.087500X0.112500X-0.087500X0.112500X-0.087500X-0.112500X0.087500X-0.112500X0*%
%ADD35RoundRect,0.100000X0.100000X0.100000X-0.100000X0.100000X-0.100000X-0.100000X0.100000X-0.100000X0*%
%ADD36RoundRect,0.050000X0.400000X0.050000X-0.400000X0.050000X-0.400000X-0.050000X0.400000X-0.050000X0*%
%ADD37R,1.500000X0.910000*%
%ADD38O,1.500000X0.910000*%
%ADD39RoundRect,0.135000X0.135000X0.185000X-0.135000X0.185000X-0.135000X-0.185000X0.135000X-0.185000X0*%
%ADD40C,3.180000*%
%ADD41R,1.200000X2.000000*%
%ADD42RoundRect,0.125000X-0.537500X-0.125000X0.537500X-0.125000X0.537500X0.125000X-0.537500X0.125000X0*%
%ADD43RoundRect,0.087500X-0.087500X-0.112500X0.087500X-0.112500X0.087500X0.112500X-0.087500X0.112500X0*%
%ADD44RoundRect,0.050000X-0.400000X-0.050000X0.400000X-0.050000X0.400000X0.050000X-0.400000X0.050000X0*%
%ADD45RoundRect,0.100000X-0.100000X-0.100000X0.100000X-0.100000X0.100000X0.100000X-0.100000X0.100000X0*%
%ADD46R,0.525000X0.350000*%
%ADD47R,1.010000X1.700000*%
%ADD48RoundRect,0.175000X-0.175000X0.400000X-0.175000X-0.400000X0.175000X-0.400000X0.175000X0.400000X0*%
%ADD49RoundRect,0.175000X-0.400000X-0.175000X0.400000X-0.175000X0.400000X0.175000X-0.400000X0.175000X0*%
%ADD50RoundRect,0.175000X-0.175000X0.175000X-0.175000X-0.175000X0.175000X-0.175000X0.175000X0.175000X0*%
G04 APERTURE END LIST*
D10*
X-16250000Y10800000D03*
D11*
X-17300000Y10250000D03*
X-17300000Y9750000D03*
X-17300000Y9250000D03*
X-17300000Y8750000D03*
X-17300000Y8250000D03*
X-17300000Y7750000D03*
D12*
X-16250000Y7200000D03*
X-15750000Y7200000D03*
D13*
X-14700000Y7750000D03*
X-14700000Y8250000D03*
X-14700000Y8750000D03*
X-14700000Y9250000D03*
X-14700000Y9750000D03*
X-14700000Y10250000D03*
D10*
X-15750000Y10800000D03*
D14*
X-16000000Y9000000D03*
D12*
X-15750000Y-10800000D03*
D13*
X-14700000Y-10250000D03*
X-14700000Y-9750000D03*
X-14700000Y-9250000D03*
X-14700000Y-8750000D03*
X-14700000Y-8250000D03*
X-14700000Y-7750000D03*
D10*
X-15750000Y-7200000D03*
X-16250000Y-7200000D03*
D11*
X-17300000Y-7750000D03*
X-17300000Y-8250000D03*
X-17300000Y-8750000D03*
X-17300000Y-9250000D03*
X-17300000Y-9750000D03*
X-17300000Y-10250000D03*
D12*
X-16250000Y-10800000D03*
D14*
X-16000000Y-9000000D03*
D15*
X28000000Y-10160000D03*
D16*
X28000000Y-7620000D03*
X28000000Y-5080000D03*
X28000000Y-2540000D03*
X28000000Y0D03*
X28000000Y2540000D03*
X28000000Y5080000D03*
X28000000Y7620000D03*
X28000000Y10160000D03*
D17*
X-10570000Y330000D03*
X-11230000Y330000D03*
X-11230000Y-330000D03*
X-10570000Y-330000D03*
D18*
X16120000Y-15900000D03*
X17080000Y-15900000D03*
X18920000Y-20500000D03*
X19880000Y-20500000D03*
D19*
X-11100000Y10710000D03*
X-11100000Y9690000D03*
D20*
X-2650000Y20700000D03*
X-1350000Y20700000D03*
X-2000000Y22700000D03*
D21*
X-13000000Y-8610000D03*
X-13000000Y-7590000D03*
D22*
X21225000Y4800000D03*
X19575000Y4800000D03*
D21*
X-13000000Y-10710000D03*
X-13000000Y-9690000D03*
D20*
X14650000Y-20700000D03*
X13350000Y-20700000D03*
X14000000Y-22700000D03*
D23*
X-9800000Y-4520000D03*
X-9800000Y-5480000D03*
D21*
X9100000Y18390000D03*
X9100000Y19410000D03*
D19*
X-20300000Y14410000D03*
X-20300000Y13390000D03*
D22*
X5225000Y4800000D03*
X3575000Y4800000D03*
D24*
X-9200000Y10700000D03*
D21*
X-11100000Y-8610000D03*
X-11100000Y-7590000D03*
D19*
X-24500000Y-15290000D03*
X-24500000Y-16310000D03*
D24*
X-19000000Y6300000D03*
D25*
X-19900000Y-8580000D03*
X-19900000Y-7620000D03*
D18*
X8120000Y-15900000D03*
X9080000Y-15900000D03*
D21*
X16100000Y18390000D03*
X16100000Y19410000D03*
D20*
X-6350000Y-20700000D03*
X-7650000Y-20700000D03*
X-7000000Y-22700000D03*
D19*
X-19000000Y10710000D03*
X-19000000Y9690000D03*
D26*
X4150000Y-22700000D03*
X4150000Y-21700000D03*
X2850000Y-22200000D03*
D27*
X-5910000Y15900000D03*
X-4890000Y15900000D03*
D20*
X17650000Y-20700000D03*
X16350000Y-20700000D03*
X17000000Y-22700000D03*
D21*
X-23100000Y-14410000D03*
X-23100000Y-13390000D03*
D19*
X21900000Y-18390000D03*
X21900000Y-19410000D03*
D28*
X-12000000Y-4000000D03*
D29*
X-12000000Y-5700000D03*
D30*
X-12000000Y-2300000D03*
D21*
X-23100000Y19090000D03*
X-23100000Y20110000D03*
D31*
X-1120000Y15900000D03*
X-2080000Y15900000D03*
D23*
X-12100000Y10680000D03*
X-12100000Y9720000D03*
D24*
X-22800000Y8700000D03*
X-22800000Y-11700000D03*
D23*
X16100000Y16880000D03*
X16100000Y15920000D03*
D19*
X22700000Y19610000D03*
X22700000Y18590000D03*
D21*
X-21700000Y19090000D03*
X-21700000Y20110000D03*
D32*
X9775000Y-4800000D03*
X11425000Y-4800000D03*
D21*
X8300000Y-19610000D03*
X8300000Y-18590000D03*
X13900000Y-16910000D03*
X13900000Y-15890000D03*
D19*
X-23100000Y-15290000D03*
X-23100000Y-16310000D03*
D25*
X-9800000Y4520000D03*
X-9800000Y5480000D03*
D32*
X-6225000Y-4800000D03*
X-4575000Y-4800000D03*
D25*
X-10200000Y-10680000D03*
X-10200000Y-9720000D03*
X6900000Y-16880000D03*
X6900000Y-15920000D03*
D33*
X20437500Y-19175000D03*
X20437500Y-18525000D03*
X20437500Y-17875000D03*
X20437500Y-17225000D03*
X18162500Y-17225000D03*
X18162500Y-17875000D03*
X18162500Y-18525000D03*
X18162500Y-19175000D03*
D23*
X-12100000Y8580000D03*
X-12100000Y7620000D03*
D25*
X-1100000Y-16880000D03*
X-1100000Y-15920000D03*
D21*
X-7900000Y18390000D03*
X-7900000Y19410000D03*
D33*
X4437500Y-19175000D03*
X4437500Y-18525000D03*
X4437500Y-17875000D03*
X4437500Y-17225000D03*
X2162500Y-17225000D03*
X2162500Y-17875000D03*
X2162500Y-18525000D03*
X2162500Y-19175000D03*
D24*
X-22800000Y9700000D03*
D34*
X-20675000Y17350000D03*
X-19925000Y17350000D03*
D35*
X-20300000Y18250000D03*
D36*
X-20300000Y17800000D03*
D27*
X-6010000Y-15900000D03*
X-4990000Y-15900000D03*
D37*
X-28200000Y-16225000D03*
D38*
X-28200000Y-17495000D03*
X-28200000Y-18765000D03*
X-28200000Y-20035000D03*
X-28200000Y-21305000D03*
X-28200000Y-22575000D03*
D21*
X-2100000Y-16910000D03*
X-2100000Y-15890000D03*
D24*
X-9200000Y8700000D03*
D21*
X-1300000Y16790000D03*
X-1300000Y17810000D03*
D18*
X-7880000Y-15900000D03*
X-6920000Y-15900000D03*
D19*
X-6900000Y16910000D03*
X-6900000Y15890000D03*
D39*
X5010000Y15900000D03*
X3990000Y15900000D03*
D18*
X10920000Y-20500000D03*
X11880000Y-20500000D03*
D19*
X300000Y-16790000D03*
X300000Y-17810000D03*
D23*
X-10200000Y10680000D03*
X-10200000Y9720000D03*
D20*
X1650000Y-20700000D03*
X350000Y-20700000D03*
X1000000Y-22700000D03*
D40*
X26430000Y18930000D03*
X-11430000Y-18930000D03*
D21*
X-19000000Y-10710000D03*
X-19000000Y-9690000D03*
D20*
X5350000Y20700000D03*
X6650000Y20700000D03*
X6000000Y22700000D03*
D19*
X-2100000Y-18390000D03*
X-2100000Y-19410000D03*
D21*
X-24500000Y15290000D03*
X-24500000Y16310000D03*
D19*
X14900000Y-18390000D03*
X14900000Y-19410000D03*
D27*
X18090000Y15900000D03*
X19110000Y15900000D03*
D21*
X-21700000Y-14410000D03*
X-21700000Y-13390000D03*
D24*
X-22800000Y-8700000D03*
X-22800000Y-10700000D03*
D21*
X8100000Y18390000D03*
X8100000Y19410000D03*
X14700000Y16790000D03*
X14700000Y17810000D03*
D24*
X-9200000Y-8700000D03*
D21*
X16300000Y-19610000D03*
X16300000Y-18590000D03*
X-11100000Y-10710000D03*
X-11100000Y-9690000D03*
D19*
X-24500000Y-19090000D03*
X-24500000Y-20110000D03*
D41*
X1210000Y-6800000D03*
X3500000Y-6800000D03*
X5790000Y-6800000D03*
D42*
X18562500Y19175000D03*
X18562500Y18525000D03*
X18562500Y17875000D03*
X18562500Y17225000D03*
X20837500Y17225000D03*
X20837500Y17875000D03*
X20837500Y18525000D03*
X20837500Y19175000D03*
D39*
X4910000Y-15900000D03*
X3890000Y-15900000D03*
D20*
X22650000Y-20700000D03*
X21350000Y-20700000D03*
X22000000Y-22700000D03*
D19*
X8300000Y-16790000D03*
X8300000Y-17810000D03*
D26*
X12150000Y-22700000D03*
X12150000Y-21700000D03*
X10850000Y-22200000D03*
D39*
X21010000Y15900000D03*
X19990000Y15900000D03*
D21*
X300000Y-19610000D03*
X300000Y-18590000D03*
D23*
X-19900000Y8580000D03*
X-19900000Y7620000D03*
D19*
X-21700000Y-15290000D03*
X-21700000Y-16310000D03*
X-9800000Y-2490000D03*
X-9800000Y-3510000D03*
D43*
X-19925000Y-17350000D03*
X-20675000Y-17350000D03*
D44*
X-20300000Y-17800000D03*
D45*
X-20300000Y-18250000D03*
D24*
X-24500000Y-21600000D03*
X-23100000Y21600000D03*
D22*
X-2775000Y4800000D03*
X-4425000Y4800000D03*
D19*
X16300000Y-16790000D03*
X16300000Y-17810000D03*
D39*
X20910000Y-15900000D03*
X19890000Y-15900000D03*
D20*
X350000Y20700000D03*
X1650000Y20700000D03*
X1000000Y22700000D03*
D25*
X-21800000Y-10680000D03*
X-21800000Y-9720000D03*
D21*
X5900000Y-16910000D03*
X5900000Y-15890000D03*
D24*
X-21700000Y21600000D03*
X-9200000Y9700000D03*
D18*
X120000Y-15900000D03*
X1080000Y-15900000D03*
D39*
X-12190000Y1000000D03*
X-13210000Y1000000D03*
D24*
X-20300000Y21600000D03*
D31*
X22880000Y15900000D03*
X21920000Y15900000D03*
D34*
X-23475000Y17350000D03*
X-22725000Y17350000D03*
D36*
X-23100000Y17800000D03*
D35*
X-23100000Y18250000D03*
D19*
X-23100000Y-19100000D03*
X-23100000Y-20120000D03*
D34*
X-22075000Y17350000D03*
X-21325000Y17350000D03*
D36*
X-21700000Y17800000D03*
D35*
X-21700000Y18250000D03*
D19*
X-24500000Y14410000D03*
X-24500000Y13390000D03*
D23*
X-19900000Y10680000D03*
X-19900000Y9720000D03*
D26*
X2850000Y22700000D03*
X2850000Y21700000D03*
X4150000Y22200000D03*
D19*
X17100000Y16910000D03*
X17100000Y15890000D03*
D27*
X1990000Y-15900000D03*
X3010000Y-15900000D03*
D26*
X-5150000Y22700000D03*
X-5150000Y21700000D03*
X-3850000Y22200000D03*
D20*
X21350000Y20700000D03*
X22650000Y20700000D03*
X22000000Y22700000D03*
D42*
X-5437500Y19175000D03*
X-5437500Y18525000D03*
X-5437500Y17875000D03*
X-5437500Y17225000D03*
X-3162500Y17225000D03*
X-3162500Y17875000D03*
X-3162500Y18525000D03*
X-3162500Y19175000D03*
D18*
X2920000Y-20500000D03*
X3880000Y-20500000D03*
D26*
X18850000Y22700000D03*
X18850000Y21700000D03*
X20150000Y22200000D03*
D39*
X12910000Y-15900000D03*
X11890000Y-15900000D03*
D24*
X-23100000Y-21600000D03*
D21*
X-20900000Y-8610000D03*
X-20900000Y-7590000D03*
X-9800000Y2490000D03*
X-9800000Y3510000D03*
D19*
X-20900000Y10710000D03*
X-20900000Y9690000D03*
D21*
X21900000Y-16910000D03*
X21900000Y-15890000D03*
D27*
X9990000Y-15900000D03*
X11010000Y-15900000D03*
X2090000Y15900000D03*
X3110000Y15900000D03*
D31*
X4080000Y20500000D03*
X3120000Y20500000D03*
D20*
X-1350000Y-20700000D03*
X-2650000Y-20700000D03*
X-2000000Y-22700000D03*
D19*
X-19000000Y8610000D03*
X-19000000Y7590000D03*
X-1100000Y-18390000D03*
X-1100000Y-19410000D03*
X-21700000Y-19100000D03*
X-21700000Y-20120000D03*
X-1300000Y19610000D03*
X-1300000Y18590000D03*
D21*
X17100000Y18390000D03*
X17100000Y19410000D03*
D27*
X17990000Y-15900000D03*
X19010000Y-15900000D03*
D25*
X-19900000Y-10680000D03*
X-19900000Y-9720000D03*
D19*
X5900000Y-18390000D03*
X5900000Y-19410000D03*
D24*
X-22800000Y10700000D03*
D19*
X22900000Y-18390000D03*
X22900000Y-19410000D03*
D24*
X-20300000Y-21600000D03*
D41*
X5790000Y6800000D03*
X3500000Y6800000D03*
X1210000Y6800000D03*
D31*
X6880000Y15900000D03*
X5920000Y15900000D03*
D24*
X-22800000Y-9700000D03*
D39*
X-12190000Y-1000000D03*
X-13210000Y-1000000D03*
D24*
X-9200000Y11700000D03*
D23*
X-18400000Y14680000D03*
X-18400000Y13720000D03*
D21*
X1100000Y18390000D03*
X1100000Y19410000D03*
D41*
X-6790000Y-6800000D03*
X-4500000Y-6800000D03*
X-2210000Y-6800000D03*
D43*
X-21325000Y-17350000D03*
X-22075000Y-17350000D03*
D44*
X-21700000Y-17800000D03*
D45*
X-21700000Y-18250000D03*
D42*
X10562500Y19175000D03*
X10562500Y18525000D03*
X10562500Y17875000D03*
X10562500Y17225000D03*
X12837500Y17225000D03*
X12837500Y17875000D03*
X12837500Y18525000D03*
X12837500Y19175000D03*
D21*
X-24500000Y19090000D03*
X-24500000Y20110000D03*
D24*
X-9200000Y-11700000D03*
D19*
X-13000000Y8610000D03*
X-13000000Y7590000D03*
D21*
X22700000Y16790000D03*
X22700000Y17810000D03*
D25*
X22900000Y-16880000D03*
X22900000Y-15920000D03*
D18*
X-24680000Y6000000D03*
X-23720000Y6000000D03*
D23*
X8100000Y16880000D03*
X8100000Y15920000D03*
X-10200000Y8580000D03*
X-10200000Y7620000D03*
D39*
X-12190000Y0D03*
X-13210000Y0D03*
D24*
X-9200000Y-10700000D03*
D42*
X2562500Y19175000D03*
X2562500Y18525000D03*
X2562500Y17875000D03*
X2562500Y17225000D03*
X4837500Y17225000D03*
X4837500Y17875000D03*
X4837500Y18525000D03*
X4837500Y19175000D03*
D21*
X100000Y18390000D03*
X100000Y19410000D03*
D39*
X-3090000Y-15900000D03*
X-4110000Y-15900000D03*
D18*
X-15780000Y11900000D03*
X-14820000Y11900000D03*
D26*
X20150000Y-22700000D03*
X20150000Y-21700000D03*
X18850000Y-22200000D03*
D21*
X-23100000Y15290000D03*
X-23100000Y16310000D03*
D33*
X-3562500Y-19175000D03*
X-3562500Y-18525000D03*
X-3562500Y-17875000D03*
X-3562500Y-17225000D03*
X-5837500Y-17225000D03*
X-5837500Y-17875000D03*
X-5837500Y-18525000D03*
X-5837500Y-19175000D03*
D19*
X-7700000Y-16790000D03*
X-7700000Y-17810000D03*
D41*
X13790000Y6800000D03*
X11500000Y6800000D03*
X9210000Y6800000D03*
D19*
X-13000000Y10710000D03*
X-13000000Y9690000D03*
D20*
X6650000Y-20700000D03*
X5350000Y-20700000D03*
X6000000Y-22700000D03*
D19*
X6900000Y-18390000D03*
X6900000Y-19410000D03*
D25*
X-10200000Y-8580000D03*
X-10200000Y-7620000D03*
D19*
X-23100000Y14410000D03*
X-23100000Y13390000D03*
D23*
X-21800000Y10680000D03*
X-21800000Y9720000D03*
D25*
X14900000Y-16880000D03*
X14900000Y-15920000D03*
D19*
X13900000Y-18390000D03*
X13900000Y-19410000D03*
D31*
X14880000Y15900000D03*
X13920000Y15900000D03*
D21*
X-6900000Y18390000D03*
X-6900000Y19410000D03*
D18*
X-5080000Y-20500000D03*
X-4120000Y-20500000D03*
D20*
X13350000Y20700000D03*
X14650000Y20700000D03*
X14000000Y22700000D03*
D23*
X-7900000Y16880000D03*
X-7900000Y15920000D03*
D43*
X-24125000Y-17350000D03*
X-24875000Y-17350000D03*
D44*
X-24500000Y-17800000D03*
D45*
X-24500000Y-18250000D03*
D19*
X-20300000Y-19090000D03*
X-20300000Y-20110000D03*
D21*
X-19000000Y-8610000D03*
X-19000000Y-7590000D03*
D22*
X13225000Y4800000D03*
X11575000Y4800000D03*
D34*
X-24875000Y17350000D03*
X-24125000Y17350000D03*
D35*
X-24500000Y18250000D03*
D36*
X-24500000Y17800000D03*
D21*
X-20900000Y-10710000D03*
X-20900000Y-9690000D03*
D31*
X20080000Y20500000D03*
X19120000Y20500000D03*
D23*
X100000Y16880000D03*
X100000Y15920000D03*
D25*
X-12100000Y-8580000D03*
X-12100000Y-7620000D03*
D24*
X-24500000Y21600000D03*
D20*
X8350000Y20700000D03*
X9650000Y20700000D03*
X9000000Y22700000D03*
D19*
X-20900000Y8610000D03*
X-20900000Y7590000D03*
D31*
X12080000Y20500000D03*
X11120000Y20500000D03*
D39*
X13010000Y15900000D03*
X11990000Y15900000D03*
D23*
X-14600000Y14680000D03*
X-14600000Y13720000D03*
D19*
X1100000Y16910000D03*
X1100000Y15890000D03*
D24*
X-21700000Y-21600000D03*
D31*
X-16220000Y-11900000D03*
X-17180000Y-11900000D03*
D24*
X-22800000Y11700000D03*
D21*
X-7700000Y-19610000D03*
X-7700000Y-18590000D03*
D19*
X9100000Y16910000D03*
X9100000Y15890000D03*
D26*
X-3850000Y-22700000D03*
X-3850000Y-21700000D03*
X-5150000Y-22200000D03*
D19*
X-11100000Y8610000D03*
X-11100000Y7590000D03*
D32*
X1775000Y-4800000D03*
X3425000Y-4800000D03*
D27*
X10090000Y15900000D03*
X11110000Y15900000D03*
D32*
X17775000Y-4800000D03*
X19425000Y-4800000D03*
D20*
X16350000Y20700000D03*
X17650000Y20700000D03*
X17000000Y22700000D03*
D41*
X17210000Y-6800000D03*
X19500000Y-6800000D03*
X21790000Y-6800000D03*
D31*
X-25520000Y6000000D03*
X-26480000Y6000000D03*
D21*
X-20300000Y15290000D03*
X-20300000Y16310000D03*
D46*
X-17437500Y14850000D03*
X-17437500Y14200000D03*
X-17437500Y13550000D03*
X-15562500Y13550000D03*
X-15562500Y14200000D03*
X-15562500Y14850000D03*
D47*
X-16500000Y14200000D03*
D21*
X-24500000Y-14410000D03*
X-24500000Y-13390000D03*
D26*
X10850000Y22700000D03*
X10850000Y21700000D03*
X12150000Y22200000D03*
D48*
X-16600000Y4125000D03*
X-17600000Y4125000D03*
X-18600000Y4125000D03*
X-19600000Y4125000D03*
X-20600000Y4125000D03*
X-21600000Y4125000D03*
X-22600000Y4125000D03*
X-23600000Y4125000D03*
X-24600000Y4125000D03*
X-25600000Y4125000D03*
D49*
X-25525000Y2000000D03*
X-25525000Y1000000D03*
X-25525000Y0D03*
X-25525000Y-1000000D03*
X-25525000Y-2000000D03*
D48*
X-25600000Y-4125000D03*
X-24600000Y-4125000D03*
X-23600000Y-4125000D03*
X-22600000Y-4125000D03*
X-21600000Y-4125000D03*
X-20600000Y-4125000D03*
X-19600000Y-4125000D03*
X-18600000Y-4125000D03*
X-17600000Y-4125000D03*
X-16600000Y-4125000D03*
D49*
X-16675000Y-2000000D03*
X-16675000Y-1000000D03*
X-16675000Y0D03*
X-16675000Y1000000D03*
X-16675000Y2000000D03*
D50*
X-18050000Y2750000D03*
X-19150000Y2750000D03*
X-20250000Y2750000D03*
X-21350000Y2750000D03*
X-22450000Y2750000D03*
X-23550000Y2750000D03*
X-23550000Y-2750000D03*
X-22450000Y-2750000D03*
X-21350000Y-2750000D03*
X-20250000Y-2750000D03*
X-19150000Y-2750000D03*
X-18050000Y-2750000D03*
X-18050000Y-1650000D03*
X-18050000Y-550000D03*
X-18050000Y550000D03*
X-18050000Y1650000D03*
X-15450000Y-4000000D03*
X-15450000Y-3000000D03*
X-15450000Y-2000000D03*
X-15450000Y-1000000D03*
X-15450000Y0D03*
X-15450000Y1000000D03*
X-15450000Y2000000D03*
X-15450000Y3000000D03*
X-15450000Y4000000D03*
X-26600000Y4350000D03*
X-29150000Y-4350000D03*
X-26600000Y-4350000D03*
X-29150000Y4350000D03*
X-21675000Y-575000D03*
X-19375000Y-575000D03*
X-22825000Y575000D03*
X-20525000Y-575000D03*
X-21675000Y575000D03*
X-22825000Y-1725000D03*
X-19375000Y575000D03*
X-20525000Y-1725000D03*
X-22825000Y1725000D03*
X-20525000Y1725000D03*
X-20525000Y575000D03*
X-22825000Y-575000D03*
D28*
X-12000000Y4000000D03*
D30*
X-12000000Y5700000D03*
D29*
X-12000000Y2300000D03*
D19*
X14700000Y19610000D03*
X14700000Y18590000D03*
D20*
X9650000Y-20700000D03*
X8350000Y-20700000D03*
X9000000Y-22700000D03*
D21*
X-21700000Y15290000D03*
X-21700000Y16310000D03*
D23*
X-21800000Y8580000D03*
X-21800000Y7620000D03*
D19*
X-21700000Y14410000D03*
X-21700000Y13390000D03*
D24*
X-20200000Y6300000D03*
D21*
X-20300000Y-14410000D03*
X-20300000Y-13390000D03*
D25*
X-12100000Y-10680000D03*
X-12100000Y-9720000D03*
D24*
X-9200000Y-9700000D03*
D41*
X-2210000Y6800000D03*
X-4500000Y6800000D03*
X-6790000Y6800000D03*
D19*
X6700000Y19610000D03*
X6700000Y18590000D03*
D21*
X6700000Y16790000D03*
X6700000Y17810000D03*
D41*
X21790000Y6800000D03*
X19500000Y6800000D03*
X17210000Y6800000D03*
D21*
X-20300000Y19090000D03*
X-20300000Y20110000D03*
D33*
X12437500Y-19175000D03*
X12437500Y-18525000D03*
X12437500Y-17875000D03*
X12437500Y-17225000D03*
X10162500Y-17225000D03*
X10162500Y-17875000D03*
X10162500Y-18525000D03*
X10162500Y-19175000D03*
D20*
X-7650000Y20700000D03*
X-6350000Y20700000D03*
X-7000000Y22700000D03*
D31*
X-3920000Y20500000D03*
X-4880000Y20500000D03*
D25*
X-21800000Y-8580000D03*
X-21800000Y-7620000D03*
D39*
X-2990000Y15900000D03*
X-4010000Y15900000D03*
D19*
X-20300000Y-15290000D03*
X-20300000Y-16310000D03*
D41*
X9210000Y-6800000D03*
X11500000Y-6800000D03*
X13790000Y-6800000D03*
D43*
X-22725000Y-17350000D03*
X-23475000Y-17350000D03*
D44*
X-23100000Y-17800000D03*
D45*
X-23100000Y-18250000D03*
D40*
X-11430000Y18930000D03*
X26430000Y-18930000D03*
M02*
